<?xml version="1.0" encoding="utf-8"?>
<!-- Generator: Adobe Illustrator 19.1.0, SVG Export Plug-In . SVG Version: 6.00 Build 0)  -->
<svg version="1.1" id="Layer_1" xmlns="http://www.w3.org/2000/svg" xmlns:xlink="http://www.w3.org/1999/xlink" x="0px" y="0px"
	 width="24px" height="24px" viewBox="-59 115 24 24" style="enable-background:new -59 115 24 24;" xml:space="preserve">
<path d="M-46.5,135.5c4.4,0,8-3.6,8-8c0-4.4-3.6-8-8-8s-8,3.6-8,8C-54.5,131.9-50.9,135.5-46.5,135.5 M-46.5,117.5
	c5.5,0,10,4.5,10,10c0,5.5-4.5,10-10,10c-5.5,0-10-4.5-10-10C-56.5,122-52,117.5-46.5,117.5 M-46,122.5v5.2l4.5,2.7l-0.8,1.2
	l-5.2-3.1v-6H-46z"/>
</svg>
