<?xml version="1.0" ?><!DOCTYPE svg  PUBLIC '-//W3C//DTD SVG 1.1//EN'  'http://www.w3.org/Graphics/SVG/1.1/DTD/svg11.dtd'><svg enable-background="new 0 0 90 90" height="90px" id="Layer_1" version="1.1" viewBox="0 0 90 90" width="90px" xml:space="preserve" xmlns="http://www.w3.org/2000/svg" xmlns:xlink="http://www.w3.org/1999/xlink"><circle cx="45" cy="45" fill="#81D4EF" r="45"/><path d="M45,48c6.31-4.21,11.08-3.5,16,0c0,8.84-7.16,16-16,16s-16-7.16-16-16C33.33,51.67,38.5,52.33,45,48z" fill="#81D4EF"/><g><path d="M37,18v8H25v-6c0-1.1,0.9-2,2-2H37z" fill="#FFFFFF"/><path d="M37,27H25c-0.553,0-1-0.448-1-1v-6c0-1.654,1.346-3,3-3h10c0.553,0,1,0.448,1,1v8   C38,26.552,37.553,27,37,27z M26,25h10v-6h-9c-0.552,0-1,0.449-1,1V25z" fill="#FFFFFF"/></g><g><path d="M65,20v6H37v-8h26C64.1,18,65,18.9,65,20z" fill="#FFFFFF"/><path d="M65,27H37c-0.553,0-1-0.448-1-1v-8c0-0.552,0.447-1,1-1h26c1.654,0,3,1.346,3,3v6   C66,26.552,65.553,27,65,27z M38,25h26v-5c0-0.551-0.448-1-1-1H38V25z" fill="#FFFFFF"/></g><path d="M61,48c-4.92-3.5-9.69-4.21-16,0c-6.5,4.33-11.67,3.67-16,0c0-8.84,7.16-16,16-16S61,39.16,61,48z" fill="#59B0D3"/><path d="M65,26v44c0,1.1-0.9,2-2,2H27c-1.1,0-2-0.9-2-2V26h12H65z M61,48c0-8.84-7.16-16-16-16s-16,7.16-16,16  s7.16,16,16,16S61,56.84,61,48z" fill="#E6EFF2"/><g><path d="M53,23c-0.26,0-0.521-0.11-0.71-0.29C52.109,22.52,52,22.26,52,22c0-0.26,0.109-0.52,0.29-0.71   c0.38-0.37,1.05-0.37,1.42,0C53.89,21.48,54,21.74,54,22c0,0.26-0.11,0.52-0.29,0.71C53.52,22.89,53.26,23,53,23z" fill="#232E38"/><path d="M57,23c-0.26,0-0.521-0.11-0.71-0.29C56.109,22.52,56,22.26,56,22c0-0.26,0.109-0.52,0.29-0.71   c0.38-0.37,1.04-0.37,1.42,0C57.89,21.48,58,21.74,58,22c0,0.26-0.11,0.52-0.29,0.71C57.52,22.89,57.26,23,57,23z" fill="#232E38"/><path d="M61,23c-0.26,0-0.521-0.11-0.71-0.29C60.109,22.52,60,22.26,60,22c0-0.26,0.109-0.52,0.29-0.71   c0.37-0.37,1.05-0.37,1.42,0C61.89,21.48,62,21.74,62,22c0,0.26-0.11,0.52-0.29,0.71C61.52,22.89,61.26,23,61,23z" fill="#232E38"/></g><g><path d="M36,57c-0.271,0-0.521-0.11-0.71-0.29C35.109,56.52,35,56.26,35,56c0-0.26,0.109-0.52,0.29-0.71   c0.38-0.37,1.04-0.37,1.42,0C36.89,55.48,37,55.74,37,56c0,0.26-0.11,0.52-0.29,0.71C36.52,56.89,36.27,57,36,57z" fill="#FFFFFF"/><path d="M42,57c-0.271,0-0.521-0.11-0.71-0.29C41.109,56.52,41,56.27,41,56s0.109-0.52,0.29-0.71   c0.37-0.36,1.05-0.37,1.42,0C42.89,55.48,43,55.74,43,56c0,0.27-0.11,0.52-0.29,0.71C42.52,56.89,42.27,57,42,57z" fill="#FFFFFF"/><path d="M48,57c-0.271,0-0.53-0.11-0.71-0.29C47.109,56.52,47,56.27,47,56c0-0.26,0.109-0.52,0.29-0.71   c0.37-0.37,1.04-0.37,1.42,0C48.89,55.48,49,55.74,49,56c0,0.27-0.11,0.52-0.29,0.71C48.52,56.89,48.27,57,48,57z" fill="#FFFFFF"/><path d="M54,57c-0.271,0-0.521-0.11-0.71-0.29C53.109,56.52,53,56.27,53,56s0.109-0.52,0.29-0.71   c0.37-0.37,1.05-0.37,1.42,0C54.89,55.48,55,55.74,55,56c0,0.26-0.11,0.52-0.29,0.71C54.52,56.89,54.27,57,54,57z" fill="#FFFFFF"/><path d="M39,61c-0.271,0-0.521-0.11-0.71-0.29C38.109,60.52,38,60.26,38,60c0-0.26,0.109-0.52,0.29-0.71   c0.37-0.37,1.05-0.37,1.42,0C39.89,59.48,40,59.74,40,60c0,0.26-0.11,0.52-0.29,0.71C39.52,60.89,39.27,61,39,61z" fill="#FFFFFF"/><path d="M45,61c-0.26,0-0.521-0.11-0.71-0.29C44.109,60.52,44,60.26,44,60c0-0.26,0.109-0.52,0.29-0.71   c0.38-0.37,1.05-0.37,1.42,0C45.89,59.48,46,59.74,46,60c0,0.26-0.11,0.52-0.29,0.71C45.52,60.89,45.26,61,45,61z" fill="#FFFFFF"/><path d="M51,61c-0.26,0-0.521-0.11-0.71-0.29C50.109,60.52,50,60.26,50,60c0-0.26,0.109-0.52,0.29-0.71   c0.38-0.37,1.05-0.37,1.42,0C51.89,59.48,52,59.74,52,60c0,0.27-0.11,0.52-0.3,0.71C51.52,60.89,51.27,61,51,61z" fill="#FFFFFF"/><path d="M39,53c-0.26,0-0.521-0.11-0.71-0.29C38.109,52.52,38,52.26,38,52c0-0.26,0.109-0.52,0.29-0.71   c0.37-0.37,1.05-0.37,1.42,0C39.89,51.48,40,51.74,40,52c0,0.26-0.11,0.52-0.29,0.71C39.52,52.89,39.26,53,39,53z" fill="#FFFFFF"/><path d="M33,53c-0.271,0-0.521-0.11-0.71-0.29C32.109,52.52,32,52.26,32,52c0-0.26,0.109-0.52,0.29-0.71   c0.37-0.37,1.05-0.37,1.42,0C33.89,51.48,34,51.74,34,52c0,0.26-0.11,0.52-0.29,0.71C33.52,52.89,33.27,53,33,53z" fill="#FFFFFF"/><path d="M45,53c-0.26,0-0.521-0.11-0.71-0.29C44.109,52.52,44,52.26,44,52c0-0.27,0.109-0.52,0.29-0.71   c0.38-0.37,1.05-0.37,1.42,0C45.89,51.48,46,51.73,46,52c0,0.26-0.11,0.52-0.29,0.71C45.52,52.89,45.27,53,45,53z" fill="#FFFFFF"/><path d="M51,53c-0.26,0-0.521-0.11-0.71-0.29C50.109,52.52,50,52.26,50,52c0-0.26,0.109-0.52,0.29-0.71   c0.37-0.37,1.05-0.37,1.42,0.01C51.89,51.48,52,51.73,52,52s-0.11,0.52-0.3,0.71C51.52,52.89,51.27,53,51,53z" fill="#FFFFFF"/><path d="M57,53c-0.26,0-0.521-0.11-0.71-0.29C56.109,52.52,56,52.26,56,52c0-0.26,0.109-0.52,0.29-0.71   c0.38-0.37,1.04-0.37,1.42,0C57.89,51.48,58,51.74,58,52c0,0.26-0.11,0.52-0.29,0.71C57.52,52.89,57.26,53,57,53z" fill="#FFFFFF"/><path d="M48,49c-0.271,0-0.521-0.11-0.71-0.29C47.109,48.52,47,48.26,47,48c0-0.27,0.109-0.52,0.29-0.71   c0.359-0.36,1.05-0.37,1.42,0C48.89,47.48,49,47.73,49,48c0,0.26-0.11,0.52-0.29,0.71C48.52,48.89,48.26,49,48,49z" fill="#FFFFFF"/><path d="M54,49c-0.26,0-0.521-0.11-0.71-0.29C53.109,48.52,53,48.26,53,48c0-0.26,0.109-0.52,0.29-0.71   c0.37-0.37,1.05-0.37,1.42,0C54.89,47.48,55,47.74,55,48c0,0.26-0.11,0.52-0.29,0.71C54.52,48.89,54.26,49,54,49z" fill="#FFFFFF"/><path d="M60,49c-0.26,0-0.521-0.11-0.71-0.29C59.109,48.52,59,48.26,59,48c0-0.26,0.109-0.52,0.29-0.71   c0.37-0.37,1.04-0.37,1.42,0C60.89,47.48,61,47.74,61,48c0,0.26-0.11,0.52-0.29,0.71C60.52,48.89,60.26,49,60,49z" fill="#FFFFFF"/></g><path d="M45,65c-9.374,0-17-7.626-17-17s7.626-17,17-17s17,7.626,17,17S54.374,65,45,65z M45,33  c-8.271,0-15,6.729-15,15s6.729,15,15,15s15-6.729,15-15S53.271,33,45,33z" fill="#232E38"/><g><path d="M34.956,42.429c-0.188,0-0.378-0.053-0.548-0.164c-0.462-0.303-0.59-0.922-0.287-1.384   C36.536,37.198,40.603,35,45,35c0.553,0,1,0.448,1,1s-0.447,1-1,1c-3.721,0-7.163,1.861-9.207,4.977   C35.602,42.27,35.282,42.429,34.956,42.429z" fill="#FFFFFF"/><path d="M33.275,46.436c-0.07,0-0.143-0.007-0.214-0.023c-0.54-0.118-0.882-0.65-0.765-1.19   c0.071-0.326,0.154-0.647,0.25-0.964c0.159-0.529,0.717-0.826,1.246-0.669c0.528,0.16,0.828,0.717,0.668,1.246   c-0.08,0.267-0.149,0.538-0.209,0.813C34.149,46.117,33.735,46.436,33.275,46.436z" fill="#FFFFFF"/></g><g><path d="M63,73H27c-1.654,0-3-1.346-3-3V20c0-1.654,1.346-3,3-3h36c1.654,0,3,1.346,3,3v50   C66,71.654,64.654,73,63,73z M27,19c-0.552,0-1,0.449-1,1v50c0,0.551,0.448,1,1,1h36c0.552,0,1-0.449,1-1V20c0-0.551-0.448-1-1-1   H27z" fill="#232E38"/><path d="M65,27H25c-0.553,0-1-0.448-1-1s0.447-1,1-1h40c0.553,0,1,0.448,1,1S65.553,27,65,27z" fill="#232E38"/><path d="M37,27c-0.553,0-1-0.448-1-1v-8c0-0.552,0.447-1,1-1s1,0.448,1,1v8C38,26.552,37.553,27,37,27z" fill="#232E38"/></g><path d="M36.516,51.992c-2.891,0-5.618-1.076-8.161-3.229c-0.422-0.356-0.475-0.987-0.118-1.409  c0.356-0.421,0.987-0.475,1.409-0.117c4.418,3.738,9.12,3.716,14.8-0.069c6.111-4.074,11.396-4.068,17.135,0.018  c0.45,0.32,0.555,0.944,0.234,1.395c-0.32,0.449-0.944,0.555-1.395,0.234c-5.098-3.627-9.402-3.623-14.865,0.018  C42.396,50.938,39.375,51.992,36.516,51.992z" fill="#232E38"/></svg>