<?xml version="1.0" encoding="utf-8"?>
<!-- Generator: Adobe Illustrator 19.1.0, SVG Export Plug-In . SVG Version: 6.00 Build 0)  -->
<svg version="1.1" id="Layer_1" xmlns="http://www.w3.org/2000/svg" xmlns:xlink="http://www.w3.org/1999/xlink" x="0px" y="0px"
	 width="24px" height="24px" viewBox="-59 115 24 24" style="enable-background:new -59 115 24 24;" xml:space="preserve">
<path d="M-38.5,119.5c1.1,0,2,0.9,2,2v12c0,1.1-0.9,2-2,2h-16c-1.1,0-2-0.9-2-2v-12c0-1.1,0.9-2,2-2H-38.5 M-50,130.5v-6h-1.2v3.5
	l-2.5-3.5H-55v6h1.2V127l2.5,3.5H-50 M-45,125.8v-1.3h-4v6h4v-1.2h-2.5v-1.1h2.5v-1.3h-2.5v-1.1H-45 M-38,129.5v-5h-1.2v4.5h-1.1
	v-3.5h-1.2v3.5h-1.1v-4.5H-44v5c0,0.6,0.4,1,1,1h4C-38.4,130.5-38,130.1-38,129.5z"/>
</svg>
