<?xml version="1.0" encoding="utf-8"?>
<!-- Generator: Adobe Illustrator 19.1.0, SVG Export Plug-In . SVG Version: 6.00 Build 0)  -->
<svg version="1.1" id="Layer_1" xmlns="http://www.w3.org/2000/svg" xmlns:xlink="http://www.w3.org/1999/xlink" x="0px" y="0px"
	 width="24px" height="24px" viewBox="-59 115 24 24" style="enable-background:new -59 115 24 24;" xml:space="preserve">
<path d="M-37.5,126.5h-8v-8C-41.1,118.5-37.5,122.1-37.5,126.5 M-39.5,128.5c0,2.8-1.4,5.2-3.6,6.7l-3.8-6.7H-39.5 M-47.5,136.5
	c-2.8,0-5.2-1.4-6.7-3.6l6.5-3.7l3.7,6.5C-45,136.2-46.2,136.5-47.5,136.5 M-55.5,128.5c0-4.4,3.6-8,8-8v7.4l-7.2,4.1
	C-55.2,131-55.5,129.8-55.5,128.5z"/>
</svg>
