<?xml version="1.0" ?><svg id="Слой_1" style="enable-background:new -49 141 512 512;" version="1.1" viewBox="-49 141 512 512" xml:space="preserve" xmlns="http://www.w3.org/2000/svg" xmlns:xlink="http://www.w3.org/1999/xlink"><style type="text/css">
	.st0{fill:#9E9E9E;}
	.st1{fill:#F5F5F5;}
	.st2{fill:#50833C;}
	.st3{fill:#80A82F;}
	.st4{fill:#2E9BB0;}
	.st5{fill:#79CFE0;}
	.st6{fill:#FF2941;}
	.st7{fill:#BA1E2F;}
	.st8{fill:#B3B3B3;}
	.st9{fill:#FF9012;}
	.st10{fill:#FFD91D;}
</style><g><g><g><polygon class="st0" points="85.4,572.5 -49,597 -49,221.5 85.4,197    "/><polygon class="st0" points="328.6,572.5 207,597 207,221.5 328.6,197    "/><polygon class="st1" points="328.6,572.5 463,597 463,221.5 328.6,197    "/><polygon class="st1" points="85.4,572.5 207,597 207,221.5 85.4,197    "/></g><g><polygon class="st2" points="85.4,556 -31.3,578.5 -31.3,233.4 85.4,210.9    "/><polygon class="st2" points="328.6,556 207,578.5 207,233.4 328.6,210.9    "/><polygon class="st3" points="328.6,556 445.3,578.5 445.3,233.4 328.6,210.9    "/><polygon class="st3" points="85.4,556 207,578.5 207,233.4 85.4,210.9    "/></g><g><path class="st4" d="M40.7,294.1c9.2-0.3,21.4,0.4,26.3,10c9.3,18.1-7.9,44,18.4,53.2V243c-15.3,0.9-28.2,3.6-41,10.9     C34.1,259.8,18.6,294.9,40.7,294.1z"/><path class="st4" d="M56.3,450.6c-14.7-1-28.5-3.3-43.3-3.1c-5.4,0.1-8.9-3.3-12.8-6.2c-0.9,0.1-1.9,0.1-3-0.3     c-17.6-5.2-22.4,15.8-21.2,29.2c2.1,22.7,15.6,25.3,36.3,19.9c16.9-4.4,31.4-0.5,47.4,5.7c9.6,3.7,16.6,6.1,25.5,7V444     C75.3,448,66.6,451.3,56.3,450.6z"/><path class="st4" d="M249.9,349.6c1.7,7.3,4.4,14.4,5.8,21.8c2.7,14.7,14.5,9.7,24.5,9.8c13.1,0.2,21.8,13.6,29.7,22     c5,5.2,13.3,9,18.8,10.6V212.4L207,234.9v106C226.8,333.6,245.5,330.8,249.9,349.6z"/><path class="st4" d="M262,498.8c8.3,2.2,7.4,6.7,18.1,3.1c11-14.1,10.6-22.4-1.1-24.7c-2.5-0.4-4.9-0.9-7.4-1.3     c-21-1.4-45.4,6.7-64.7-4.5v25.4c3.1-0.1-3.1-0.2,0-0.4C222.8,495.5,246.5,494.7,262,498.8z"/><path class="st5" d="M346.3,409.6c5.7-3.6,10.6-5.3,17.4-5.7c19.4-1.2,39.5,13.6,58.9,1.9c10.9-6.6,16.8-17.9,21.2-30.1V234.9     l-115.2-22.5v200.9C335.3,415.7,337.8,414.9,346.3,409.6z"/><path class="st5" d="M85.4,243v114c0.4,0.1-0.4,0.3,0,0.4c26,8.8,55.3,12.1,81.2,1.3c7.1-3,24.1-12.1,40.4-18.1V234.9l-19.8-3.6     C158.5,247.9,119.6,240.9,85.4,243z"/><path class="st5" d="M112.6,500.8c30.6-7.4,63-3.3,94.4-4.1v-25c-0.3-0.2,0.3-0.3,0-0.5c-27.2-16.2-62-47.7-97.1-36.2     c-7.6,2.5-16.4,6.2-24.6,9.3v58.5C93.7,503.6,103.1,503.1,112.6,500.8z"/></g></g><g><path class="st6" d="M49.5,361.9c5.2-6.5,8.4-14.7,8.4-23.6c0-20.8-16.8-37.6-37.6-37.6c-20.8,0-37.6,16.8-37.6,37.6    c0,8.9,3.1,17.1,8.4,23.6l29.2,41.7L49.5,361.9z"/><path class="st1" d="M41.6,338.5c0,11.8-9.5,21.3-21.3,21.3C8.5,359.8-1,350.3-1,338.5c0-11.8,9.5-21.3,21.3-21.3    C32.1,317.2,41.6,326.7,41.6,338.5z"/><path class="st7" d="M20.9,300.7c20.3,0.5,36.6,17.1,36.6,37.5c0,8.9-3.1,17.1-8.3,23.6l-28.2,40.2V300.7z"/><path class="st8" d="M20.9,317.2c11.3,0.5,20.3,9.8,20.3,21.3c0,11.4-9,20.7-20.3,21.3V317.2z"/></g><path class="st9" d="M219.6,524.5c-3.9,0-7.9-0.1-11.8-0.1c0,2.8,0,6.2,0,9.3c3.9,0,7.9,0.1,11.8,0.1h4.6l0-9.3H219.6z"/><path class="st10" d="M201.1,524.4l-4.6-0.1l-0.1,9.3l4.6,0.1c2.3,0,4.6,0,6.8,0.1c0-3.1,0-6.4,0-9.3   C205.6,524.4,203.4,524.4,201.1,524.4z"/><path class="st9" d="M233.6,533.7l-0.2-9.3l4.6-0.1c6.1-0.1,12.3-0.3,18.4-0.6l4.6-0.2l0.4,9.3l-4.6,0.2   c-6.2,0.3-12.4,0.5-18.7,0.6L233.6,533.7z"/><polygon class="st10" points="187.1,533.4 159.2,532.7 159.5,523.5 187.3,524.1  "/><path class="st9" d="M271,532.3l-0.7-9.2l4.6-0.4c2.8-0.2,5.7-0.5,8.5-0.8c3.2-0.3,6.5-0.7,9.7-1.1l4.6-0.6l1.2,9.2l-4.6,0.6   c-3.3,0.4-6.7,0.8-10,1.1c-2.9,0.3-5.8,0.5-8.7,0.8L271,532.3z"/><path class="st9" d="M327.8,512.2c-5.3,2.1-10.8,3.9-17,5.4l-4.5,1.1l2.2,9l4.5-1.1c5.5-1.3,10.6-2.9,15.4-4.7c0-2.9,0-6,0-9.9   L327.8,512.2z"/><path class="st10" d="M335.6,519l-3.5-8.6l-3.7,1.5c0,3.9,0,6.9,0,9.9c1-0.4,2-0.7,2.9-1.1L335.6,519z"/><path class="st10" d="M344.8,514.3l-5.2-7.5l3.7-2.6c5.5-3.6,10.2-7.2,14.2-11l3.4-3.2l6.3,6.8l-3.4,3.2   c-4.4,4.1-9.5,8.1-15.2,11.8L344.8,514.3z"/><path class="st10" d="M374.2,488.5l-8.2-4.4l2.2-4.1c2-3.6,2.9-7.1,2.9-10.4c0-1.4-0.2-2.8-0.5-4.1l-1.2-4.5l9-2.4l1.2,4.5   c0.6,2.1,0.9,4.3,0.9,6.5c0,4.8-1.4,9.8-4.1,14.8L374.2,488.5z"/><path class="st10" d="M365,456.1l-3.5-3c-4.2-3.6-9.1-6.9-14.6-9.9l-4.1-2.2l4.5-8.1l4.1,2.2c6,3.3,11.4,7,16,10.9l3.5,3L365,456.1   z"/><path class="st9" d="M316,421l-4.5-1.3l-2.6,8.9l4.5,1.3c5.3,1.5,10.3,3.2,14.9,4.9c0-3.3,0-6.6,0-9.8   C324.4,423.6,320.4,422.2,316,421z"/><path class="st10" d="M334,427c-1.8-0.7-3.7-1.4-5.7-2c0,3.3,0,6.6,0,9.8c0.8,0.3,1.6,0.5,2.3,0.8l4.3,1.7l3.4-8.6L334,427z"/><path class="st9" d="M300.3,426.5l-4.5-1c-5.4-1.2-11.1-2.4-18-3.6l-4.6-0.8l1.7-9.1l4.6,0.8c7,1.3,12.8,2.5,18.3,3.7l4.5,1   L300.3,426.5z"/><path class="st9" d="M264.1,419.4l-4.6-0.8c-6-1.1-12.1-2-18.2-2.9l-4.6-0.7l1.3-9.2l4.6,0.7c6.2,0.9,12.3,1.9,18.4,3l4.6,0.8   L264.1,419.4z"/><path class="st10" d="M205.6,402l-4.6-0.4l-0.9,9.2l4.6,0.4c1,0.1,2.1,0.2,3.1,0.3c0-2.9,0-5.8,0-9.3   C207.1,402.1,206.4,402,205.6,402z"/><path class="st9" d="M224.2,404c-5.4-0.7-10.9-1.2-16.4-1.8c0,3.6,0,6.5,0,9.3c5.1,0.5,10.2,1,15.2,1.7l4.6,0.6l1.1-9.2L224.2,404z   "/><path class="st9" d="M15.9,413.6l-1-9.2l4.6-0.5c6.2-0.7,12.3-1.3,18.5-1.8l4.6-0.4l0.8,9.2l-4.6,0.4c-6.1,0.5-12.3,1.1-18.4,1.8   L15.9,413.6z"/><path class="st9" d="M52.7,410.1l-0.7-9.3l4.6-0.3c6.2-0.4,12.4-0.8,18.6-1.1l4.6-0.2l0.5,9.3l-4.6,0.2c-6.1,0.3-12.3,0.7-18.4,1.1   L52.7,410.1z"/><path class="st10" d="M191,410l-4.6-0.3c-6.1-0.5-12.3-0.8-18.4-1.1l-4.6-0.2l0.5-9.3l4.6,0.2c6.2,0.3,12.4,0.7,18.6,1.2l4.6,0.3   L191,410z"/><path class="st10" d="M89.5,408l-0.3-9.3l4.6-0.2c6.2-0.2,12.4-0.3,18.6-0.4l4.6-0.1l0.1,9.3l-4.6,0.1c-6.1,0.1-12.3,0.2-18.4,0.4   L89.5,408z"/><path class="st10" d="M154.2,407.9l-4.6-0.1c-6.1-0.2-12.3-0.3-18.4-0.3l-4.6,0l0.1-9.3l4.6,0c6.2,0,12.4,0.2,18.6,0.3l4.6,0.1   L154.2,407.9z"/></g></svg>