<?xml version="1.0" encoding="utf-8"?>
<!-- Generator: Adobe Illustrator 19.1.0, SVG Export Plug-In . SVG Version: 6.00 Build 0)  -->
<svg version="1.1" id="Layer_1" xmlns="http://www.w3.org/2000/svg" xmlns:xlink="http://www.w3.org/1999/xlink" x="0px" y="0px"
	 viewBox="-241 333 128 128" style="enable-background:new -241 333 128 128;" xml:space="preserve">
<style type="text/css">
	.st0{fill:#7FD0D9;}
	.st1{fill:#FFFFFF;}
	.st2{fill:#FF5E5B;}
	.st3{fill:#00425A;}
	.st4{fill:#30363D;}
</style>
<g>
	<path class="st0" d="M-177,333.5c-35.1,0-63.5,28.4-63.5,63.5c0,8.1,1.5,15.8,4.3,22.9c9.2,23.7,32.2,40.6,59.2,40.6
		s50-16.9,59.2-40.6c2.7-7.1,4.3-14.8,4.3-22.9C-113.5,361.9-141.9,333.5-177,333.5z"/>
	<path class="st1" d="M-153.7,362.7c0-0.7-0.7-1.3-1.4-1.3l-8.3,0.3c-1.2,0-1.8,1.5-0.9,2.4l3.3,3l-19,20.1l-17.6-5.6
		c-0.5-0.2-1,0-1.4,0.4l-13.6,14.3c-0.5,0.5-0.5,1.4,0.1,1.9c0.4,0.3,0.8,0.4,1.3,0.3c0.2-0.1,0.5-0.2,0.6-0.4l13-13.7l17.6,5.7
		c0.5,0.2,1,0,1.4-0.4l19.7-20.8l3.4,3.1c0.9,0.8,2.3,0.1,2.3-1.1L-153.7,362.7z"/>
	<path class="st2" d="M-210.2,402.5c-0.1,0-0.1,0-0.2,0v28.7c0,0.8,0.6,1.4,1.4,1.4h7.6c0.8,0,1.4-0.6,1.4-1.4v-34.8
		c0-1.2-1.5-1.8-2.3-0.9l-5.3,5.5C-208.3,401.7-209.2,402.3-210.2,402.5z"/>
	<path class="st2" d="M-194.3,432.6h7.6c0.8,0,1.4-0.6,1.4-1.4v-37.5c0-0.6-0.4-1.1-0.9-1.3l-7.6-2.4c-0.9-0.3-1.8,0.4-1.8,1.3v40
		C-195.6,432-195,432.6-194.3,432.6z"/>
	<path class="st2" d="M-179.6,394.2c-0.4,0-0.9-0.1-1.3-0.2v37.2c0,0.8,0.6,1.4,1.4,1.4h7.6c0.8,0,1.4-0.6,1.4-1.4v-40.6
		c0-1.2-1.5-1.8-2.3-0.9l-2.7,2.9C-176.7,393.6-178.1,394.2-179.6,394.2z"/>
	<path class="st2" d="M-158.7,374.6l-7.1,7.5c-0.2,0.3-0.4,0.6-0.4,0.9v48.3c0,0.8,0.6,1.4,1.4,1.4h7.6c0.8,0,1.4-0.6,1.4-1.4v-54
		c0-0.5-0.3-1-0.8-1.2c-0.6-0.2-1.2-0.6-1.7-1L-158.7,374.6z"/>
	<path class="st3" d="M-157.4,405.6l-5.3,5.3l11.3,14.2c2.2,2.7,6.2,3,8.7,0.5l0,0c2.5-2.5,2.2-6.5-0.5-8.7L-157.4,405.6z"/>
	<path class="st4" d="M-159,401.9l-7.5,7.5l2.6,2.6c0.4,0.4,1.1,0.4,1.6,0l5.9-5.9c0.4-0.4,0.4-1.1,0-1.6L-159,401.9z"/>
	<path class="st3" d="M-161,382.3c-6.9-6.9-18.1-6.9-25,0c-6.9,6.9-6.9,18.1,0,25c6.9,6.9,18.1,6.9,25,0
		C-154.1,400.4-154.1,389.2-161,382.3z M-163.6,404.7c-5.5,5.5-14.3,5.5-19.8,0s-5.5-14.3,0-19.8s14.3-5.5,19.8,0
		S-158.1,399.3-163.6,404.7z"/>
	<circle class="st1" cx="-173.5" cy="394.8" r="14"/>
</g>
</svg>
