<?xml version="1.0" encoding="utf-8"?>
<!-- Generator: Adobe Illustrator 19.1.0, SVG Export Plug-In . SVG Version: 6.00 Build 0)  -->
<svg version="1.1" id="Слой_1" xmlns="http://www.w3.org/2000/svg" xmlns:xlink="http://www.w3.org/1999/xlink" x="0px" y="0px"
	 viewBox="-215.8 358.2 88.8 84.1" style="enable-background:new -215.8 358.2 88.8 84.1;" xml:space="preserve">
<style type="text/css">
	.st0{fill:#44474A;}
	.st1{fill:#F4F2ED;}
	.st2{fill:#65C8CE;}
	.st3{fill:#C15D44;}
	.st4{fill:#F5C93F;}
	.st5{opacity:0.1;}
	.st6{fill:#050708;}
	.st7{fill:#FFFFFF;}
</style>
<g>
	<g>
		<g>
			<circle class="st0" cx="-177" cy="397" r="38.8"/>
		</g>
	</g>
	<g>
		<g>
			<path class="st1" d="M-177,434.8c-20.8,0-37.8-16.9-37.8-37.8s16.9-37.8,37.8-37.8s37.8,16.9,37.8,37.8S-156.2,434.8-177,434.8z"
				/>
		</g>
	</g>
	<g>
		<g>
			<path class="st2" d="M-177,428.9c-17.6,0-31.9-14.3-31.9-31.9s14.3-31.9,31.9-31.9s31.9,14.3,31.9,31.9S-159.4,428.9-177,428.9z"
				/>
		</g>
	</g>
	<g>
		<g>
			<path class="st3" d="M-177,417.7c-11.4,0-20.7-9.3-20.7-20.7s9.3-20.7,20.7-20.7s20.7,9.3,20.7,20.7S-165.6,417.7-177,417.7z"/>
		</g>
	</g>
	<g>
		<g>
			<path class="st4" d="M-177,406c-5,0-9-4-9-9s4-9,9-9s9,4,9,9S-172,406-177,406z"/>
		</g>
	</g>
	<g class="st5">
		<path class="st6" d="M-134.8,434.2l6-2.2l-4.6-3.5l-3.7,0.5l2.5-1.4l-7.3-5.6l-5,1.2l-29.7-26.9c-0.3-0.3-0.7-0.4-0.9-0.1
			c-0.2,0.2-0.2,0.5,0,0.9l29.1,27.9l-0.9,5l2.7,3.1l0.8-2.6l-0.1,3.4l7.4,8.4l1.8-6.1l-0.5-0.5l1.9,1.8c0.2,0.2,0.9-0.1,1.4-0.7
			c0.6-0.6,0.8-1.3,0.6-1.5L-134.8,434.2z"/>
	</g>
	<g>
		<g>
			<path class="st7" d="M-129.5,370.1l-47.2,27.1c-0.3,0.2-0.8,0.1-0.9-0.2l0,0c-0.2-0.3-0.1-0.8,0.2-0.9l46.5-28.3L-129.5,370.1z"
				/>
		</g>
	</g>
	<g>
		<g>
			
				<ellipse transform="matrix(-0.5092 -0.8606 0.8606 -0.5092 -514.0105 444.6627)" class="st7" cx="-130.2" cy="368.9" rx="1.4" ry="0.5"/>
		</g>
	</g>
	<g class="st5">
		<g>
			
				<ellipse transform="matrix(-0.5092 -0.8606 0.8606 -0.5092 -514.0105 444.6627)" class="st6" cx="-130.2" cy="368.9" rx="1.4" ry="0.5"/>
		</g>
	</g>
	<g>
		<g>
			<polygon class="st3" points="-133.9,363.3 -138.2,366.5 -138.7,370 -139.3,367.3 -146.2,372.4 -146.5,377.3 -133.5,369.4 			"/>
		</g>
	</g>
	<g>
		<g>
			<polygon class="st3" points="-139.5,378.1 -136.5,379.1 -127,374.7 -132,371.5 -145.1,379.1 -140.9,381.1 -137.4,379.5 			"/>
		</g>
	</g>
	<g class="st5">
		<g>
			<polygon class="st6" points="-139.5,378.1 -136.5,379.1 -127,374.7 -132,371.5 -145.1,379.1 -140.9,381.1 -137.4,379.5 			"/>
		</g>
	</g>
</g>
</svg>
