<?xml version="1.0" encoding="utf-8"?>
<!-- Generator: Adobe Illustrator 19.0.1, SVG Export Plug-In . SVG Version: 6.00 Build 0)  -->
<svg version="1.1" xmlns="http://www.w3.org/2000/svg" xmlns:xlink="http://www.w3.org/1999/xlink" x="0px" y="0px"
	 viewBox="0 0 294 294" enable-background="new 0 0 294 294" xml:space="preserve">
<g id="v1" display="none">
	<g id="XMLID_45_" display="inline">
		<g id="XMLID_60_">
			
				<rect id="XMLID_1365_" x="62.4" y="81.8" transform="matrix(0.5623 0.8269 -0.8269 0.5623 105.3517 -34.7621)" fill="#BCBEC0" width="46.1" height="0.7"/>
			
				<rect id="XMLID_1366_" x="108.6" y="63.4" transform="matrix(0.9656 0.26 -0.26 0.9656 25.2312 -25.4731)" fill="#BCBEC0" width="0.7" height="38.5"/>
			
				<rect id="XMLID_1367_" x="216.4" y="64.5" transform="matrix(8.983141e-02 0.996 -0.996 8.983141e-02 288.8919 -132.1728)" fill="#BCBEC0" width="0.7" height="55"/>
			
				<rect id="XMLID_1368_" x="187.7" y="114.9" transform="matrix(-0.8333 -0.5528 0.5528 -0.8333 335.8935 331.6835)" fill="#BCBEC0" width="60.4" height="0.7"/>
			<path id="XMLID_1371_" fill="#BCBEC0" d="M186.5,97.3l17.3,33.8l0.6-0.3l-18-35.1l-29.5,21l-55.6-13.4l-0.1,0l-39.4,18.3l-4.2-2
				l-0.3,0.6l3.7,1.7l-3,1.4l0.3,0.6l3.5-1.6l39.7,18.7l24.5,40.2l58.6-82.8l-0.4-0.3l1.7-1.2l-7.5,61.6l-50.2,20.4L128,179l-6,57
				l0.7,0.1l5.9-56.6l49.4-20.1l-17,39.9l0.6,0.3l17-40.1l30.5,46.3l0.6-0.4L179,158.6L186.5,97.3z M126,180l-24-39.4l-0.1-0.1
				l-39.4-18.6l38.7-18l55.7,13.4l0.1,0l26.6-18.9L126,180z"/>
		</g>
		<g id="XMLID_323_">
			<g id="XMLID_326_">
				<circle id="XMLID_1373_" fill="#3E96D2" cx="59.9" cy="120.5" r="20.9"/>
				<circle id="XMLID_1372_" fill="#F47920" cx="125.9" cy="179.3" r="20.9"/>
				<circle id="XMLID_59_" fill="#27B99A" cx="186.9" cy="94.9" r="20.9"/>
				<circle id="XMLID_51_" fill="#F47920" cx="161.4" cy="199.4" r="10.9"/>
				<circle id="XMLID_50_" fill="#F47920" cx="209.6" cy="205.5" r="10.9"/>
				<circle id="XMLID_49_" fill="#27B99A" cx="204.1" cy="130.9" r="10.9"/>
				<circle id="XMLID_48_" fill="#27B99A" cx="244.1" cy="89.5" r="10.9"/>
				<circle id="XMLID_47_" fill="#3E96D2" cx="101.7" cy="102.4" r="10.9"/>
				<circle id="XMLID_327_" fill="#3E96D2" cx="72.5" cy="63.1" r="10.9"/>
				<circle id="XMLID_1364_" fill="#F47920" cx="178.7" cy="158.7" r="5.8"/>
				<circle id="XMLID_1363_" fill="#F47920" cx="122.4" cy="236" r="5.8"/>
				<circle id="XMLID_1362_" fill="#3E96D2" cx="113.9" cy="64.1" r="5.8"/>
				<circle id="XMLID_1361_" fill="#27B99A" cx="157" cy="117" r="5.8"/>
				<circle id="XMLID_46_" fill="#27B99A" cx="243.1" cy="131.9" r="5.8"/>
			</g>
			<circle id="XMLID_325_" fill="#3E96D2" cx="101.7" cy="140.7" r="5.8"/>
		</g>
	</g>
</g>
<g id="o">
</g>
<g id="Layer_4" display="none">
	<rect display="inline" fill="#F1F2F2" width="294" height="294"/>
</g>
<g id="v2">
	<g>
		<path id="XMLID_210_" fill="#F47920" d="M174,81.8c0.4,0.4,0.8,0.9,1.1,1.5l11.1-7.3c-0.4-0.5-0.6-1-0.8-1.6L174,81.8z"/>
		<path id="XMLID_209_" fill="#F47920" d="M229.2,95.9l-14.1-18.4c-0.4,0.5-0.8,0.9-1.3,1.3l14,18.3
			C228.2,96.6,228.7,96.2,229.2,95.9z"/>
		<path id="XMLID_208_" fill="#F47920" d="M153.2,82.6c0,0.6-0.1,1.2-0.3,1.8l11.6,1.6c0-0.1,0-0.1,0-0.2c0-0.6,0.1-1.1,0.2-1.6
			L153.2,82.6z"/>
		<path id="XMLID_193_" fill="#F47920" d="M236.3,96.9c0.4,0.5,0.7,1,1,1.5l9.7-6.4c-0.4-0.4-0.8-1-1-1.5L236.3,96.9z"/>
		<path id="XMLID_192_" fill="#F47920" d="M110,75.9l11.7,8.4c0.3-0.5,0.7-1,1.1-1.4l-11.8-8.4C110.8,75,110.5,75.4,110,75.9z"/>
		<path id="XMLID_191_" fill="#F47920" d="M132,85c0.2,0.6,0.3,1.2,0.3,1.8l10.2-2c-0.2-0.5-0.4-1.1-0.5-1.8L132,85z"/>
		<path id="XMLID_190_" fill="#F47920" d="M196.3,72c0,0.2,0,0.4,0,0.6c0,0.4-0.1,0.8-0.1,1.2l8.7,0.4c0,0,0,0,0,0
			c0-0.6,0.1-1.2,0.3-1.8L196.3,72z"/>
		<path id="XMLID_189_" fill="#F47920" d="M106.1,68c-2.1,0-3.8,1.7-3.8,3.8c0,2.1,1.7,3.8,3.8,3.8c0.9,0,1.7-0.3,2.4-0.9
			c0.5-0.4,0.9-0.9,1.1-1.4c0.2-0.5,0.3-1,0.3-1.5C109.9,69.7,108.2,68,106.1,68z"/>
		<path id="XMLID_188_" fill="#F47920" d="M126.7,83.1c-0.9,0-1.7,0.3-2.3,0.8c-0.5,0.4-0.9,0.9-1.1,1.4c-0.2,0.5-0.3,1-0.3,1.6
			c0,2.1,1.7,3.8,3.8,3.8c2,0,3.7-1.6,3.8-3.6c0-0.1,0-0.2,0-0.2c0-0.6-0.1-1.1-0.3-1.6C129.6,84.1,128.3,83.1,126.7,83.1z"/>
		<path id="XMLID_187_" fill="#F47920" d="M147.6,78.7c-2.1,0-3.8,1.7-3.8,3.8c0,0.1,0,0.1,0,0.2c0,0.6,0.2,1.2,0.5,1.7
			c0.7,1.1,1.9,1.9,3.2,1.9c1.5,0,2.8-0.9,3.4-2.2c0.2-0.5,0.4-1,0.4-1.6c0-0.1,0-0.1,0-0.2C151.3,80.3,149.6,78.7,147.6,78.7z"/>
		<path id="XMLID_186_" fill="#F47920" d="M172.4,82.8c-0.6-0.5-1.4-0.8-2.3-0.8c-1.6,0-3,1-3.5,2.5c-0.2,0.4-0.3,0.9-0.3,1.3
			c0,0.2,0,0.3,0,0.5c0.2,1.9,1.8,3.3,3.8,3.3c2.1,0,3.8-1.7,3.8-3.8c0-0.6-0.1-1.1-0.3-1.6C173.3,83.7,172.9,83.2,172.4,82.8z"/>
		<path id="XMLID_185_" fill="#F47920" d="M190.7,68.8c-2.1,0-3.8,1.7-3.8,3.8c0,0.2,0,0.4,0.1,0.6c0.1,0.6,0.4,1.2,0.8,1.7
			c0.7,0.9,1.8,1.5,3,1.5c1.7,0,3.1-1.1,3.6-2.6c0.1-0.4,0.2-0.7,0.2-1.2c0-0.2,0-0.4-0.1-0.7C194.1,70.2,192.6,68.8,190.7,68.8z"/>
		<path id="XMLID_184_" fill="#F47920" d="M214.3,74.3c0-2.1-1.7-3.8-3.8-3.8c-1.5,0-2.8,0.9-3.4,2.1c-0.2,0.5-0.4,1.1-0.4,1.7
			c0,0,0,0.1,0,0.1c0.1,2,1.7,3.7,3.8,3.7c0.8,0,1.6-0.3,2.2-0.7c0.5-0.4,0.9-0.9,1.2-1.4C214.1,75.4,214.3,74.9,214.3,74.3z"/>
		<path id="XMLID_183_" fill="#F47920" d="M234.8,97.9c-0.7-0.7-1.6-1.1-2.6-1.1c-0.7,0-1.3,0.2-1.9,0.5c-0.5,0.3-1,0.7-1.3,1.2
			c-0.4,0.6-0.6,1.3-0.6,2c0,2.1,1.7,3.8,3.8,3.8c2.1,0,3.8-1.7,3.8-3.8c0-0.4-0.1-0.8-0.2-1.2C235.6,98.9,235.2,98.3,234.8,97.9z"
			/>
		<path id="XMLID_182_" fill="#F47920" d="M251.1,84.5c-2.1,0-3.8,1.7-3.8,3.8c0,0.4,0.1,0.9,0.2,1.3c0.2,0.6,0.5,1.1,1,1.5
			c0.7,0.6,1.6,1,2.6,1c2.1,0,3.8-1.7,3.8-3.8C254.9,86.2,253.2,84.5,251.1,84.5z"/>
		<path id="XMLID_181_" fill="#42BDA7" d="M236,110.6c0.4,0.4,0.8,0.9,1.1,1.4l10.2-7.8c-0.4-0.4-0.8-0.9-1.1-1.4L236,110.6z"/>
		<path id="XMLID_180_" fill="#42BDA7" d="M131.2,113.2c0.4,0.5,0.6,1,0.8,1.6l11.4-6.2c-0.4-0.4-0.8-1-1-1.5L131.2,113.2z"/>
		<path id="XMLID_179_" fill="#42BDA7" d="M69.5,106.1c0,0.5-0.1,1-0.2,1.5l9.9,1.2c0-0.6,0.1-1.2,0.3-1.8l-10-1.2
			C69.5,105.9,69.5,106,69.5,106.1z"/>
		<path id="XMLID_178_" fill="#42BDA7" d="M48,102.9l10.2,2.6c0.1-0.6,0.2-1.2,0.5-1.7l-10.4-2.6C48.4,101.8,48.2,102.3,48,102.9z"
			/>
		<path id="XMLID_177_" fill="#42BDA7" d="M111.1,112l10.1,3.5c0.1-0.6,0.3-1.2,0.6-1.7l-10.2-3.5
			C111.6,110.9,111.4,111.5,111.1,112z"/>
		<path id="XMLID_176_" fill="#42BDA7" d="M90.2,107.8c0.1,0.3,0.1,0.7,0.1,1c0,0.3,0,0.5-0.1,0.8l10.3,0.3c0-0.2,0-0.3,0-0.5
			c0-0.5,0.1-0.9,0.2-1.3L90.2,107.8z"/>
		<path id="XMLID_175_" fill="#42BDA7" d="M204.9,96.6l-9,1.8c0.2,0.5,0.4,1.1,0.4,1.8l8.8-1.8c-0.2-0.5-0.2-1-0.2-1.6
			C204.9,96.7,204.9,96.6,204.9,96.6z"/>
		<path id="XMLID_174_" fill="#42BDA7" d="M214.6,100.6l12.7,11.3c0.3-0.5,0.7-1,1.1-1.4l-12.8-11.4
			C215.3,99.7,215,100.2,214.6,100.6z"/>
		<path id="XMLID_173_" fill="#42BDA7" d="M153.2,104.8c0,0.6-0.1,1.2-0.3,1.8l11.6,1.6c0-0.1,0-0.1,0-0.2c0-0.6,0.1-1.1,0.2-1.6
			L153.2,104.8z"/>
		<path id="XMLID_172_" fill="#42BDA7" d="M174.9,105.1c0.3,0.5,0.6,1.1,0.7,1.7l10.1-3.7c-0.3-0.5-0.4-1.1-0.5-1.7L174.9,105.1z"/>
		<path id="XMLID_171_" fill="#42BDA7" d="M42.8,97.1c-2.1,0-3.8,1.7-3.8,3.8c0,2.1,1.7,3.8,3.8,3.8c1.5,0,2.8-0.9,3.4-2.2
			c0.2-0.5,0.4-1,0.4-1.6c0-0.1,0-0.1,0-0.2C46.5,98.7,44.8,97.1,42.8,97.1z"/>
		<path id="XMLID_170_" fill="#42BDA7" d="M63.9,102.3c-1.4,0-2.6,0.8-3.3,1.9c-0.3,0.5-0.5,1.1-0.5,1.7c0,0.1,0,0.1,0,0.2
			c0,2.1,1.7,3.8,3.8,3.8c1.6,0,3-1.1,3.6-2.5c0.1-0.4,0.2-0.8,0.2-1.3c0-0.2,0-0.4-0.1-0.5C67.3,103.7,65.8,102.3,63.9,102.3z"/>
		<path id="XMLID_169_" fill="#42BDA7" d="M84.7,105.1c-1.5,0-2.8,0.9-3.4,2.2c-0.2,0.5-0.4,1-0.4,1.6c0,0.1,0,0.1,0,0.2
			c0.1,2,1.7,3.6,3.8,3.6c1.8,0,3.4-1.3,3.7-3.1c0-0.2,0.1-0.5,0.1-0.7c0-0.4-0.1-0.7-0.2-1.1C87.9,106.2,86.4,105.1,84.7,105.1z"/>
		<path id="XMLID_168_" fill="#42BDA7" d="M106.1,105.6c-1.7,0-3,1.1-3.6,2.5c-0.1,0.4-0.2,0.8-0.2,1.3c0,0.2,0,0.4,0.1,0.5
			c0.3,1.8,1.8,3.2,3.7,3.2c1.4,0,2.6-0.7,3.2-1.8c0.3-0.5,0.5-1.1,0.6-1.7c0-0.1,0-0.2,0-0.3C109.9,107.3,108.2,105.6,106.1,105.6z
			"/>
		<path id="XMLID_167_" fill="#42BDA7" d="M129.6,114.1c-0.7-0.8-1.7-1.3-2.9-1.3c-1.3,0-2.5,0.7-3.1,1.7c-0.3,0.5-0.5,1.1-0.6,1.7
			c0,0.1,0,0.3,0,0.4c0,2.1,1.7,3.8,3.8,3.8s3.8-1.7,3.8-3.8c0-0.3,0-0.6-0.1-0.8C130.3,115.1,130,114.6,129.6,114.1z"/>
		<path id="XMLID_151_" fill="#42BDA7" d="M147.6,100.9c-2.1,0-3.8,1.7-3.8,3.8c0,0.5,0.1,1,0.3,1.5c0.2,0.6,0.6,1.1,1.1,1.5
			c0.7,0.5,1.5,0.9,2.4,0.9c1.5,0,2.8-0.9,3.4-2.2c0.2-0.5,0.4-1,0.4-1.6c0-0.1,0-0.1,0-0.2C151.3,102.5,149.6,100.9,147.6,100.9z"
			/>
		<path id="XMLID_150_" fill="#42BDA7" d="M173.1,105.8c-0.7-0.9-1.8-1.5-3-1.5c-1.6,0-3,1-3.5,2.5c-0.2,0.4-0.3,0.9-0.3,1.3
			c0,0.2,0,0.3,0,0.5c0.2,1.9,1.8,3.3,3.8,3.3c2.1,0,3.8-1.7,3.8-3.8c0-0.2,0-0.4-0.1-0.6C173.7,106.8,173.5,106.2,173.1,105.8z"/>
		<path id="XMLID_149_" fill="#42BDA7" d="M194,98.8c-0.6-1.2-1.9-2-3.3-2c-2.1,0-3.8,1.7-3.8,3.8c0,0,0,0,0,0
			c0,0.6,0.2,1.2,0.5,1.8c0.6,1.2,1.9,2,3.3,2c2.1,0,3.8-1.7,3.8-3.8c0,0,0-0.1,0-0.1C194.5,99.9,194.3,99.3,194,98.8z"/>
		<path id="XMLID_148_" fill="#42BDA7" d="M210.5,93c-1.9,0-3.5,1.4-3.7,3.2c0,0.2-0.1,0.4-0.1,0.6c0,0.4,0.1,0.8,0.2,1.2
			c0.5,1.5,1.9,2.6,3.6,2.6c1.1,0,2-0.5,2.7-1.2c0.4-0.4,0.7-1,0.9-1.6c0.1-0.3,0.2-0.7,0.2-1C214.3,94.7,212.6,93,210.5,93z"/>
		<path id="XMLID_147_" fill="#42BDA7" d="M234.6,111.7c-0.7-0.5-1.5-0.9-2.4-0.9c-0.9,0-1.8,0.4-2.4,0.9c-0.5,0.4-0.8,0.9-1.1,1.5
			c-0.2,0.4-0.3,0.9-0.3,1.4c0,2.1,1.7,3.8,3.8,3.8c2.1,0,3.8-1.7,3.8-3.8c0-0.5-0.1-1-0.3-1.5C235.4,112.6,235,112.1,234.6,111.7z"
			/>
		<path id="XMLID_146_" fill="#42BDA7" d="M251.1,96.3c-2.1,0-3.8,1.7-3.8,3.8c0,0.5,0.1,1.1,0.3,1.5c0.3,0.6,0.6,1,1.1,1.4
			c0.6,0.5,1.5,0.8,2.4,0.8c2.1,0,3.8-1.7,3.8-3.8C254.9,98,253.2,96.3,251.1,96.3z"/>
		<path id="XMLID_145_" fill="#539CD5" d="M58.6,187.8l-10.5,2c0.2,0.6,0.3,1.2,0.3,1.8l10.5-2C58.7,189.1,58.6,188.5,58.6,187.8
			C58.6,187.9,58.6,187.9,58.6,187.8z"/>
		<path id="XMLID_144_" fill="#539CD5" d="M87.6,183.4c0.6,0.2,1.1,0.5,1.6,0.8l15-25.7c-0.6-0.2-1.1-0.5-1.6-0.9L87.6,183.4z"/>
		<path id="XMLID_143_" fill="#539CD5" d="M110.1,157.4l10.2,7.8c0.3-0.5,0.7-1,1.1-1.4l-10.1-7.8
			C110.9,156.5,110.5,157,110.1,157.4z"/>
		<path id="XMLID_142_" fill="#539CD5" d="M129,163.8c0.4,0.4,0.8,0.9,1.1,1.4l12.7-11.3c-0.4-0.4-0.8-1-1-1.5L129,163.8z"/>
		<path id="XMLID_141_" fill="#539CD5" d="M69.8,187.1c0,0.3,0.1,0.6,0.1,0.8c0,0.3,0,0.7-0.1,1l10.6,0.7c0-0.3-0.1-0.6-0.1-0.9
			c0-0.3,0-0.6,0.1-1L69.8,187.1z"/>
		<path id="XMLID_140_" fill="#539CD5" d="M192.6,159.7c0.2,0.5,0.2,1,0.2,1.6c0,0.1,0,0.1,0,0.2l11.6-1.6c-0.2-0.6-0.3-1.2-0.3-1.8
			L192.6,159.7z"/>
		<path id="XMLID_139_" fill="#539CD5" d="M235.5,167c0.3,0.5,0.5,1.1,0.6,1.7l10.1-3.5c-0.3-0.5-0.5-1.1-0.6-1.7L235.5,167z"/>
		<path id="XMLID_138_" fill="#539CD5" d="M213.8,161.8l11.4,6.2c0.2-0.6,0.5-1.1,0.8-1.6l-11.3-6.1
			C214.6,160.9,214.2,161.4,213.8,161.8z"/>
		<path id="XMLID_137_" fill="#539CD5" d="M152.5,150c0,0.6-0.1,1.1-0.2,1.6l8.8,1.8c0-0.6,0.2-1.2,0.4-1.8l-9-1.9
			C152.5,149.9,152.5,150,152.5,150z"/>
		<path id="XMLID_136_" fill="#539CD5" d="M171.7,156.3l10.1,3.7c0.1-0.6,0.4-1.2,0.7-1.7l-10.3-3.8
			C172.1,155.2,171.9,155.8,171.7,156.3z"/>
		<path id="XMLID_135_" fill="#539CD5" d="M251.2,158.9c-2.1,0-3.8,1.7-3.8,3.8c0,0.1,0,0.2,0,0.3c0,0.6,0.2,1.2,0.6,1.7
			c0.7,1.1,1.9,1.8,3.2,1.8c2.1,0,3.8-1.7,3.8-3.8C255,160.6,253.3,158.9,251.2,158.9z"/>
		<path id="XMLID_118_" fill="#539CD5" d="M233.7,167.7c-0.7-1-1.8-1.7-3.1-1.7c-1.2,0-2.2,0.5-2.9,1.3c-0.4,0.5-0.7,1-0.8,1.6
			c-0.1,0.3-0.1,0.5-0.1,0.8c0,2.1,1.7,3.8,3.8,3.8c2.1,0,3.8-1.7,3.8-3.8c0-0.1,0-0.3,0-0.4C234.3,168.7,234.1,168.2,233.7,167.7z"
			/>
		<path id="XMLID_117_" fill="#539CD5" d="M209.7,154.2c-2,0-3.7,1.6-3.8,3.6c0,0.1,0,0.1,0,0.2c0,0.6,0.1,1.1,0.4,1.6
			c0.6,1.3,1.9,2.2,3.4,2.2c0.9,0,1.7-0.3,2.4-0.9c0.5-0.4,0.9-0.9,1.1-1.5c0.2-0.4,0.3-0.9,0.3-1.5
			C213.5,155.9,211.8,154.2,209.7,154.2z"/>
		<path id="XMLID_116_" fill="#539CD5" d="M187.2,157.5c-1.2,0-2.3,0.6-3,1.5c-0.4,0.5-0.6,1-0.7,1.7c0,0.2-0.1,0.4-0.1,0.6
			c0,2.1,1.7,3.8,3.8,3.8c1.9,0,3.5-1.5,3.8-3.3c0-0.2,0-0.3,0-0.5c0-0.5-0.1-0.9-0.3-1.3C190.2,158.5,188.9,157.5,187.2,157.5z"/>
		<path id="XMLID_115_" fill="#539CD5" d="M166.6,150.1c-1.4,0-2.7,0.8-3.3,2c-0.3,0.5-0.5,1.1-0.5,1.7c0,0,0,0.1,0,0.1
			c0,2.1,1.7,3.8,3.8,3.8c1.4,0,2.7-0.8,3.3-2c0.3-0.5,0.5-1.1,0.5-1.8c0,0,0,0,0,0C170.4,151.8,168.7,150.1,166.6,150.1z"/>
		<path id="XMLID_114_" fill="#539CD5" d="M146.9,146.2c-2.1,0-3.8,1.7-3.8,3.8c0,0.4,0.1,0.7,0.2,1c0.2,0.6,0.5,1.2,0.9,1.6
			c0.7,0.7,1.7,1.2,2.7,1.2c1.7,0,3.1-1.1,3.6-2.6c0.1-0.4,0.2-0.8,0.2-1.2c0-0.2,0-0.4-0.1-0.6
			C150.3,147.6,148.8,146.2,146.9,146.2z"/>
		<path id="XMLID_113_" fill="#539CD5" d="M127.6,165c-0.7-0.6-1.5-0.9-2.4-0.9c-0.9,0-1.7,0.3-2.4,0.9c-0.5,0.4-0.9,0.9-1.1,1.4
			c-0.2,0.5-0.3,1-0.3,1.5c0,2.1,1.7,3.8,3.8,3.8c2.1,0,3.8-1.7,3.8-3.8c0-0.5-0.1-1-0.3-1.4C128.5,165.9,128.1,165.4,127.6,165z"/>
		<path id="XMLID_112_" fill="#539CD5" d="M106.2,149.5c-2.1,0-3.8,1.7-3.8,3.8c0,1.1,0.4,2,1.2,2.7c0.4,0.4,1,0.7,1.6,0.9
			c0.3,0.1,0.7,0.2,1.1,0.2c0.9,0,1.7-0.3,2.4-0.8c0.5-0.4,0.9-0.9,1.1-1.4c0.2-0.5,0.3-1,0.3-1.5
			C110,151.2,108.3,149.5,106.2,149.5z"/>
		<path id="XMLID_111_" fill="#539CD5" d="M88.3,185.8c-0.5-0.4-1-0.7-1.6-0.8c-0.2,0-0.5-0.1-0.7-0.1c-1.8,0-3.3,1.3-3.7,3
			c-0.1,0.3-0.1,0.6-0.1,0.8c0,0.3,0.1,0.7,0.1,1c0.4,1.6,1.9,2.8,3.7,2.8c2.1,0,3.8-1.7,3.8-3.8C89.7,187.6,89.1,186.5,88.3,185.8z
			"/>
		<path id="XMLID_110_" fill="#539CD5" d="M64.2,184.1c-1.9,0-3.5,1.5-3.8,3.4c0,0.1,0,0.3,0,0.4c0,0.5,0.1,0.9,0.3,1.4
			c0.6,1.4,1.9,2.4,3.5,2.4c1.8,0,3.3-1.3,3.7-2.9c0.1-0.3,0.1-0.6,0.1-0.9c0-0.3-0.1-0.7-0.1-1C67.4,185.3,66,184.1,64.2,184.1z"/>
		<path id="XMLID_109_" fill="#539CD5" d="M42.8,188c-2.1,0-3.8,1.7-3.8,3.8c0,2.1,1.7,3.8,3.8,3.8c2,0,3.7-1.6,3.8-3.6
			c0-0.1,0-0.1,0-0.2c0-0.6-0.1-1.1-0.4-1.6C45.6,188.9,44.3,188,42.8,188z"/>
		<path id="XMLID_108_" fill="#2F526C" d="M164.5,208l-11.6,1.6c0.2,0.6,0.3,1.2,0.3,1.8l11.5-1.6c-0.2-0.5-0.2-1-0.2-1.6
			C164.5,208.1,164.5,208.1,164.5,208z"/>
		<path id="XMLID_107_" fill="#2F526C" d="M174,212.2l11.3,7.5c0.2-0.6,0.5-1.1,0.8-1.6l-11.1-7.3
			C174.8,211.3,174.5,211.8,174,212.2z"/>
		<path id="XMLID_106_" fill="#2F526C" d="M132,209l10,2c0.1-0.6,0.2-1.2,0.5-1.8l-10.2-2C132.3,207.8,132.2,208.4,132,209z"/>
		<path id="XMLID_105_" fill="#2F526C" d="M236.3,197.1l9.6,6.3c0.3-0.6,0.6-1.1,1-1.5l-9.7-6.4
			C237.1,196.2,236.8,196.7,236.3,197.1z"/>
		<path id="XMLID_104_" fill="#2F526C" d="M204.9,219.7l-8.7,0.4c0.1,0.4,0.1,0.8,0.1,1.2c0,0.2,0,0.4,0,0.6l8.9-0.5
			C205,220.9,204.9,220.4,204.9,219.7C204.9,219.7,204.9,219.7,204.9,219.7z"/>
		<path id="XMLID_103_" fill="#2F526C" d="M110,218.1c0.4,0.4,0.8,0.9,1.1,1.5l11.8-8.4c-0.4-0.4-0.8-0.9-1.1-1.4L110,218.1z"/>
		<path id="XMLID_102_" fill="#2F526C" d="M227.8,196.9l-14,18.3c0.5,0.4,0.9,0.8,1.3,1.3l14.1-18.4
			C228.7,197.8,228.2,197.4,227.8,196.9z"/>
		<path id="XMLID_101_" fill="#2F526C" d="M108.5,219.2c-0.7-0.5-1.5-0.9-2.4-0.9c-2.1,0-3.8,1.7-3.8,3.8c0,2.1,1.7,3.8,3.8,3.8
			c2.1,0,3.8-1.7,3.8-3.8c0-0.5-0.1-1-0.3-1.5C109.4,220.1,109,219.6,108.5,219.2z"/>
		<path id="XMLID_93_" fill="#2F526C" d="M126.7,203.3c-2.1,0-3.8,1.7-3.8,3.8c0,0.6,0.1,1.1,0.3,1.6c0.3,0.6,0.6,1,1.1,1.4
			c0.6,0.5,1.4,0.8,2.3,0.8c1.5,0,2.9-0.9,3.5-2.2c0.2-0.5,0.3-1,0.3-1.6c0-0.1,0-0.2,0-0.2C130.4,204.8,128.7,203.3,126.7,203.3z"
			/>
		<path id="XMLID_92_" fill="#2F526C" d="M147.6,207.7c-1.4,0-2.6,0.7-3.2,1.9c-0.3,0.5-0.5,1.1-0.5,1.7c0,0.1,0,0.1,0,0.2
			c0,2.1,1.7,3.8,3.8,3.8c2,0,3.7-1.6,3.8-3.6c0-0.1,0-0.1,0-0.2c0-0.6-0.1-1.1-0.4-1.6C150.4,208.6,149.1,207.7,147.6,207.7z"/>
		<path id="XMLID_91_" fill="#2F526C" d="M170.1,204.4c-1.9,0-3.5,1.5-3.8,3.3c0,0.2,0,0.3,0,0.5c0,0.5,0.1,0.9,0.3,1.3
			c0.5,1.4,1.9,2.5,3.5,2.5c0.9,0,1.7-0.3,2.3-0.8c0.5-0.4,0.9-0.9,1.1-1.4c0.2-0.5,0.3-1,0.3-1.6
			C173.9,206.1,172.2,204.4,170.1,204.4z"/>
		<path id="XMLID_90_" fill="#2F526C" d="M190.7,217.6c-1.2,0-2.3,0.6-3,1.5c-0.4,0.5-0.6,1.1-0.8,1.7c0,0.2-0.1,0.4-0.1,0.6
			c0,2.1,1.7,3.8,3.8,3.8c1.9,0,3.4-1.4,3.7-3.1c0-0.2,0.1-0.4,0.1-0.7c0-0.4-0.1-0.8-0.2-1.1C193.8,218.7,192.4,217.6,190.7,217.6z
			"/>
		<path id="XMLID_89_" fill="#2F526C" d="M212.7,216.6c-0.6-0.4-1.4-0.7-2.2-0.7c-2.1,0-3.7,1.6-3.8,3.7c0,0,0,0.1,0,0.1
			c0,0.6,0.2,1.2,0.4,1.7c0.6,1.3,1.9,2.1,3.4,2.1c2.1,0,3.8-1.7,3.8-3.8c0-0.6-0.2-1.2-0.4-1.7C213.6,217.5,213.2,217,212.7,216.6z
			"/>
		<path id="XMLID_88_" fill="#2F526C" d="M232.2,189.6c-2.1,0-3.8,1.7-3.8,3.8c0,0.8,0.2,1.4,0.6,2c0.3,0.5,0.8,0.9,1.3,1.2
			c0.6,0.3,1.2,0.5,1.9,0.5c1,0,2-0.4,2.6-1.1c0.4-0.4,0.8-1,1-1.5c0.1-0.4,0.2-0.8,0.2-1.2C236,191.3,234.3,189.6,232.2,189.6z"/>
		<path id="XMLID_87_" fill="#2F526C" d="M251.1,201.9c-1,0-1.9,0.4-2.6,1c-0.4,0.4-0.8,0.9-1,1.5c-0.1,0.4-0.2,0.8-0.2,1.3
			c0,2.1,1.7,3.8,3.8,3.8s3.8-1.7,3.8-3.8S253.2,201.9,251.1,201.9z"/>
	</g>
</g>
</svg>
