<?xml version="1.0" encoding="utf-8"?>
<!-- Generator: Adobe Illustrator 19.0.1, SVG Export Plug-In . SVG Version: 6.00 Build 0)  -->
<svg version="1.1" xmlns="http://www.w3.org/2000/svg" xmlns:xlink="http://www.w3.org/1999/xlink" x="0px" y="0px"
	 viewBox="0 0 294 294" enable-background="new 0 0 294 294" xml:space="preserve">
<g id="v1" display="none">
	<g display="inline">
		<path id="XMLID_44_" fill="#3E96D2" d="M131.9,183.5c-1.3-0.4-2.7-0.6-4.1-0.6c-14,0-32,20.1-45.9,50.3c0.5,0.4,1,0.8,1.6,1.2
			c0.5,0.4,1,0.8,1.6,1.1c15.8,11.1,34.7,18,55.1,19.3c0.6,0,1.3,0.1,1.9,0.1c0.6,0,1.3,0.1,1.9,0.1
			C151,218,146.7,188.2,131.9,183.5z"/>
		<g id="XMLID_94_">
			<path id="XMLID_95_" fill="#33495C" d="M166.6,213.2c0.6,3.2,1.3,6.3,2,9.4c1.4,1.8,2.8,3.6,4.3,5.3c-2.1-4.7-3.9-9.2-5.4-13.4
				C167.2,214.1,166.9,213.6,166.6,213.2z"/>
			<path id="XMLID_96_" fill="#33495C" d="M209.5,58.9c-1-0.7-2.1-1.5-3.2-2.2c-6.2-4.1-12.8-7.5-19.7-10.3c-1.3-0.5-2.7-1-4-1.5
				c-10.2-3.6-21.1-5.6-32.5-6c-5.1,21-5,40.3,0.2,54.2c-5.8,15-9.1,31.3-9.1,48.4c0,7.7,0.7,15.3,1.9,22.6c0.2,1.3,0.4,2.5,0.7,3.8
				c0.2,0.9,0.4,1.8,0.6,2.8c0.3,1.3,0.6,2.7,0.9,4c3.7,14.4,9.7,27.9,17.6,39.9c-0.6-3.3-1.2-6.7-1.7-10.1c-2.2-4-4.3-8.2-6.1-12.5
				c-2.3-5.5-4.2-11.1-5.8-16.8c-0.4-1.3-0.7-2.7-1-4c-0.3-1.5-0.7-3-1-4.4c-0.2-1.2-0.5-2.5-0.7-3.7c-1.2-7.1-1.8-14.3-1.8-21.5
				c0-15,2.5-29.5,7.4-43.4c3.3,6.4,8,11.3,13.9,14.1c1.7,0.8,3.4,1.4,5.1,1.8c1.3,0.3,2.5,0.5,3.8,0.7c1,0.1,2,0.2,3.1,0.2
				c16.8,0,36.6-13.2,53.3-34.8C225.4,72,217.9,64.9,209.5,58.9z"/>
			<path id="XMLID_97_" fill="#33495C" d="M102.2,188c1-0.8,2-1.5,3-2.2c1.7-2.6,3.1-4.9,4-6.9c-1,0.5-2,1.1-3,1.7
				c0.1-0.3,0.3-0.6,0.4-0.9c0.7-1.6,1.3-3.3,1.7-4.9c0.4-1.3,0.7-2.7,0.9-4c0.8-4.9,0.5-9.6-1-14.1c-5.6-16.4-26.5-25.3-53.3-25.3
				c-4.8,0-9.8,0.3-15,0.9c-0.1,0.6-0.2,1.3-0.2,1.9c-0.1,0.6-0.2,1.3-0.2,1.9c-0.4,3.6-0.5,7.2-0.5,10.9c0,16.9,3.9,32.9,10.8,47.1
				c0.6,1.2,1.1,2.3,1.7,3.4c3.1,5.9,6.7,11.4,10.8,16.5c0.7,0.9,1.4,1.7,2.1,2.6c0.1,0.1,0.2,0.3,0.3,0.4c0.3,0.4,0.6,0.7,0.9,1.1
				c0.2,0.2,0.3,0.4,0.5,0.6c0,0,0,0,0,0c0,0,0,0,0,0c0.3,0.3,0.5,0.6,0.8,0.9c0,0,0,0,0,0c0.6,0.7,1.2,1.3,1.8,1.9
				c1.9-2.3,3.8-4.5,5.7-6.7C86.6,206.7,96.2,197.4,102.2,188z"/>
			<path id="XMLID_98_" fill="#33495C" d="M113.7,124.7c1-1.7,0.8-4-0.3-6.6c-1.5-0.3-3.2-0.8-5.1-1.5c2.3,3.7,2.4,5.6,2.1,6.2
				c-0.4,0.7-2.2,1.5-6.1,1.5c-11.7,0-33.3-7.1-57.1-18.6c-0.5,1.2-1,2.4-1.4,3.6c24.9,11.9,46.5,18.9,58.6,18.9
				C109.1,128.1,112.4,127,113.7,124.7z"/>
			<path id="XMLID_99_" fill="#33495C" d="M103.5,110.2c2.8,1.4,5.2,2.5,7.4,3.2c-6.8-10-23.1-23.9-44.7-38c-0.8,1-1.7,1.9-2.5,2.9
				c12.2,7.9,22.8,15.9,31.2,23.3C98.2,104.7,101.1,107.6,103.5,110.2z"/>
			<path id="XMLID_100_" fill="#33495C" d="M120.8,177.3c-1.6-1.2-3.8-1.3-6.6-0.5c-0.5,1.5-1.2,3.1-2.1,4.9
				c3.9-1.8,5.9-1.7,6.4-1.3c0.6,0.5,1.2,2.4,0.8,6.2c-1.4,11.7-11.1,32.2-25.4,54.5c1.1,0.6,2.2,1.2,3.4,1.8
				c14.8-23.3,24.3-43.9,25.8-55.9C123.7,182.3,123,178.9,120.8,177.3z"/>
		</g>
		<g id="XMLID_38_">
			<path id="XMLID_43_" fill="#27B99A" d="M147.5,166.9c4.2-1.2,8.5-2.2,12.8-3.1c0.1-1.3,0.2-2.6,0.4-3.9c-4.7,0.9-9.3,2-13.8,3.3
				C147.1,164.4,147.3,165.6,147.5,166.9z"/>
			<path id="XMLID_42_" fill="#27B99A" d="M127.7,169.6c-3.2,1.3-6.3,2.6-9.4,4.1c-1.3,0.6-2.5,1.2-3.8,1.8c0.1-0.5,0.2-0.9,0.3-1.4
				c0.2-1.9-0.1-3.5-1-4.6c-5.6-7-32,4.4-63.2,26.2c0.6,1.1,1.2,2.3,1.8,3.4c11.9-8.4,23.3-15.3,33.4-20.3
				c7.3-3.7,13.7-6.1,18.4-7.1c4.5-0.9,6.3-0.3,6.7,0.1c0.2,0.2,0.3,0.8,0.2,1.8c-0.1,1.2-0.6,2.7-1.3,4.3c-1,0.5-2,1.1-3,1.6
				c-0.9,2.1-1.9,4.1-3.1,6.2c0.9-0.5,1.8-1.1,2.7-1.6c-0.3,0.5-0.7,1-1,1.6c-6.5,9.7-18.2,22.9-34.6,37.6c0.9,0.9,1.8,1.8,2.7,2.6
				c19-17.2,33.1-33.4,38.7-44.4c0.2-0.3,0.3-0.6,0.5-0.9c4.4-2.3,8.8-4.4,13.4-6.3c0.8-0.4,1.7-0.7,2.5-1c3-1.2,6-2.4,9.1-3.4
				c2.1-0.7,4.2-1.4,6.3-2c-0.2-1.2-0.5-2.5-0.7-3.8C137.9,165.8,132.8,167.6,127.7,169.6z"/>
			<path id="XMLID_39_" fill="#27B99A" d="M252,121.7c-35.6,0.8-63.2,14.2-66.9,35c0,0,0,0.1,0,0.1c-7,0.4-13.8,1.2-20.6,2.4
				c-0.1,1.3-0.3,2.6-0.4,3.9c6.8-1.2,13.6-2,20.6-2.5c-0.3,11.3,6.5,22.8,18.3,32.8c2.5,2.2,5.3,4.2,8.3,6.3
				c6.5,4.4,14.1,8.4,22.4,11.8c9.2-12.3,15.8-26.7,19-42.2c0.3-1.2,0.5-2.5,0.7-3.8c1-6,1.6-12.2,1.6-18.4
				C255,138.3,254,129.8,252,121.7z"/>
			<path id="XMLID_40_" fill="#27B99A" d="M113.4,118c1,0.2,1.9,0.3,2.8,0.3c1.9,0,3.5-0.5,4.5-1.5c6.3-6.4-8.2-31.2-33.7-59.6
				c-1.1,0.7-2.1,1.4-3.1,2.2c9.7,10.8,18,21.3,24.2,30.7c4.5,6.8,7.7,12.9,9.2,17.4c1.5,4.3,1.1,6.3,0.7,6.7
				c-0.2,0.2-0.8,0.4-1.8,0.4c-1.4,0-3.2-0.4-5.4-1.1c-2.1-0.7-4.6-1.8-7.4-3.2C93.1,105,78.6,94.9,61.9,80.4c-0.8,1-1.5,2-2.3,3
				c19.4,16.8,37.1,28.8,48.7,33.1C110.2,117.3,111.9,117.7,113.4,118z"/>
			<path id="XMLID_41_" fill="#27B99A" d="M235.9,85.6c-0.7-1.1-1.5-2.1-2.2-3.1c-10.7,9.9-21,18.4-30.3,24.7
				c-6.8,4.6-12.7,7.9-17.3,9.5c-4.3,1.5-6.2,1.2-6.7,0.8c-0.2-0.2-0.4-0.7-0.4-1.8c0-1.4,0.3-3.2,1-5.4c0.7-2.1,1.7-4.6,3.1-7.4
				c5.1-10.4,14.9-25.1,29.2-42c-1-0.8-2-1.5-3.1-2.2c-16.5,19.6-28.2,37.6-32.3,49.2c-0.7,1.9-1.1,3.6-1.4,5.1
				c-0.2,1-0.3,1.9-0.2,2.8c0,1.9,0.6,3.5,1.6,4.5C183.3,126.4,207.9,111.5,235.9,85.6z"/>
		</g>
		<g id="XMLID_36_">
			<path id="XMLID_53_" fill="#F47920" d="M211.3,199.7c-3-2-5.8-4.1-8.3-6.3c-11.9-8.3-25.2-14.7-39.5-18.7
				c0.1-3.9,0.3-7.7,0.7-11.6c0.1-1.3,0.2-2.6,0.4-3.9c1.7-15.2,5.3-30.1,10.8-44.4c-1.3-0.1-2.6-0.4-3.8-0.7
				c-5.5,14.5-9.2,29.9-10.9,45.8c-0.1,1.3-0.3,2.6-0.4,3.9c-0.3,3.3-0.5,6.5-0.6,9.8c-3.7-0.9-7.4-1.7-11.2-2.3
				c0.3,1.3,0.7,2.7,1,4c3.4,0.6,6.8,1.3,10.2,2.2c0,0.6,0,1.3,0,1.9c0,8.5,0.6,16.9,1.7,25.1c0.5,3.4,1,6.8,1.7,10.1
				c2.5,12.8,6.3,25.2,11.3,36.9c1.2-0.3,2.5-0.7,3.7-1c-0.1-0.2-0.2-0.5-0.3-0.7c-3.8-8.9-6.8-18-9-27.2c-0.8-3.1-1.4-6.2-2-9.4
				c-0.2-0.9-0.3-1.8-0.5-2.7c0.4,1.3,0.9,2.6,1.4,4c1.5,4.2,3.3,8.7,5.4,13.4c2.9,6.6,6.4,13.6,10.3,20.9c0.6-0.2,1.2-0.4,1.8-0.7
				c0.6-0.2,1.2-0.5,1.8-0.7c1.4-0.6,2.9-1.2,4.3-1.8c1.3-0.6,2.6-1.2,3.8-1.8c7.3-3.6,14.1-8,20.3-13.1c0.5-0.4,1-0.8,1.5-1.2
				c0.5-0.4,1-0.8,1.5-1.2c-20.3-28.3-40.1-47.2-50-47.2v1.9h0l0-1.9l0,0c-1.2,0-2.2,0.3-3,0.8c-0.6,0.4-1.2,0.9-1.6,1.6
				c0-1.4,0-2.7,0-4.1c0-0.3,0-0.6,0-0.9c4.7,1.4,9.4,3,14,5c15.4,6.5,29.3,15.9,41.2,27.8c2.8,2.8,5.4,5.7,7.9,8.7
				c0.9-0.9,1.7-1.9,2.5-2.9C223.7,210.8,217.8,204.9,211.3,199.7z M168.1,183L168.1,183c-0.6,0-1.1,0.1-1.6,0.3
				C167,183.1,167.5,183,168.1,183z"/>
			<path id="XMLID_54_" fill="#F47920" d="M137.6,170c-3.1,1.1-6.1,2.2-9.1,3.4c5.7,0.1,11.4,0.5,16.9,1.3c-0.3-1.3-0.6-2.6-0.9-4
				C142.2,170.4,139.9,170.2,137.6,170z"/>
			<path id="XMLID_55_" fill="#F47920" d="M109.4,170.7c-0.2,1.3-0.5,2.6-0.9,4c3.3-0.5,6.6-0.8,9.9-1c3.1-1.4,6.2-2.8,9.4-4.1
				c-0.3,0-0.5,0-0.8,0C121,169.6,115.1,170,109.4,170.7z"/>
			<path id="XMLID_56_" fill="#F47920" d="M132.5,109.5c0.3,0,0.6-0.1,0.9-0.2c5.5-2.5-1.5-30.4-15.9-66.3c-1.2,0.3-2.4,0.7-3.7,1.1
				c5,12.5,9.3,24.3,12.3,34.5c5,16.5,5.4,23.5,5.2,26.3c-2.2-1.7-7.2-6.7-16.2-21.4c-5.6-9.2-11.7-20.3-17.8-32.5
				c-1.1,0.6-2.2,1.2-3.4,1.8C110.6,86.1,126.3,109.5,132.5,109.5z"/>
			<path id="XMLID_57_" fill="#F47920" d="M40.3,163.8c0.2,1.3,0.4,2.5,0.7,3.8c13-3.5,25.2-6.3,35.7-8.1c17-3,24-2.5,26.7-2
				c-1.9,1.9-7.5,6.3-23.2,13.5c-9.8,4.5-21.6,9.2-34.4,13.7c0.4,1.2,0.9,2.4,1.4,3.6c35-12.4,60.2-25.1,60.9-31.3
				c0-0.3,0-0.6-0.1-0.9C106.2,150.3,77.7,153.8,40.3,163.8z"/>
			<path id="XMLID_58_" fill="#F47920" d="M250.4,115.8c-0.4-1.2-0.8-2.4-1.2-3.6c-12.4,5.2-24.1,9.6-34.2,12.9
				c-16.4,5.3-23.4,5.8-26.2,5.7c1.6-2.2,6.6-7.3,21.1-16.5c9.1-5.8,20.1-12,32.3-18.3c-0.6-1.1-1.2-2.2-1.9-3.3
				c-33,17.1-56.2,33.1-56.1,39.3c0,0.3,0.1,0.6,0.2,0.9C187,138.2,214.8,130.8,250.4,115.8z"/>
		</g>
	</g>
</g>
<g id="o">
</g>
<g id="Layer_4" display="none">
	<rect display="inline" fill="#F1F2F2" width="294" height="294"/>
</g>
<g id="v2">
	<g id="XMLID_61_">
		<g id="XMLID_79_">
			
				<rect id="XMLID_86_" x="62.4" y="81.8" transform="matrix(0.5623 0.8269 -0.8269 0.5623 105.3517 -34.7621)" fill="#BCBEC0" width="46.1" height="0.7"/>
			
				<rect id="XMLID_85_" x="108.6" y="63.4" transform="matrix(0.9656 0.26 -0.26 0.9656 25.2312 -25.4731)" fill="#BCBEC0" width="0.7" height="38.5"/>
			
				<rect id="XMLID_84_" x="216.4" y="64.5" transform="matrix(8.983141e-02 0.996 -0.996 8.983141e-02 288.8919 -132.1728)" fill="#BCBEC0" width="0.7" height="55"/>
			
				<rect id="XMLID_83_" x="187.7" y="114.9" transform="matrix(-0.8333 -0.5528 0.5528 -0.8333 335.8935 331.6835)" fill="#BCBEC0" width="60.4" height="0.7"/>
			<path id="XMLID_80_" fill="#BCBEC0" d="M186.5,97.3l17.3,33.8l0.6-0.3l-18-35.1l-29.5,21l-55.6-13.4l-0.1,0l-39.4,18.3l-4.2-2
				l-0.3,0.6l3.7,1.7l-3,1.4l0.3,0.6l3.5-1.6l39.7,18.7l24.5,40.2l58.6-82.8l-0.4-0.3l1.7-1.2l-7.5,61.6l-50.2,20.4L128,179l-6,57
				l0.7,0.1l5.9-56.6l49.4-20.1l-17,39.9l0.6,0.3l17-40.1l30.5,46.3l0.6-0.4L179,158.6L186.5,97.3z M126,180l-24-39.4l-0.1-0.1
				l-39.4-18.6l38.7-18l55.7,13.4l0.1,0l26.6-18.9L126,180z"/>
		</g>
		<g id="XMLID_62_">
			<g id="XMLID_64_">
				<circle id="XMLID_78_" fill="#3E96D2" cx="59.9" cy="120.5" r="20.9"/>
				<circle id="XMLID_77_" fill="#F47920" cx="125.9" cy="179.3" r="20.9"/>
				<circle id="XMLID_76_" fill="#27B99A" cx="186.9" cy="94.9" r="20.9"/>
				<circle id="XMLID_75_" fill="#F47920" cx="161.4" cy="199.4" r="10.9"/>
				<circle id="XMLID_74_" fill="#F47920" cx="209.6" cy="205.5" r="10.9"/>
				<circle id="XMLID_73_" fill="#27B99A" cx="204.1" cy="130.9" r="10.9"/>
				<circle id="XMLID_72_" fill="#27B99A" cx="244.1" cy="89.5" r="10.9"/>
				<circle id="XMLID_71_" fill="#3E96D2" cx="101.7" cy="102.4" r="10.9"/>
				<circle id="XMLID_70_" fill="#3E96D2" cx="72.5" cy="63.1" r="10.9"/>
				<circle id="XMLID_69_" fill="#F47920" cx="178.7" cy="158.7" r="5.8"/>
				<circle id="XMLID_68_" fill="#F47920" cx="122.4" cy="236" r="5.8"/>
				<circle id="XMLID_67_" fill="#3E96D2" cx="113.9" cy="64.1" r="5.8"/>
				<circle id="XMLID_66_" fill="#27B99A" cx="157" cy="117" r="5.8"/>
				<circle id="XMLID_65_" fill="#27B99A" cx="243.1" cy="131.9" r="5.8"/>
			</g>
			<circle id="XMLID_63_" fill="#3E96D2" cx="101.7" cy="140.7" r="5.8"/>
		</g>
	</g>
</g>
</svg>
