<?xml version="1.0" encoding="utf-8"?>
<!-- Generator: Adobe Illustrator 19.0.1, SVG Export Plug-In . SVG Version: 6.00 Build 0)  -->
<svg version="1.1" xmlns="http://www.w3.org/2000/svg" xmlns:xlink="http://www.w3.org/1999/xlink" x="0px" y="0px"
	 viewBox="0 0 319.8 233.8" enable-background="new 0 0 319.8 233.8" xml:space="preserve">
<g id="o" display="none">
	<rect id="XMLID_216_" x="-340" y="-133.7" display="inline" fill="#FFFFFF" width="1000" height="549"/>
</g>
<g id="Layer_4">
	<path id="XMLID_194_" fill="#F47920" d="M199.9,20.3c0.6,0.6,1.2,1.4,1.6,2.2l16.4-10.8c-0.5-0.7-1-1.5-1.2-2.4L199.9,20.3z"/>
	<path id="XMLID_195_" fill="#F47920" d="M281.6,41.2L260.7,14c-0.5,0.7-1.2,1.4-1.9,1.9L279.5,43C280.1,42.3,280.8,41.7,281.6,41.2
		z"/>
	<path id="XMLID_196_" fill="#F47920" d="M169.1,21.5c0,0.9-0.2,1.8-0.5,2.6l17.2,2.4c0-0.1,0-0.2,0-0.3c0-0.8,0.1-1.6,0.3-2.4
		L169.1,21.5z"/>
	<path id="XMLID_197_" fill="#F47920" d="M292.2,42.7c0.6,0.7,1.1,1.4,1.5,2.3l14.3-9.4c-0.6-0.7-1.1-1.4-1.5-2.2L292.2,42.7z"/>
	<path id="XMLID_198_" fill="#F47920" d="M105.2,11.6l17.4,12.5c0.4-0.8,1-1.5,1.6-2.1L106.8,9.4C106.4,10.2,105.8,11,105.2,11.6z"
		/>
	<path id="XMLID_199_" fill="#F47920" d="M137.7,25.2c0.3,0.8,0.5,1.7,0.5,2.6l15-3c-0.4-0.8-0.6-1.7-0.7-2.6L137.7,25.2z"/>
	<path id="XMLID_200_" fill="#F47920" d="M232.9,5.9c0,0.3,0,0.6,0,0.8c0,0.6-0.1,1.3-0.2,1.8l12.9,0.7c0,0,0,0,0-0.1
		c0-0.9,0.2-1.8,0.4-2.6L232.9,5.9z"/>
	<path id="XMLID_201_" fill="#F47920" d="M99.4,0c-3.1,0-5.6,2.5-5.6,5.6s2.5,5.6,5.6,5.6c1.3,0,2.6-0.5,3.5-1.3
		c0.7-0.6,1.3-1.3,1.6-2.1c0.3-0.7,0.5-1.4,0.5-2.2C105,2.5,102.5,0,99.4,0z"/>
	<path id="XMLID_202_" fill="#F47920" d="M129.9,22.4c-1.3,0-2.5,0.5-3.4,1.2c-0.7,0.6-1.3,1.3-1.7,2.1c-0.3,0.7-0.5,1.5-0.5,2.3
		c0,3.1,2.5,5.6,5.6,5.6c3,0,5.4-2.3,5.6-5.3c0-0.1,0-0.2,0-0.3c0-0.8-0.2-1.6-0.5-2.3C134.1,23.7,132.2,22.4,129.9,22.4z"/>
	<path id="XMLID_203_" fill="#F47920" d="M160.8,15.8c-3.1,0-5.6,2.5-5.6,5.6c0,0.1,0,0.2,0,0.3c0.1,0.9,0.3,1.8,0.8,2.6
		c1,1.6,2.8,2.7,4.8,2.7c2.3,0,4.2-1.3,5.1-3.3c0.3-0.7,0.5-1.5,0.5-2.4c0-0.1,0-0.2,0-0.3C166.2,18.2,163.8,15.8,160.8,15.8z"/>
	<path id="XMLID_204_" fill="#F47920" d="M197.6,21.9c-1-0.7-2.1-1.2-3.4-1.2c-2.4,0-4.4,1.5-5.2,3.6c-0.2,0.6-0.4,1.3-0.4,2
		c0,0.2,0,0.5,0.1,0.7c0.3,2.8,2.7,4.9,5.6,4.9c3.1,0,5.6-2.5,5.6-5.6c0-0.8-0.2-1.6-0.5-2.3C198.9,23.2,198.3,22.4,197.6,21.9z"/>
	<path id="XMLID_205_" fill="#F47920" d="M224.6,1.2c-3.1,0-5.6,2.5-5.6,5.6c0,0.3,0,0.6,0.1,1c0.2,0.9,0.6,1.8,1.1,2.5
		c1,1.3,2.6,2.2,4.4,2.2c2.5,0,4.6-1.7,5.3-3.9c0.2-0.5,0.3-1.1,0.3-1.7c0-0.3,0-0.7-0.1-1C229.7,3.2,227.4,1.2,224.6,1.2z"/>
	<path id="XMLID_206_" fill="#F47920" d="M259.5,9.2c0-3.1-2.5-5.6-5.6-5.6c-2.2,0-4.1,1.3-5,3.2c-0.4,0.7-0.6,1.6-0.6,2.5
		c0,0.1,0,0.1,0,0.2c0.1,3,2.6,5.4,5.6,5.4c1.2,0,2.3-0.4,3.3-1.1c0.8-0.5,1.4-1.3,1.8-2.1C259.3,10.9,259.5,10.1,259.5,9.2z"/>
	<path id="XMLID_207_" fill="#F47920" d="M289.9,44.2c-1-1-2.4-1.6-3.9-1.6c-1,0-1.9,0.3-2.8,0.8c-0.8,0.5-1.5,1.1-2,1.9
		c-0.6,0.9-0.9,1.9-0.9,3c0,3.1,2.5,5.6,5.6,5.6c3.1,0,5.6-2.5,5.6-5.6c0-0.6-0.1-1.2-0.3-1.7C291,45.6,290.5,44.8,289.9,44.2z"/>
	<path id="XMLID_212_" fill="#F47920" d="M314,24.3c-3.1,0-5.6,2.5-5.6,5.6c0,0.7,0.1,1.3,0.3,1.9c0.3,0.9,0.8,1.6,1.5,2.2
		c1,0.9,2.3,1.5,3.8,1.5c3.1,0,5.6-2.5,5.6-5.6S317.1,24.3,314,24.3z"/>
	<path id="XMLID_328_" fill="#40BDA7" d="M291.7,63c0.7,0.6,1.2,1.3,1.6,2.1l15-11.6c-0.7-0.6-1.2-1.3-1.6-2.1L291.7,63z"/>
	<path id="XMLID_332_" fill="#40BDA7" d="M136.5,66.9c0.5,0.7,1,1.5,1.2,2.4l16.9-9.2c-0.6-0.7-1.1-1.4-1.5-2.2L136.5,66.9z"/>
	<path id="XMLID_335_" fill="#40BDA7" d="M45.1,56.4c0,0.8-0.1,1.5-0.3,2.2l14.6,1.8c0-0.9,0.2-1.8,0.5-2.6l-14.8-1.8
		C45.1,56.1,45.1,56.2,45.1,56.4z"/>
	<path id="XMLID_337_" fill="#40BDA7" d="M13.4,51.6l15.2,3.8c0.1-0.9,0.4-1.8,0.7-2.6L13.9,49C13.9,49.9,13.7,50.8,13.4,51.6z"/>
	<path id="XMLID_338_" fill="#40BDA7" d="M106.8,65.1l15,5.2c0.2-0.9,0.5-1.8,0.9-2.5l-15-5.2C107.5,63.4,107.2,64.3,106.8,65.1z"/>
	<path id="XMLID_343_" fill="#40BDA7" d="M75.9,58.9c0.1,0.5,0.1,1,0.1,1.5c0,0.4,0,0.8-0.1,1.2L91.1,62c0-0.2,0-0.5,0-0.7
		c0-0.7,0.1-1.3,0.2-1.9L75.9,58.9z"/>
	<path id="XMLID_344_" fill="#40BDA7" d="M245.6,42.2L232.2,45c0.3,0.8,0.6,1.7,0.6,2.6l13-2.7c-0.2-0.7-0.3-1.5-0.3-2.4
		C245.6,42.4,245.6,42.3,245.6,42.2z"/>
	<path id="XMLID_345_" fill="#40BDA7" d="M259.9,48.2L278.7,65c0.4-0.8,1-1.5,1.7-2.1L261.4,46C261.1,46.8,260.5,47.6,259.9,48.2z"
		/>
	<path id="XMLID_346_" fill="#40BDA7" d="M169.1,54.4c0,0.9-0.2,1.8-0.5,2.6l17.2,2.4c0-0.1,0-0.2,0-0.3c0-0.8,0.1-1.6,0.3-2.4
		L169.1,54.4z"/>
	<path id="XMLID_347_" fill="#40BDA7" d="M201.2,54.9c0.5,0.8,0.8,1.6,1,2.5l14.9-5.5c-0.4-0.8-0.6-1.7-0.8-2.6L201.2,54.9z"/>
	<path id="XMLID_348_" fill="#40BDA7" d="M5.6,43C2.5,43,0,45.5,0,48.6c0,3.1,2.5,5.6,5.6,5.6c2.3,0,4.2-1.4,5.1-3.3
		c0.3-0.7,0.5-1.5,0.5-2.3c0-0.1,0-0.2,0-0.3C11.1,45.3,8.6,43,5.6,43z"/>
	<path id="XMLID_349_" fill="#40BDA7" d="M36.8,50.7c-2.1,0-3.9,1.1-4.8,2.8c-0.4,0.8-0.7,1.6-0.8,2.6c0,0.1,0,0.2,0,0.2
		c0,3.1,2.5,5.6,5.6,5.6c2.4,0,4.5-1.6,5.3-3.7c0.2-0.6,0.3-1.2,0.3-1.9c0-0.3,0-0.5-0.1-0.8C42,52.9,39.6,50.7,36.8,50.7z"/>
	<path id="XMLID_350_" fill="#40BDA7" d="M67.7,54.8c-2.3,0-4.2,1.3-5.1,3.2c-0.3,0.7-0.5,1.5-0.5,2.4c0,0.1,0,0.2,0,0.3
		c0.1,3,2.6,5.4,5.6,5.4c2.7,0,5-2,5.5-4.5c0.1-0.4,0.1-0.7,0.1-1.1c0-0.6-0.1-1.1-0.3-1.6C72.4,56.5,70.2,54.8,67.7,54.8z"/>
	<path id="XMLID_351_" fill="#40BDA7" d="M99.4,55.6c-2.4,0-4.5,1.6-5.3,3.8c-0.2,0.6-0.3,1.2-0.3,1.9c0,0.3,0,0.5,0.1,0.8
		c0.4,2.7,2.7,4.8,5.5,4.8c2,0,3.8-1.1,4.8-2.7c0.5-0.8,0.8-1.6,0.8-2.6c0-0.1,0-0.3,0-0.4C105,58.1,102.5,55.6,99.4,55.6z"/>
	<path id="XMLID_352_" fill="#40BDA7" d="M134.1,68.2c-1-1.2-2.5-2-4.3-2c-1.9,0-3.6,1-4.6,2.5c-0.5,0.7-0.8,1.6-0.9,2.5
		c0,0.2-0.1,0.4-0.1,0.6c0,3.1,2.5,5.6,5.6,5.6s5.6-2.5,5.6-5.6c0-0.4-0.1-0.8-0.1-1.2C135.2,69.7,134.7,68.9,134.1,68.2z"/>
	<path id="XMLID_353_" fill="#40BDA7" d="M160.8,48.7c-3.1,0-5.6,2.5-5.6,5.6c0,0.8,0.2,1.5,0.4,2.2c0.4,0.9,0.9,1.6,1.6,2.2
		c1,0.8,2.2,1.3,3.6,1.3c2.3,0,4.2-1.3,5.1-3.3c0.3-0.7,0.5-1.5,0.5-2.4c0-0.1,0-0.2,0-0.3C166.2,51.1,163.8,48.7,160.8,48.7z"/>
	<path id="XMLID_354_" fill="#40BDA7" d="M198.6,55.8c-1-1.4-2.6-2.2-4.5-2.2c-2.4,0-4.4,1.5-5.2,3.6c-0.2,0.6-0.4,1.3-0.4,2
		c0,0.2,0,0.5,0.1,0.7c0.3,2.8,2.7,4.9,5.6,4.9c3.1,0,5.6-2.5,5.6-5.6c0-0.3,0-0.6-0.1-0.9C199.5,57.4,199.1,56.5,198.6,55.8z"/>
	<path id="XMLID_355_" fill="#40BDA7" d="M229.5,45.5c-1-1.7-2.8-2.9-4.9-2.9c-3.1,0-5.6,2.5-5.6,5.6c0,0,0,0,0,0.1
		c0,0.9,0.3,1.8,0.7,2.6c1,1.8,2.8,3,4.9,3c3.1,0,5.6-2.5,5.6-5.6c0,0,0-0.1,0-0.1C230.2,47.2,229.9,46.3,229.5,45.5z"/>
	<path id="XMLID_356_" fill="#40BDA7" d="M253.9,36.9c-2.8,0-5.1,2.1-5.5,4.7c0,0.3-0.1,0.6-0.1,0.9c0,0.6,0.1,1.2,0.3,1.8
		c0.8,2.2,2.8,3.8,5.3,3.8c1.6,0,3-0.7,4.1-1.7c0.6-0.7,1.1-1.5,1.3-2.4c0.1-0.5,0.2-1,0.2-1.5C259.5,39.4,257,36.9,253.9,36.9z"/>
	<path id="XMLID_357_" fill="#40BDA7" d="M289.5,64.6c-1-0.8-2.2-1.3-3.5-1.3c-1.4,0-2.6,0.5-3.6,1.4c-0.7,0.6-1.2,1.3-1.6,2.2
		c-0.3,0.6-0.4,1.4-0.4,2.1c0,3.1,2.5,5.6,5.6,5.6c3.1,0,5.6-2.5,5.6-5.6c0-0.8-0.2-1.5-0.4-2.2C290.8,65.9,290.2,65.2,289.5,64.6z"
		/>
	<path id="XMLID_358_" fill="#40BDA7" d="M314,41.8c-3.1,0-5.6,2.5-5.6,5.6c0,0.8,0.2,1.6,0.5,2.3c0.4,0.8,0.9,1.6,1.7,2.1
		c1,0.8,2.2,1.2,3.5,1.2c3.1,0,5.6-2.5,5.6-5.6C319.7,44.3,317.1,41.8,314,41.8z"/>
	<path id="XMLID_263_" fill="#539CD5" d="M29,177.4l-15.6,3c0.3,0.8,0.5,1.7,0.5,2.6l15.5-2.9c-0.3-0.8-0.4-1.7-0.4-2.5
		C29,177.4,29,177.4,29,177.4z"/>
	<path id="XMLID_264_" fill="#539CD5" d="M71.9,170.8c0.9,0.3,1.7,0.7,2.4,1.2l22.2-38c-0.8-0.3-1.6-0.8-2.3-1.4L71.9,170.8z"/>
	<path id="XMLID_265_" fill="#539CD5" d="M105.2,132.3l15,11.6c0.4-0.8,1-1.5,1.6-2.1l-15-11.6C106.4,131,105.8,131.7,105.2,132.3z"
		/>
	<path id="XMLID_266_" fill="#539CD5" d="M133.2,141.7c0.7,0.6,1.2,1.3,1.7,2.1l18.8-16.8c-0.6-0.7-1.1-1.4-1.5-2.3L133.2,141.7z"/>
	<path id="XMLID_267_" fill="#539CD5" d="M45.5,176.2c0.1,0.4,0.1,0.8,0.1,1.2c0,0.5-0.1,1-0.1,1.5l15.7,1c-0.1-0.4-0.1-0.8-0.1-1.3
		c0-0.5,0.1-1,0.1-1.4L45.5,176.2z"/>
	<path id="XMLID_268_" fill="#539CD5" d="M227.4,135.7c0.2,0.8,0.3,1.5,0.3,2.4c0,0.1,0,0.2,0,0.3l17.2-2.4
		c-0.3-0.8-0.5-1.7-0.5-2.6L227.4,135.7z"/>
	<path id="XMLID_269_" fill="#539CD5" d="M290.9,146.6c0.4,0.8,0.8,1.6,0.9,2.5l15-5.2c-0.4-0.8-0.7-1.6-0.8-2.6L290.9,146.6z"/>
	<path id="XMLID_270_" fill="#539CD5" d="M258.8,138.9l16.9,9.2c0.3-0.9,0.7-1.7,1.2-2.4l-16.7-9.1
		C260,137.4,259.4,138.2,258.8,138.9z"/>
	<path id="XMLID_271_" fill="#539CD5" d="M168,121.4c0,0.8-0.1,1.6-0.3,2.4l13,2.7c0.1-0.9,0.3-1.8,0.6-2.6l-13.3-2.7
		C168,121.2,168,121.3,168,121.4z"/>
	<path id="XMLID_272_" fill="#539CD5" d="M196.4,130.7l14.9,5.5c0.2-0.9,0.6-1.7,1-2.5l-15.2-5.6C197.1,129,196.8,129.9,196.4,130.7
		z"/>
	<path id="XMLID_273_" fill="#539CD5" d="M314.2,134.5c-3.1,0-5.6,2.5-5.6,5.6c0,0.1,0,0.3,0,0.4c0.1,0.9,0.3,1.8,0.8,2.6
		c1,1.6,2.7,2.7,4.8,2.7c3.1,0,5.6-2.5,5.6-5.6C319.8,137,317.3,134.5,314.2,134.5z"/>
	<path id="XMLID_274_" fill="#539CD5" d="M288.3,147.5c-1-1.5-2.7-2.5-4.6-2.5c-1.7,0-3.2,0.8-4.3,2c-0.6,0.7-1,1.5-1.2,2.4
		c-0.1,0.4-0.1,0.8-0.1,1.2c0,3.1,2.5,5.6,5.6,5.6c3.1,0,5.6-2.5,5.6-5.6c0-0.2,0-0.4-0.1-0.6C289.1,149.1,288.8,148.2,288.3,147.5z
		"/>
	<path id="XMLID_275_" fill="#539CD5" d="M252.8,127.5c-3,0-5.4,2.4-5.6,5.3c0,0.1,0,0.2,0,0.3c0,0.8,0.2,1.6,0.5,2.4
		c0.9,1.9,2.8,3.3,5.1,3.3c1.4,0,2.6-0.5,3.6-1.3c0.7-0.6,1.3-1.3,1.6-2.2c0.3-0.7,0.4-1.4,0.4-2.2
		C258.4,130.1,255.9,127.5,252.8,127.5z"/>
	<path id="XMLID_276_" fill="#539CD5" d="M219.4,132.4c-1.8,0-3.4,0.9-4.5,2.2c-0.5,0.7-0.9,1.5-1.1,2.5c0,0.3-0.1,0.6-0.1,0.9
		c0,3.1,2.5,5.6,5.6,5.6c2.9,0,5.2-2.2,5.6-4.9c0-0.2,0.1-0.5,0.1-0.7c0-0.7-0.1-1.4-0.4-2C223.9,133.9,221.8,132.4,219.4,132.4z"/>
	<path id="XMLID_277_" fill="#539CD5" d="M189,121.4c-2.1,0-3.9,1.2-4.9,2.9c-0.4,0.8-0.7,1.6-0.7,2.6c0,0,0,0.1,0,0.1
		c0,3.1,2.5,5.6,5.6,5.6c2.1,0,4-1.2,4.9-3c0.4-0.8,0.7-1.7,0.7-2.6c0,0,0,0,0,0C194.6,124,192.1,121.4,189,121.4z"/>
	<path id="XMLID_278_" fill="#539CD5" d="M159.7,115.8c-3.1,0-5.6,2.5-5.6,5.6c0,0.5,0.1,1,0.2,1.5c0.3,0.9,0.7,1.7,1.3,2.4
		c1,1.1,2.5,1.7,4.1,1.7c2.5,0,4.5-1.6,5.3-3.8c0.2-0.6,0.3-1.2,0.3-1.8c0-0.3,0-0.6-0.1-0.9C164.8,117.8,162.5,115.8,159.7,115.8z"
		/>
	<path id="XMLID_279_" fill="#539CD5" d="M131.2,143.5c-1-0.8-2.2-1.4-3.6-1.4c-1.3,0-2.6,0.5-3.5,1.3c-0.7,0.6-1.3,1.3-1.6,2.1
		c-0.3,0.7-0.4,1.4-0.4,2.2c0,3.1,2.5,5.6,5.6,5.6c3.1,0,5.6-2.5,5.6-5.6c0-0.7-0.2-1.4-0.4-2.1
		C132.4,144.9,131.9,144.1,131.2,143.5z"/>
	<path id="XMLID_280_" fill="#539CD5" d="M99.5,120.6c-3.1,0-5.6,2.5-5.6,5.6c0,1.6,0.7,3,1.7,4c0.6,0.6,1.4,1.1,2.3,1.3
		c0.5,0.1,1,0.3,1.6,0.3c1.3,0,2.5-0.5,3.5-1.2c0.7-0.6,1.3-1.3,1.7-2.1c0.3-0.7,0.5-1.5,0.5-2.3
		C105.1,123.2,102.6,120.6,99.5,120.6z"/>
	<path id="XMLID_281_" fill="#539CD5" d="M73,174.3c-0.7-0.6-1.5-1-2.4-1.2c-0.4-0.1-0.7-0.1-1.1-0.1c-2.7,0-4.9,1.9-5.5,4.4
		c-0.1,0.4-0.1,0.8-0.1,1.2c0,0.5,0.1,1,0.2,1.5c0.6,2.4,2.8,4.2,5.4,4.2c3.1,0,5.6-2.5,5.6-5.6C75.1,176.9,74.2,175.4,73,174.3z"/>
	<path id="XMLID_282_" fill="#539CD5" d="M37.3,171.9c-2.9,0-5.2,2.2-5.6,5c0,0.2-0.1,0.4-0.1,0.6c0,0.7,0.1,1.4,0.4,2
		c0.8,2.1,2.8,3.6,5.2,3.6c2.7,0,4.9-1.9,5.5-4.4c0.1-0.4,0.2-0.8,0.2-1.3c0-0.5-0.1-1-0.2-1.4C42.1,173.6,39.9,171.9,37.3,171.9z"
		/>
	<path id="XMLID_283_" fill="#539CD5" d="M5.6,177.5c-3.1,0-5.6,2.5-5.6,5.6s2.5,5.6,5.6,5.6c3,0,5.4-2.4,5.6-5.3c0-0.1,0-0.2,0-0.3
		c0-0.8-0.2-1.6-0.5-2.3C9.8,178.9,7.9,177.5,5.6,177.5z"/>
	<path id="XMLID_152_" fill="#30516C" d="M185.8,207.2l-17.2,2.4c0.3,0.8,0.5,1.7,0.5,2.6l17.1-2.4c-0.2-0.8-0.3-1.5-0.3-2.4
		C185.8,207.4,185.8,207.3,185.8,207.2z"/>
	<path id="XMLID_153_" fill="#30516C" d="M199.9,213.5l16.8,11c0.3-0.9,0.7-1.7,1.2-2.4l-16.4-10.8
		C201.1,212.1,200.5,212.8,199.9,213.5z"/>
	<path id="XMLID_154_" fill="#30516C" d="M137.7,208.6l14.8,2.9c0.1-0.9,0.3-1.8,0.7-2.6l-15-3C138.2,206.9,138,207.8,137.7,208.6z"
		/>
	<path id="XMLID_155_" fill="#30516C" d="M292.2,191.1l14.3,9.4c0.4-0.8,0.9-1.6,1.5-2.2l-14.3-9.4
		C293.3,189.7,292.8,190.4,292.2,191.1z"/>
	<path id="XMLID_156_" fill="#30516C" d="M245.6,224.5l-12.9,0.7c0.1,0.6,0.2,1.2,0.2,1.8c0,0.3,0,0.6,0,0.8l13.1-0.7
		C245.7,226.4,245.6,225.5,245.6,224.5C245.6,224.6,245.6,224.5,245.6,224.5z"/>
	<path id="XMLID_157_" fill="#30516C" d="M105.2,222.2c0.6,0.6,1.2,1.4,1.6,2.2l17.4-12.5c-0.7-0.6-1.2-1.3-1.6-2.1L105.2,222.2z"/>
	<path id="XMLID_158_" fill="#30516C" d="M279.5,190.8l-20.8,27.1c0.7,0.5,1.4,1.2,1.9,1.9l20.9-27.2
		C280.8,192.1,280.1,191.5,279.5,190.8z"/>
	<path id="XMLID_159_" fill="#30516C" d="M102.9,223.8c-1-0.8-2.2-1.3-3.5-1.3c-3.1,0-5.6,2.5-5.6,5.6c0,3.1,2.5,5.6,5.6,5.6
		c3.1,0,5.6-2.5,5.6-5.6c0-0.8-0.2-1.5-0.5-2.2C104.2,225.1,103.6,224.4,102.9,223.8z"/>
	<path id="XMLID_160_" fill="#30516C" d="M129.9,200.2c-3.1,0-5.6,2.5-5.6,5.6c0,0.8,0.2,1.6,0.5,2.3c0.4,0.8,1,1.5,1.7,2.1
		c1,0.7,2.1,1.2,3.4,1.2c2.3,0,4.2-1.4,5.1-3.3c0.3-0.7,0.5-1.5,0.5-2.3c0-0.1,0-0.2,0-0.3C135.3,202.5,132.9,200.2,129.9,200.2z"/>
	<path id="XMLID_161_" fill="#30516C" d="M160.8,206.8c-2,0-3.8,1.1-4.8,2.7c-0.5,0.8-0.7,1.6-0.8,2.6c0,0.1,0,0.2,0,0.3
		c0,3.1,2.5,5.6,5.6,5.6c3,0,5.4-2.4,5.6-5.3c0-0.1,0-0.2,0-0.3c0-0.8-0.2-1.6-0.5-2.4C165,208.1,163,206.8,160.8,206.8z"/>
	<path id="XMLID_162_" fill="#30516C" d="M194.1,201.9c-2.9,0-5.2,2.2-5.6,4.9c0,0.2-0.1,0.5-0.1,0.7c0,0.7,0.1,1.4,0.4,2
		c0.8,2.1,2.8,3.6,5.2,3.6c1.3,0,2.5-0.5,3.4-1.2c0.7-0.6,1.3-1.3,1.7-2.1c0.3-0.7,0.5-1.5,0.5-2.3
		C199.7,204.4,197.2,201.9,194.1,201.9z"/>
	<path id="XMLID_163_" fill="#30516C" d="M224.6,221.4c-1.8,0-3.4,0.9-4.4,2.2c-0.6,0.7-1,1.6-1.1,2.5c-0.1,0.3-0.1,0.6-0.1,1
		c0,3.1,2.5,5.6,5.6,5.6c2.8,0,5.1-2,5.5-4.6c0.1-0.3,0.1-0.6,0.1-1c0-0.6-0.1-1.2-0.3-1.7C229.2,223.1,227.1,221.4,224.6,221.4z"/>
	<path id="XMLID_164_" fill="#30516C" d="M257.1,220c-0.9-0.7-2-1.1-3.3-1.1c-3,0-5.5,2.4-5.6,5.4c0,0.1,0,0.1,0,0.2
		c0,0.9,0.2,1.7,0.6,2.5c0.9,1.9,2.8,3.2,5,3.2c3.1,0,5.6-2.5,5.6-5.6c0-0.9-0.2-1.7-0.6-2.5C258.5,221.3,257.9,220.6,257.1,220z"/>
	<path id="XMLID_165_" fill="#30516C" d="M286,179.9c-3.1,0-5.6,2.5-5.6,5.6c0,1.1,0.3,2.1,0.9,3c0.5,0.8,1.2,1.4,2,1.9
		c0.8,0.5,1.8,0.8,2.8,0.8c1.5,0,2.9-0.6,3.9-1.6c0.6-0.6,1.1-1.4,1.4-2.3c0.2-0.6,0.3-1.1,0.3-1.7
		C291.6,182.5,289.1,179.9,286,179.9z"/>
	<path id="XMLID_166_" fill="#30516C" d="M314,198.2c-1.5,0-2.8,0.6-3.8,1.5c-0.7,0.6-1.2,1.4-1.5,2.2c-0.2,0.6-0.3,1.2-0.3,1.9
		c0,3.1,2.5,5.6,5.6,5.6s5.6-2.5,5.6-5.6C319.7,200.7,317.1,198.2,314,198.2z"/>
</g>
</svg>
