<?xml version="1.0" encoding="utf-8"?>
<!-- Generator: Adobe Illustrator 19.0.1, SVG Export Plug-In . SVG Version: 6.00 Build 0)  -->
<svg version="1.1" id="Layer_1" xmlns="http://www.w3.org/2000/svg" xmlns:xlink="http://www.w3.org/1999/xlink" x="0px" y="0px"
	 viewBox="-60 103.2 678.8 595.8" enable-background="new -60 103.2 678.8 595.8" xml:space="preserve">
<g id="simple">
	<g id="XMLID_349_">
		<g id="XMLID_328_">
			
				<rect id="XMLID_1365_" x="13.7" y="196.2" transform="matrix(-0.5623 -0.8269 0.8269 -0.5623 -28.4618 379.472)" fill="#BCBEC0" width="145" height="2.1"/>
			
				<rect id="XMLID_1366_" x="158.6" y="138.4" transform="matrix(-0.9656 -0.26 0.26 -0.9656 262.1061 432.3456)" fill="#BCBEC0" width="2.1" height="120.9"/>
			
				<rect id="XMLID_1367_" x="497.5" y="141.8" transform="matrix(-8.982757e-02 -0.996 0.996 -8.982757e-02 316.1007 745.2844)" fill="#BCBEC0" width="2.1" height="172.8"/>
			<polygon id="XMLID_1368_" fill="#BCBEC0" points="422.6,249.6 580.9,354.5 582.1,352.8 423.8,247.8 			"/>
			<path id="XMLID_1371_" fill="#BCBEC0" d="M403.6,244.8L458,350.9l1.9-1l-56.5-110.3l-92.8,66l-174.9-42l-0.4-0.1L11.6,321.1
				l-13.1-6.2l-0.9,1.9l11.5,5.4l-9.4,4.4l0.9,1.9l11-5.1l124.7,58.8l76.9,126.3l184.3-260.3l-1.3-0.9l5.4-3.9L378,437.1
				l-157.7,64.2l-0.6,0.2L201,680.7l2.1,0.2L221.7,503L377,439.8l-53.3,125.5l2,0.8L379.3,440l95.9,145.4l1.8-1.2l-96.8-146.8
				L403.6,244.8z M213.3,504.7L138,380.8l-0.2-0.3L14.1,322.2l121.5-56.4l175,42l0.5,0.1l83.7-59.5L213.3,504.7z"/>
		</g>
		<g id="XMLID_323_">
			<g id="XMLID_326_">
				<circle id="XMLID_1373_" fill="#3E96D2" cx="5.5" cy="317.7" r="65.5"/>
				<circle id="XMLID_1372_" fill="#F47920" cx="213.1" cy="502.7" r="65.5"/>
				<circle id="XMLID_347_" fill="#27B99A" cx="404.9" cy="237.3" r="65.5"/>
				<circle id="XMLID_344_" fill="#F47920" cx="324.6" cy="565.8" r="34.1"/>
				<circle id="XMLID_343_" fill="#F47920" cx="476" cy="584.9" r="34.1"/>
				<circle id="XMLID_338_" fill="#27B99A" cx="458.9" cy="350.5" r="34.1"/>
				<circle id="XMLID_337_" fill="#27B99A" cx="584.7" cy="220.4" r="34.1"/>
				<circle id="XMLID_335_" fill="#3E96D2" cx="137.1" cy="260.9" r="34.1"/>
				<circle id="XMLID_327_" fill="#3E96D2" cx="45.4" cy="137.3" r="34.1"/>
				<circle id="XMLID_1364_" fill="#F47920" cx="379" cy="437.9" r="18.1"/>
				<circle id="XMLID_1363_" fill="#F47920" cx="202.1" cy="680.9" r="18.1"/>
				<circle id="XMLID_1362_" fill="#3E96D2" cx="175.4" cy="140.5" r="18.1"/>
				<circle id="XMLID_1361_" fill="#27B99A" cx="310.8" cy="306.8" r="18.1"/>
				<circle id="XMLID_332_" fill="#27B99A" cx="581.5" cy="353.7" r="18.1"/>
			</g>
			<circle id="XMLID_325_" fill="#3E96D2" cx="137.1" cy="381.4" r="18.1"/>
		</g>
	</g>
</g>
</svg>
