<?xml version="1.0" encoding="utf-8"?>
<!-- Generator: Adobe Illustrator 19.0.1, SVG Export Plug-In . SVG Version: 6.00 Build 0)  -->
<svg version="1.1" xmlns="http://www.w3.org/2000/svg" xmlns:xlink="http://www.w3.org/1999/xlink" x="0px" y="0px"
	 viewBox="0 0 430 430" enable-background="new 0 0 430 430" xml:space="preserve">
<g id="o">
	<circle id="XMLID_81_" fill="#DCDDDE" cx="215" cy="215" r="215"/>
</g>
<g id="diagrams">
	<g id="XMLID_627_">
		<g id="XMLID_669_">
			<path id="XMLID_674_" fill="#D1D3D4" d="M169.7,131.7h-66.6c-2.3,0-4.2-1.9-4.2-4.2V76.8c0-2.3,1.9-4.2,4.2-4.2h66.6
				c2.3,0,4.2,1.9,4.2,4.2v50.7C173.9,129.9,172,131.7,169.7,131.7z"/>
			<circle id="XMLID_673_" fill="#E6E7E8" cx="105.9" cy="79" r="2.4"/>
			<circle id="XMLID_672_" fill="#E6E7E8" cx="114" cy="79" r="2.4"/>
			<rect id="XMLID_671_" x="120.3" y="76.5" fill="#E6E7E8" width="49.3" height="5.7"/>
			<path id="XMLID_670_" fill="#E6E7E8" d="M168.2,127.4h-63.6c-0.9,0-1.7-0.8-1.7-1.7V87.4h67v38.3
				C169.9,126.6,169.1,127.4,168.2,127.4z"/>
		</g>
		<g id="XMLID_663_">
			<path id="XMLID_668_" fill="#C7C8CA" d="M162.7,139.1H96.1c-2.3,0-4.2-1.9-4.2-4.2V84.1c0-2.3,1.9-4.2,4.2-4.2h66.6
				c2.3,0,4.2,1.9,4.2,4.2v50.7C167,137.2,165.1,139.1,162.7,139.1z"/>
			<circle id="XMLID_667_" fill="#E6E7E8" cx="99" cy="86.3" r="2.4"/>
			<circle id="XMLID_666_" fill="#E6E7E8" cx="107.1" cy="86.3" r="2.4"/>
			<rect id="XMLID_665_" x="113.4" y="83.8" fill="#E6E7E8" width="49.3" height="5.7"/>
			<path id="XMLID_664_" fill="#E6E7E8" d="M161.2,134.7H97.6c-0.9,0-1.7-0.8-1.7-1.7V94.7h67V133
				C162.9,133.9,162.2,134.7,161.2,134.7z"/>
		</g>
		<g id="XMLID_657_">
			<path id="XMLID_662_" fill="#B6B8BA" d="M155.8,146.4H89.2c-2.3,0-4.2-1.9-4.2-4.2V91.4c0-2.3,1.9-4.2,4.2-4.2h66.6
				c2.3,0,4.2,1.9,4.2,4.2v50.7C160,144.5,158.1,146.4,155.8,146.4z"/>
			<circle id="XMLID_661_" fill="#E6E7E8" cx="92" cy="93.6" r="2.4"/>
			<circle id="XMLID_660_" fill="#E6E7E8" cx="100.1" cy="93.6" r="2.4"/>
			<rect id="XMLID_659_" x="106.4" y="91.2" fill="#E6E7E8" width="49.3" height="5.7"/>
			<path id="XMLID_658_" fill="#E6E7E8" d="M154.3,142H90.7c-0.9,0-1.7-0.8-1.7-1.7v-38.3h67v38.3C156,141.3,155.2,142,154.3,142z"
				/>
		</g>
		<g id="XMLID_651_">
			<path id="XMLID_656_" fill="#A3A5A8" d="M148.9,153.7H82.2c-2.3,0-4.2-1.9-4.2-4.2V98.8c0-2.3,1.9-4.2,4.2-4.2h66.6
				c2.3,0,4.2,1.9,4.2,4.2v50.7C153.1,151.8,151.2,153.7,148.9,153.7z"/>
			<circle id="XMLID_655_" fill="#E6E7E8" cx="85.1" cy="101" r="2.4"/>
			<circle id="XMLID_654_" fill="#E6E7E8" cx="93.2" cy="101" r="2.4"/>
			<rect id="XMLID_653_" x="99.5" y="98.5" fill="#E6E7E8" width="49.3" height="5.7"/>
			<path id="XMLID_652_" fill="#E6E7E8" d="M147.4,149.3H83.8c-0.9,0-1.7-0.8-1.7-1.7v-38.3h67v38.3
				C149,148.6,148.3,149.3,147.4,149.3z"/>
		</g>
		<g id="XMLID_628_">
			<path id="XMLID_650_" fill="#939598" d="M141.9,161.1H75.3c-2.3,0-4.2-1.9-4.2-4.2v-50.7c0-2.3,1.9-4.2,4.2-4.2h66.6
				c2.3,0,4.2,1.9,4.2,4.2v50.7C146.1,159.2,144.2,161.1,141.9,161.1z"/>
			<circle id="XMLID_649_" fill="#FFFFFF" cx="78.1" cy="108.3" r="2.4"/>
			<circle id="XMLID_648_" fill="#FFFFFF" cx="86.2" cy="108.3" r="2.4"/>
			<rect id="XMLID_647_" x="92.6" y="105.8" fill="#FFFFFF" width="49.3" height="5.7"/>
			<path id="XMLID_646_" fill="#FFFFFF" d="M140.4,156.7H76.8c-0.9,0-1.7-0.8-1.7-1.7v-38.3h67V155
				C142.1,155.9,141.3,156.7,140.4,156.7z"/>
			<g id="XMLID_629_">
				<linearGradient id="XMLID_55_" gradientUnits="userSpaceOnUse" x1="89.7723" y1="128.1109" x2="95.2682" y2="128.1109">
					<stop  offset="0" style="stop-color:#426DB5"/>
					<stop  offset="0.5" style="stop-color:#426CB4"/>
					<stop  offset="1" style="stop-color:#3E67B1"/>
				</linearGradient>
				<path id="XMLID_644_" fill="url(#XMLID_55_)" d="M92.2,132.7c-1.1,0-2-0.4-2.3-0.6c-0.2-0.1-0.2-0.3-0.2-0.7c0-0.1,0-0.8,0-1.3
					c0-0.1,0-0.3,0.2-0.3c0.1,0,0.2,0.1,0.2,0.2c0.3,1.3,1.2,2.2,2.2,2.2c0.6,0,1.7-0.4,1.7-1.6c0-1.1-1-1.7-2-2.1
					c-1.2-0.5-2.3-1.1-2.3-2.6c0-1.3,1-2.4,2.8-2.4c0.8,0,1.7,0.2,1.9,0.3c0.2,0.1,0.2,0.2,0.2,1.5c0,0.3,0,0.4-0.2,0.4
					c-0.1,0-0.2-0.1-0.3-0.5c-0.2-0.6-0.4-1.4-1.6-1.4c-1.2,0-1.6,0.8-1.6,1.4c0,1,0.8,1.4,2,1.8c0.8,0.3,2.3,1,2.3,2.6
					C95.3,131.3,94.1,132.7,92.2,132.7z"/>
				<linearGradient id="XMLID_59_" gradientUnits="userSpaceOnUse" x1="96.1933" y1="129.314" x2="102.3299" y2="129.314">
					<stop  offset="0" style="stop-color:#DE5844"/>
					<stop  offset="0.5" style="stop-color:#DC4732"/>
					<stop  offset="1" style="stop-color:#D23F28"/>
				</linearGradient>
				<path id="XMLID_641_" fill="url(#XMLID_59_)" d="M98.1,128.3c-0.2,0-0.4,0-0.4,0.8c0,1.6,1.1,2.8,2.5,2.8c0.6,0,1.2-0.2,1.6-0.6
					c0.2-0.2,0.2-0.2,0.3-0.2c0.1,0,0.1,0.1,0.1,0.1c0,0.2-1,1.5-2.8,1.5c-1.9,0-3.3-1.2-3.3-3.2c0-2.1,1.6-3.5,3.5-3.5
					c2.1,0,2.6,1.6,2.6,2.1c0,0.3-0.2,0.3-0.4,0.3H98.1z M99.9,127.8c0.6,0,1-0.3,1-0.7c0-0.8-1-0.9-1.2-0.9c-1.3,0-1.7,1.2-1.7,1.4
					c0,0.2,0.1,0.2,0.4,0.2H99.9z"/>
				<linearGradient id="XMLID_64_" gradientUnits="userSpaceOnUse" x1="103.1695" y1="129.314" x2="109.1209" y2="129.314">
					<stop  offset="0" style="stop-color:#FEC01D"/>
					<stop  offset="0.5" style="stop-color:#FDBA12"/>
					<stop  offset="1" style="stop-color:#FCB316"/>
				</linearGradient>
				<path id="XMLID_638_" fill="url(#XMLID_64_)" d="M106.5,127.5c0-0.5,0-1.2-0.7-1.2c-0.8,0-1.1,0.9-1.3,1.2
					c-0.2,0.6-1.1,0.7-1.1,0.7c-0.2,0-0.3-0.1-0.3-0.3c0-0.5,0.9-2,3.1-2c1.3,0,1.7,0.5,1.7,1v4c0,0.4,0,0.8,0.4,0.8
					c0.2,0,0.3-0.1,0.4-0.1c0.2-0.1,0.2-0.1,0.2-0.1c0.1,0,0.1,0.1,0.1,0.1c0,0.3-0.9,1-1.5,1c-0.6,0-0.8-0.4-1-0.8
					c-0.1-0.3-0.2-0.3-0.2-0.3c0,0-0.1,0.1-0.1,0.1c-0.6,0.5-1.4,1-2,1c-1,0-1.1-1-1.1-1.2c0-1,0.8-1.7,2.9-2.5
					c0.3-0.1,0.4-0.3,0.4-0.5V127.5z M106.5,129.4c0-0.1-0.1-0.2-0.2-0.2c-0.2,0-0.6,0.2-0.8,0.3c-0.9,0.4-0.9,1-0.9,1.3
					c0,0.7,0.3,0.9,0.6,0.9c0.6,0,1.2-0.5,1.2-1.5V129.4z"/>
				<linearGradient id="XMLID_67_" gradientUnits="userSpaceOnUse" x1="109.3485" y1="129.2072" x2="114.5311" y2="129.2072">
					<stop  offset="0" style="stop-color:#426DB5"/>
					<stop  offset="0.5" style="stop-color:#426CB4"/>
					<stop  offset="1" style="stop-color:#3E67B1"/>
				</linearGradient>
				<path id="XMLID_636_" fill="url(#XMLID_67_)" d="M111.7,126.8c0,0.1,0,0.2,0.1,0.2c0,0,0.1-0.1,0.1-0.1c0,0,0.7-0.9,1.6-0.9
					c0.5,0,1,0.3,1,0.9c0,0.6-0.5,0.8-0.9,0.8c-0.3,0-0.5-0.1-0.7-0.4c-0.2-0.3-0.4-0.3-0.4-0.3c-0.3,0-0.7,0.2-0.7,1.4v2.7
					c0,0.6,0,1,0.7,1c0.3,0,0.5,0,0.5,0.2c0,0.2-0.2,0.2-0.3,0.2c-0.2,0-1.4-0.1-1.7-0.1c-0.2,0-1.3,0.1-1.5,0.1
					c-0.1,0-0.2,0-0.2-0.2c0-0.1,0.1-0.2,0.4-0.2c0.6-0.1,0.6-0.2,0.6-1v-2.7c0-0.9-0.2-0.9-0.7-1c0,0-0.2,0-0.2-0.2
					c0-0.1,0.1-0.2,0.2-0.2c0.3-0.1,1.1-0.6,1.4-0.9c0,0,0.4-0.4,0.4-0.4c0.1,0,0.2,0.1,0.2,0.2V126.8z"/>
				<linearGradient id="XMLID_70_" gradientUnits="userSpaceOnUse" x1="114.631" y1="129.314" x2="120.7676" y2="129.314">
					<stop  offset="0" style="stop-color:#DE5844"/>
					<stop  offset="0.5" style="stop-color:#DC4732"/>
					<stop  offset="1" style="stop-color:#D23F28"/>
				</linearGradient>
				<path id="XMLID_633_" fill="url(#XMLID_70_)" d="M118.9,131.9c0.7,0,1.3-0.3,1.6-0.5c0,0,0.1-0.1,0.2-0.1c0.1,0,0.1,0.1,0.1,0.1
					c0,0.3-1.1,1.2-2.6,1.2c-1.6,0-3.5-1-3.5-3.2c0-2.3,2.1-3.5,3.9-3.5c0.2,0,2.2,0.1,2.2,0.9c0,0.2-0.1,1-0.4,1
					c-0.2,0-0.4-0.2-0.9-0.9c-0.4-0.6-0.7-0.8-1.1-0.8c-0.6,0-2.1,0.7-2.1,2.9C116.2,130.8,117.5,131.9,118.9,131.9z"/>
				<linearGradient id="XMLID_71_" gradientUnits="userSpaceOnUse" x1="121.1674" y1="127.7691" x2="128.9557" y2="127.7691">
					<stop  offset="0" style="stop-color:#09A562"/>
					<stop  offset="0.5" style="stop-color:#059B58"/>
					<stop  offset="1" style="stop-color:#05924B"/>
				</linearGradient>
				<path id="XMLID_630_" fill="url(#XMLID_71_)" d="M122.2,125.3c0-1,0-1.2-0.7-1.3c-0.1,0-0.2-0.1-0.2-0.2c0-0.1,0.1-0.2,0.2-0.2
					c0.7-0.1,1.1-0.3,1.5-0.5c0.2-0.1,0.3-0.2,0.4-0.2c0.2,0,0.2,0.1,0.2,0.2c0,0.1,0,0.2,0,1v2.7c0,0.1,0,0.2,0.1,0.2
					c0,0,0.1,0,0.1-0.1c0.9-0.8,1.5-1,2.1-1c2,0,2,1.5,2,2.1v3.1c0,0.8,0,1,0.6,1.1c0.4,0,0.4,0.1,0.4,0.2c0,0.2,0,0.2-0.5,0.2
					c-0.2,0-0.4-0.1-1.3-0.1c-0.6,0-1.3,0.1-1.5,0.1c-0.1,0-0.2,0-0.2-0.2c0-0.1,0.1-0.2,0.4-0.2c0.6-0.1,0.6-0.2,0.6-1v-2.8
					c0-0.5,0-1.6-1.3-1.6c-0.1,0-1.7,0-1.7,1.4v3c0,0.8,0,1,0.6,1c0.4,0,0.4,0.1,0.4,0.2c0,0.2-0.1,0.2-0.2,0.2
					c-0.2,0-0.9-0.1-1.5-0.1c-0.6,0-1.3,0.1-1.5,0.1c-0.1,0-0.2,0-0.2-0.2c0-0.1,0.1-0.2,0.4-0.2c0.6-0.1,0.6-0.2,0.6-1V125.3z"/>
			</g>
		</g>
	</g>
	<g id="XMLID_502_">
		<g id="XMLID_621_">
			<path id="XMLID_626_" fill="#D1D3D4" d="M262.2,131.7h-66.6c-2.3,0-4.2-1.9-4.2-4.2V76.8c0-2.3,1.9-4.2,4.2-4.2h66.6
				c2.3,0,4.2,1.9,4.2,4.2v50.7C266.4,129.9,264.5,131.7,262.2,131.7z"/>
			<circle id="XMLID_625_" fill="#E6E7E8" cx="198.4" cy="79" r="2.4"/>
			<circle id="XMLID_624_" fill="#E6E7E8" cx="206.5" cy="79" r="2.4"/>
			<rect id="XMLID_623_" x="212.8" y="76.5" fill="#E6E7E8" width="49.3" height="5.7"/>
			<path id="XMLID_622_" fill="#E6E7E8" d="M260.7,127.4h-63.6c-0.9,0-1.7-0.8-1.7-1.7V87.4h67v38.3
				C262.4,126.6,261.6,127.4,260.7,127.4z"/>
		</g>
		<g id="XMLID_615_">
			<path id="XMLID_620_" fill="#C7C8CA" d="M255.3,139.1h-66.6c-2.3,0-4.2-1.9-4.2-4.2V84.1c0-2.3,1.9-4.2,4.2-4.2h66.6
				c2.3,0,4.2,1.9,4.2,4.2v50.7C259.5,137.2,257.6,139.1,255.3,139.1z"/>
			<circle id="XMLID_619_" fill="#E6E7E8" cx="191.5" cy="86.3" r="2.4"/>
			<circle id="XMLID_618_" fill="#E6E7E8" cx="199.6" cy="86.3" r="2.4"/>
			<rect id="XMLID_617_" x="205.9" y="83.8" fill="#E6E7E8" width="49.3" height="5.7"/>
			<path id="XMLID_616_" fill="#E6E7E8" d="M253.7,134.7h-63.6c-0.9,0-1.7-0.8-1.7-1.7V94.7h67V133
				C255.4,133.9,254.7,134.7,253.7,134.7z"/>
		</g>
		<g id="XMLID_605_">
			<path id="XMLID_614_" fill="#B6B8BA" d="M248.3,146.4h-66.6c-2.3,0-4.2-1.9-4.2-4.2V91.4c0-2.3,1.9-4.2,4.2-4.2h66.6
				c2.3,0,4.2,1.9,4.2,4.2v50.7C252.5,144.5,250.6,146.4,248.3,146.4z"/>
			<circle id="XMLID_613_" fill="#E6E7E8" cx="184.5" cy="93.6" r="2.4"/>
			<circle id="XMLID_612_" fill="#E6E7E8" cx="192.6" cy="93.6" r="2.4"/>
			<rect id="XMLID_611_" x="198.9" y="91.2" fill="#E6E7E8" width="49.3" height="5.7"/>
			<path id="XMLID_610_" fill="#E6E7E8" d="M246.8,142h-63.6c-0.9,0-1.7-0.8-1.7-1.7v-38.3h67v38.3C248.5,141.3,247.7,142,246.8,142
				z"/>
		</g>
		<g id="XMLID_524_">
			<path id="XMLID_604_" fill="#A3A5A8" d="M241.4,153.7h-66.6c-2.3,0-4.2-1.9-4.2-4.2V98.8c0-2.3,1.9-4.2,4.2-4.2h66.6
				c2.3,0,4.2,1.9,4.2,4.2v50.7C245.6,151.8,243.7,153.7,241.4,153.7z"/>
			<circle id="XMLID_603_" fill="#E6E7E8" cx="177.6" cy="101" r="2.4"/>
			<circle id="XMLID_602_" fill="#E6E7E8" cx="185.7" cy="101" r="2.4"/>
			<rect id="XMLID_526_" x="192" y="98.5" fill="#E6E7E8" width="49.3" height="5.7"/>
			<path id="XMLID_525_" fill="#E6E7E8" d="M239.9,149.3h-63.6c-0.9,0-1.7-0.8-1.7-1.7v-38.3h67v38.3
				C241.5,148.6,240.8,149.3,239.9,149.3z"/>
		</g>
		<g id="XMLID_503_">
			<path id="XMLID_523_" fill="#939598" d="M234.4,161.1h-66.6c-2.3,0-4.2-1.9-4.2-4.2v-50.7c0-2.3,1.9-4.2,4.2-4.2h66.6
				c2.3,0,4.2,1.9,4.2,4.2v50.7C238.6,159.2,236.8,161.1,234.4,161.1z"/>
			<circle id="XMLID_522_" fill="#FFFFFF" cx="170.6" cy="108.3" r="2.4"/>
			<circle id="XMLID_521_" fill="#FFFFFF" cx="178.7" cy="108.3" r="2.4"/>
			<rect id="XMLID_520_" x="185.1" y="105.8" fill="#FFFFFF" width="49.3" height="5.7"/>
			<path id="XMLID_519_" fill="#FFFFFF" d="M232.9,156.7h-63.6c-0.9,0-1.7-0.8-1.7-1.7v-38.3h67V155
				C234.6,155.9,233.8,156.7,232.9,156.7z"/>
			<g id="XMLID_504_">
				<linearGradient id="XMLID_72_" gradientUnits="userSpaceOnUse" x1="182.2757" y1="128.1109" x2="187.7716" y2="128.1109">
					<stop  offset="0" style="stop-color:#426DB5"/>
					<stop  offset="0.5" style="stop-color:#426CB4"/>
					<stop  offset="1" style="stop-color:#3E67B1"/>
				</linearGradient>
				<path id="XMLID_517_" fill="url(#XMLID_72_)" d="M184.7,132.7c-1.1,0-2-0.4-2.3-0.6c-0.2-0.1-0.2-0.3-0.2-0.7c0-0.1,0-0.8,0-1.3
					c0-0.1,0-0.3,0.2-0.3c0.1,0,0.2,0.1,0.2,0.2c0.3,1.3,1.2,2.2,2.2,2.2c0.6,0,1.7-0.4,1.7-1.6c0-1.1-1-1.7-2-2.1
					c-1.2-0.5-2.3-1.1-2.3-2.6c0-1.3,1-2.4,2.8-2.4c0.8,0,1.7,0.2,1.9,0.3c0.2,0.1,0.2,0.2,0.2,1.5c0,0.3,0,0.4-0.2,0.4
					c-0.1,0-0.2-0.1-0.3-0.5c-0.2-0.6-0.4-1.4-1.6-1.4c-1.2,0-1.6,0.8-1.6,1.4c0,1,0.8,1.4,2,1.8c0.8,0.3,2.3,1,2.3,2.6
					C187.8,131.3,186.6,132.7,184.7,132.7z"/>
				<linearGradient id="XMLID_73_" gradientUnits="userSpaceOnUse" x1="188.6967" y1="129.314" x2="194.8333" y2="129.314">
					<stop  offset="0" style="stop-color:#DE5844"/>
					<stop  offset="0.5" style="stop-color:#DC4732"/>
					<stop  offset="1" style="stop-color:#D23F28"/>
				</linearGradient>
				<path id="XMLID_514_" fill="url(#XMLID_73_)" d="M190.6,128.3c-0.2,0-0.4,0-0.4,0.8c0,1.6,1.1,2.8,2.5,2.8
					c0.6,0,1.2-0.2,1.6-0.6c0.2-0.2,0.2-0.2,0.3-0.2c0.1,0,0.1,0.1,0.1,0.1c0,0.2-1,1.5-2.8,1.5c-1.9,0-3.3-1.2-3.3-3.2
					c0-2.1,1.6-3.5,3.5-3.5c2.1,0,2.6,1.6,2.6,2.1c0,0.3-0.2,0.3-0.4,0.3H190.6z M192.4,127.8c0.6,0,1-0.3,1-0.7
					c0-0.8-1-0.9-1.2-0.9c-1.3,0-1.7,1.2-1.7,1.4c0,0.2,0.1,0.2,0.4,0.2H192.4z"/>
				<linearGradient id="XMLID_74_" gradientUnits="userSpaceOnUse" x1="195.6729" y1="129.314" x2="201.6243" y2="129.314">
					<stop  offset="0" style="stop-color:#FEC01D"/>
					<stop  offset="0.5" style="stop-color:#FDBA12"/>
					<stop  offset="1" style="stop-color:#FCB316"/>
				</linearGradient>
				<path id="XMLID_511_" fill="url(#XMLID_74_)" d="M199,127.5c0-0.5,0-1.2-0.7-1.2c-0.8,0-1.1,0.9-1.3,1.2
					c-0.2,0.6-1.1,0.7-1.1,0.7c-0.2,0-0.3-0.1-0.3-0.3c0-0.5,0.9-2,3.1-2c1.3,0,1.7,0.5,1.7,1v4c0,0.4,0,0.8,0.4,0.8
					c0.2,0,0.3-0.1,0.4-0.1c0.2-0.1,0.2-0.1,0.2-0.1c0.1,0,0.1,0.1,0.1,0.1c0,0.3-0.9,1-1.5,1c-0.6,0-0.8-0.4-1-0.8
					c-0.1-0.3-0.2-0.3-0.2-0.3c0,0-0.1,0.1-0.1,0.1c-0.6,0.5-1.4,1-2,1c-1,0-1.1-1-1.1-1.2c0-1,0.8-1.7,2.9-2.5
					c0.3-0.1,0.4-0.3,0.4-0.5V127.5z M199,129.4c0-0.1-0.1-0.2-0.2-0.2c-0.2,0-0.6,0.2-0.8,0.3c-0.9,0.4-0.9,1-0.9,1.3
					c0,0.7,0.3,0.9,0.6,0.9c0.6,0,1.2-0.5,1.2-1.5V129.4z"/>
				<linearGradient id="XMLID_75_" gradientUnits="userSpaceOnUse" x1="201.8519" y1="129.2072" x2="207.0346" y2="129.2072">
					<stop  offset="0" style="stop-color:#426DB5"/>
					<stop  offset="0.5" style="stop-color:#426CB4"/>
					<stop  offset="1" style="stop-color:#3E67B1"/>
				</linearGradient>
				<path id="XMLID_509_" fill="url(#XMLID_75_)" d="M204.2,126.8c0,0.1,0,0.2,0.1,0.2c0,0,0.1-0.1,0.1-0.1c0,0,0.7-0.9,1.6-0.9
					c0.5,0,1,0.3,1,0.9c0,0.6-0.5,0.8-0.9,0.8c-0.3,0-0.5-0.1-0.7-0.4c-0.2-0.3-0.4-0.3-0.4-0.3c-0.3,0-0.7,0.2-0.7,1.4v2.7
					c0,0.6,0,1,0.7,1c0.3,0,0.5,0,0.5,0.2c0,0.2-0.2,0.2-0.3,0.2c-0.2,0-1.4-0.1-1.7-0.1c-0.2,0-1.3,0.1-1.5,0.1
					c-0.1,0-0.2,0-0.2-0.2c0-0.1,0.1-0.2,0.4-0.2c0.6-0.1,0.6-0.2,0.6-1v-2.7c0-0.9-0.2-0.9-0.7-1c0,0-0.2,0-0.2-0.2
					c0-0.1,0.1-0.2,0.2-0.2c0.3-0.1,1.1-0.6,1.4-0.9c0,0,0.4-0.4,0.4-0.4c0.1,0,0.2,0.1,0.2,0.2V126.8z"/>
				<linearGradient id="XMLID_77_" gradientUnits="userSpaceOnUse" x1="207.1344" y1="129.314" x2="213.271" y2="129.314">
					<stop  offset="0" style="stop-color:#DE5844"/>
					<stop  offset="0.5" style="stop-color:#DC4732"/>
					<stop  offset="1" style="stop-color:#D23F28"/>
				</linearGradient>
				<path id="XMLID_507_" fill="url(#XMLID_77_)" d="M211.4,131.9c0.7,0,1.3-0.3,1.6-0.5c0,0,0.1-0.1,0.2-0.1c0.1,0,0.1,0.1,0.1,0.1
					c0,0.3-1.1,1.2-2.6,1.2c-1.6,0-3.5-1-3.5-3.2c0-2.3,2.1-3.5,3.9-3.5c0.2,0,2.2,0.1,2.2,0.9c0,0.2-0.1,1-0.4,1
					c-0.2,0-0.4-0.2-0.9-0.9c-0.4-0.6-0.7-0.8-1.1-0.8c-0.6,0-2.1,0.7-2.1,2.9C208.7,130.8,210,131.9,211.4,131.9z"/>
				<linearGradient id="XMLID_78_" gradientUnits="userSpaceOnUse" x1="213.6708" y1="127.7691" x2="221.4591" y2="127.7691">
					<stop  offset="0" style="stop-color:#09A562"/>
					<stop  offset="0.5" style="stop-color:#059B58"/>
					<stop  offset="1" style="stop-color:#05924B"/>
				</linearGradient>
				<path id="XMLID_505_" fill="url(#XMLID_78_)" d="M214.7,125.3c0-1,0-1.2-0.7-1.3c-0.1,0-0.2-0.1-0.2-0.2c0-0.1,0.1-0.2,0.2-0.2
					c0.7-0.1,1.1-0.3,1.5-0.5c0.2-0.1,0.3-0.2,0.4-0.2c0.2,0,0.2,0.1,0.2,0.2c0,0.1,0,0.2,0,1v2.7c0,0.1,0,0.2,0.1,0.2
					c0,0,0.1,0,0.1-0.1c0.9-0.8,1.5-1,2.1-1c2,0,2,1.5,2,2.1v3.1c0,0.8,0,1,0.6,1.1c0.4,0,0.4,0.1,0.4,0.2c0,0.2,0,0.2-0.5,0.2
					c-0.2,0-0.4-0.1-1.3-0.1c-0.6,0-1.3,0.1-1.5,0.1c-0.1,0-0.2,0-0.2-0.2c0-0.1,0.1-0.2,0.4-0.2c0.6-0.1,0.6-0.2,0.6-1v-2.8
					c0-0.5,0-1.6-1.3-1.6c-0.1,0-1.7,0-1.7,1.4v3c0,0.8,0,1,0.6,1c0.4,0,0.4,0.1,0.4,0.2c0,0.2-0.1,0.2-0.2,0.2
					c-0.2,0-0.9-0.1-1.5-0.1c-0.6,0-1.3,0.1-1.5,0.1c-0.1,0-0.2,0-0.2-0.2c0-0.1,0.1-0.2,0.4-0.2c0.6-0.1,0.6-0.2,0.6-1V125.3z"/>
			</g>
		</g>
	</g>
	<g id="XMLID_97_">
		<g id="XMLID_359_">
			<path id="XMLID_491_" fill="#D1D3D4" d="M354.7,131.7h-66.6c-2.3,0-4.2-1.9-4.2-4.2V76.8c0-2.3,1.9-4.2,4.2-4.2h66.6
				c2.3,0,4.2,1.9,4.2,4.2v50.7C358.9,129.9,357,131.7,354.7,131.7z"/>
			<circle id="XMLID_369_" fill="#E6E7E8" cx="290.9" cy="79" r="2.4"/>
			<circle id="XMLID_364_" fill="#E6E7E8" cx="299" cy="79" r="2.4"/>
			<rect id="XMLID_363_" x="305.3" y="76.5" fill="#E6E7E8" width="49.3" height="5.7"/>
			<path id="XMLID_360_" fill="#E6E7E8" d="M353.2,127.4h-63.6c-0.9,0-1.7-0.8-1.7-1.7V87.4h67v38.3
				C354.9,126.6,354.1,127.4,353.2,127.4z"/>
		</g>
		<g id="XMLID_353_">
			<path id="XMLID_358_" fill="#C7C8CA" d="M347.8,139.1h-66.6c-2.3,0-4.2-1.9-4.2-4.2V84.1c0-2.3,1.9-4.2,4.2-4.2h66.6
				c2.3,0,4.2,1.9,4.2,4.2v50.7C352,137.2,350.1,139.1,347.8,139.1z"/>
			<circle id="XMLID_357_" fill="#E6E7E8" cx="284" cy="86.3" r="2.4"/>
			<circle id="XMLID_356_" fill="#E6E7E8" cx="292.1" cy="86.3" r="2.4"/>
			<rect id="XMLID_355_" x="298.4" y="83.8" fill="#E6E7E8" width="49.3" height="5.7"/>
			<path id="XMLID_354_" fill="#E6E7E8" d="M346.2,134.7h-63.6c-0.9,0-1.7-0.8-1.7-1.7V94.7h67V133
				C347.9,133.9,347.2,134.7,346.2,134.7z"/>
		</g>
		<g id="XMLID_345_">
			<path id="XMLID_352_" fill="#B6B8BA" d="M340.8,146.4h-66.6c-2.3,0-4.2-1.9-4.2-4.2V91.4c0-2.3,1.9-4.2,4.2-4.2h66.6
				c2.3,0,4.2,1.9,4.2,4.2v50.7C345,144.5,343.1,146.4,340.8,146.4z"/>
			<circle id="XMLID_351_" fill="#E6E7E8" cx="277" cy="93.6" r="2.4"/>
			<circle id="XMLID_350_" fill="#E6E7E8" cx="285.1" cy="93.6" r="2.4"/>
			<rect id="XMLID_348_" x="291.4" y="91.2" fill="#E6E7E8" width="49.3" height="5.7"/>
			<path id="XMLID_346_" fill="#E6E7E8" d="M339.3,142h-63.6c-0.9,0-1.7-0.8-1.7-1.7v-38.3h67v38.3C341,141.3,340.2,142,339.3,142z"
				/>
		</g>
		<g id="XMLID_334_">
			<path id="XMLID_342_" fill="#A3A5A8" d="M333.9,153.7h-66.6c-2.3,0-4.2-1.9-4.2-4.2V98.8c0-2.3,1.9-4.2,4.2-4.2h66.6
				c2.3,0,4.2,1.9,4.2,4.2v50.7C338.1,151.8,336.2,153.7,333.9,153.7z"/>
			<circle id="XMLID_341_" fill="#E6E7E8" cx="270.1" cy="101" r="2.4"/>
			<circle id="XMLID_340_" fill="#E6E7E8" cx="278.2" cy="101" r="2.4"/>
			<rect id="XMLID_339_" x="284.5" y="98.5" fill="#E6E7E8" width="49.3" height="5.7"/>
			<path id="XMLID_336_" fill="#E6E7E8" d="M332.4,149.3h-63.6c-0.9,0-1.7-0.8-1.7-1.7v-38.3h67v38.3
				C334,148.6,333.3,149.3,332.4,149.3z"/>
		</g>
		<g id="XMLID_98_">
			<path id="XMLID_333_" fill="#939598" d="M326.9,161.1h-66.6c-2.3,0-4.2-1.9-4.2-4.2v-50.7c0-2.3,1.9-4.2,4.2-4.2h66.6
				c2.3,0,4.2,1.9,4.2,4.2v50.7C331.1,159.2,329.3,161.1,326.9,161.1z"/>
			<circle id="XMLID_331_" fill="#FFFFFF" cx="263.1" cy="108.3" r="2.4"/>
			<circle id="XMLID_330_" fill="#FFFFFF" cx="271.2" cy="108.3" r="2.4"/>
			<rect id="XMLID_329_" x="277.6" y="105.8" fill="#FFFFFF" width="49.3" height="5.7"/>
			<path id="XMLID_324_" fill="#FFFFFF" d="M325.4,156.7h-63.6c-0.9,0-1.7-0.8-1.7-1.7v-38.3h67V155
				C327.1,155.9,326.3,156.7,325.4,156.7z"/>
			<g id="XMLID_99_">
				<linearGradient id="XMLID_79_" gradientUnits="userSpaceOnUse" x1="274.7791" y1="128.1109" x2="280.2751" y2="128.1109">
					<stop  offset="0" style="stop-color:#426DB5"/>
					<stop  offset="0.5" style="stop-color:#426CB4"/>
					<stop  offset="1" style="stop-color:#3E67B1"/>
				</linearGradient>
				<path id="XMLID_301_" fill="url(#XMLID_79_)" d="M277.2,132.7c-1.1,0-2-0.4-2.3-0.6c-0.2-0.1-0.2-0.3-0.2-0.7c0-0.1,0-0.8,0-1.3
					c0-0.1,0-0.3,0.2-0.3c0.1,0,0.2,0.1,0.2,0.2c0.3,1.3,1.2,2.2,2.2,2.2c0.6,0,1.7-0.4,1.7-1.6c0-1.1-1-1.7-2-2.1
					c-1.2-0.5-2.3-1.1-2.3-2.6c0-1.3,1-2.4,2.8-2.4c0.8,0,1.7,0.2,1.9,0.3c0.2,0.1,0.2,0.2,0.2,1.5c0,0.3,0,0.4-0.2,0.4
					c-0.1,0-0.2-0.1-0.3-0.5c-0.2-0.6-0.4-1.4-1.6-1.4c-1.2,0-1.6,0.8-1.6,1.4c0,1,0.8,1.4,2,1.8c0.8,0.3,2.3,1,2.3,2.6
					C280.3,131.3,279.1,132.7,277.2,132.7z"/>
				<linearGradient id="XMLID_80_" gradientUnits="userSpaceOnUse" x1="281.2001" y1="129.314" x2="287.3367" y2="129.314">
					<stop  offset="0" style="stop-color:#DE5844"/>
					<stop  offset="0.5" style="stop-color:#DC4732"/>
					<stop  offset="1" style="stop-color:#D23F28"/>
				</linearGradient>
				<path id="XMLID_298_" fill="url(#XMLID_80_)" d="M283.2,128.3c-0.2,0-0.4,0-0.4,0.8c0,1.6,1.1,2.8,2.5,2.8
					c0.6,0,1.2-0.2,1.6-0.6c0.2-0.2,0.2-0.2,0.3-0.2c0.1,0,0.1,0.1,0.1,0.1c0,0.2-1,1.5-2.8,1.5c-1.9,0-3.3-1.2-3.3-3.2
					c0-2.1,1.6-3.5,3.5-3.5c2.1,0,2.6,1.6,2.6,2.1c0,0.3-0.2,0.3-0.4,0.3H283.2z M284.9,127.8c0.6,0,1-0.3,1-0.7
					c0-0.8-1-0.9-1.2-0.9c-1.3,0-1.7,1.2-1.7,1.4c0,0.2,0.1,0.2,0.4,0.2H284.9z"/>
				<linearGradient id="XMLID_82_" gradientUnits="userSpaceOnUse" x1="288.1763" y1="129.314" x2="294.1277" y2="129.314">
					<stop  offset="0" style="stop-color:#FEC01D"/>
					<stop  offset="0.5" style="stop-color:#FDBA12"/>
					<stop  offset="1" style="stop-color:#FCB316"/>
				</linearGradient>
				<path id="XMLID_295_" fill="url(#XMLID_82_)" d="M291.5,127.5c0-0.5,0-1.2-0.7-1.2c-0.8,0-1.1,0.9-1.3,1.2
					c-0.2,0.6-1.1,0.7-1.1,0.7c-0.2,0-0.3-0.1-0.3-0.3c0-0.5,0.9-2,3.1-2c1.3,0,1.7,0.5,1.7,1v4c0,0.4,0,0.8,0.4,0.8
					c0.2,0,0.3-0.1,0.4-0.1c0.2-0.1,0.2-0.1,0.2-0.1c0.1,0,0.1,0.1,0.1,0.1c0,0.3-0.9,1-1.5,1c-0.6,0-0.8-0.4-1-0.8
					c-0.1-0.3-0.2-0.3-0.2-0.3c0,0-0.1,0.1-0.1,0.1c-0.6,0.5-1.4,1-2,1c-1,0-1.1-1-1.1-1.2c0-1,0.8-1.7,2.9-2.5
					c0.3-0.1,0.4-0.3,0.4-0.5V127.5z M291.5,129.4c0-0.1-0.1-0.2-0.2-0.2c-0.2,0-0.6,0.2-0.8,0.3c-0.9,0.4-0.9,1-0.9,1.3
					c0,0.7,0.3,0.9,0.6,0.9c0.6,0,1.2-0.5,1.2-1.5V129.4z"/>
				<linearGradient id="XMLID_83_" gradientUnits="userSpaceOnUse" x1="294.3553" y1="129.2072" x2="299.538" y2="129.2072">
					<stop  offset="0" style="stop-color:#426DB5"/>
					<stop  offset="0.5" style="stop-color:#426CB4"/>
					<stop  offset="1" style="stop-color:#3E67B1"/>
				</linearGradient>
				<path id="XMLID_155_" fill="url(#XMLID_83_)" d="M296.7,126.8c0,0.1,0,0.2,0.1,0.2c0,0,0.1-0.1,0.1-0.1c0,0,0.7-0.9,1.6-0.9
					c0.5,0,1,0.3,1,0.9c0,0.6-0.5,0.8-0.9,0.8c-0.3,0-0.5-0.1-0.7-0.4c-0.2-0.3-0.4-0.3-0.4-0.3c-0.3,0-0.7,0.2-0.7,1.4v2.7
					c0,0.6,0,1,0.7,1c0.3,0,0.5,0,0.5,0.2c0,0.2-0.2,0.2-0.3,0.2c-0.2,0-1.4-0.1-1.7-0.1c-0.2,0-1.3,0.1-1.5,0.1
					c-0.1,0-0.2,0-0.2-0.2c0-0.1,0.1-0.2,0.4-0.2c0.6-0.1,0.6-0.2,0.6-1v-2.7c0-0.9-0.2-0.9-0.7-1c0,0-0.2,0-0.2-0.2
					c0-0.1,0.1-0.2,0.2-0.2c0.3-0.1,1.1-0.6,1.4-0.9c0,0,0.4-0.4,0.4-0.4c0.1,0,0.2,0.1,0.2,0.2V126.8z"/>
				<linearGradient id="XMLID_84_" gradientUnits="userSpaceOnUse" x1="299.6378" y1="129.314" x2="305.7744" y2="129.314">
					<stop  offset="0" style="stop-color:#DE5844"/>
					<stop  offset="0.5" style="stop-color:#DC4732"/>
					<stop  offset="1" style="stop-color:#D23F28"/>
				</linearGradient>
				<path id="XMLID_153_" fill="url(#XMLID_84_)" d="M303.9,131.9c0.7,0,1.3-0.3,1.6-0.5c0,0,0.1-0.1,0.2-0.1c0.1,0,0.1,0.1,0.1,0.1
					c0,0.3-1.1,1.2-2.6,1.2c-1.6,0-3.5-1-3.5-3.2c0-2.3,2.1-3.5,3.9-3.5c0.2,0,2.2,0.1,2.2,0.9c0,0.2-0.1,1-0.4,1
					c-0.2,0-0.4-0.2-0.9-0.9c-0.4-0.6-0.7-0.8-1.1-0.8c-0.6,0-2.1,0.7-2.1,2.9C301.2,130.8,302.5,131.9,303.9,131.9z"/>
				<linearGradient id="XMLID_85_" gradientUnits="userSpaceOnUse" x1="306.1742" y1="127.7691" x2="313.9625" y2="127.7691">
					<stop  offset="0" style="stop-color:#09A562"/>
					<stop  offset="0.5" style="stop-color:#059B58"/>
					<stop  offset="1" style="stop-color:#05924B"/>
				</linearGradient>
				<path id="XMLID_151_" fill="url(#XMLID_85_)" d="M307.2,125.3c0-1,0-1.2-0.7-1.3c-0.1,0-0.2-0.1-0.2-0.2c0-0.1,0.1-0.2,0.2-0.2
					c0.7-0.1,1.1-0.3,1.5-0.5c0.2-0.1,0.3-0.2,0.4-0.2c0.2,0,0.2,0.1,0.2,0.2c0,0.1,0,0.2,0,1v2.7c0,0.1,0,0.2,0.1,0.2
					c0,0,0.1,0,0.1-0.1c0.9-0.8,1.5-1,2.1-1c2,0,2,1.5,2,2.1v3.1c0,0.8,0,1,0.6,1.1c0.4,0,0.4,0.1,0.4,0.2c0,0.2,0,0.2-0.5,0.2
					c-0.2,0-0.4-0.1-1.3-0.1c-0.6,0-1.3,0.1-1.5,0.1c-0.1,0-0.2,0-0.2-0.2c0-0.1,0.1-0.2,0.4-0.2c0.6-0.1,0.6-0.2,0.6-1v-2.8
					c0-0.5,0-1.6-1.3-1.6c-0.1,0-1.7,0-1.7,1.4v3c0,0.8,0,1,0.6,1c0.4,0,0.4,0.1,0.4,0.2c0,0.2-0.1,0.2-0.2,0.2
					c-0.2,0-0.9-0.1-1.5-0.1c-0.6,0-1.3,0.1-1.5,0.1c-0.1,0-0.2,0-0.2-0.2c0-0.1,0.1-0.2,0.4-0.2c0.6-0.1,0.6-0.2,0.6-1V125.3z"/>
			</g>
		</g>
	</g>
	<g id="XMLID_311_">
		
			<rect id="XMLID_455_" x="271.7" y="219.5" transform="matrix(0.995 -0.1001 0.1001 0.995 -25.9086 32.8459)" fill-rule="evenodd" clip-rule="evenodd" fill="#FFFFFF" width="85" height="110"/>
		<g id="XMLID_444_">
			<polyline id="XMLID_454_" fill="none" stroke="#939598" stroke-width="1.75" stroke-miterlimit="10" points="294.6,312.3 
				307.9,308.9 323.5,316 339,309.9 			"/>
			<circle id="XMLID_453_" fill="#939598" cx="307.9" cy="308.9" r="2"/>
			<circle id="XMLID_452_" fill="#939598" cx="323.5" cy="316" r="2"/>
			<circle id="XMLID_451_" fill="#939598" cx="339" cy="309.9" r="2"/>
			<circle id="XMLID_450_" fill="#939598" cx="294.6" cy="312.3" r="2"/>
			<polyline id="XMLID_449_" fill="none" stroke="#939598" stroke-width="1.75" stroke-miterlimit="10" points="300.9,296 
				318.1,303.7 330.2,296.1 344.7,303.2 			"/>
			<circle id="XMLID_448_" fill="#939598" cx="318.1" cy="303.7" r="2"/>
			<circle id="XMLID_447_" fill="#939598" cx="330.2" cy="296.1" r="2"/>
			<circle id="XMLID_446_" fill="#939598" cx="344.7" cy="303.2" r="2"/>
			<circle id="XMLID_445_" fill="#939598" cx="300.9" cy="296" r="2"/>
		</g>
		<g id="XMLID_437_">
			
				<rect id="XMLID_443_" x="275.9" y="248.9" transform="matrix(-0.995 0.1001 -0.1001 -0.995 609.1678 469.784)" fill="#D1D3D4" width="33.8" height="2.6"/>
			
				<rect id="XMLID_442_" x="275.5" y="244.7" transform="matrix(-0.995 0.1001 -0.1001 -0.995 607.9117 461.4995)" fill="#D1D3D4" width="33.8" height="2.6"/>
			
				<rect id="XMLID_441_" x="275.1" y="240.5" transform="matrix(-0.995 0.1001 -0.1001 -0.995 606.6556 453.215)" fill="#D1D3D4" width="33.8" height="2.6"/>
			
				<rect id="XMLID_440_" x="274.7" y="236.3" transform="matrix(-0.995 0.1001 -0.1001 -0.995 605.3995 444.9305)" fill="#D1D3D4" width="33.8" height="2.6"/>
			
				<rect id="XMLID_439_" x="274.2" y="232.2" transform="matrix(-0.995 0.1001 -0.1001 -0.995 604.1434 436.6461)" fill="#D1D3D4" width="33.8" height="2.6"/>
			
				<rect id="XMLID_438_" x="273.8" y="228.6" transform="matrix(-0.995 0.1001 -0.1001 -0.995 590.0613 430.3062)" fill="#D1D3D4" width="20.8" height="2.6"/>
		</g>
		<g id="XMLID_430_">
			
				<rect id="XMLID_436_" x="316.1" y="244.8" transform="matrix(-0.995 0.1001 -0.1001 -0.995 688.8591 457.7011)" fill="#D1D3D4" width="33.8" height="2.6"/>
			
				<rect id="XMLID_435_" x="315.6" y="240.6" transform="matrix(-0.995 0.1001 -0.1001 -0.995 687.603 449.4166)" fill="#D1D3D4" width="33.8" height="2.6"/>
			
				<rect id="XMLID_434_" x="315.2" y="236.5" transform="matrix(-0.995 0.1001 -0.1001 -0.995 686.3469 441.1321)" fill="#D1D3D4" width="33.8" height="2.6"/>
			
				<rect id="XMLID_433_" x="314.8" y="232.3" transform="matrix(-0.995 0.1001 -0.1001 -0.995 685.0908 432.8476)" fill="#D1D3D4" width="33.8" height="2.6"/>
			
				<rect id="XMLID_432_" x="314.4" y="228.1" transform="matrix(-0.995 0.1001 -0.1001 -0.995 683.8347 424.5631)" fill="#D1D3D4" width="33.8" height="2.6"/>
			
				<rect id="XMLID_431_" x="314" y="225" transform="matrix(-0.995 0.1001 -0.1001 -0.995 661.7164 419.4418)" fill="#D1D3D4" width="12.6" height="2.6"/>
		</g>
		<g id="XMLID_312_">
			
				<rect id="XMLID_429_" x="309.5" y="279.4" transform="matrix(-0.995 0.1001 -0.1001 -0.995 689.3552 527.8247)" fill="#D1D3D4" width="43.8" height="3.7"/>
			
				<rect id="XMLID_428_" x="308.3" y="266.9" transform="matrix(-0.995 0.1001 -0.1001 -0.995 685.5934 503.0148)" fill="#939598" width="43.8" height="3.7"/>
			
				<rect id="XMLID_427_" x="307" y="254.4" transform="matrix(-0.995 0.1001 -0.1001 -0.995 681.8326 478.2105)" fill="#D1D3D4" width="43.8" height="3.7"/>
			
				<rect id="XMLID_426_" x="307.6" y="260.6" transform="matrix(-0.995 0.1001 -0.1001 -0.995 683.7128 490.6115)" fill="#939598" width="43.8" height="3.7"/>
			
				<rect id="XMLID_425_" x="308.9" y="273.1" transform="matrix(-0.995 0.1001 -0.1001 -0.995 687.474 515.4181)" fill="#D1D3D4" width="43.8" height="3.7"/>
			
				<rect id="XMLID_424_" x="279.4" y="284" transform="matrix(-0.995 0.1001 -0.1001 -0.995 598.6787 541.5732)" fill="#D1D3D4" width="12.6" height="3.7"/>
			
				<rect id="XMLID_423_" x="278.2" y="271.5" transform="matrix(-0.995 0.1001 -0.1001 -0.995 594.917 516.7633)" fill="#939598" width="12.6" height="3.7"/>
			
				<rect id="XMLID_422_" x="276.9" y="259" transform="matrix(-0.995 0.1001 -0.1001 -0.995 591.1561 491.959)" fill="#D1D3D4" width="12.6" height="3.7"/>
			
				<rect id="XMLID_421_" x="277.6" y="265.2" transform="matrix(-0.995 0.1001 -0.1001 -0.995 593.0364 504.36)" fill="#D1D3D4" width="12.6" height="3.7"/>
			
				<rect id="XMLID_420_" x="278.8" y="277.7" transform="matrix(-0.995 0.1001 -0.1001 -0.995 596.7976 529.1666)" fill="#939598" width="12.6" height="3.7"/>
			
				<rect id="XMLID_317_" x="294.1" y="282.5" transform="matrix(-0.995 0.1001 -0.1001 -0.995 627.7025 537.1726)" fill="#D1D3D4" width="12.6" height="3.7"/>
			
				<rect id="XMLID_316_" x="292.8" y="270" transform="matrix(-0.995 0.1001 -0.1001 -0.995 623.9408 512.3627)" fill="#D1D3D4" width="12.6" height="3.7"/>
			
				<rect id="XMLID_315_" x="291.6" y="257.5" transform="matrix(-0.995 0.1001 -0.1001 -0.995 620.1799 487.5584)" fill="#D1D3D4" width="12.6" height="3.7"/>
			
				<rect id="XMLID_314_" x="292.2" y="263.8" transform="matrix(-0.995 0.1001 -0.1001 -0.995 622.0602 499.9594)" fill="#D1D3D4" width="12.6" height="3.7"/>
			
				<rect id="XMLID_313_" x="293.4" y="276.3" transform="matrix(-0.995 0.1001 -0.1001 -0.995 625.8214 524.766)" fill="#D1D3D4" width="12.6" height="3.7"/>
		</g>
	</g>
	
		<rect id="XMLID_488_" x="234.4" y="234" transform="matrix(0.9902 0.1399 -0.1399 0.9902 43.1568 -35.8993)" fill-rule="evenodd" clip-rule="evenodd" fill="#BCBEC0" width="85" height="110"/>
	<g id="XMLID_310_">
		
			<rect id="XMLID_26_" x="231.3" y="231" transform="matrix(0.997 7.766717e-02 -7.766717e-02 0.997 23.0372 -20.3987)" fill-rule="evenodd" clip-rule="evenodd" fill="#FFFFFF" width="85" height="110"/>
		<g id="XMLID_406_">
			
				<rect id="XMLID_487_" x="270.6" y="238.7" transform="matrix(-0.997 -7.766717e-02 7.766717e-02 -0.997 565.4613 502.985)" fill="#D1D3D4" width="43.8" height="3.7"/>
			
				<rect id="XMLID_486_" x="269.6" y="251.2" transform="matrix(-0.997 -7.766717e-02 7.766717e-02 -0.997 562.5401 527.9205)" fill="#939598" width="43.8" height="3.7"/>
			
				<rect id="XMLID_485_" x="268.7" y="263.7" transform="matrix(-0.997 -7.766717e-02 7.766717e-02 -0.997 559.6196 552.8504)" fill="#D1D3D4" width="43.8" height="3.7"/>
			
				<rect id="XMLID_484_" x="269.2" y="257.4" transform="matrix(-0.997 -7.766717e-02 7.766717e-02 -0.997 561.0797 540.3867)" fill="#939598" width="43.8" height="3.7"/>
			
				<rect id="XMLID_483_" x="270.1" y="244.9" transform="matrix(-0.997 -7.766717e-02 7.766717e-02 -0.997 564.0005 515.4544)" fill="#D1D3D4" width="43.8" height="3.7"/>
			
				<rect id="XMLID_482_" x="240.4" y="235.1" transform="matrix(-0.997 -7.766717e-02 7.766717e-02 -0.997 474.3256 492.3084)" fill="#D1D3D4" width="12.6" height="3.7"/>
			
				<rect id="XMLID_481_" x="239.5" y="247.6" transform="matrix(-0.997 -7.766717e-02 7.766717e-02 -0.997 471.4044 517.244)" fill="#939598" width="12.6" height="3.7"/>
			
				<rect id="XMLID_480_" x="238.5" y="260.1" transform="matrix(-0.997 -7.766717e-02 7.766717e-02 -0.997 468.4839 542.1739)" fill="#D1D3D4" width="12.6" height="3.7"/>
			
				<rect id="XMLID_479_" x="239" y="253.9" transform="matrix(-0.997 -7.766717e-02 7.766717e-02 -0.997 469.944 529.7101)" fill="#D1D3D4" width="12.6" height="3.7"/>
			
				<rect id="XMLID_478_" x="239.9" y="241.4" transform="matrix(-0.997 -7.766717e-02 7.766717e-02 -0.997 472.8648 504.7779)" fill="#939598" width="12.6" height="3.7"/>
			
				<rect id="XMLID_477_" x="255.1" y="236.2" transform="matrix(-0.997 -7.766717e-02 7.766717e-02 -0.997 503.4964 495.7258)" fill="#D1D3D4" width="12.6" height="3.7"/>
			
				<rect id="XMLID_476_" x="254.1" y="248.8" transform="matrix(-0.997 -7.766717e-02 7.766717e-02 -0.997 500.5752 520.6614)" fill="#D1D3D4" width="12.6" height="3.7"/>
			
				<rect id="XMLID_475_" x="253.1" y="261.3" transform="matrix(-0.997 -7.766717e-02 7.766717e-02 -0.997 497.6547 545.5912)" fill="#D1D3D4" width="12.6" height="3.7"/>
			
				<rect id="XMLID_474_" x="253.6" y="255" transform="matrix(-0.997 -7.766717e-02 7.766717e-02 -0.997 499.1148 533.1274)" fill="#D1D3D4" width="12.6" height="3.7"/>
			
				<rect id="XMLID_473_" x="254.6" y="242.5" transform="matrix(-0.997 -7.766717e-02 7.766717e-02 -0.997 502.0356 508.1953)" fill="#D1D3D4" width="12.6" height="3.7"/>
			
				<rect id="XMLID_472_" x="268" y="272.8" transform="matrix(-0.997 -7.766717e-02 7.766717e-02 -0.997 557.5018 570.9276)" fill="#D1D3D4" width="43.8" height="3.7"/>
			
				<rect id="XMLID_471_" x="267" y="285.3" transform="matrix(-0.997 -7.766717e-02 7.766717e-02 -0.997 554.5806 595.8632)" fill="#939598" width="43.8" height="3.7"/>
			
				<rect id="XMLID_470_" x="266" y="297.8" transform="matrix(-0.997 -7.766717e-02 7.766717e-02 -0.997 551.6601 620.793)" fill="#D1D3D4" width="43.8" height="3.7"/>
			
				<rect id="XMLID_469_" x="266.5" y="291.6" transform="matrix(-0.997 -7.766717e-02 7.766717e-02 -0.997 553.1202 608.3293)" fill="#939598" width="43.8" height="3.7"/>
			
				<rect id="XMLID_468_" x="267.5" y="279.1" transform="matrix(-0.997 -7.766717e-02 7.766717e-02 -0.997 556.041 583.397)" fill="#D1D3D4" width="43.8" height="3.7"/>
			
				<rect id="XMLID_467_" x="237.8" y="269.2" transform="matrix(-0.997 -7.766717e-02 7.766717e-02 -0.997 466.3661 560.251)" fill="#D1D3D4" width="12.6" height="3.7"/>
			
				<rect id="XMLID_466_" x="236.8" y="281.7" transform="matrix(-0.997 -7.766717e-02 7.766717e-02 -0.997 463.445 585.1866)" fill="#939598" width="12.6" height="3.7"/>
			
				<rect id="XMLID_465_" x="235.8" y="294.3" transform="matrix(-0.997 -7.766717e-02 7.766717e-02 -0.997 460.5244 610.1165)" fill="#D1D3D4" width="12.6" height="3.7"/>
			
				<rect id="XMLID_464_" x="236.3" y="288" transform="matrix(-0.997 -7.766717e-02 7.766717e-02 -0.997 461.9846 597.6527)" fill="#D1D3D4" width="12.6" height="3.7"/>
			
				<rect id="XMLID_463_" x="237.3" y="275.5" transform="matrix(-0.997 -7.766717e-02 7.766717e-02 -0.997 464.9054 572.7205)" fill="#939598" width="12.6" height="3.7"/>
			
				<rect id="XMLID_462_" x="252.4" y="270.4" transform="matrix(-0.997 -7.766717e-02 7.766717e-02 -0.997 495.537 563.6684)" fill="#D1D3D4" width="12.6" height="3.7"/>
			
				<rect id="XMLID_461_" x="251.5" y="282.9" transform="matrix(-0.997 -7.766717e-02 7.766717e-02 -0.997 492.6158 588.6039)" fill="#D1D3D4" width="12.6" height="3.7"/>
			
				<rect id="XMLID_460_" x="250.5" y="295.4" transform="matrix(-0.997 -7.766717e-02 7.766717e-02 -0.997 489.6952 613.5339)" fill="#D1D3D4" width="12.6" height="3.7"/>
			
				<rect id="XMLID_459_" x="251" y="289.1" transform="matrix(-0.997 -7.766717e-02 7.766717e-02 -0.997 491.1554 601.0701)" fill="#D1D3D4" width="12.6" height="3.7"/>
			
				<rect id="XMLID_458_" x="251.9" y="276.6" transform="matrix(-0.997 -7.766717e-02 7.766717e-02 -0.997 494.0762 576.1379)" fill="#D1D3D4" width="12.6" height="3.7"/>
			
				<rect id="XMLID_457_" x="265.3" y="306.9" transform="matrix(-0.997 -7.766717e-02 7.766717e-02 -0.997 549.5424 638.8702)" fill="#D1D3D4" width="43.8" height="3.7"/>
			
				<rect id="XMLID_456_" x="264.3" y="319.4" transform="matrix(-0.997 -7.766717e-02 7.766717e-02 -0.997 546.6212 663.8058)" fill="#939598" width="43.8" height="3.7"/>
			
				<rect id="XMLID_419_" x="263.3" y="332" transform="matrix(-0.997 -7.766717e-02 7.766717e-02 -0.997 543.7006 688.7357)" fill="#D1D3D4" width="43.8" height="3.7"/>
			
				<rect id="XMLID_418_" x="263.8" y="325.7" transform="matrix(-0.997 -7.766717e-02 7.766717e-02 -0.997 545.1608 676.2719)" fill="#939598" width="43.8" height="3.7"/>
			
				<rect id="XMLID_417_" x="264.8" y="313.2" transform="matrix(-0.997 -7.766717e-02 7.766717e-02 -0.997 548.0815 651.3397)" fill="#D1D3D4" width="43.8" height="3.7"/>
			
				<rect id="XMLID_416_" x="235.1" y="303.3" transform="matrix(-0.997 -7.766717e-02 7.766717e-02 -0.997 458.4067 628.1937)" fill="#D1D3D4" width="12.6" height="3.7"/>
			
				<rect id="XMLID_415_" x="234.1" y="315.9" transform="matrix(-0.997 -7.766717e-02 7.766717e-02 -0.997 455.4855 653.1292)" fill="#939598" width="12.6" height="3.7"/>
			
				<rect id="XMLID_414_" x="233.2" y="328.4" transform="matrix(-0.997 -7.766717e-02 7.766717e-02 -0.997 452.565 678.0591)" fill="#D1D3D4" width="12.6" height="3.7"/>
			
				<rect id="XMLID_413_" x="233.7" y="322.1" transform="matrix(-0.997 -7.766717e-02 7.766717e-02 -0.997 454.0251 665.5953)" fill="#D1D3D4" width="12.6" height="3.7"/>
			
				<rect id="XMLID_412_" x="234.6" y="309.6" transform="matrix(-0.997 -7.766717e-02 7.766717e-02 -0.997 456.9459 640.6631)" fill="#939598" width="12.6" height="3.7"/>
			
				<rect id="XMLID_411_" x="249.8" y="304.5" transform="matrix(-0.997 -7.766717e-02 7.766717e-02 -0.997 487.5775 631.611)" fill="#D1D3D4" width="12.6" height="3.7"/>
			
				<rect id="XMLID_410_" x="248.8" y="317" transform="matrix(-0.997 -7.766717e-02 7.766717e-02 -0.997 484.6563 656.5466)" fill="#D1D3D4" width="12.6" height="3.7"/>
			
				<rect id="XMLID_409_" x="247.8" y="329.5" transform="matrix(-0.997 -7.766717e-02 7.766717e-02 -0.997 481.7358 681.4765)" fill="#D1D3D4" width="12.6" height="3.7"/>
			
				<rect id="XMLID_408_" x="248.3" y="323.3" transform="matrix(-0.997 -7.766717e-02 7.766717e-02 -0.997 483.1959 669.0127)" fill="#D1D3D4" width="12.6" height="3.7"/>
			
				<rect id="XMLID_407_" x="249.3" y="310.8" transform="matrix(-0.997 -7.766717e-02 7.766717e-02 -0.997 486.1167 644.0805)" fill="#D1D3D4" width="12.6" height="3.7"/>
		</g>
	</g>
	
		<rect id="XMLID_405_" x="167.8" y="219.5" transform="matrix(0.9991 -4.198016e-02 4.198016e-02 0.9991 -11.3382 9.0722)" fill-rule="evenodd" clip-rule="evenodd" fill="#BCBEC0" width="85" height="110"/>
	<g id="XMLID_372_">
		
			<rect id="XMLID_37_" x="162.6" y="216.2" transform="matrix(0.9914 -0.1306 0.1306 0.9914 -33.6526 29.1103)" fill-rule="evenodd" clip-rule="evenodd" fill="#FFFFFF" width="85" height="110"/>
		<g id="XMLID_400_">
			<path id="XMLID_404_" fill="#D1D3D4" d="M191.6,245.8c-0.2,1.2-0.7,2.3-1.4,3.3l7.1,7.6c2.7-3,4.4-6.9,4.7-11.1L191.6,245.8z"/>
			<path id="XMLID_403_" fill="#939598" d="M184.1,236c3.6,0.3,6.6,2.9,7.5,6.4l10.4-0.2c0-0.1,0-0.2,0-0.3
				c-1.3-9.6-9.7-16.6-19.2-16.2L184.1,236z"/>
			<path id="XMLID_402_" fill="#939598" d="M176.7,239.5c1-1.4,2.4-2.5,4.1-3.1l-1.4-10.3c-5.4,1.2-9.8,4.7-12.3,9.4L176.7,239.5z"
				/>
			<path id="XMLID_401_" fill="#D1D3D4" d="M187.8,251.4c-1,0.6-2.1,1-3.2,1.2c-4.6,0.6-8.7-2.6-9.3-7.2c-0.1-0.9,0-1.8,0.1-2.7
				l-9.6-4.1c-0.8,2.5-1.1,5.3-0.8,8.1c1.3,10.2,10.7,17.4,20.9,16c3.4-0.4,6.5-1.8,9-3.8L187.8,251.4z"/>
		</g>
		<g id="XMLID_387_">
			
				<rect id="XMLID_399_" x="202.7" y="301" transform="matrix(-0.9914 0.1306 -0.1306 -0.9914 486.8154 573.6754)" fill="#939598" width="43.8" height="3.7"/>
			
				<rect id="XMLID_398_" x="204.3" y="313.4" transform="matrix(-0.9914 0.1306 -0.1306 -0.9914 491.7077 598.2589)" fill="#D1D3D4" width="43.8" height="3.7"/>
			
				<rect id="XMLID_397_" x="203.5" y="307.2" transform="matrix(-0.9914 0.1306 -0.1306 -0.9914 489.2618 585.9683)" fill="#939598" width="43.8" height="3.7"/>
			
				<rect id="XMLID_396_" x="201.9" y="294.7" transform="matrix(-0.9914 0.1306 -0.1306 -0.9914 484.3691 561.3825)" fill="#D1D3D4" width="43.8" height="3.7"/>
			
				<rect id="XMLID_395_" x="172.8" y="307" transform="matrix(-0.9914 0.1306 -0.1306 -0.9914 396.9462 591.5598)" fill="#939598" width="12.6" height="3.7"/>
			
				<rect id="XMLID_394_" x="174.4" y="319.4" transform="matrix(-0.9914 0.1306 -0.1306 -0.9914 401.8385 616.1433)" fill="#D1D3D4" width="12.6" height="3.7"/>
			
				<rect id="XMLID_393_" x="173.6" y="313.2" transform="matrix(-0.9914 0.1306 -0.1306 -0.9914 399.3926 603.8527)" fill="#D1D3D4" width="12.6" height="3.7"/>
			
				<rect id="XMLID_392_" x="172" y="300.7" transform="matrix(-0.9914 0.1306 -0.1306 -0.9914 394.4999 579.267)" fill="#939598" width="12.6" height="3.7"/>
			
				<rect id="XMLID_391_" x="187.3" y="305" transform="matrix(-0.9914 0.1306 -0.1306 -0.9914 425.7117 585.8354)" fill="#D1D3D4" width="12.6" height="3.7"/>
			
				<rect id="XMLID_390_" x="189" y="317.5" transform="matrix(-0.9914 0.1306 -0.1306 -0.9914 430.6039 610.4188)" fill="#D1D3D4" width="12.6" height="3.7"/>
			
				<rect id="XMLID_389_" x="188.2" y="311.3" transform="matrix(-0.9914 0.1306 -0.1306 -0.9914 428.158 598.1282)" fill="#D1D3D4" width="12.6" height="3.7"/>
			
				<rect id="XMLID_388_" x="186.5" y="298.8" transform="matrix(-0.9914 0.1306 -0.1306 -0.9914 423.2653 573.5425)" fill="#D1D3D4" width="12.6" height="3.7"/>
		</g>
		<g id="XMLID_380_">
			
				<rect id="XMLID_386_" x="177.1" y="282.4" transform="matrix(0.9914 -0.1306 0.1306 0.9914 -35.986 26.1009)" fill-rule="evenodd" clip-rule="evenodd" fill="#939598" width="7.8" height="10.1"/>
			
				<rect id="XMLID_385_" x="187.2" y="276.7" transform="matrix(0.9914 -0.1306 0.1306 0.9914 -35.4407 27.3819)" fill-rule="evenodd" clip-rule="evenodd" fill="#939598" width="7.8" height="14.5"/>
			
				<rect id="XMLID_384_" x="197.1" y="268.7" transform="matrix(0.9914 -0.1306 0.1306 0.9914 -34.7462 28.6332)" fill-rule="evenodd" clip-rule="evenodd" fill="#939598" width="7.8" height="21.2"/>
			
				<rect id="XMLID_383_" x="208.1" y="278.3" transform="matrix(0.9914 -0.1306 0.1306 0.9914 -35.188 30.1107)" fill-rule="evenodd" clip-rule="evenodd" fill="#939598" width="7.8" height="10.1"/>
			
				<rect id="XMLID_382_" x="217.3" y="260.1" transform="matrix(0.9914 -0.1306 0.1306 0.9914 -33.8361 31.2312)" fill-rule="evenodd" clip-rule="evenodd" fill="#939598" width="7.8" height="27.1"/>
			
				<rect id="XMLID_381_" x="229.1" y="280.7" transform="matrix(0.9914 -0.1306 0.1306 0.9914 -34.9841 32.8492)" fill-rule="evenodd" clip-rule="evenodd" fill="#939598" width="7.8" height="5"/>
		</g>
		<g id="XMLID_373_">
			
				<rect id="XMLID_379_" x="206.1" y="227.1" transform="matrix(-0.9914 0.1306 -0.1306 -0.9914 470.53 425.9231)" fill="#D1D3D4" width="30.4" height="2.6"/>
			
				<rect id="XMLID_378_" x="206.7" y="231.2" transform="matrix(-0.9914 0.1306 -0.1306 -0.9914 472.164 434.1338)" fill="#D1D3D4" width="30.4" height="2.6"/>
			
				<rect id="XMLID_377_" x="207.2" y="235.4" transform="matrix(-0.9914 0.1306 -0.1306 -0.9914 473.7979 442.3445)" fill="#D1D3D4" width="30.4" height="2.6"/>
			
				<rect id="XMLID_376_" x="207.7" y="239.5" transform="matrix(-0.9914 0.1306 -0.1306 -0.9914 475.4319 450.5553)" fill="#D1D3D4" width="30.4" height="2.6"/>
			
				<rect id="XMLID_375_" x="208.3" y="243.7" transform="matrix(-0.9914 0.1306 -0.1306 -0.9914 477.0659 458.766)" fill="#D1D3D4" width="30.4" height="2.6"/>
			
				<rect id="XMLID_374_" x="208.9" y="248.6" transform="matrix(-0.9914 0.1306 -0.1306 -0.9914 467.2568 469.254)" fill="#D1D3D4" width="18.7" height="2.6"/>
		</g>
	</g>
	<g id="XMLID_557_">
		
			<rect id="XMLID_599_" x="66.4" y="227.2" transform="matrix(-0.9506 0.3104 -0.3104 -0.9506 299.9421 516.7397)" fill-rule="evenodd" clip-rule="evenodd" fill="#FFFFFF" width="85" height="110"/>
		<g id="XMLID_588_">
			<polyline id="XMLID_598_" fill="none" stroke="#939598" stroke-width="1.75" stroke-miterlimit="10" points="119.9,241.1 
				107.7,247.2 90.9,243.6 77,252.9 			"/>
			<circle id="XMLID_597_" fill="#939598" cx="107.7" cy="247.2" r="2"/>
			<circle id="XMLID_596_" fill="#939598" cx="90.9" cy="243.6" r="2"/>
			<circle id="XMLID_595_" fill="#939598" cx="77" cy="252.9" r="2"/>
			<circle id="XMLID_594_" fill="#939598" cx="119.9" cy="241.1" r="2"/>
			<polyline id="XMLID_593_" fill="none" stroke="#939598" stroke-width="1.75" stroke-miterlimit="10" points="117.3,258.4 
				98.8,254.6 88.6,264.5 72.9,260.7 			"/>
			<circle id="XMLID_592_" fill="#939598" cx="98.8" cy="254.6" r="2"/>
			<circle id="XMLID_591_" fill="#939598" cx="88.6" cy="264.5" r="2"/>
			<circle id="XMLID_590_" fill="#939598" cx="72.9" cy="260.7" r="2"/>
			<circle id="XMLID_589_" fill="#939598" cx="117.3" cy="258.4" r="2"/>
		</g>
		<g id="XMLID_581_">
			
				<rect id="XMLID_587_" x="118.1" y="300.1" transform="matrix(0.9506 -0.3104 0.3104 0.9506 -86.8917 56.7799)" fill="#D1D3D4" width="33.8" height="2.6"/>
			
				<rect id="XMLID_586_" x="119.4" y="304.1" transform="matrix(0.9506 -0.3104 0.3104 0.9506 -88.0652 57.3811)" fill="#D1D3D4" width="33.8" height="2.6"/>
			
				<rect id="XMLID_585_" x="120.7" y="308" transform="matrix(0.9506 -0.3104 0.3104 0.9506 -89.2387 57.9823)" fill="#D1D3D4" width="33.8" height="2.6"/>
			
				<rect id="XMLID_584_" x="122" y="312" transform="matrix(0.9506 -0.3104 0.3104 0.9506 -90.4122 58.5835)" fill="#D1D3D4" width="33.8" height="2.6"/>
			
				<rect id="XMLID_583_" x="123.3" y="316" transform="matrix(0.9506 -0.3104 0.3104 0.9506 -91.5857 59.1847)" fill="#D1D3D4" width="33.8" height="2.6"/>
			
				<rect id="XMLID_582_" x="137.2" y="318" transform="matrix(0.9506 -0.3104 0.3104 0.9506 -91.8284 61.6027)" fill="#D1D3D4" width="20.8" height="2.6"/>
		</g>
		<g id="XMLID_574_">
			
				<rect id="XMLID_580_" x="79.7" y="312.6" transform="matrix(0.9506 -0.3104 0.3104 0.9506 -92.6748 45.4915)" fill="#D1D3D4" width="33.8" height="2.6"/>
			
				<rect id="XMLID_579_" x="81" y="316.6" transform="matrix(0.9506 -0.3104 0.3104 0.9506 -93.8483 46.0927)" fill="#D1D3D4" width="33.8" height="2.6"/>
			
				<rect id="XMLID_578_" x="82.3" y="320.6" transform="matrix(0.9506 -0.3104 0.3104 0.9506 -95.0218 46.6939)" fill="#D1D3D4" width="33.8" height="2.6"/>
			
				<rect id="XMLID_577_" x="83.6" y="324.6" transform="matrix(0.9506 -0.3104 0.3104 0.9506 -96.1954 47.2952)" fill="#D1D3D4" width="33.8" height="2.6"/>
			
				<rect id="XMLID_576_" x="84.9" y="328.6" transform="matrix(0.9506 -0.3104 0.3104 0.9506 -97.3689 47.8964)" fill="#D1D3D4" width="33.8" height="2.6"/>
			
				<rect id="XMLID_575_" x="106.8" y="329.3" transform="matrix(0.9506 -0.3104 0.3104 0.9506 -97.0284 51.4527)" fill="#D1D3D4" width="12.6" height="2.6"/>
		</g>
		<g id="XMLID_558_">
			
				<rect id="XMLID_573_" x="68.7" y="277.5" transform="matrix(0.9506 -0.3104 0.3104 0.9506 -82.2355 41.9153)" fill="#D1D3D4" width="43.8" height="3.7"/>
			
				<rect id="XMLID_572_" x="72.6" y="289.4" transform="matrix(0.9506 -0.3104 0.3104 0.9506 -85.7498 43.7157)" fill="#939598" width="43.8" height="3.7"/>
			
				<rect id="XMLID_571_" x="76.5" y="301.4" transform="matrix(0.9506 -0.3104 0.3104 0.9506 -89.2634 45.5158)" fill="#D1D3D4" width="43.8" height="3.7"/>
			
				<rect id="XMLID_570_" x="74.5" y="295.4" transform="matrix(0.9506 -0.3104 0.3104 0.9506 -87.5068 44.6158)" fill="#939598" width="43.8" height="3.7"/>
			
				<rect id="XMLID_569_" x="70.6" y="283.5" transform="matrix(0.9506 -0.3104 0.3104 0.9506 -83.9929 42.8156)" fill="#D1D3D4" width="43.8" height="3.7"/>
			
				<rect id="XMLID_568_" x="127.9" y="263.2" transform="matrix(0.9506 -0.3104 0.3104 0.9506 -75.6552 54.7597)" fill="#D1D3D4" width="12.6" height="3.7"/>
			
				<rect id="XMLID_567_" x="131.8" y="275.2" transform="matrix(0.9506 -0.3104 0.3104 0.9506 -79.1695 56.5601)" fill="#939598" width="12.6" height="3.7"/>
			
				<rect id="XMLID_566_" x="135.7" y="287.1" transform="matrix(0.9506 -0.3104 0.3104 0.9506 -82.6831 58.3602)" fill="#D1D3D4" width="12.6" height="3.7"/>
			
				<rect id="XMLID_565_" x="133.8" y="281.2" transform="matrix(0.9506 -0.3104 0.3104 0.9506 -80.9265 57.4602)" fill="#D1D3D4" width="12.6" height="3.7"/>
			
				<rect id="XMLID_564_" x="129.9" y="269.2" transform="matrix(0.9506 -0.3104 0.3104 0.9506 -77.4126 55.66)" fill="#939598" width="12.6" height="3.7"/>
			
				<rect id="XMLID_563_" x="114" y="267.8" transform="matrix(0.9506 -0.3104 0.3104 0.9506 -77.7614 50.6484)" fill="#D1D3D4" width="12.6" height="3.7"/>
			
				<rect id="XMLID_562_" x="117.9" y="279.7" transform="matrix(0.9506 -0.3104 0.3104 0.9506 -81.2758 52.4489)" fill="#D1D3D4" width="12.6" height="3.7"/>
			
				<rect id="XMLID_561_" x="121.7" y="291.7" transform="matrix(0.9506 -0.3104 0.3104 0.9506 -84.7893 54.2489)" fill="#D1D3D4" width="12.6" height="3.7"/>
			
				<rect id="XMLID_560_" x="119.8" y="285.7" transform="matrix(0.9506 -0.3104 0.3104 0.9506 -83.0327 53.349)" fill="#D1D3D4" width="12.6" height="3.7"/>
			
				<rect id="XMLID_559_" x="115.9" y="273.8" transform="matrix(0.9506 -0.3104 0.3104 0.9506 -79.5188 51.5488)" fill="#D1D3D4" width="12.6" height="3.7"/>
		</g>
	</g>
	
		<rect id="XMLID_556_" x="90.2" y="218" transform="matrix(0.996 8.884931e-02 -8.884931e-02 0.996 24.7807 -10.707)" fill-rule="evenodd" clip-rule="evenodd" fill="#BCBEC0" width="85" height="110"/>
	<g id="XMLID_492_">
		<rect id="XMLID_186_" x="85.6" y="213.3" fill-rule="evenodd" clip-rule="evenodd" fill="#FFFFFF" width="85" height="110"/>
		<g id="XMLID_493_">
			<rect id="XMLID_555_" x="121.3" y="219.6" fill="#D1D3D4" width="43.8" height="3.7"/>
			<rect id="XMLID_554_" x="121.3" y="232.2" fill="#939598" width="43.8" height="3.7"/>
			<rect id="XMLID_553_" x="121.3" y="244.8" fill="#D1D3D4" width="43.8" height="3.7"/>
			<rect id="XMLID_552_" x="121.3" y="238.5" fill="#939598" width="43.8" height="3.7"/>
			<rect id="XMLID_551_" x="121.3" y="225.9" fill="#D1D3D4" width="43.8" height="3.7"/>
			<rect id="XMLID_550_" x="91" y="219.6" fill="#D1D3D4" width="12.6" height="3.7"/>
			<rect id="XMLID_549_" x="91" y="232.2" fill="#939598" width="12.6" height="3.7"/>
			<rect id="XMLID_548_" x="91" y="244.8" fill="#D1D3D4" width="12.6" height="3.7"/>
			<rect id="XMLID_547_" x="91" y="238.5" fill="#D1D3D4" width="12.6" height="3.7"/>
			<rect id="XMLID_546_" x="91" y="225.9" fill="#939598" width="12.6" height="3.7"/>
			<rect id="XMLID_545_" x="105.7" y="219.6" fill="#D1D3D4" width="12.6" height="3.7"/>
			<rect id="XMLID_544_" x="105.7" y="232.2" fill="#D1D3D4" width="12.6" height="3.7"/>
			<rect id="XMLID_543_" x="105.7" y="244.8" fill="#D1D3D4" width="12.6" height="3.7"/>
			<rect id="XMLID_542_" x="105.7" y="238.5" fill="#D1D3D4" width="12.6" height="3.7"/>
			<rect id="XMLID_541_" x="105.7" y="225.9" fill="#D1D3D4" width="12.6" height="3.7"/>
			<rect id="XMLID_540_" x="121.3" y="253.9" fill="#D1D3D4" width="43.8" height="3.7"/>
			<rect id="XMLID_539_" x="121.3" y="266.4" fill="#939598" width="43.8" height="3.7"/>
			<rect id="XMLID_538_" x="121.3" y="279" fill="#D1D3D4" width="43.8" height="3.7"/>
			<rect id="XMLID_537_" x="121.3" y="272.7" fill="#939598" width="43.8" height="3.7"/>
			<rect id="XMLID_536_" x="121.3" y="260.1" fill="#D1D3D4" width="43.8" height="3.7"/>
			<rect id="XMLID_535_" x="91" y="253.9" fill="#D1D3D4" width="12.6" height="3.7"/>
			<rect id="XMLID_534_" x="91" y="266.4" fill="#939598" width="12.6" height="3.7"/>
			<rect id="XMLID_533_" x="91" y="279" fill="#D1D3D4" width="12.6" height="3.7"/>
			<rect id="XMLID_532_" x="91" y="272.7" fill="#D1D3D4" width="12.6" height="3.7"/>
			<rect id="XMLID_531_" x="91" y="260.1" fill="#939598" width="12.6" height="3.7"/>
			<rect id="XMLID_530_" x="105.7" y="253.9" fill="#D1D3D4" width="12.6" height="3.7"/>
			<rect id="XMLID_529_" x="105.7" y="266.4" fill="#D1D3D4" width="12.6" height="3.7"/>
			<rect id="XMLID_528_" x="105.7" y="279" fill="#D1D3D4" width="12.6" height="3.7"/>
			<rect id="XMLID_527_" x="105.7" y="272.7" fill="#D1D3D4" width="12.6" height="3.7"/>
			<rect id="XMLID_490_" x="105.7" y="260.1" fill="#D1D3D4" width="12.6" height="3.7"/>
			<rect id="XMLID_489_" x="121.3" y="288.1" fill="#D1D3D4" width="43.8" height="3.7"/>
			<rect id="XMLID_371_" x="121.3" y="300.6" fill="#939598" width="43.8" height="3.7"/>
			<rect id="XMLID_370_" x="121.3" y="313.2" fill="#D1D3D4" width="43.8" height="3.7"/>
			<rect id="XMLID_368_" x="121.3" y="306.9" fill="#939598" width="43.8" height="3.7"/>
			<rect id="XMLID_367_" x="121.3" y="294.4" fill="#D1D3D4" width="43.8" height="3.7"/>
			<rect id="XMLID_366_" x="91" y="288.1" fill="#D1D3D4" width="12.6" height="3.7"/>
			<rect id="XMLID_365_" x="91" y="300.6" fill="#939598" width="12.6" height="3.7"/>
			<rect id="XMLID_501_" x="91" y="313.2" fill="#D1D3D4" width="12.6" height="3.7"/>
			<rect id="XMLID_500_" x="91" y="306.9" fill="#D1D3D4" width="12.6" height="3.7"/>
			<rect id="XMLID_499_" x="91" y="294.4" fill="#939598" width="12.6" height="3.7"/>
			<rect id="XMLID_498_" x="105.7" y="288.1" fill="#D1D3D4" width="12.6" height="3.7"/>
			<rect id="XMLID_497_" x="105.7" y="300.6" fill="#D1D3D4" width="12.6" height="3.7"/>
			<rect id="XMLID_496_" x="105.7" y="313.2" fill="#D1D3D4" width="12.6" height="3.7"/>
			<rect id="XMLID_495_" x="105.7" y="306.9" fill="#D1D3D4" width="12.6" height="3.7"/>
			<rect id="XMLID_494_" x="105.7" y="294.4" fill="#D1D3D4" width="12.6" height="3.7"/>
		</g>
	</g>
	<g id="XMLID_753_">
		<path id="XMLID_758_" fill="#F47920" d="M205.5,396.6h-2.8l0-0.7c0-0.2,0-0.4,0-0.6c0-6.8,5.5-12.3,12.3-12.3
			c1.8,0,3.7,0.4,5.3,1.2c0.2,0.1,0.4,0,0.5-0.1l2.9-2.9c0.1-0.1,0.1-0.2,0.1-0.4c0-0.1-0.1-0.3-0.2-0.3c-2.6-1.5-5.6-2.3-8.6-2.3
			c-9.5,0-17.2,7.7-17.2,17.2c0,0.2,0,0.4,0,0.6l0,0.8h-3.3c-0.2,0-0.3,0.1-0.4,0.3s0,0.3,0.1,0.5l5.5,6.6c0.1,0.1,0.2,0.2,0.3,0.2
			s0.3-0.1,0.3-0.2l5.5-6.6c0.1-0.1,0.1-0.3,0.1-0.5S205.7,396.6,205.5,396.6z"/>
		<path id="XMLID_757_" fill="#F47920" d="M235.8,392.9l-5.5-6.6c-0.2-0.2-0.5-0.2-0.7,0l-5.5,6.6c-0.1,0.1-0.1,0.3-0.1,0.5
			c0.1,0.2,0.2,0.3,0.4,0.3h2.8l0.1,0.7c0,0.3,0,0.6,0,0.9c0,6.8-5.5,12.3-12.3,12.3c-1.8,0-3.7-0.4-5.3-1.2c-0.2-0.1-0.4,0-0.5,0.1
			l-2.9,2.9c-0.1,0.1-0.1,0.2-0.1,0.4c0,0.1,0.1,0.3,0.2,0.3c2.6,1.5,5.6,2.3,8.6,2.3c9.5,0,17.2-7.7,17.2-17.2c0-0.3,0-0.6,0-0.8
			l0-0.8h3.3c0.2,0,0.3-0.1,0.4-0.3C235.9,393.2,235.9,393,235.8,392.9z"/>
	</g>
	<g id="XMLID_747_">
		
			<text id="XMLID_39_" transform="matrix(1 0 0 1 118.7305 364.6721)" fill="#58595B" font-family="'Lato-Regular'" font-size="14px">Repeat the process, perpetually</text>
	</g>
	<text id="XMLID_746_" transform="matrix(1 0 0 1 132.107 54.7047)" fill="#58595B" font-family="'Lato-Regular'" font-size="14px">Countless Google Searches</text>
	
		<text id="XMLID_745_" transform="matrix(1 0 0 1 42.4748 196.7211)" fill="#58595B" font-family="'Lato-Regular'" font-size="14px">Use stale spreadsheets to track data patterns, manually...</text>
	<g id="XMLID_90_">
		<path id="XMLID_741_" fill="#FFFFFF" d="M223.9,319.4h2.4c-0.7-5.1-4.7-9.1-9.8-9.8v2.4c0,0.4-0.3,0.8-0.8,0.8h-1.7
			c-0.4,0-0.8-0.3-0.8-0.8v-2.4c-5.1,0.7-9.1,4.7-9.8,9.8h2.4c0.4,0,0.8,0.3,0.8,0.8v1.7c0,0.4-0.3,0.8-0.8,0.8h-2.4
			c0.7,5.1,4.7,9.1,9.8,9.8v-2.4c0-0.4,0.3-0.8,0.8-0.8h1.6c0.4,0,0.8,0.3,0.8,0.8v2.4c5.1-0.7,9.1-4.7,9.8-9.8h-2.4
			c-0.4,0-0.8-0.3-0.8-0.8v-1.6C223.1,319.7,223.5,319.4,223.9,319.4z"/>
		<g id="XMLID_95_">
			<path id="XMLID_120_" fill="#F47920" d="M232.5,319.4h-2.8c-0.7-6.9-6.3-12.4-13.1-13.1v-2.8c0-0.4-0.3-0.8-0.8-0.8h-1.7
				c-0.4,0-0.8,0.3-0.8,0.8v2.8c-6.9,0.7-12.4,6.3-13.1,13.1h-2.8c-0.4,0-0.8,0.3-0.8,0.8v1.6c0,0.4,0.3,0.8,0.8,0.8h2.8
				c0.7,6.9,6.3,12.4,13.1,13.1v2.8c0,0.4,0.3,0.8,0.8,0.8h1.6c0.4,0,0.8-0.3,0.8-0.8v-2.8c6.9-0.7,12.4-6.3,13.1-13.1h2.8
				c0.4,0,0.8-0.3,0.8-0.8v-1.7C233.3,319.7,233,319.4,232.5,319.4L232.5,319.4z M206.1,322.5c0.4,0,0.8-0.3,0.8-0.8v-1.7
				c0-0.4-0.3-0.8-0.8-0.8h-2.4c0.7-5.1,4.7-9.1,9.8-9.8v2.4c0,0.4,0.3,0.8,0.8,0.8h1.7c0.4,0,0.8-0.3,0.8-0.8v-2.4
				c5.1,0.7,9.1,4.7,9.8,9.8h-2.4c-0.4,0-0.8,0.3-0.8,0.8v1.6c0,0.4,0.3,0.8,0.8,0.8h2.4c-0.7,5.1-4.7,9.1-9.8,9.8v-2.4
				c0-0.4-0.3-0.8-0.8-0.8h-1.6c-0.4,0-0.8,0.3-0.8,0.8v2.4c-5.1-0.7-9.1-4.7-9.8-9.8H206.1z M206.1,322.5"/>
		</g>
	</g>
	<g id="XMLID_23_">
		<path id="XMLID_25_" fill="#F47920" d="M229.7,174.3l-8.4-8.4c2.9-4.6,2.4-10.8-1.6-14.8c-4.6-4.6-12.2-4.6-16.9,0
			c-4.6,4.6-4.6,12.2,0,16.9c4,4,10.2,4.6,14.8,1.6l8.4,8.4c1,1,2.7,1,3.7,0S230.7,175.3,229.7,174.3z M216.9,165.1
			c-3.1,3.1-8.2,3.1-11.3,0c-3.1-3.1-3.1-8.2,0-11.3c3.1-3.1,8.2-3.1,11.3,0C220,156.9,220,162,216.9,165.1z"/>
		<path id="XMLID_24_" fill="#FFFFFF" d="M205.6,153.8c-3.1,3.1-3.1,8.2,0,11.3c3.1,3.1,8.2,3.1,11.3,0c3.1-3.1,3.1-8.2,0-11.3
			C213.8,150.7,208.7,150.7,205.6,153.8z"/>
	</g>
</g>
</svg>
