<?xml version="1.0" encoding="utf-8"?>
<!-- Generator: Adobe Illustrator 19.0.1, SVG Export Plug-In . SVG Version: 6.00 Build 0)  -->
<svg version="1.1" xmlns="http://www.w3.org/2000/svg" xmlns:xlink="http://www.w3.org/1999/xlink" x="0px" y="0px"
	 viewBox="47 -47.4 890 890" enable-background="new 47 -47.4 890 890" xml:space="preserve">
<g id="Capa_1">
	<circle fill="#539CD5" cx="492" cy="397.6" r="445"/>
</g>
<g id="Layer_2">
	<path fill="#FFFFFF" d="M716.2,221.1H266.9c-10.5,0-19,8.6-19,19V532c0,10.5,8.6,19,19,19h181l-54.3,54.3c-4.2,4.2-4.2,11.1,0,15.4
		s11.1,4.2,15.4,0l69.7-69.7h2.1v62c0,6,4.9,10.9,10.9,10.9c6,0,10.9-4.9,10.9-10.9v-62h2.1l69.7,69.7c4.2,4.2,11.1,4.2,15.4,0
		c4.2-4.2,4.2-11.1,0-15.4L535.2,551h181c10.5,0,19-8.6,19-19V240.1C735.3,229.6,726.7,221.1,716.2,221.1z M524.7,444.3l-64.8-65.4
		L337.8,501.1l-23-23l144.5-144.5l0.6-0.6l65.1,65.1l121.3-121.3l23,23L524.7,444.3z"/>
</g>
</svg>
