<?xml version="1.0" ?><svg id="Layer_1" style="enable-background:new 0 0 512 512;" version="1.1" viewBox="0 0 512 512" xml:space="preserve" xmlns="http://www.w3.org/2000/svg" xmlns:xlink="http://www.w3.org/1999/xlink"><style type="text/css">
	.st0{fill:#82D0D8;}
	.st1{fill:#30A2B5;}
	.st2{fill:#044258;}
	.st3{fill:#1B7C96;}
	.st4{fill:#FFFFFF;}
	.st5{fill:#FF5F5F;}
	.st6{fill:#002833;}
</style><g><circle class="st0" cx="256" cy="256" r="256"/><path class="st1" d="M264.4,493.4h-8c0-6.1,0.2-13.2,0.4-20.8c1-40.5,2.6-101.6-22.1-118.3c-9.2-6.2-22-5.8-38,1.1   c-10.6,4.6-23.4,11.5-35.9,19.9c15,3,29,8.1,37.1,17.9c7.7,9.4,10.3,20.7,7.5,32.7c-4.7,19.8-22.6,37.1-37.9,43.8   c-17.7,7.8-38,7-50.6-2.1c-7-5.1-15-15-13.1-33.7c1.9-19.9,18-38.5,36.6-53.6c-5.5-0.6-10.9-1-15.9-1.4c-5.3-0.4-10.3-0.8-14.5-1.3   c-2.1-0.2-4.4-0.5-7-0.7c-18.7-1.9-46.9-4.8-58.8-20.2c-4.7-6.1-6.4-13.5-5.1-22.1c3.4-22.1,33.3-41.1,51.2-52.4l2.5-1.6l4.3,6.7   l-2.5,1.6C79.1,299.1,50,317.5,47.2,336c-1,6.4,0.2,11.6,3.5,16c9.8,12.7,35.9,15.3,53.3,17.1c2.6,0.3,5,0.5,7.1,0.8   c4,0.5,8.9,0.9,14.1,1.3c7.6,0.6,16,1.2,24.4,2.4c16.6-12,33.8-21,43.9-25.4c18.7-8.1,34.1-8.3,45.7-0.4   c28.3,19.1,26.8,80.4,25.7,125.1C264.6,480.4,264.4,487.4,264.4,493.4z M151.6,381.9c-20.5,15.3-38,34.3-39.8,53   c-1.2,12,2.1,20.8,9.8,26.4c10.2,7.4,27.7,7.9,42.7,1.3c13.1-5.8,29.3-21.3,33.3-38.4c2.3-9.6,0.3-18.3-5.9-25.8   C183.8,388.8,168,384.3,151.6,381.9z"/><path class="st2" d="M270.8,261.8c-8.8,0-16,7.2-16,16V512c0.4,0,0.8,0,1.2,0c10.4,0,20.7-0.7,30.8-1.9V277.8   C286.8,269,279.7,261.8,270.8,261.8z"/><polygon class="st3" points="146.9,385.6 135.9,384.3 140.5,380.5 151.6,381.9  "/><path class="st4" d="M121,246.3c3.4,6.7,5,9.9,8.9,16.7c3.9,6.7,5.9,9.8,10,16L344,180c10.1-5.3,21-9.3,32.1-11.8L335,97   c-7.7,8.5-16.6,15.8-26.2,22L121,246.3z"/><path class="st4" d="M121,246.3c3.4,6.7,5,9.9,8.9,16.7c3.9,6.7,5.9,9.8,10,16L344,180c10.1-5.3,21-9.3,32.1-11.8L335,97   c-7.7,8.5-16.6,15.8-26.2,22L121,246.3z"/><path class="st2" d="M346.7,85.7l-12.9,10.1c5.7,12.4,12.2,25.2,19.6,38.1s15.2,24.9,23.2,36l15.2-6.1   c-8.4-11.6-16.6-24.3-24.5-37.9C359.5,112.3,352.6,98.8,346.7,85.7z"/><path class="st5" d="M346.7,85.7l-6.4,5c5.8,12.7,12.5,25.9,20.1,39.1c7.6,13.2,15.7,25.6,23.8,37l7.6-3.1   c-8.4-11.6-16.6-24.3-24.5-37.9C359.5,112.3,352.6,98.8,346.7,85.7z"/><path class="st3" d="M350.2,83.5c5.7,13.2,12.6,26.8,20.4,40.4s16.2,26.3,24.8,37.9c15.8,4.2,33.3,2.5,48.6-6.4   c30.6-17.7,41.1-56.8,23.4-87.4c-17.7-30.6-56.8-41.1-87.4-23.4C364.7,53.4,354.4,67.7,350.2,83.5z"/><path class="st2" d="M300.1,171.6l-6-10.4c-0.6-1-0.2-2.2,0.7-2.7l38.1-22c1-0.6,2.2-0.2,2.7,0.7l6,10.4c0.6,1,0.2,2.2-0.7,2.7   l-38.1,22C301.9,172.9,300.7,172.5,300.1,171.6z"/><path class="st3" d="M318.4,159.3l-4.5-7.8c-0.4-0.7-0.2-1.6,0.5-2l18.2-10.5c0.7-0.4,1.6-0.2,2,0.5l4.5,7.8c0.4,0.7,0.2,1.6-0.5,2   l-18.2,10.5C319.8,160.3,318.8,160,318.4,159.3z"/><path class="st4" d="M93.7,284.1c1.1,2,2.3,3.9,3.5,5.8l32.8-11.1c-2.4-3.8-4.7-7.6-7-11.6s-4.4-7.9-6.5-11.9l-26,22.9   C91.6,280.2,92.6,282.2,93.7,284.1z"/><g><circle class="st2" cx="454.6" cy="84.6" r="4"/><circle class="st2" cx="401" cy="87.9" r="4"/><circle class="st2" cx="373.3" cy="103.9" r="4"/><circle class="st2" cx="393" cy="74" r="4"/><circle class="st2" cx="391.2" cy="102.8" r="4"/><circle class="st2" cx="434.9" cy="114.5" r="4"/><circle class="st2" cx="418.9" cy="86.8" r="4"/><circle class="st2" cx="365.3" cy="90" r="4"/><circle class="st2" cx="444.7" cy="99.6" r="4"/><circle class="st2" cx="452.8" cy="113.4" r="4"/><circle class="st2" cx="462.6" cy="98.5" r="4"/><circle class="st2" cx="383.2" cy="88.9" r="4"/><circle class="st2" cx="394.9" cy="45.2" r="4"/><circle class="st2" cx="385" cy="60.2" r="4"/><circle class="st2" cx="367.2" cy="61.2" r="4"/><path class="st2" d="M462.5,66.2c-1.9,1.1-2.6,3.6-1.5,5.5c1.1,1.9,3.6,2.6,5.5,1.5c1.2-0.7,1.9-2,1.9-3.3c-0.3-0.6-0.6-1.3-1-1.9    c-0.4-0.6-0.8-1.2-1.2-1.8C465.1,65.6,463.7,65.5,462.5,66.2z"/><path class="st2" d="M379,49.8c1.9-1.1,2.6-3.5,1.5-5.4c-0.2,0.1-0.4,0.2-0.5,0.3c-2.1,1.2-4.2,2.6-6.1,4    C375.1,50.2,377.3,50.8,379,49.8z"/><circle class="st2" cx="375.2" cy="75.1" r="4"/><circle class="st2" cx="420.7" cy="58" r="4"/><circle class="st2" cx="410.9" cy="72.9" r="4"/><circle class="st2" cx="428.7" cy="71.9" r="4"/><circle class="st2" cx="402.9" cy="59.1" r="4"/><circle class="st2" cx="438.6" cy="56.9" r="4"/><circle class="st2" cx="430.6" cy="43.1" r="4"/><circle class="st2" cx="460.8" cy="127.3" r="4"/><circle class="st2" cx="450.9" cy="142.2" r="4"/><path class="st2" d="M470.5,80.1c-1.9,1.1-2.6,3.6-1.5,5.5c1.1,1.9,3.6,2.6,5.5,1.5c0.1,0,0.1-0.1,0.1-0.1    c-0.5-2.4-1.1-4.9-1.9-7.3C471.9,79.6,471.2,79.7,470.5,80.1z"/><circle class="st2" cx="433" cy="143.3" r="4"/><path class="st2" d="M454.5,52.4c-1.9,1.1-2.6,3.6-1.5,5.5c1.1,1.9,3.6,2.6,5.5,1.5c0.7-0.4,1.2-1,1.5-1.7    c-1.7-1.9-3.5-3.6-5.3-5.3C454.6,52.4,454.5,52.4,454.5,52.4z"/><circle class="st2" cx="423.2" cy="158.2" r="4"/><circle class="st2" cx="412.7" cy="44.1" r="4"/><circle class="st2" cx="470.6" cy="112.3" r="4"/><circle class="st2" cx="405.3" cy="159.3" r="4"/><path class="st2" d="M444.5,155.1c-1.1-1.9-3.5-2.5-5.4-1.4c-1.8,1-2.4,3.2-1.6,5c2.2-1,4.4-2,6.6-3.3    C444.2,155.3,444.3,155.2,444.5,155.1z"/><circle class="st2" cx="426.9" cy="100.6" r="4"/><circle class="st2" cx="381.3" cy="117.7" r="4"/><circle class="st2" cx="357.3" cy="76.2" r="4"/><circle class="st2" cx="409" cy="101.7" r="4"/><circle class="st2" cx="399.2" cy="116.6" r="4"/><circle class="st2" cx="446.6" cy="70.8" r="4"/><circle class="st2" cx="436.7" cy="85.7" r="4"/><circle class="st2" cx="442.9" cy="128.4" r="4"/><circle class="st2" cx="389.3" cy="131.6" r="4"/><circle class="st2" cx="425" cy="129.4" r="4"/><circle class="st2" cx="417" cy="115.6" r="4"/><circle class="st2" cx="415.2" cy="144.4" r="4"/><circle class="st2" cx="397.3" cy="145.4" r="4"/><circle class="st2" cx="407.2" cy="130.5" r="4"/></g><path class="st2" d="M264.6,226.7l-28.8,13.9l20.5,43.9c3.7,8,13.3,11.5,21.3,7.7c8-3.7,11.5-13.3,7.7-21.3L264.6,226.7z"/><circle class="st4" cx="270.8" cy="277.8" r="20"/><path class="st6" d="M270.8,261.8c-8.8,0-16,7.2-16,16v22.9c4.5,3.2,10.1,5.1,16,5.1c5.9,0,11.5-1.9,16-5.1v-22.9   C286.8,269,279.7,261.8,270.8,261.8z"/><circle class="st4" cx="270.8" cy="277.8" r="20"/><path class="st3" d="M269.3,293.4l0.1-0.1l0.9-2.3c0.2,0,0.4,0,0.6,0c0.4,0,0.8,0,1.2-0.1l0.9,2.4c0.1,0.3,0.5,0.5,0.8,0.4l3.1-0.9   c0.3-0.1,0.5-0.5,0.5-0.8l-0.4-2.6c0.5-0.3,1-0.5,1.4-0.9l2,1.6c0.3,0.2,0.7,0.2,0.9,0l2.3-2.3c0.2-0.3,0.2-0.7,0-0.9l-1.7-2   c0.3-0.4,0.5-0.9,0.8-1.4l2.6,0.4c0.3,0.1,0.7-0.2,0.8-0.5l0.8-3.2c0.1-0.3-0.1-0.7-0.5-0.8l-2.5-0.9c0-0.3,0-0.5,0-0.8   c0-0.3,0-0.5,0-0.8l2.5-0.9c0.3-0.1,0.5-0.5,0.5-0.8l-0.8-3.2c-0.1-0.3-0.4-0.5-0.8-0.5l0,0l-2.6,0.4c-0.2-0.5-0.5-0.9-0.8-1.4   l1.7-2l0-0.1c0,0,0,0,0,0c0.2-0.3,0.2-0.6,0-0.9l-2.3-2.3c-0.2-0.2-0.6-0.2-0.8-0.1c0,0,0,0,0,0l-2.1,1.7c-0.5-0.3-0.9-0.6-1.4-0.9   c0,0,0.4-2.7,0.4-2.7c0-0.3-0.2-0.6-0.5-0.7l-3.1-0.9c-0.3-0.1-0.6,0.1-0.7,0.3c0,0-1,2.6-1,2.6c-0.4,0-0.8-0.1-1.2-0.1   c-0.2,0-0.4,0-0.6,0c0,0-1-2.6-1-2.6c-0.1-0.2-0.4-0.4-0.7-0.3l-3.1,0.8c-0.3,0.1-0.5,0.4-0.5,0.6c0,0,0.4,2.7,0.4,2.7   c-0.6,0.3-1.1,0.6-1.6,0.9l-2.1-1.7l0,0l0,0l0,0c-0.2-0.1-0.6-0.1-0.8,0.1l-2.3,2.2c-0.2,0.2-0.3,0.6-0.1,0.8c0,0,0,0,0,0l0,0   l1.7,2.1c-0.4,0.5-0.7,1.1-1,1.7l-2.7-0.4c0,0,0,0,0,0c0,0,0,0,0,0c-0.3,0-0.6,0.2-0.7,0.5l-0.8,3.1c-0.1,0.3,0.1,0.7,0.4,0.8   c0,0,0,0,0,0l2.5,0.9c0,0.3,0,0.7,0,1c0,0.3,0,0.7,0,1l-2.5,0.9c0,0,0,0,0,0c-0.3,0.1-0.5,0.5-0.4,0.8l0.8,3.1   c0.1,0.3,0.5,0.5,0.8,0.5l0,0l2.6-0.4c0.3,0.6,0.6,1.1,1,1.7l-1.6,2l0,0c-0.2,0.3-0.2,0.7,0,0.9l2.3,2.2c0.3,0.2,0.7,0.2,0.9,0   l0.1-0.1l1.9-1.6c0.5,0.3,1.1,0.6,1.6,0.9l-0.4,2.4l0,0.1c-0.1,0.3,0.2,0.7,0.5,0.8l3.1,0.8C268.8,293.9,269.2,293.7,269.3,293.4z"/><circle class="st5" cx="286.3" cy="172" r="4"/></g></svg>