<?xml version="1.0" encoding="utf-8"?>
<!-- Generator: Adobe Illustrator 19.0.1, SVG Export Plug-In . SVG Version: 6.00 Build 0)  -->
<svg version="1.1" xmlns="http://www.w3.org/2000/svg" xmlns:xlink="http://www.w3.org/1999/xlink" x="0px" y="0px"
	 viewBox="0 0 450 300" enable-background="new 0 0 450 300" xml:space="preserve">
<g id="o" display="none">
	<rect display="inline" fill="#F1F2F2" width="450" height="300"/>
</g>
<g id="Layer_4">
	<g>
		<circle fill="#539CD5" cx="232" cy="148.9" r="137.4"/>
		<circle id="XMLID_9_" fill="#FFFFFF" cx="299.6" cy="175.8" r="47.7"/>
		<circle id="XMLID_8_" fill="#FFFFFF" cx="239.1" cy="113.6" r="62"/>
		<path fill="none" d="M282.2,69c0.1,7.4-1.1,14.9-3.7,22.2c-11.7,32.2-47.3,48.8-79.5,37.1c-8.5-3.1-15.8-7.8-21.9-13.7
			c0.4,25,15.9,48.3,40.8,57.3c32.2,11.7,67.8-4.9,79.5-37.1C306,111.1,299.2,85.5,282.2,69z"/>
		<path fill="#E6E7E8" d="M322.1,133.7c6.2,11.6,7.6,25.6,2.8,38.9c-9,24.8-36.4,37.6-61.2,28.5c-2.2-0.8-4.2-1.7-6.2-2.8
			c5.3,10,14.3,18.2,25.8,22.3c24.8,9,52.2-3.8,61.2-28.5C352.7,169.5,342.8,144.7,322.1,133.7z"/>
		<circle id="XMLID_7_" fill="#FFFFFF" cx="343.3" cy="168.1" r="37.5"/>
		<path fill="#E6E7E8" d="M358.2,133.7c2,4.6,3.1,9.6,3.1,14.8c0,20.7-16.8,37.5-37.5,37.5c-5.3,0-10.3-1.1-14.8-3.1
			c5.7,13.3,19,22.6,34.4,22.6c20.7,0,37.5-16.8,37.5-37.5C380.8,152.6,371.5,139.4,358.2,133.7z"/>
		<circle id="XMLID_6_" fill="#FFFFFF" cx="122.9" cy="169.3" r="36.2"/>
		<path fill="#E6E7E8" d="M142.3,138.7c3.6,5.6,5.7,12.3,5.7,19.4c0,20-16.2,36.2-36.2,36.2c-7.2,0-13.8-2.1-19.4-5.7
			c6.4,10.1,17.7,16.8,30.6,16.8c20,0,36.2-16.2,36.2-36.2C159.1,156.4,152.4,145.1,142.3,138.7z"/>
		<circle id="XMLID_5_" fill="#FFFFFF" cx="177.1" cy="178.3" r="47.7"/>
		<path fill="#E6E7E8" d="M202.7,138.1c4.7,7.4,7.5,16.2,7.5,25.6c0,26.4-21.4,47.7-47.7,47.7c-9.4,0-18.2-2.7-25.6-7.5
			c8.5,13.3,23.3,22.1,40.3,22.1c26.4,0,47.7-21.4,47.7-47.7C224.8,161.4,216,146.5,202.7,138.1z"/>
		<circle id="XMLID_4_" fill="#FFFFFF" cx="301.1" cy="127.9" r="47.7"/>
		<path fill="#E6E7E8" d="M328.1,88.5c8.5,12.3,11.1,28.3,5.6,43.4c-9,24.8-36.4,37.5-61.2,28.5c-3.9-1.4-7.4-3.3-10.7-5.5
			c5.4,7.9,13.3,14.2,23,17.8c24.8,9,52.2-3.8,61.2-28.5C353.6,123.3,345.7,100.5,328.1,88.5z"/>
		<circle id="XMLID_3_" fill="#FFFFFF" cx="240.3" cy="168.1" r="47.7"/>
		<path fill="#E6E7E8" d="M265.5,127.5c4.6,7.3,7.2,16,7.2,25.2c0,26.4-21.4,47.7-47.7,47.7c-9.3,0-17.9-2.6-25.2-7.2
			c8.4,13.5,23.4,22.5,40.5,22.5c26.4,0,47.7-21.4,47.7-47.7C288.1,151,279,136,265.5,127.5z"/>
		<circle id="XMLID_2_" fill="#FFFFFF" cx="163.3" cy="138.7" r="37.5"/>
		<path fill="#E6E7E8" d="M182.9,106.8c3.5,5.7,5.5,12.4,5.5,19.6c0,20.7-16.8,37.5-37.5,37.5c-7.2,0-13.9-2-19.6-5.5
			c6.6,10.7,18.4,17.9,32,17.9c20.7,0,37.5-16.8,37.5-37.5C200.8,125.2,193.7,113.3,182.9,106.8z"/>
		<g>
			<path fill="#42BDA7" d="M215.4,137.2h-7.8c0-0.5,0-1,0-1.5c0-15.5,12.6-28.1,28.1-28.1c5.1,0,9.8,1.3,13.9,3.7l11.3-11.3
				c-7.1-5-15.8-8-25.2-8c-24.1,0-43.7,19.6-43.7,43.7c0,0.5,0,1,0,1.5h-8.8c-1.4,0-2.2,1.7-1.3,2.7l16.1,19.4
				c0.7,0.8,1.9,0.8,2.6,0l16.1-19.4C217.6,138.8,216.8,137.2,215.4,137.2z"/>
			<path fill="#42BDA7" d="M289.4,130.8l-16.1-19.4c-0.7-0.8-1.9-0.8-2.6,0l-16.1,19.4c-0.9,1.1-0.1,2.7,1.3,2.7h7.8
				c0.1,0.7,0.1,1.4,0.1,2.1c0,15.5-12.6,28.1-28.1,28.1c-5.1,0-9.8-1.3-13.9-3.7l-11.3,11.3c7.1,5,15.8,8,25.2,8
				c24.1,0,43.7-19.6,43.7-43.7c0-0.7,0-1.4-0.1-2.1h8.8C289.5,133.6,290.3,131.9,289.4,130.8z"/>
		</g>
	</g>
</g>
<g id="Layer_7">
</g>
<g id="Layer_3" display="none">
	<g display="inline">
		<path fill="#D1D3D4" d="M-13.5,89.9c0-26.1,21.2-47.3,47.3-47.3s47.3,21.2,47.3,47.3S60,137.2,33.9,137.2h-135.3l-4.4-19.3
			l50.6-46.7L8.1,85.4"/>
		<circle fill="#FFFFFF" cx="-15.8" cy="67.5" r="53.9"/>
		<circle fill="#FFFFFF" cx="33.9" cy="89.9" r="47.3"/>
		<path fill="#D1D3D4" d="M15.3,23.4c6.2,8.8,9.8,19.5,9.8,31.1c0,29.8-24.2,53.9-53.9,53.9c-11.6,0-22.3-3.7-31.1-9.8
			c9.8,13.8,25.9,22.9,44.1,22.9c29.8,0,53.9-24.2,53.9-53.9C38.2,49.3,29.1,33.2,15.3,23.4z"/>
		<path fill="#D1D3D4" d="M60.1,50.6c5,7.5,8,16.6,8,26.3c0,26.1-21.2,47.3-47.3,47.3c-9.7,0-18.8-2.9-26.3-8
			c8.5,12.7,22.9,21,39.3,21c26.1,0,47.3-21.2,47.3-47.3C81.2,73.5,72.8,59,60.1,50.6z"/>
	</g>
</g>
</svg>
