<?xml version="1.0" encoding="utf-8"?>
<!-- Generator: Adobe Illustrator 19.0.1, SVG Export Plug-In . SVG Version: 6.00 Build 0)  -->
<svg version="1.1" xmlns="http://www.w3.org/2000/svg" xmlns:xlink="http://www.w3.org/1999/xlink" x="0px" y="0px"
	 viewBox="0 0 450 300" enable-background="new 0 0 450 300" xml:space="preserve">
<g id="o" display="none">
	<rect display="inline" fill="#FFFFFF" width="450" height="300"/>
	<rect x="-471" display="inline" fill="#F1F2F2" width="450" height="300"/>
</g>
<g id="Layer_4">
	<g>
		<circle fill="#539CD5" cx="-239" cy="148.9" r="137.4"/>
		<circle id="XMLID_9_" fill="#FFFFFF" cx="-171.4" cy="175.8" r="47.7"/>
		<circle id="XMLID_8_" fill="#FFFFFF" cx="-231.9" cy="113.6" r="62"/>
		<path fill="none" d="M-188.8,69c0.1,7.4-1.1,14.9-3.7,22.2c-11.7,32.2-47.3,48.8-79.5,37.1c-8.5-3.1-15.8-7.8-21.9-13.7
			c0.4,25,15.9,48.3,40.8,57.3c32.2,11.7,67.8-4.9,79.5-37.1C-165,111.1-171.8,85.5-188.8,69z"/>
		<path fill="#E6E7E8" d="M-148.9,133.7c6.2,11.6,7.6,25.6,2.8,38.9c-9,24.8-36.4,37.6-61.2,28.5c-2.2-0.8-4.2-1.7-6.2-2.8
			c5.3,10,14.3,18.2,25.8,22.3c24.8,9,52.2-3.8,61.2-28.5C-118.3,169.5-128.2,144.7-148.9,133.7z"/>
		<circle id="XMLID_7_" fill="#FFFFFF" cx="-127.7" cy="168.1" r="37.5"/>
		<path fill="#E6E7E8" d="M-112.8,133.7c2,4.6,3.1,9.6,3.1,14.8c0,20.7-16.8,37.5-37.5,37.5c-5.3,0-10.3-1.1-14.8-3.1
			c5.7,13.3,19,22.6,34.4,22.6c20.7,0,37.5-16.8,37.5-37.5C-90.2,152.6-99.5,139.4-112.8,133.7z"/>
		<circle id="XMLID_6_" fill="#FFFFFF" cx="-348.1" cy="169.3" r="36.2"/>
		<path fill="#E6E7E8" d="M-328.7,138.7c3.6,5.6,5.7,12.3,5.7,19.4c0,20-16.2,36.2-36.2,36.2c-7.2,0-13.8-2.1-19.4-5.7
			c6.4,10.1,17.7,16.8,30.6,16.8c20,0,36.2-16.2,36.2-36.2C-311.9,156.4-318.6,145.1-328.7,138.7z"/>
		<circle id="XMLID_5_" fill="#FFFFFF" cx="-293.9" cy="178.3" r="47.7"/>
		<path fill="#E6E7E8" d="M-268.3,138.1c4.7,7.4,7.5,16.2,7.5,25.6c0,26.4-21.4,47.7-47.7,47.7c-9.4,0-18.2-2.7-25.6-7.5
			c8.5,13.3,23.3,22.1,40.3,22.1c26.4,0,47.7-21.4,47.7-47.7C-246.2,161.4-255,146.5-268.3,138.1z"/>
		<circle id="XMLID_4_" fill="#FFFFFF" cx="-169.9" cy="127.9" r="47.7"/>
		<path fill="#E6E7E8" d="M-142.9,88.5c8.5,12.3,11.1,28.3,5.6,43.4c-9,24.8-36.4,37.5-61.2,28.5c-3.9-1.4-7.4-3.3-10.7-5.5
			c5.4,7.9,13.3,14.2,23,17.8c24.8,9,52.2-3.8,61.2-28.5C-117.4,123.3-125.3,100.5-142.9,88.5z"/>
		<circle id="XMLID_3_" fill="#FFFFFF" cx="-230.7" cy="168.1" r="47.7"/>
		<path fill="#E6E7E8" d="M-205.5,127.5c4.6,7.3,7.2,16,7.2,25.2c0,26.4-21.4,47.7-47.7,47.7c-9.3,0-17.9-2.6-25.2-7.2
			c8.4,13.5,23.4,22.5,40.5,22.5c26.4,0,47.7-21.4,47.7-47.7C-182.9,151-192,136-205.5,127.5z"/>
		<circle id="XMLID_2_" fill="#FFFFFF" cx="-307.7" cy="138.7" r="37.5"/>
		<path fill="#E6E7E8" d="M-288.1,106.8c3.5,5.7,5.5,12.4,5.5,19.6c0,20.7-16.8,37.5-37.5,37.5c-7.2,0-13.9-2-19.6-5.5
			c6.6,10.7,18.4,17.9,32,17.9c20.7,0,37.5-16.8,37.5-37.5C-270.2,125.2-277.3,113.3-288.1,106.8z"/>
		<g>
			<path fill="#42BDA7" d="M-255.6,137.2h-7.8c0-0.5,0-1,0-1.5c0-15.5,12.6-28.1,28.1-28.1c5.1,0,9.8,1.3,13.9,3.7l11.3-11.3
				c-7.1-5-15.8-8-25.2-8c-24.1,0-43.7,19.6-43.7,43.7c0,0.5,0,1,0,1.5h-8.8c-1.4,0-2.2,1.7-1.3,2.7l16.1,19.4
				c0.7,0.8,1.9,0.8,2.6,0l16.1-19.4C-253.4,138.8-254.2,137.2-255.6,137.2z"/>
			<path fill="#42BDA7" d="M-181.6,130.8l-16.1-19.4c-0.7-0.8-1.9-0.8-2.6,0l-16.1,19.4c-0.9,1.1-0.1,2.7,1.3,2.7h7.8
				c0.1,0.7,0.1,1.4,0.1,2.1c0,15.5-12.6,28.1-28.1,28.1c-5.1,0-9.8-1.3-13.9-3.7l-11.3,11.3c7.1,5,15.8,8,25.2,8
				c24.1,0,43.7-19.6,43.7-43.7c0-0.7,0-1.4-0.1-2.1h8.8C-181.5,133.6-180.7,131.9-181.6,130.8z"/>
		</g>
	</g>
</g>
<g id="Layer_7">
	<circle fill="#D1D3D4" cx="117.2" cy="176.4" r="104.4"/>
	<g>
		<g>
			
				<rect id="XMLID_103_" x="88.4" y="153.8" transform="matrix(0.9989 4.630265e-02 -4.630265e-02 0.9989 9.5065 -5.6165)" fill-rule="evenodd" clip-rule="evenodd" fill="#BCBEC0" width="75.1" height="97.2"/>
			<g id="XMLID_55_">
				
					<rect id="XMLID_102_" x="84.2" y="149.8" transform="matrix(0.9991 -4.263449e-02 4.263449e-02 0.9991 -8.3469 5.372)" fill-rule="evenodd" clip-rule="evenodd" fill="#FFFFFF" width="75.1" height="97.2"/>
				<g id="XMLID_56_">
					
						<rect id="XMLID_101_" x="114" y="154.9" transform="matrix(-0.9991 4.263449e-02 -4.263449e-02 -0.9991 273.3223 307.1955)" fill="#D1D3D4" width="38.7" height="3.2"/>
					
						<rect id="XMLID_100_" x="114.5" y="166" transform="matrix(-0.9991 4.263449e-02 -4.263449e-02 -0.9991 274.7408 329.3389)" fill="#939598" width="38.7" height="3.2"/>
					
						<rect id="XMLID_99_" x="115" y="177.1" transform="matrix(-0.9991 4.263449e-02 -4.263449e-02 -0.9991 276.159 351.4773)" fill="#D1D3D4" width="38.7" height="3.2"/>
					
						<rect id="XMLID_98_" x="114.8" y="171.5" transform="matrix(-0.9991 4.263449e-02 -4.263449e-02 -0.9991 275.45 340.4091)" fill="#939598" width="38.7" height="3.2"/>
					
						<rect id="XMLID_97_" x="114.3" y="160.4" transform="matrix(-0.9991 4.263449e-02 -4.263449e-02 -0.9991 274.0317 318.2687)" fill="#D1D3D4" width="38.7" height="3.2"/>
					
						<rect id="XMLID_96_" x="87.3" y="156.6" transform="matrix(-0.9991 4.263449e-02 -4.263449e-02 -0.9991 192.3917 312.3798)" fill="#D1D3D4" width="11.1" height="3.2"/>
					
						<rect id="XMLID_95_" x="87.8" y="167.7" transform="matrix(-0.9991 4.263449e-02 -4.263449e-02 -0.9991 193.8101 334.5232)" fill="#939598" width="11.1" height="3.2"/>
					
						<rect id="XMLID_94_" x="88.2" y="178.8" transform="matrix(-0.9991 4.263449e-02 -4.263449e-02 -0.9991 195.2283 356.6616)" fill="#D1D3D4" width="11.1" height="3.2"/>
					
						<rect id="XMLID_93_" x="88" y="173.2" transform="matrix(-0.9991 4.263449e-02 -4.263449e-02 -0.9991 194.5193 345.5934)" fill="#D1D3D4" width="11.1" height="3.2"/>
					
						<rect id="XMLID_92_" x="87.5" y="162.2" transform="matrix(-0.9991 4.263449e-02 -4.263449e-02 -0.9991 193.101 323.453)" fill="#939598" width="11.1" height="3.2"/>
					
						<rect id="XMLID_91_" x="100.3" y="156.1" transform="matrix(-0.9991 4.263449e-02 -4.263449e-02 -0.9991 218.296 310.7204)" fill="#D1D3D4" width="11.1" height="3.2"/>
					
						<rect id="XMLID_90_" x="100.7" y="167.2" transform="matrix(-0.9991 4.263449e-02 -4.263449e-02 -0.9991 219.7145 332.8638)" fill="#D1D3D4" width="11.1" height="3.2"/>
					
						<rect id="XMLID_89_" x="101.2" y="178.2" transform="matrix(-0.9991 4.263449e-02 -4.263449e-02 -0.9991 221.1327 355.0022)" fill="#D1D3D4" width="11.1" height="3.2"/>
					
						<rect id="XMLID_88_" x="101" y="172.7" transform="matrix(-0.9991 4.263449e-02 -4.263449e-02 -0.9991 220.4236 343.934)" fill="#D1D3D4" width="11.1" height="3.2"/>
					
						<rect id="XMLID_87_" x="100.5" y="161.6" transform="matrix(-0.9991 4.263449e-02 -4.263449e-02 -0.9991 219.0054 321.7936)" fill="#D1D3D4" width="11.1" height="3.2"/>
					
						<rect id="XMLID_86_" x="115.3" y="185.1" transform="matrix(-0.9991 4.263449e-02 -4.263449e-02 -0.9991 277.1873 367.5302)" fill="#D1D3D4" width="38.7" height="3.2"/>
					
						<rect id="XMLID_85_" x="115.8" y="196.2" transform="matrix(-0.9991 4.263449e-02 -4.263449e-02 -0.9991 278.6057 389.6736)" fill="#939598" width="38.7" height="3.2"/>
					
						<rect id="XMLID_84_" x="116.3" y="207.3" transform="matrix(-0.9991 4.263449e-02 -4.263449e-02 -0.9991 280.0239 411.812)" fill="#D1D3D4" width="38.7" height="3.2"/>
					
						<rect id="XMLID_83_" x="116" y="201.7" transform="matrix(-0.9991 4.263449e-02 -4.263449e-02 -0.9991 279.3149 400.7438)" fill="#939598" width="38.7" height="3.2"/>
					
						<rect id="XMLID_82_" x="115.6" y="190.6" transform="matrix(-0.9991 4.263449e-02 -4.263449e-02 -0.9991 277.8966 378.6034)" fill="#D1D3D4" width="38.7" height="3.2"/>
					
						<rect id="XMLID_81_" x="88.6" y="186.8" transform="matrix(-0.9991 4.263449e-02 -4.263449e-02 -0.9991 196.2566 372.7145)" fill="#D1D3D4" width="11.1" height="3.2"/>
					
						<rect id="XMLID_80_" x="89.1" y="197.9" transform="matrix(-0.9991 4.263449e-02 -4.263449e-02 -0.9991 197.6751 394.8579)" fill="#939598" width="11.1" height="3.2"/>
					
						<rect id="XMLID_79_" x="89.5" y="209" transform="matrix(-0.9991 4.263449e-02 -4.263449e-02 -0.9991 199.0932 416.9962)" fill="#D1D3D4" width="11.1" height="3.2"/>
					
						<rect id="XMLID_78_" x="89.3" y="203.5" transform="matrix(-0.9991 4.263449e-02 -4.263449e-02 -0.9991 198.3842 405.9281)" fill="#D1D3D4" width="11.1" height="3.2"/>
					
						<rect id="XMLID_77_" x="88.8" y="192.4" transform="matrix(-0.9991 4.263449e-02 -4.263449e-02 -0.9991 196.9659 383.7877)" fill="#939598" width="11.1" height="3.2"/>
					
						<rect id="XMLID_76_" x="101.6" y="186.3" transform="matrix(-0.9991 4.263449e-02 -4.263449e-02 -0.9991 222.161 371.0551)" fill="#D1D3D4" width="11.1" height="3.2"/>
					
						<rect id="XMLID_75_" x="102" y="197.4" transform="matrix(-0.9991 4.263449e-02 -4.263449e-02 -0.9991 223.5795 393.1985)" fill="#D1D3D4" width="11.1" height="3.2"/>
					
						<rect id="XMLID_74_" x="102.5" y="208.4" transform="matrix(-0.9991 4.263449e-02 -4.263449e-02 -0.9991 224.9976 415.3369)" fill="#D1D3D4" width="11.1" height="3.2"/>
					
						<rect id="XMLID_73_" x="102.3" y="202.9" transform="matrix(-0.9991 4.263449e-02 -4.263449e-02 -0.9991 224.2886 404.2687)" fill="#D1D3D4" width="11.1" height="3.2"/>
					
						<rect id="XMLID_72_" x="101.8" y="191.8" transform="matrix(-0.9991 4.263449e-02 -4.263449e-02 -0.9991 222.8703 382.1283)" fill="#D1D3D4" width="11.1" height="3.2"/>
					
						<rect id="XMLID_71_" x="116.6" y="215.3" transform="matrix(-0.9991 4.263449e-02 -4.263449e-02 -0.9991 281.0522 427.8649)" fill="#D1D3D4" width="38.7" height="3.2"/>
					
						<rect id="XMLID_70_" x="117.1" y="226.4" transform="matrix(-0.9991 4.263449e-02 -4.263449e-02 -0.9991 282.4707 450.0083)" fill="#939598" width="38.7" height="3.2"/>
					
						<rect id="XMLID_69_" x="117.6" y="237.5" transform="matrix(-0.9991 4.263449e-02 -4.263449e-02 -0.9991 283.8889 472.1466)" fill="#D1D3D4" width="38.7" height="3.2"/>
					
						<rect id="XMLID_68_" x="117.3" y="231.9" transform="matrix(-0.9991 4.263449e-02 -4.263449e-02 -0.9991 283.1798 461.0785)" fill="#939598" width="38.7" height="3.2"/>
					
						<rect id="XMLID_67_" x="116.9" y="220.9" transform="matrix(-0.9991 4.263449e-02 -4.263449e-02 -0.9991 281.7616 438.9381)" fill="#D1D3D4" width="38.7" height="3.2"/>
					
						<rect id="XMLID_66_" x="89.9" y="217" transform="matrix(-0.9991 4.263449e-02 -4.263449e-02 -0.9991 200.1216 433.0492)" fill="#D1D3D4" width="11.1" height="3.2"/>
					
						<rect id="XMLID_65_" x="90.4" y="228.1" transform="matrix(-0.9991 4.263449e-02 -4.263449e-02 -0.9991 201.54 455.1926)" fill="#939598" width="11.1" height="3.2"/>
					
						<rect id="XMLID_64_" x="90.8" y="239.2" transform="matrix(-0.9991 4.263449e-02 -4.263449e-02 -0.9991 202.9582 477.3309)" fill="#D1D3D4" width="11.1" height="3.2"/>
					
						<rect id="XMLID_63_" x="90.6" y="233.7" transform="matrix(-0.9991 4.263449e-02 -4.263449e-02 -0.9991 202.2492 466.2628)" fill="#D1D3D4" width="11.1" height="3.2"/>
					
						<rect id="XMLID_62_" x="90.1" y="222.6" transform="matrix(-0.9991 4.263449e-02 -4.263449e-02 -0.9991 200.8309 444.1224)" fill="#939598" width="11.1" height="3.2"/>
					
						<rect id="XMLID_61_" x="102.8" y="216.5" transform="matrix(-0.9991 4.263449e-02 -4.263449e-02 -0.9991 226.0259 431.3898)" fill="#D1D3D4" width="11.1" height="3.2"/>
					
						<rect id="XMLID_60_" x="103.3" y="227.6" transform="matrix(-0.9991 4.263449e-02 -4.263449e-02 -0.9991 227.4444 453.5332)" fill="#D1D3D4" width="11.1" height="3.2"/>
					
						<rect id="XMLID_59_" x="103.8" y="238.7" transform="matrix(-0.9991 4.263449e-02 -4.263449e-02 -0.9991 228.8626 475.6715)" fill="#D1D3D4" width="11.1" height="3.2"/>
					
						<rect id="XMLID_58_" x="103.6" y="233.1" transform="matrix(-0.9991 4.263449e-02 -4.263449e-02 -0.9991 228.1535 464.6034)" fill="#D1D3D4" width="11.1" height="3.2"/>
					
						<rect id="XMLID_57_" x="103.1" y="222" transform="matrix(-0.9991 4.263449e-02 -4.263449e-02 -0.9991 226.7353 442.463)" fill="#D1D3D4" width="11.1" height="3.2"/>
				</g>
			</g>
		</g>
		<g>
			
				<rect id="XMLID_405_" x="123.9" y="108.5" transform="matrix(0.9795 0.2013 -0.2013 0.9795 34.9248 -29.2896)" fill-rule="evenodd" clip-rule="evenodd" fill="#BCBEC0" width="75.1" height="97.2"/>
			<g id="XMLID_372_">
				
					<rect id="XMLID_50_" x="120.2" y="104.5" transform="matrix(0.9935 0.1135 -0.1135 0.9935 18.3942 -16.9125)" fill-rule="evenodd" clip-rule="evenodd" fill="#FFFFFF" width="75.1" height="97.2"/>
				<g id="XMLID_400_">
					<path id="XMLID_404_" fill="#D1D3D4" d="M151.6,128.4c-0.4,1-1.1,1.8-1.9,2.5l4.5,8c3-2,5.2-5,6.4-8.5L151.6,128.4z"/>
					<path id="XMLID_403_" fill="#939598" d="M147.2,118.4c3,1,5.1,3.9,5,7.1l9,2c0-0.1,0-0.2,0-0.3c1-8.5-4.8-16.3-13-18
						L147.2,118.4z"/>
					<path id="XMLID_402_" fill="#939598" d="M140.1,119.9c1.1-1,2.6-1.7,4.2-1.8l1-9.1c-4.9-0.1-9.4,2-12.5,5.4L140.1,119.9z"/>
					<path id="XMLID_401_" fill="#D1D3D4" d="M147.1,132.4c-1,0.3-2,0.4-3,0.3c-4-0.5-6.9-4.1-6.5-8.1c0.1-0.8,0.3-1.6,0.7-2.3
						l-7.3-5.5c-1.2,2-2.1,4.3-2.4,6.8c-1,9,5.5,17.2,14.5,18.2c3,0.3,5.9-0.2,8.5-1.3L147.1,132.4z"/>
				</g>
				<g id="XMLID_387_">
					
						<rect id="XMLID_399_" x="148.3" y="182.7" transform="matrix(-0.9935 -0.1135 0.1135 -0.9935 313.2079 386.5208)" fill="#939598" width="38.7" height="3.2"/>
					
						<rect id="XMLID_398_" x="147" y="193.7" transform="matrix(-0.9935 -0.1135 0.1135 -0.9935 309.446 408.352)" fill="#D1D3D4" width="38.7" height="3.2"/>
					
						<rect id="XMLID_397_" x="147.6" y="188.2" transform="matrix(-0.9935 -0.1135 0.1135 -0.9935 311.3268 397.4374)" fill="#939598" width="38.7" height="3.2"/>
					
						<rect id="XMLID_396_" x="148.9" y="177.2" transform="matrix(-0.9935 -0.1135 0.1135 -0.9935 315.089 375.6042)" fill="#D1D3D4" width="38.7" height="3.2"/>
					
						<rect id="XMLID_395_" x="121.7" y="178.1" transform="matrix(-0.9935 -0.1135 0.1135 -0.9935 233.4002 372.7687)" fill="#939598" width="11.1" height="3.2"/>
					
						<rect id="XMLID_394_" x="120.5" y="189.1" transform="matrix(-0.9935 -0.1135 0.1135 -0.9935 229.6384 394.5999)" fill="#D1D3D4" width="11.1" height="3.2"/>
					
						<rect id="XMLID_393_" x="121.1" y="183.6" transform="matrix(-0.9935 -0.1135 0.1135 -0.9935 231.5191 383.6853)" fill="#D1D3D4" width="11.1" height="3.2"/>
					
						<rect id="XMLID_392_" x="122.4" y="172.6" transform="matrix(-0.9935 -0.1135 0.1135 -0.9935 235.2813 361.8521)" fill="#939598" width="11.1" height="3.2"/>
					
						<rect id="XMLID_391_" x="134.6" y="179.6" transform="matrix(-0.9935 -0.1135 0.1135 -0.9935 258.9451 377.1705)" fill="#D1D3D4" width="11.1" height="3.2"/>
					
						<rect id="XMLID_390_" x="133.4" y="190.6" transform="matrix(-0.9935 -0.1135 0.1135 -0.9935 255.1833 399.0017)" fill="#D1D3D4" width="11.1" height="3.2"/>
					
						<rect id="XMLID_389_" x="134" y="185.1" transform="matrix(-0.9935 -0.1135 0.1135 -0.9935 257.064 388.0871)" fill="#D1D3D4" width="11.1" height="3.2"/>
					
						<rect id="XMLID_388_" x="135.3" y="174.1" transform="matrix(-0.9935 -0.1135 0.1135 -0.9935 260.8262 366.2539)" fill="#D1D3D4" width="11.1" height="3.2"/>
				</g>
				<g id="XMLID_380_">
					
						<rect id="XMLID_386_" x="130.1" y="157.4" transform="matrix(0.9935 0.1135 -0.1135 0.9935 19.2367 -14.114)" fill-rule="evenodd" clip-rule="evenodd" fill="#939598" width="6.9" height="9"/>
					
						<rect id="XMLID_385_" x="139.5" y="154.6" transform="matrix(0.9935 0.1135 -0.1135 0.9935 19.199 -15.1818)" fill-rule="evenodd" clip-rule="evenodd" fill="#939598" width="6.9" height="12.8"/>
					
						<rect id="XMLID_384_" x="148.9" y="149.8" transform="matrix(0.9935 0.1135 -0.1135 0.9935 19.0461 -16.2695)" fill-rule="evenodd" clip-rule="evenodd" fill="#939598" width="6.9" height="18.7"/>
					
						<rect id="XMLID_383_" x="157.5" y="160.5" transform="matrix(0.9935 0.1135 -0.1135 0.9935 19.7695 -17.2061)" fill-rule="evenodd" clip-rule="evenodd" fill="#939598" width="6.9" height="9"/>
					
						<rect id="XMLID_382_" x="167.5" y="146.7" transform="matrix(0.9935 0.1135 -0.1135 0.9935 19.1097 -18.3811)" fill-rule="evenodd" clip-rule="evenodd" fill="#939598" width="6.9" height="23.9"/>
					
						<rect id="XMLID_381_" x="175.6" y="167.1" transform="matrix(0.9935 0.1135 -0.1135 0.9935 20.3777 -19.2239)" fill-rule="evenodd" clip-rule="evenodd" fill="#939598" width="6.9" height="4.4"/>
				</g>
				<g id="XMLID_373_">
					
						<rect id="XMLID_379_" x="167.3" y="118.7" transform="matrix(-0.9935 -0.1135 0.1135 -0.9935 346.6387 259.4714)" fill="#D1D3D4" width="26.8" height="2.3"/>
					
						<rect id="XMLID_378_" x="166.9" y="122.4" transform="matrix(-0.9935 -0.1135 0.1135 -0.9935 345.3823 266.7628)" fill="#D1D3D4" width="26.8" height="2.3"/>
					
						<rect id="XMLID_377_" x="166.4" y="126.1" transform="matrix(-0.9935 -0.1135 0.1135 -0.9935 344.1259 274.0544)" fill="#D1D3D4" width="26.8" height="2.3"/>
					
						<rect id="XMLID_376_" x="166" y="129.7" transform="matrix(-0.9935 -0.1135 0.1135 -0.9935 342.8694 281.3458)" fill="#D1D3D4" width="26.8" height="2.3"/>
					
						<rect id="XMLID_375_" x="165.6" y="133.4" transform="matrix(-0.9935 -0.1135 0.1135 -0.9935 341.613 288.6373)" fill="#D1D3D4" width="26.8" height="2.3"/>
					
						<rect id="XMLID_374_" x="165.2" y="136.5" transform="matrix(-0.9935 -0.1135 0.1135 -0.9935 330.1946 294.1777)" fill="#D1D3D4" width="16.5" height="2.3"/>
				</g>
			</g>
		</g>
		<g id="XMLID_557_">
			
				<rect id="XMLID_599_" x="44.6" y="128.6" transform="matrix(-0.9975 7.085394e-02 -7.085394e-02 -0.9975 176.5329 348.0953)" fill-rule="evenodd" clip-rule="evenodd" fill="#FFFFFF" width="75.1" height="97.2"/>
			<g id="XMLID_588_">
				<polyline id="XMLID_598_" fill="none" stroke="#939598" stroke-width="1.75" stroke-miterlimit="10" points="100.4,144.3 
					88.6,146.9 75,140.3 61.1,145.3 				"/>
				<circle id="XMLID_597_" fill="#939598" cx="88.6" cy="146.9" r="1.8"/>
				<circle id="XMLID_596_" fill="#939598" cx="75" cy="140.3" r="1.8"/>
				<circle id="XMLID_595_" fill="#939598" cx="61.1" cy="145.3" r="1.8"/>
				<circle id="XMLID_594_" fill="#939598" cx="100.4" cy="144.3" r="1.8"/>
				<polyline id="XMLID_593_" fill="none" stroke="#939598" stroke-width="1.75" stroke-miterlimit="10" points="94.4,158.6 
					79.4,151.3 68.5,157.7 55.9,151.1 				"/>
				<circle id="XMLID_592_" fill="#939598" cx="79.4" cy="151.3" r="1.8"/>
				<circle id="XMLID_591_" fill="#939598" cx="68.5" cy="157.7" r="1.8"/>
				<circle id="XMLID_590_" fill="#939598" cx="55.9" cy="151.1" r="1.8"/>
				<circle id="XMLID_589_" fill="#939598" cx="94.4" cy="158.6" r="1.8"/>
			</g>
			<g id="XMLID_581_">
				
					<rect id="XMLID_587_" x="85.4" y="198" transform="matrix(0.9975 -7.085394e-02 7.085394e-02 0.9975 -13.8607 7.6113)" fill="#D1D3D4" width="29.8" height="2.3"/>
				
					<rect id="XMLID_586_" x="85.7" y="201.7" transform="matrix(0.9975 -7.085394e-02 7.085394e-02 0.9975 -14.1219 7.6392)" fill="#D1D3D4" width="29.8" height="2.3"/>
				
					<rect id="XMLID_585_" x="86" y="205.4" transform="matrix(0.9975 -7.085394e-02 7.085394e-02 0.9975 -14.3831 7.6671)" fill="#D1D3D4" width="29.8" height="2.3"/>
				
					<rect id="XMLID_584_" x="86.2" y="209.1" transform="matrix(0.9975 -7.085394e-02 7.085394e-02 0.9975 -14.6443 7.695)" fill="#D1D3D4" width="29.8" height="2.3"/>
				
					<rect id="XMLID_583_" x="86.5" y="212.8" transform="matrix(0.9975 -7.085394e-02 7.085394e-02 0.9975 -14.9056 7.7229)" fill="#D1D3D4" width="29.8" height="2.3"/>
				
					<rect id="XMLID_582_" x="98.2" y="216.1" transform="matrix(0.9975 -7.085394e-02 7.085394e-02 0.9975 -15.1236 8.1552)" fill="#D1D3D4" width="18.3" height="2.3"/>
			</g>
			<g id="XMLID_574_">
				
					<rect id="XMLID_580_" x="49.9" y="200.5" transform="matrix(0.9975 -7.085394e-02 7.085394e-02 0.9975 -14.129 5.0985)" fill="#D1D3D4" width="29.8" height="2.3"/>
				
					<rect id="XMLID_579_" x="50.2" y="204.2" transform="matrix(0.9975 -7.085394e-02 7.085394e-02 0.9975 -14.3902 5.1264)" fill="#D1D3D4" width="29.8" height="2.3"/>
				
					<rect id="XMLID_578_" x="50.4" y="207.9" transform="matrix(0.9975 -7.085394e-02 7.085394e-02 0.9975 -14.6514 5.1543)" fill="#D1D3D4" width="29.8" height="2.3"/>
				
					<rect id="XMLID_577_" x="50.7" y="211.6" transform="matrix(0.9975 -7.085394e-02 7.085394e-02 0.9975 -14.9126 5.1822)" fill="#D1D3D4" width="29.8" height="2.3"/>
				
					<rect id="XMLID_576_" x="50.9" y="215.3" transform="matrix(0.9975 -7.085394e-02 7.085394e-02 0.9975 -15.1739 5.2101)" fill="#D1D3D4" width="29.8" height="2.3"/>
				
					<rect id="XMLID_575_" x="69.8" y="218.4" transform="matrix(0.9975 -7.085394e-02 7.085394e-02 0.9975 -15.3649 5.8958)" fill="#D1D3D4" width="11.2" height="2.3"/>
			</g>
			<g id="XMLID_558_">
				
					<rect id="XMLID_573_" x="47.7" y="169.2" transform="matrix(0.9975 -7.085394e-02 7.085394e-02 0.9975 -11.9318 5.1799)" fill="#D1D3D4" width="38.7" height="3.2"/>
				
					<rect id="XMLID_572_" x="48.5" y="180.2" transform="matrix(0.9975 -7.085394e-02 7.085394e-02 0.9975 -12.7141 5.2634)" fill="#939598" width="38.7" height="3.2"/>
				
					<rect id="XMLID_571_" x="49.3" y="191.3" transform="matrix(0.9975 -7.085394e-02 7.085394e-02 0.9975 -13.4963 5.347)" fill="#D1D3D4" width="38.7" height="3.2"/>
				
					<rect id="XMLID_570_" x="48.9" y="185.8" transform="matrix(0.9975 -7.085394e-02 7.085394e-02 0.9975 -13.1052 5.3052)" fill="#939598" width="38.7" height="3.2"/>
				
					<rect id="XMLID_569_" x="48.1" y="174.7" transform="matrix(0.9975 -7.085394e-02 7.085394e-02 0.9975 -12.323 5.2217)" fill="#D1D3D4" width="38.7" height="3.2"/>
				
					<rect id="XMLID_568_" x="101.9" y="166.3" transform="matrix(0.9975 -7.085394e-02 7.085394e-02 0.9975 -11.6266 8.0391)" fill="#D1D3D4" width="11.1" height="3.2"/>
				
					<rect id="XMLID_567_" x="102.7" y="177.4" transform="matrix(0.9975 -7.085394e-02 7.085394e-02 0.9975 -12.4089 8.1227)" fill="#939598" width="11.1" height="3.2"/>
				
					<rect id="XMLID_566_" x="103.5" y="188.4" transform="matrix(0.9975 -7.085394e-02 7.085394e-02 0.9975 -13.191 8.2062)" fill="#D1D3D4" width="11.1" height="3.2"/>
				
					<rect id="XMLID_565_" x="103.1" y="182.9" transform="matrix(0.9975 -7.085394e-02 7.085394e-02 0.9975 -12.8 8.1644)" fill="#D1D3D4" width="11.1" height="3.2"/>
				
					<rect id="XMLID_564_" x="102.3" y="171.8" transform="matrix(0.9975 -7.085394e-02 7.085394e-02 0.9975 -12.0178 8.0809)" fill="#939598" width="11.1" height="3.2"/>
				
					<rect id="XMLID_563_" x="89" y="167.2" transform="matrix(0.9975 -7.085394e-02 7.085394e-02 0.9975 -11.7243 7.1239)" fill="#D1D3D4" width="11.1" height="3.2"/>
				
					<rect id="XMLID_562_" x="89.8" y="178.3" transform="matrix(0.9975 -7.085394e-02 7.085394e-02 0.9975 -12.5066 7.2075)" fill="#D1D3D4" width="11.1" height="3.2"/>
				
					<rect id="XMLID_561_" x="90.6" y="189.3" transform="matrix(0.9975 -7.085394e-02 7.085394e-02 0.9975 -13.2887 7.291)" fill="#D1D3D4" width="11.1" height="3.2"/>
				
					<rect id="XMLID_560_" x="90.2" y="183.8" transform="matrix(0.9975 -7.085394e-02 7.085394e-02 0.9975 -12.8977 7.2492)" fill="#D1D3D4" width="11.1" height="3.2"/>
				
					<rect id="XMLID_559_" x="89.4" y="172.7" transform="matrix(0.9975 -7.085394e-02 7.085394e-02 0.9975 -12.1155 7.1657)" fill="#D1D3D4" width="11.1" height="3.2"/>
			</g>
		</g>
		<g>
			
				<rect id="XMLID_556_" x="59.6" y="118.6" transform="matrix(0.9448 0.3275 -0.3275 0.9448 60.1061 -22.5953)" fill-rule="evenodd" clip-rule="evenodd" fill="#BCBEC0" width="75.1" height="97.2"/>
			<g id="XMLID_492_">
				
					<rect id="XMLID_44_" x="56.7" y="113.5" transform="matrix(0.9702 0.2423 -0.2423 0.9702 42.0833 -18.001)" fill-rule="evenodd" clip-rule="evenodd" fill="#FFFFFF" width="75.1" height="97.2"/>
				<g id="XMLID_493_">
					
						<rect id="XMLID_555_" x="97.9" y="123.6" transform="matrix(-0.9702 -0.2423 0.2423 -0.9702 200.6347 275.1762)" fill="#D1D3D4" width="38.7" height="3.2"/>
					
						<rect id="XMLID_554_" x="95.2" y="134.4" transform="matrix(-0.9702 -0.2423 0.2423 -0.9702 192.7291 295.7366)" fill="#939598" width="38.7" height="3.2"/>
					
						<rect id="XMLID_553_" x="92.5" y="145.2" transform="matrix(-0.9702 -0.2423 0.2423 -0.9702 184.8253 316.2923)" fill="#D1D3D4" width="38.7" height="3.2"/>
					
						<rect id="XMLID_552_" x="93.9" y="139.8" transform="matrix(-0.9702 -0.2423 0.2423 -0.9702 188.7768 306.0154)" fill="#939598" width="38.7" height="3.2"/>
					
						<rect id="XMLID_551_" x="96.5" y="129" transform="matrix(-0.9702 -0.2423 0.2423 -0.9702 196.6813 285.4578)" fill="#D1D3D4" width="38.7" height="3.2"/>
					
						<rect id="XMLID_550_" x="72.3" y="113.8" transform="matrix(-0.9702 -0.2423 0.2423 -0.9702 125.4896 246.2825)" fill="#D1D3D4" width="11.1" height="3.2"/>
					
						<rect id="XMLID_549_" x="69.6" y="124.6" transform="matrix(-0.9702 -0.2423 0.2423 -0.9702 117.584 266.8429)" fill="#939598" width="11.1" height="3.2"/>
					
						<rect id="XMLID_548_" x="66.9" y="135.3" transform="matrix(-0.9702 -0.2423 0.2423 -0.9702 109.6802 287.3987)" fill="#D1D3D4" width="11.1" height="3.2"/>
					
						<rect id="XMLID_547_" x="68.3" y="130" transform="matrix(-0.9702 -0.2423 0.2423 -0.9702 113.6318 277.1217)" fill="#D1D3D4" width="11.1" height="3.2"/>
					
						<rect id="XMLID_546_" x="71" y="119.2" transform="matrix(-0.9702 -0.2423 0.2423 -0.9702 121.5363 256.5641)" fill="#939598" width="11.1" height="3.2"/>
					
						<rect id="XMLID_545_" x="84.9" y="116.9" transform="matrix(-0.9702 -0.2423 0.2423 -0.9702 149.5421 255.5309)" fill="#D1D3D4" width="11.1" height="3.2"/>
					
						<rect id="XMLID_544_" x="82.2" y="127.7" transform="matrix(-0.9702 -0.2423 0.2423 -0.9702 141.6365 276.0912)" fill="#D1D3D4" width="11.1" height="3.2"/>
					
						<rect id="XMLID_543_" x="79.5" y="138.5" transform="matrix(-0.9702 -0.2423 0.2423 -0.9702 133.7327 296.647)" fill="#D1D3D4" width="11.1" height="3.2"/>
					
						<rect id="XMLID_542_" x="80.9" y="133.1" transform="matrix(-0.9702 -0.2423 0.2423 -0.9702 137.6843 286.3701)" fill="#D1D3D4" width="11.1" height="3.2"/>
					
						<rect id="XMLID_541_" x="83.6" y="122.3" transform="matrix(-0.9702 -0.2423 0.2423 -0.9702 145.5888 265.8124)" fill="#D1D3D4" width="11.1" height="3.2"/>
					
						<rect id="XMLID_540_" x="90.6" y="153" transform="matrix(-0.9702 -0.2423 0.2423 -0.9702 179.0941 331.1977)" fill="#D1D3D4" width="38.7" height="3.2"/>
					
						<rect id="XMLID_539_" x="87.9" y="163.7" transform="matrix(-0.9702 -0.2423 0.2423 -0.9702 171.1885 351.7581)" fill="#939598" width="38.7" height="3.2"/>
					
						<rect id="XMLID_538_" x="85.2" y="174.5" transform="matrix(-0.9702 -0.2423 0.2423 -0.9702 163.2847 372.3138)" fill="#D1D3D4" width="38.7" height="3.2"/>
					
						<rect id="XMLID_537_" x="86.5" y="169.1" transform="matrix(-0.9702 -0.2423 0.2423 -0.9702 167.2362 362.0369)" fill="#939598" width="38.7" height="3.2"/>
					
						<rect id="XMLID_536_" x="89.2" y="158.3" transform="matrix(-0.9702 -0.2423 0.2423 -0.9702 175.1408 341.4792)" fill="#D1D3D4" width="38.7" height="3.2"/>
					
						<rect id="XMLID_535_" x="65" y="143.1" transform="matrix(-0.9702 -0.2423 0.2423 -0.9702 103.949 302.304)" fill="#D1D3D4" width="11.1" height="3.2"/>
					
						<rect id="XMLID_534_" x="62.3" y="153.9" transform="matrix(-0.9702 -0.2423 0.2423 -0.9702 96.0435 322.8644)" fill="#939598" width="11.1" height="3.2"/>
					
						<rect id="XMLID_533_" x="59.6" y="164.7" transform="matrix(-0.9702 -0.2423 0.2423 -0.9702 88.1397 343.4201)" fill="#D1D3D4" width="11.1" height="3.2"/>
					
						<rect id="XMLID_532_" x="61" y="159.3" transform="matrix(-0.9702 -0.2423 0.2423 -0.9702 92.0912 333.1432)" fill="#D1D3D4" width="11.1" height="3.2"/>
					
						<rect id="XMLID_531_" x="63.7" y="148.5" transform="matrix(-0.9702 -0.2423 0.2423 -0.9702 99.9957 312.5855)" fill="#939598" width="11.1" height="3.2"/>
					
						<rect id="XMLID_530_" x="77.6" y="146.3" transform="matrix(-0.9702 -0.2423 0.2423 -0.9702 128.0016 311.5523)" fill="#D1D3D4" width="11.1" height="3.2"/>
					
						<rect id="XMLID_529_" x="74.9" y="157" transform="matrix(-0.9702 -0.2423 0.2423 -0.9702 120.096 332.1127)" fill="#D1D3D4" width="11.1" height="3.2"/>
					
						<rect id="XMLID_528_" x="72.2" y="167.8" transform="matrix(-0.9702 -0.2423 0.2423 -0.9702 112.1922 352.6684)" fill="#D1D3D4" width="11.1" height="3.2"/>
					
						<rect id="XMLID_527_" x="73.6" y="162.4" transform="matrix(-0.9702 -0.2423 0.2423 -0.9702 116.1437 342.3915)" fill="#D1D3D4" width="11.1" height="3.2"/>
					
						<rect id="XMLID_490_" x="76.2" y="151.7" transform="matrix(-0.9702 -0.2423 0.2423 -0.9702 124.0482 321.8339)" fill="#D1D3D4" width="11.1" height="3.2"/>
					
						<rect id="XMLID_489_" x="83.2" y="182.3" transform="matrix(-0.9702 -0.2423 0.2423 -0.9702 157.5535 387.2191)" fill="#D1D3D4" width="38.7" height="3.2"/>
					
						<rect id="XMLID_371_" x="80.6" y="193.1" transform="matrix(-0.9702 -0.2423 0.2423 -0.9702 149.6479 407.7795)" fill="#939598" width="38.7" height="3.2"/>
					
						<rect id="XMLID_370_" x="77.9" y="203.8" transform="matrix(-0.9702 -0.2423 0.2423 -0.9702 141.7442 428.3352)" fill="#D1D3D4" width="38.7" height="3.2"/>
					
						<rect id="XMLID_368_" x="79.2" y="198.4" transform="matrix(-0.9702 -0.2423 0.2423 -0.9702 145.6957 418.0583)" fill="#939598" width="38.7" height="3.2"/>
					
						<rect id="XMLID_367_" x="81.9" y="187.7" transform="matrix(-0.9702 -0.2423 0.2423 -0.9702 153.6002 397.5007)" fill="#D1D3D4" width="38.7" height="3.2"/>
					
						<rect id="XMLID_366_" x="57.7" y="172.5" transform="matrix(-0.9702 -0.2423 0.2423 -0.9702 82.4085 358.3254)" fill="#D1D3D4" width="11.1" height="3.2"/>
					
						<rect id="XMLID_365_" x="55" y="183.2" transform="matrix(-0.9702 -0.2423 0.2423 -0.9702 74.5029 378.8858)" fill="#939598" width="11.1" height="3.2"/>
					
						<rect id="XMLID_501_" x="52.3" y="194" transform="matrix(-0.9702 -0.2423 0.2423 -0.9702 66.5991 399.4415)" fill="#D1D3D4" width="11.1" height="3.2"/>
					
						<rect id="XMLID_500_" x="53.6" y="188.6" transform="matrix(-0.9702 -0.2423 0.2423 -0.9702 70.5506 389.1646)" fill="#D1D3D4" width="11.1" height="3.2"/>
					
						<rect id="XMLID_499_" x="56.3" y="177.9" transform="matrix(-0.9702 -0.2423 0.2423 -0.9702 78.4552 368.607)" fill="#939598" width="11.1" height="3.2"/>
					
						<rect id="XMLID_498_" x="70.3" y="175.6" transform="matrix(-0.9702 -0.2423 0.2423 -0.9702 106.461 367.5738)" fill="#D1D3D4" width="11.1" height="3.2"/>
					
						<rect id="XMLID_497_" x="67.6" y="186.4" transform="matrix(-0.9702 -0.2423 0.2423 -0.9702 98.5554 388.1341)" fill="#D1D3D4" width="11.1" height="3.2"/>
					
						<rect id="XMLID_496_" x="64.9" y="197.1" transform="matrix(-0.9702 -0.2423 0.2423 -0.9702 90.6516 408.6898)" fill="#D1D3D4" width="11.1" height="3.2"/>
					
						<rect id="XMLID_495_" x="66.2" y="191.8" transform="matrix(-0.9702 -0.2423 0.2423 -0.9702 94.6031 398.413)" fill="#D1D3D4" width="11.1" height="3.2"/>
					
						<rect id="XMLID_494_" x="68.9" y="181" transform="matrix(-0.9702 -0.2423 0.2423 -0.9702 102.5077 377.8553)" fill="#D1D3D4" width="11.1" height="3.2"/>
				</g>
			</g>
		</g>
	</g>
	<circle fill="#42BDA7" cx="300.7" cy="152.7" r="139.1"/>
	<g>
		<path id="XMLID_43_" fill="#E6E7E8" d="M366.6,189.3c-0.9-0.2-1.7-0.4-2.6-0.5c0.8-12-6.3-23.5-18.1-27.8
			c-4.9-1.8-10-2.1-14.8-1.1c0,0,0-0.1-0.1-0.1c-4.1-6.6-10.4-12-18.2-14.8c-18.7-6.8-39.3,2.8-46.1,21.5c-0.8,2.3-1.4,4.5-1.7,6.8
			c-2.6-1.1-5.4-1.7-8.4-1.7c-10.9,0-19.9,8-21.5,18.5c-0.7-0.1-1.3-0.1-2-0.1c-11.6,0-21,9.4-21,21c0,11.6,9.4,21,21,21
			c2.7,0,5.3-0.5,7.7-1.5c4.8,8,13.6,13.4,23.7,13.4c8.7,0,16.5-4.1,21.6-10.4c4.3,2.8,9.5,4.5,15,4.5c5.3,0,10.2-1.5,14.4-4
			c2.8,3,6.4,5.4,10.5,6.9c11.6,4.2,24.2,0.2,31.3-9.1c10.8,1.8,21.5-4.9,24.4-15.7C385.1,204.4,378.2,192.5,366.6,189.3z"/>
		<circle id="XMLID_42_" fill="#E6E7E8" cx="330.9" cy="207" r="27.7"/>
		<circle id="XMLID_41_" fill="#FFFFFF" cx="295.9" cy="170.9" r="35.9"/>
		<path id="XMLID_40_" fill="none" d="M320.8,145.1c0.1,4.3-0.6,8.6-2.2,12.9c-6.8,18.7-27.4,28.3-46.1,21.5
			c-4.9-1.8-9.2-4.5-12.7-7.9c0.2,14.5,9.2,28,23.6,33.2c18.7,6.8,39.3-2.8,46.1-21.5C334.6,169.4,330.7,154.6,320.8,145.1z"/>
		<path id="XMLID_39_" fill="#E6E7E8" d="M344,182.6c3.6,6.7,4.4,14.8,1.6,22.5c-5.2,14.4-21.1,21.8-35.5,16.5
			c-1.3-0.5-2.4-1-3.6-1.6c3.1,5.8,8.3,10.5,14.9,12.9c14.4,5.2,30.2-2.2,35.5-16.5C361.7,203.3,355.9,189,344,182.6z"/>
		<circle id="XMLID_38_" fill="#FFFFFF" cx="356.3" cy="202.5" r="21.7"/>
		<path id="XMLID_36_" fill="#E6E7E8" d="M369.8,185.5c0.4,2.8,0.3,5.8-0.5,8.8c-3.1,11.6-15.1,18.4-26.6,15.3
			c-2.9-0.8-5.6-2.2-7.8-4c1.2,8.3,7.2,15.5,15.8,17.9c11.6,3.1,23.5-3.7,26.6-15.3C379.6,199.5,376.4,190.7,369.8,185.5z"/>
		<circle id="XMLID_35_" fill="#FFFFFF" cx="228.5" cy="203.2" r="21"/>
		<path id="XMLID_34_" fill="#E6E7E8" d="M239.8,185.5c2.1,3.3,3.3,7.1,3.3,11.3c0,11.6-9.4,21-21,21c-4.1,0-8-1.2-11.3-3.3
			c3.7,5.9,10.3,9.7,17.7,9.7c11.6,0,21-9.4,21-21C249.5,195.7,245.6,189.2,239.8,185.5z"/>
		<circle id="XMLID_33_" fill="#FFFFFF" cx="259.9" cy="208.4" r="27.7"/>
		<path id="XMLID_31_" fill="#E6E7E8" d="M274.8,185.1c2.7,4.3,4.3,9.4,4.3,14.8c0,15.3-12.4,27.7-27.7,27.7
			c-5.5,0-10.6-1.6-14.8-4.3c4.9,7.7,13.5,12.8,23.3,12.8c15.3,0,27.7-12.4,27.7-27.7C287.6,198.6,282.5,190,274.8,185.1z"/>
		<circle id="XMLID_30_" fill="#FFFFFF" cx="331.8" cy="179.2" r="27.7"/>
		<path id="XMLID_28_" fill="#E6E7E8" d="M347.5,156.4c4.9,7.1,6.4,16.4,3.2,25.2c-5.2,14.4-21.1,21.8-35.5,16.5
			c-2.2-0.8-4.3-1.9-6.2-3.2c3.1,4.6,7.7,8.2,13.3,10.3c14.4,5.2,30.2-2.2,35.5-16.5C362.2,176.5,357.6,163.3,347.5,156.4z"/>
		<g id="XMLID_37_">
			<rect id="XMLID_1380_" x="234.5" y="76.2" fill="#FFFFFF" width="127" height="80.5"/>
			<g id="XMLID_349_">
				<g id="XMLID_328_">
					
						<rect id="XMLID_1365_" x="257.8" y="95.8" transform="matrix(0.5623 0.8269 -0.8269 0.5623 196.6168 -179.6628)" fill="#BCBEC0" width="20.4" height="0.3"/>
					
						<rect id="XMLID_1366_" x="278.2" y="87.6" transform="matrix(0.9656 0.26 -0.26 0.9656 34.5628 -69.0679)" fill="#BCBEC0" width="0.3" height="17"/>
					
						<rect id="XMLID_1367_" x="326" y="88.1" transform="matrix(8.983141e-02 0.996 -0.996 8.983141e-02 396.6883 -233.565)" fill="#BCBEC0" width="0.3" height="24.3"/>
					
						<rect id="XMLID_1368_" x="313.3" y="110.4" transform="matrix(-0.8333 -0.5528 0.5528 -0.8333 537.7764 383.2242)" fill="#BCBEC0" width="26.8" height="0.3"/>
					<path id="XMLID_1371_" fill="#BCBEC0" d="M312.7,102.6l7.7,15l0.3-0.1l-8-15.5l-13.1,9.3l-24.6-5.9l-0.1,0l-17.4,8.1l-1.9-0.9
						l-0.1,0.3l1.6,0.8l-1.3,0.6l0.1,0.3l1.5-0.7l17.6,8.3l10.8,17.8l26-36.7l-0.2-0.1l0.8-0.5l-3.3,27.3l-22.2,9.1l-0.1,0
						l-2.6,25.2l0.3,0l2.6-25.1l21.9-8.9l-7.5,17.7l0.3,0.1l7.5-17.8l13.5,20.5l0.3-0.2l-13.6-20.7L312.7,102.6z M285.9,139.2
						l-10.6-17.4l0,0l-17.4-8.2l17.1-8l24.6,5.9l0.1,0l11.8-8.4L285.9,139.2z"/>
				</g>
				<g id="XMLID_323_">
					<g id="XMLID_326_">
						<circle id="XMLID_1373_" fill="#3E96D2" cx="256.7" cy="112.9" r="9.2"/>
						<circle id="XMLID_1372_" fill="#F47920" cx="285.9" cy="138.9" r="9.2"/>
						<circle id="XMLID_347_" fill="#27B99A" cx="312.9" cy="101.5" r="9.2"/>
						<circle id="XMLID_344_" fill="#F47920" cx="301.6" cy="147.8" r="4.8"/>
						<circle id="XMLID_343_" fill="#F47920" cx="322.9" cy="150.5" r="4.8"/>
						<circle id="XMLID_338_" fill="#27B99A" cx="320.5" cy="117.5" r="4.8"/>
						<circle id="XMLID_337_" fill="#27B99A" cx="338.3" cy="99.2" r="4.8"/>
						<circle id="XMLID_335_" fill="#3E96D2" cx="275.2" cy="104.9" r="4.8"/>
						<circle id="XMLID_327_" fill="#3E96D2" cx="262.3" cy="87.5" r="4.8"/>
						<circle id="XMLID_1364_" fill="#F47920" cx="309.3" cy="129.8" r="2.6"/>
						<circle id="XMLID_1363_" fill="#F47920" cx="284.4" cy="164" r="2.6"/>
						<circle id="XMLID_1362_" fill="#3E96D2" cx="280.6" cy="87.9" r="2.6"/>
						<circle id="XMLID_1361_" fill="#27B99A" cx="299.7" cy="111.3" r="2.6"/>
						<circle id="XMLID_332_" fill="#27B99A" cx="337.8" cy="117.9" r="2.6"/>
					</g>
					<circle id="XMLID_325_" fill="#3E96D2" cx="275.2" cy="121.8" r="2.6"/>
				</g>
			</g>
			<path id="XMLID_1138_" fill="#2F526C" d="M358.9,73.3h-120c-5.1,0-10.5,3.2-10.5,8.4v78.9c0,5.1,5.4,12,10.5,12h49.7
				c0,0,1.4,11.1-10.8,11.1v3.9h39.9v-3.9c-12.2,0-9.1-11.1-9.1-11.1h50.4c5.1,0,8.1-6.9,8.1-12V81.6C367,76.5,364,73.3,358.9,73.3z
				 M361.5,156.7h-127v-77h127V156.7z"/>
			<path fill="#BCBEC0" d="M298.9,160.3c-2.4,0-4.4,2-4.4,4.4c0,2.4,2,4.4,4.4,4.4c2.4,0,4.4-2,4.4-4.4
				C303.3,162.3,301.3,160.3,298.9,160.3z"/>
		</g>
		<circle id="XMLID_26_" fill="#FFFFFF" cx="296.6" cy="202.5" r="27.7"/>
		<path id="XMLID_23_" fill="#E6E7E8" d="M311.2,179c2.6,4.2,4.2,9.2,4.2,14.6c0,15.3-12.4,27.7-27.7,27.7c-5.4,0-10.4-1.5-14.6-4.2
			c4.9,7.8,13.6,13.1,23.5,13.1c15.3,0,27.7-12.4,27.7-27.7C324.2,192.6,319,183.9,311.2,179z"/>
		<circle id="XMLID_22_" fill="#FFFFFF" cx="252" cy="185.5" r="21.7"/>
		<path id="XMLID_16_" fill="#E6E7E8" d="M263.3,166.9c2,3.3,3.2,7.2,3.2,11.3c0,12-9.7,21.7-21.7,21.7c-4.2,0-8-1.2-11.3-3.2
			c3.8,6.2,10.7,10.4,18.5,10.4c12,0,21.7-9.7,21.7-21.7C273.7,177.6,269.5,170.8,263.3,166.9z"/>
	</g>
	<g id="XMLID_1_">
		<g id="XMLID_859_">
			<g id="XMLID_27_">
				<rect id="XMLID_1640_" x="351.7" y="137.4" fill="#FFFFFF" width="26.7" height="40.2"/>
				<path id="XMLID_17_" fill="#2F526C" d="M377.3,130.2h-24.6c-2.3,0-4.2,1.9-4.2,4.3v49.9c0,2.3,1.9,4.3,4.2,4.3h24.6
					c2.3,0,4.3-1.9,4.3-4.3v-49.9C381.6,132.1,379.7,130.2,377.3,130.2 M374.5,132.9c0.6,0,1.1,0.5,1.1,1.1c0,0.6-0.5,1.1-1.1,1.1
					c-0.6,0-1.1-0.5-1.1-1.1C373.4,133.4,373.9,132.9,374.5,132.9 M359.3,133.3h11.4v1.2h-11.4V133.3z M365,185.3c-1.1,0-2-0.9-2-2
					c0-1.1,0.9-2,2-2c1.1,0,2,0.9,2,2C367,184.4,366.1,185.3,365,185.3 M378.4,177.6h-26.7v-40.2h26.7V177.6z"/>
			</g>
			<g id="XMLID_47_">
				<rect id="XMLID_15_" x="355.6" y="143.3" fill="#2F526C" width="18.5" height="4.1"/>
				<rect id="XMLID_48_" x="355.6" y="151.3" fill="#539CD5" width="14.3" height="4.1"/>
				<rect id="XMLID_49_" x="355.6" y="159.2" fill="#999999" width="6.4" height="4.1"/>
				<rect id="XMLID_14_" x="355.6" y="167.1" fill="#42BDA7" width="15.1" height="4.1"/>
			</g>
		</g>
		<rect id="XMLID_13_" x="359.3" y="133.3" fill="#A7A9AC" width="11.4" height="1.2"/>
		<path id="XMLID_12_" fill="#A7A9AC" d="M374.5,135.1c0.6,0,1.1-0.5,1.1-1.1c0-0.6-0.5-1.1-1.1-1.1c-0.6,0-1.1,0.5-1.1,1.1
			C373.4,134.6,373.9,135.1,374.5,135.1z"/>
		<circle id="XMLID_11_" fill="#A7A9AC" cx="365" cy="183.3" r="2"/>
	</g>
</g>
<g id="Layer_3" display="none">
	<path display="inline" fill="#42BDA7" d="M1056.3,144.3c-0.1,0-0.2,0-0.2,0.1c-6.5,3.1-12.5,7.5-17.6,13.3c0,0,0,0,0,0.1
		c0,0,0,0,0,0c-0.8,0.9-1.6,1.8-2.3,2.8c-0.5,0.7-1,1.3-1.5,2c-0.1,0.1-0.2,0.2-0.2,0.3l0,0c-5.5,8-8.7,17-9.5,26.3l-9.5-1.1
		c-0.6-0.1-1.1,0.2-1.4,0.7c-0.3,0.5-0.2,1.1,0.1,1.5l11.8,14.6l8.3,10.3c0.3,0.3,0.7,0.5,1.1,0.5c0.4,0,0.8-0.2,1-0.5
		c0,0,0,0,0.1-0.1l9-11.6l10.1-13c0.3-0.4,0.4-1,0.1-1.5c-0.3-0.5-0.8-0.8-1.3-0.7l-9.3,0.9c0.7-5,2.5-10,5.4-14.4l0.1,0.1
		c0.9-1.3,1.9-2.7,3-3.9c12.9-14.7,35.3-16,50-3.1c14.7,12.9,16,35.3,3.1,50c-12.9,14.7-35.3,16-50,3.1c-1.3-1.1-2.4-2.4-3.5-3.6
		l-17.7,9.6c2.3,3.1,4.9,6,7.9,8.6c22.8,20.2,57.7,18,77.9-4.8c20.2-22.8,18-57.7-4.8-77.9C1099.3,137.9,1075.7,135.2,1056.3,144.3z
		"/>
	<path display="inline" fill="#42BDA7" d="M1103.3,244.2c0.1,0,0.2,0,0.2-0.1c6.5-3.1,12.5-7.5,17.6-13.3c0,0,0,0,0-0.1c0,0,0,0,0,0
		c0.8-0.9,1.6-1.8,2.3-2.8c0.5-0.7,1-1.3,1.5-2c0.1-0.1,0.2-0.2,0.2-0.3l0,0c5.5-8,8.7-17,9.5-26.3l9.5,1.1c0.6,0.1,1.1-0.2,1.4-0.7
		c0.3-0.5,0.2-1.1-0.1-1.5l-11.8-14.6l-8.3-10.3c-0.3-0.3-0.7-0.5-1.1-0.5c-0.4,0-0.8,0.2-1,0.5c0,0,0,0-0.1,0.1l-9,11.6l-10.1,13
		c-0.3,0.4-0.4,1-0.1,1.5c0.3,0.5,0.8,0.8,1.3,0.7l9.3-0.9c-0.7,5-2.5,10-5.4,14.4l-0.1-0.1c-0.9,1.3-1.9,2.7-3,3.9
		c-12.9,14.7-35.3,16-50,3.1c-14.7-12.9-16-35.3-3.1-50c12.9-14.7,35.3-16,50-3.1c1.3,1.1,2.4,2.4,3.5,3.6l17.7-9.6
		c-2.3-3.1-4.9-6-7.9-8.6c-22.8-20.2-57.7-18-77.9,4.8c-20.2,22.8-18,57.7,4.8,77.9C1060.3,250.6,1084,253.2,1103.3,244.2z"/>
	<path display="inline" fill="#42BDA7" d="M820.2,54.7c-0.1,0-0.2,0-0.2,0c-6.7,2.6-13,6.6-18.5,12c0,0,0,0,0,0c0,0,0,0,0,0
		c-0.9,0.9-1.7,1.7-2.5,2.6c-0.6,0.6-1.1,1.3-1.6,1.9c-0.1,0.1-0.2,0.2-0.3,0.3l0,0c-6.1,7.6-9.9,16.4-11.4,25.5l-9.4-1.8
		c-0.6-0.1-1.1,0.1-1.4,0.6c-0.3,0.5-0.3,1.1,0,1.5l10.7,15.4l7.6,10.9c0.2,0.4,0.6,0.6,1,0.6c0.4,0,0.8-0.1,1.1-0.4
		c0,0,0,0,0.1-0.1L805,113l11-12.3c0.4-0.4,0.5-1,0.2-1.5c-0.2-0.5-0.7-0.8-1.3-0.8l-9.4,0.3c1.1-5,3.2-9.7,6.4-14l0.1,0.1
		c1-1.3,2-2.5,3.2-3.7c14-13.7,36.4-13.5,50.1,0.5c13.7,14,13.5,36.4-0.5,50.1c-14,13.7-36.4,13.5-50.1-0.5
		c-1.2-1.2-2.2-2.5-3.2-3.9l-18.4,8.3c2,3.2,4.4,6.3,7.2,9.2c21.3,21.8,56.3,22.1,78,0.8c21.8-21.3,22.1-56.3,0.8-78
		C863.5,51.3,840.1,47,820.2,54.7z"/>
	<circle display="inline" fill="#42BDA7" cx="985.5" cy="86.9" r="55.2"/>
	<circle display="inline" fill="#42BDA7" cx="985.5" cy="86.9" r="35.5"/>
	<g display="inline">
		<path fill="#42BDA7" d="M657.6,196.2h-9.9c0-0.6-0.1-1.2-0.1-1.8c0-19.6,15.9-35.5,35.5-35.5c6.4,0,12.4,1.7,17.6,4.7l14.2-14.2
			c-9-6.4-20-10.1-31.8-10.1c-30.5,0-55.2,24.7-55.2,55.2c0,0.6,0,1.2,0,1.8H617c-1.8,0-2.8,2.1-1.6,3.5l20.3,24.4
			c0.8,1,2.4,1,3.2,0l20.3-24.4C660.4,198.3,659.4,196.2,657.6,196.2z"/>
		<path fill="#42BDA7" d="M751,188.2l-20.3-24.4c-0.8-1-2.4-1-3.2,0l-20.3,24.4c-1.1,1.4-0.2,3.5,1.6,3.5h9.8
			c0.1,0.9,0.1,1.8,0.1,2.7c0,19.6-15.9,35.5-35.5,35.5c-6.4,0-12.4-1.7-17.6-4.7l-14.2,14.2c9,6.4,20,10.1,31.8,10.1
			c30.5,0,55.2-24.7,55.2-55.2c0-0.9,0-1.8-0.1-2.7h11.1C751.2,191.7,752.1,189.6,751,188.2z"/>
	</g>
	<path display="inline" fill="#42BDA7" d="M871.4,252.9l-22.9,22.9c-1.6,1.6-0.5,4.4,1.8,4.4h45.8c2.3,0,3.5-2.8,1.8-4.4L875,252.9
		C874,251.9,872.4,251.9,871.4,252.9z"/>
	<path display="inline" fill="#42BDA7" d="M786,309.8l22.9-22.9c1.6-1.6,0.5-4.4-1.8-4.4h-45.8c-2.3,0-3.5,2.8-1.8,4.4l22.9,22.9
		C783.3,310.8,784.9,310.8,786,309.8z"/>
	<path display="inline" fill="#42BDA7" d="M863,281.3c0,19.6-15.9,35.5-35.5,35.5c-6.4,0-12.4-1.7-17.6-4.7l-14.2,14.2
		c9,6.4,20,10.1,31.8,10.1c30.5,0,55.2-24.7,55.2-55.2c0-0.4,0-0.7,0-1.1H863C863,280.6,863,281,863,281.3z"/>
	<path display="inline" fill="#42BDA7" d="M794.3,281.3c0-19.6,15.9-35.5,35.5-35.5c6.4,0,12.4,1.7,17.6,4.7l14.2-14.2
		c-9-6.4-20-10.1-31.8-10.1c-30.5,0-55.2,24.7-55.2,55.2c0,0.4,0,0.7,0,1.1h19.7C794.4,282.1,794.3,281.7,794.3,281.3z"/>
	<g display="inline">
		<path fill="#D1D3D4" d="M-484.5,89.9c0-26.1,21.2-47.3,47.3-47.3s47.3,21.2,47.3,47.3s-21.2,47.3-47.3,47.3h-135.3l-4.4-19.3
			l50.6-46.7l63.4,14.2"/>
		<circle fill="#FFFFFF" cx="-486.8" cy="67.5" r="53.9"/>
		<circle fill="#FFFFFF" cx="-437.1" cy="89.9" r="47.3"/>
		<circle fill="#FFFFFF" cx="-572.8" cy="102.7" r="34.5"/>
		<path fill="#D1D3D4" d="M-455.7,23.4c6.2,8.8,9.8,19.5,9.8,31.1c0,29.8-24.2,53.9-53.9,53.9c-11.6,0-22.3-3.7-31.1-9.8
			c9.8,13.8,25.9,22.9,44.1,22.9c29.8,0,53.9-24.2,53.9-53.9C-432.8,49.3-441.9,33.2-455.7,23.4z"/>
		<path fill="#D1D3D4" d="M-410.9,50.6c5,7.5,8,16.6,8,26.3c0,26.1-21.2,47.3-47.3,47.3c-9.7,0-18.8-2.9-26.3-8
			c8.5,12.7,22.9,21,39.3,21c26.1,0,47.3-21.2,47.3-47.3C-389.8,73.5-398.2,59-410.9,50.6z"/>
		<path fill="#D1D3D4" d="M-555.8,72.6c2.8,5,4.5,10.8,4.5,17c0,19.1-15.5,34.5-34.5,34.5c-6.2,0-12-1.6-17-4.5
			c5.9,10.5,17.2,17.5,30.1,17.5c19.1,0,34.5-15.5,34.5-34.5C-538.2,89.8-545.3,78.5-555.8,72.6z"/>
		<circle fill="#FFFFFF" cx="-547.7" cy="75.6" r="21.8"/>
		<path fill="#D1D3D4" d="M-536.5,56.9c2,3.3,3.1,7.1,3.1,11.2c0,12-9.8,21.8-21.8,21.8c-4.1,0-7.9-1.1-11.2-3.1
			c3.8,6.4,10.8,10.6,18.7,10.6c12,0,21.8-9.8,21.8-21.8C-525.9,67.7-530.1,60.7-536.5,56.9z"/>
	</g>
	<circle display="inline" fill="#42BDA7" cx="-417.4" cy="470.8" r="130.3"/>
	<g id="XMLID_813_" display="inline">
		
			<rect id="XMLID_855_" x="-744.7" y="342.7" fill-rule="evenodd" clip-rule="evenodd" fill="#FFFFFF" width="155.7" height="201.5"/>
		<rect id="XMLID_854_" x="-734.3" y="353" fill-rule="evenodd" clip-rule="evenodd" fill="#BCBEC0" width="135" height="180.8"/>
		<g id="XMLID_814_">
			<rect id="XMLID_853_" x="-675.9" y="356.4" fill="#FFFFFF" width="73.1" height="13.2"/>
			<rect id="XMLID_851_" x="-730.9" y="356.4" fill="#FFFFFF" width="23.1" height="13.2"/>
			<rect id="XMLID_850_" x="-705.6" y="356.4" fill="#FFFFFF" width="27.5" height="13.2"/>
			<rect id="XMLID_849_" x="-675.9" y="377.8" fill="#FFFFFF" width="73.1" height="13.2"/>
			<rect id="XMLID_848_" x="-730.9" y="377.8" fill="#FFFFFF" width="23.1" height="13.2"/>
			<rect id="XMLID_846_" x="-705.6" y="377.8" fill="#FFFFFF" width="27.5" height="13.2"/>
			<rect id="XMLID_845_" x="-675.9" y="393.3" fill="#539CD5" width="73.1" height="13.2"/>
			<rect id="XMLID_844_" x="-730.9" y="393.3" fill="#FFFFFF" width="23.1" height="13.2"/>
			<rect id="XMLID_843_" x="-705.6" y="393.3" fill="#42BDA7" width="27.5" height="13.2"/>
			<rect id="XMLID_841_" x="-675.9" y="408.8" fill="#FFFFFF" width="73.1" height="13.2"/>
			<rect id="XMLID_840_" x="-730.9" y="408.8" fill="#FFFFFF" width="23.1" height="13.2"/>
			<rect id="XMLID_839_" x="-705.6" y="408.8" fill="#FFFFFF" width="27.5" height="13.2"/>
			<rect id="XMLID_838_" x="-675.9" y="424.3" fill="#FFFFFF" width="73.1" height="13.2"/>
			<rect id="XMLID_837_" x="-730.9" y="424.3" fill="#FFFFFF" width="23.1" height="13.2"/>
			<rect id="XMLID_834_" x="-705.6" y="424.3" fill="#FFFFFF" width="27.5" height="13.2"/>
			<rect id="XMLID_833_" x="-675.9" y="439.8" fill="#D1D3D4" width="73.1" height="13.2"/>
			<rect id="XMLID_832_" x="-730.9" y="439.8" fill="#D1D3D4" width="23.1" height="13.2"/>
			<rect id="XMLID_831_" x="-705.6" y="439.8" fill="#D1D3D4" width="27.5" height="13.2"/>
			<rect id="XMLID_830_" x="-675.9" y="455.3" fill="#539CD5" width="73.1" height="13.2"/>
			<rect id="XMLID_829_" x="-730.9" y="455.3" fill="#FFFFFF" width="23.1" height="13.2"/>
			<rect id="XMLID_828_" x="-705.6" y="455.3" fill="#42BDA7" width="27.5" height="13.2"/>
			<rect id="XMLID_827_" x="-675.9" y="470.8" fill="#FFFFFF" width="73.1" height="13.2"/>
			<rect id="XMLID_826_" x="-730.9" y="470.8" fill="#FFFFFF" width="23.1" height="13.2"/>
			<rect id="XMLID_825_" x="-705.6" y="470.8" fill="#FFFFFF" width="27.5" height="13.2"/>
			<rect id="XMLID_824_" x="-675.9" y="486.3" fill="#FFFFFF" width="73.1" height="13.2"/>
			<rect id="XMLID_823_" x="-730.9" y="486.3" fill="#42BDA7" width="23.1" height="13.2"/>
			<rect id="XMLID_822_" x="-705.6" y="486.3" fill="#42BDA7" width="27.5" height="13.2"/>
			<rect id="XMLID_821_" x="-675.9" y="501.8" fill="#FFFFFF" width="73.1" height="13.2"/>
			<rect id="XMLID_820_" x="-730.9" y="501.8" fill="#FFFFFF" width="23.1" height="13.2"/>
			<rect id="XMLID_819_" x="-705.6" y="501.8" fill="#FFFFFF" width="27.5" height="13.2"/>
			<rect id="XMLID_818_" x="-675.9" y="517.3" fill="#FFFFFF" width="73.1" height="13.2"/>
			<rect id="XMLID_817_" x="-730.9" y="517.3" fill="#FFFFFF" width="23.1" height="13.2"/>
			<rect id="XMLID_815_" x="-705.6" y="517.3" fill="#FFFFFF" width="27.5" height="13.2"/>
		</g>
	</g>
	
		<rect id="XMLID_46_" x="-108.2" y="-327.6" display="inline" fill-rule="evenodd" clip-rule="evenodd" fill="#FFFFFF" width="155.7" height="201.5"/>
	
		<rect id="XMLID_45_" x="60.9" y="-327.6" display="inline" fill-rule="evenodd" clip-rule="evenodd" fill="#FFFFFF" width="155.7" height="201.5"/>
	<g display="inline">
		<path fill="#D1D3D4" d="M155.4-209.3c-0.7,2.3-1.9,4.4-3.5,6.1l12.1,16.9c6.1-5.3,10.5-12.5,12.2-20.7L155.4-209.3z"/>
		<path fill="#939598" d="M143-230.7c7,1.5,12.4,7.4,13.1,14.7l20.7,2.3c0-0.2,0-0.5,0-0.7c0-19.4-14.9-35.3-33.8-37V-230.7z"/>
		<path fill="#939598" d="M127.4-225.5c2.3-2.6,5.4-4.4,8.9-5.1v-20.7c-11,1-20.6,6.8-26.8,15.3L127.4-225.5z"/>
		<path fill="#D1D3D4" d="M146.4-199.2c-2.1,0.9-4.3,1.4-6.7,1.4c-9.2,0-16.6-7.4-16.6-16.6c0-1.9,0.4-3.6,1-5.3l-17.9-10.6
			c-2.3,4.8-3.6,10.2-3.6,15.9c0,20.5,16.6,37.2,37.2,37.2c6.9,0,13.3-1.9,18.8-5.1L146.4-199.2z"/>
	</g>
	<rect x="74.5" y="-314.9" display="inline" fill="#A7A9AC" width="20.6" height="6"/>
	<rect x="74.5" y="-301.3" display="inline" fill="#A7A9AC" width="20.6" height="6"/>
	<rect x="74.5" y="-287.6" display="inline" fill="#A7A9AC" width="20.6" height="6"/>
	<rect x="74.5" y="-274" display="inline" fill="#A7A9AC" width="20.6" height="6"/>
	<rect x="109" y="-314.6" display="inline" fill="#D1D3D4" width="95.7" height="6.7"/>
	<rect x="109" y="-294.5" display="inline" fill="#D1D3D4" width="95.7" height="6.7"/>
	<rect x="109" y="-274.4" display="inline" fill="#D1D3D4" width="95.7" height="6.7"/>
	<rect x="109" y="-284.4" display="inline" fill="#D1D3D4" width="95.7" height="6.7"/>
	<rect x="109" y="-304.5" display="inline" fill="#D1D3D4" width="95.7" height="6.7"/>
	<g display="inline">
		<g>
			<rect x="100.3" y="-156.4" fill="#939598" width="11.7" height="20.6"/>
			<rect x="100.3" y="-166.7" fill="#D1D3D4" width="11.7" height="10.3"/>
		</g>
		<g>
			<rect x="122" y="-165.3" fill="#939598" width="11.7" height="29.5"/>
			<rect x="122" y="-171.2" fill="#D1D3D4" width="11.7" height="5.9"/>
		</g>
		<g>
			<rect x="143.7" y="-150.8" fill="#939598" width="11.7" height="15"/>
			<rect x="143.7" y="-161.6" fill="#D1D3D4" width="11.7" height="10.7"/>
		</g>
		<g>
			<rect x="165.5" y="-144.4" fill="#939598" width="11.7" height="8.6"/>
			<rect x="165.5" y="-153" fill="#D1D3D4" width="11.7" height="8.6"/>
		</g>
	</g>
	<rect x="-44.5" y="-314.6" display="inline" fill="#D1D3D4" width="80.2" height="6.7"/>
	<rect x="-44.5" y="-291.6" display="inline" fill="#939598" width="80.2" height="6.7"/>
	<rect x="-44.5" y="-268.6" display="inline" fill="#D1D3D4" width="80.2" height="6.7"/>
	<rect x="-44.5" y="-280.1" display="inline" fill="#939598" width="80.2" height="6.7"/>
	<rect x="-44.5" y="-303.1" display="inline" fill="#D1D3D4" width="80.2" height="6.7"/>
	<rect x="-100" y="-314.6" display="inline" fill="#D1D3D4" width="23.1" height="6.7"/>
	<rect x="-100" y="-291.6" display="inline" fill="#939598" width="23.1" height="6.7"/>
	<rect x="-100" y="-268.6" display="inline" fill="#D1D3D4" width="23.1" height="6.7"/>
	<rect x="-100" y="-280.1" display="inline" fill="#D1D3D4" width="23.1" height="6.7"/>
	<rect x="-100" y="-303.1" display="inline" fill="#939598" width="23.1" height="6.7"/>
	<rect x="-73.1" y="-314.6" display="inline" fill="#D1D3D4" width="23.1" height="6.7"/>
	<rect x="-73.1" y="-291.6" display="inline" fill="#D1D3D4" width="23.1" height="6.7"/>
	<rect x="-73.1" y="-268.6" display="inline" fill="#D1D3D4" width="23.1" height="6.7"/>
	<rect x="-73.1" y="-280.1" display="inline" fill="#D1D3D4" width="23.1" height="6.7"/>
	<rect x="-73.1" y="-303.1" display="inline" fill="#D1D3D4" width="23.1" height="6.7"/>
	<rect x="-44.5" y="-251.9" display="inline" fill="#D1D3D4" width="80.2" height="6.7"/>
	<rect x="-44.5" y="-228.9" display="inline" fill="#939598" width="80.2" height="6.7"/>
	<rect x="-44.5" y="-205.9" display="inline" fill="#D1D3D4" width="80.2" height="6.7"/>
	<rect x="-44.5" y="-217.4" display="inline" fill="#939598" width="80.2" height="6.7"/>
	<rect x="-44.5" y="-240.4" display="inline" fill="#D1D3D4" width="80.2" height="6.7"/>
	<rect x="-100" y="-251.9" display="inline" fill="#D1D3D4" width="23.1" height="6.7"/>
	<rect x="-100" y="-228.9" display="inline" fill="#939598" width="23.1" height="6.7"/>
	<rect x="-100" y="-205.9" display="inline" fill="#D1D3D4" width="23.1" height="6.7"/>
	<rect x="-100" y="-217.4" display="inline" fill="#D1D3D4" width="23.1" height="6.7"/>
	<rect x="-100" y="-240.4" display="inline" fill="#939598" width="23.1" height="6.7"/>
	<rect x="-73.1" y="-251.9" display="inline" fill="#D1D3D4" width="23.1" height="6.7"/>
	<rect x="-73.1" y="-228.9" display="inline" fill="#D1D3D4" width="23.1" height="6.7"/>
	<rect x="-73.1" y="-205.9" display="inline" fill="#D1D3D4" width="23.1" height="6.7"/>
	<rect x="-73.1" y="-217.4" display="inline" fill="#D1D3D4" width="23.1" height="6.7"/>
	<rect x="-73.1" y="-240.4" display="inline" fill="#D1D3D4" width="23.1" height="6.7"/>
	<rect x="-44.5" y="-189.2" display="inline" fill="#D1D3D4" width="80.2" height="6.7"/>
	<rect x="-44.5" y="-166.2" display="inline" fill="#939598" width="80.2" height="6.7"/>
	<rect x="-44.5" y="-143.2" display="inline" fill="#D1D3D4" width="80.2" height="6.7"/>
	<rect x="-44.5" y="-154.7" display="inline" fill="#939598" width="80.2" height="6.7"/>
	<rect x="-44.5" y="-177.7" display="inline" fill="#D1D3D4" width="80.2" height="6.7"/>
	<rect x="-100" y="-189.2" display="inline" fill="#D1D3D4" width="23.1" height="6.7"/>
	<rect x="-100" y="-166.2" display="inline" fill="#939598" width="23.1" height="6.7"/>
	<rect x="-100" y="-143.2" display="inline" fill="#D1D3D4" width="23.1" height="6.7"/>
	<rect x="-100" y="-154.7" display="inline" fill="#D1D3D4" width="23.1" height="6.7"/>
	<rect x="-100" y="-177.7" display="inline" fill="#939598" width="23.1" height="6.7"/>
	<rect x="-73.1" y="-189.2" display="inline" fill="#D1D3D4" width="23.1" height="6.7"/>
	<rect x="-73.1" y="-166.2" display="inline" fill="#D1D3D4" width="23.1" height="6.7"/>
	<rect x="-73.1" y="-143.2" display="inline" fill="#D1D3D4" width="23.1" height="6.7"/>
	<rect x="-73.1" y="-154.7" display="inline" fill="#D1D3D4" width="23.1" height="6.7"/>
	<rect x="-73.1" y="-177.7" display="inline" fill="#D1D3D4" width="23.1" height="6.7"/>
	<g display="inline">
		
			<rect id="XMLID_10_" x="232.4" y="-327.6" fill-rule="evenodd" clip-rule="evenodd" fill="#FFFFFF" width="155.7" height="201.5"/>
		<g>
			<rect x="255.4" y="-224.1" fill-rule="evenodd" clip-rule="evenodd" fill="#939598" width="14.3" height="18.6"/>
			<rect x="274.5" y="-232" fill-rule="evenodd" clip-rule="evenodd" fill="#939598" width="14.3" height="26.6"/>
			<rect x="293.5" y="-244.3" fill-rule="evenodd" clip-rule="evenodd" fill="#939598" width="14.3" height="38.8"/>
			<rect x="312.6" y="-224.1" fill-rule="evenodd" clip-rule="evenodd" fill="#939598" width="14.3" height="18.6"/>
			<rect x="331.7" y="-255.1" fill-rule="evenodd" clip-rule="evenodd" fill="#939598" width="14.3" height="49.6"/>
			<rect x="350.8" y="-214.7" fill-rule="evenodd" clip-rule="evenodd" fill="#939598" width="14.3" height="9.2"/>
		</g>
		<polygon fill="#939598" points="362.6,-300 362.6,-300.1 362.5,-300 352.1,-300 352.1,-295.7 356.1,-295.7 320.8,-271.5 
			294.6,-289.4 254.3,-259.7 257.6,-255.3 294.7,-282.7 320.8,-264.9 361.7,-292.9 361.7,-286 366.1,-286 366.1,-300 		"/>
		<g>
			<g>
				<rect x="244.8" y="-190.2" fill="#D1D3D4" width="61.8" height="4.8"/>
				<rect x="244.8" y="-182.5" fill="#D1D3D4" width="61.8" height="4.8"/>
				<rect x="244.8" y="-174.8" fill="#D1D3D4" width="61.8" height="4.8"/>
				<rect x="244.8" y="-167.1" fill="#D1D3D4" width="61.8" height="4.8"/>
				<rect x="244.8" y="-159.4" fill="#D1D3D4" width="61.8" height="4.8"/>
				<rect x="244.8" y="-151.8" fill="#D1D3D4" width="38" height="4.8"/>
			</g>
			<g>
				<rect x="313.8" y="-190.2" fill="#D1D3D4" width="61.8" height="4.8"/>
				<rect x="313.8" y="-182.5" fill="#D1D3D4" width="61.8" height="4.8"/>
				<rect x="313.8" y="-174.8" fill="#D1D3D4" width="61.8" height="4.8"/>
				<rect x="313.8" y="-167.1" fill="#D1D3D4" width="61.8" height="4.8"/>
				<rect x="313.8" y="-159.4" fill="#D1D3D4" width="61.8" height="4.8"/>
				<rect x="313.8" y="-151.8" fill="#D1D3D4" width="23.1" height="4.8"/>
			</g>
		</g>
	</g>
	<g display="inline">
		<path id="XMLID_199_" fill="#E6E7E8" d="M-327.6,484.4c-1.1-0.3-2.1-0.5-3.2-0.7c1-15-7.9-29.5-22.8-34.9
			c-6.2-2.3-12.6-2.6-18.6-1.4c0,0,0-0.1-0.1-0.1c-5.2-8.3-13-15-22.9-18.6c-23.4-8.5-49.4,3.6-57.9,27c-1,2.8-1.8,5.7-2.2,8.6
			c-3.2-1.4-6.8-2.1-10.5-2.1c-13.7,0-25.1,10.1-27,23.3c-0.8-0.1-1.7-0.1-2.5-0.1c-14.6,0-26.4,11.8-26.4,26.4
			c0,14.6,11.8,26.4,26.4,26.4c3.4,0,6.7-0.7,9.7-1.9c6.1,10.1,17.1,16.8,29.8,16.8c11,0,20.8-5.1,27.2-13.1
			c5.4,3.5,11.9,5.6,18.9,5.6c6.6,0,12.8-1.9,18.1-5.1c3.6,3.7,8,6.7,13.2,8.6c14.6,5.3,30.4,0.3,39.4-11.4
			c13.6,2.2,27-6.2,30.7-19.8C-304.5,503.3-313.1,488.3-327.6,484.4z"/>
		<circle id="XMLID_198_" fill="#E6E7E8" cx="-372.5" cy="506.5" r="34.8"/>
		<circle id="XMLID_197_" fill="#FFFFFF" cx="-416.6" cy="461.2" r="45.2"/>
		<path id="XMLID_196_" fill="none" d="M-385.2,428.8c0.1,5.4-0.8,10.8-2.7,16.2c-8.5,23.4-34.4,35.5-57.9,27
			c-6.2-2.2-11.5-5.7-15.9-10c0.3,18.2,11.6,35.1,29.7,41.7c23.4,8.5,49.4-3.6,57.9-27C-367.8,459.4-372.8,440.8-385.2,428.8z"/>
		<path id="XMLID_194_" fill="#E6E7E8" d="M-356.1,475.9c4.5,8.4,5.5,18.6,2,28.3c-6.6,18-26.5,27.3-44.6,20.8
			c-1.6-0.6-3.1-1.3-4.5-2c3.9,7.3,10.4,13.2,18.8,16.3c18,6.6,38-2.7,44.6-20.8C-333.8,502-341.1,483.9-356.1,475.9z"/>
		<circle id="XMLID_192_" fill="#FFFFFF" cx="-340.7" cy="500.9" r="27.3"/>
		<path id="XMLID_191_" fill="#E6E7E8" d="M-323.7,479.5c0.5,3.6,0.3,7.3-0.7,11c-4,14.5-18.9,23.1-33.5,19.2c-3.7-1-7-2.7-9.8-5
			c1.5,10.5,9,19.5,19.9,22.5c14.5,3.9,29.5-4.6,33.5-19.2C-311.4,497.2-315.4,486.1-323.7,479.5z"/>
		<circle id="XMLID_190_" fill="#FFFFFF" cx="-501.2" cy="501.8" r="26.4"/>
		<path id="XMLID_189_" fill="#E6E7E8" d="M-487.1,479.5c2.6,4.1,4.1,8.9,4.1,14.2c0,14.6-11.8,26.4-26.4,26.4
			c-5.2,0-10.1-1.5-14.2-4.1c4.7,7.4,12.9,12.2,22.3,12.2c14.6,0,26.4-11.8,26.4-26.4C-474.8,492.4-479.7,484.2-487.1,479.5z"/>
		<circle id="XMLID_188_" fill="#FFFFFF" cx="-461.7" cy="508.4" r="34.8"/>
		<path id="XMLID_187_" fill="#E6E7E8" d="M-443.1,479c3.4,5.4,5.4,11.8,5.4,18.6c0,19.2-15.6,34.8-34.8,34.8
			c-6.9,0-13.3-2-18.6-5.4c6.2,9.7,17,16.1,29.3,16.1c19.2,0,34.8-15.6,34.8-34.8C-427,496-433.4,485.2-443.1,479z"/>
		<circle id="XMLID_186_" fill="#FFFFFF" cx="-371.4" cy="471.6" r="34.8"/>
		<path id="XMLID_185_" fill="#E6E7E8" d="M-351.7,443c6.2,8.9,8.1,20.6,4.1,31.6c-6.6,18-26.5,27.3-44.6,20.8c-2.8-1-5.4-2.4-7.8-4
			c4,5.7,9.7,10.4,16.7,12.9c18,6.6,38-2.7,44.6-20.8C-333.2,468.3-339,451.7-351.7,443z"/>
		<circle id="XMLID_25_" fill="#FFFFFF" cx="-415.7" cy="500.9" r="34.8"/>
		<path id="XMLID_32_" fill="#E6E7E8" d="M-397.3,471.4c3.3,5.3,5.2,11.6,5.2,18.4c0,19.2-15.6,34.8-34.8,34.8
			c-6.7,0-13-1.9-18.4-5.2c6.1,9.8,17.1,16.4,29.5,16.4c19.2,0,34.8-15.6,34.8-34.8C-380.9,488.4-387.5,477.5-397.3,471.4z"/>
		<circle id="XMLID_24_" fill="#FFFFFF" cx="-471.7" cy="479.5" r="27.3"/>
		<path id="XMLID_29_" fill="#E6E7E8" d="M-457.5,456.2c2.5,4.1,4,9,4,14.2c0,15.1-12.2,27.3-27.3,27.3c-5.2,0-10.1-1.5-14.2-4
			c4.8,7.8,13.4,13,23.3,13c15.1,0,27.3-12.2,27.3-27.3C-444.4,469.7-449.7,461-457.5,456.2z"/>
	</g>
	<g id="XMLID_51_" display="inline">
		<g id="XMLID_142_">
			<rect id="XMLID_149_" x="-459.4" y="387.1" fill="#FFFFFF" width="82.2" height="66.3"/>
			<path id="XMLID_143_" fill="#2F526C" d="M-471.4,389.2v62.1c0,3.1,2.5,5.7,5.7,5.7h94.7c3.1,0,5.7-2.5,5.7-5.7v-62.1
				c0-3.1-2.5-5.7-5.7-5.7h-94.7C-468.8,383.5-471.4,386-471.4,389.2 M-466.7,412.4c0-0.7,0.5-1.2,1.2-1.2c0.7,0,1.2,0.5,1.2,1.2
				c0,0.7-0.5,1.2-1.2,1.2C-466.2,413.6-466.7,413.1-466.7,412.4 M-466.3,429.2v-12.6h1.4v12.6H-466.3z M-368,420.2
				c0,1.8-1.5,3.3-3.3,3.3c-1.8,0-3.3-1.5-3.3-3.3c0-1.8,1.5-3.3,3.3-3.3C-369.4,417-368,418.4-368,420.2 M-377.2,387.1v66.3h-82.2
				v-66.3H-377.2z"/>
		</g>
		<rect id="XMLID_141_" x="-466.3" y="416.6" fill="#BCBEC0" width="1.4" height="12.6"/>
		<ellipse id="XMLID_139_" fill="#BCBEC0" cx="-465.5" cy="412.4" rx="1.2" ry="1.2"/>
		<path id="XMLID_140_" fill="#BCBEC0" d="M-374.5,420.2c0,1.8,1.5,3.3,3.3,3.3c1.8,0,3.3-1.5,3.3-3.3c0-1.8-1.5-3.3-3.3-3.3
			C-373,417-374.5,418.4-374.5,420.2z"/>
		<g id="XMLID_52_">
			<path id="XMLID_138_" fill="#539CD5" d="M-414.7,412.2c1.3,0.4,2.5,1.1,3.5,2.1l9.8-7c-3-3.5-7.2-6.1-12-7L-414.7,412.2z"/>
			<path id="XMLID_137_" fill="#F47920" d="M-427.1,419.3c0.8-4.1,4.3-7.2,8.5-7.6l1.3-12c-0.1,0-0.3,0-0.4,0
				c-11.2,0-20.4,8.6-21.4,19.6H-427.1z"/>
			<path id="XMLID_54_" fill="#42BDA7" d="M-424.1,428.3c-1.5-1.3-2.5-3.1-3-5.1h-12c0.6,6.4,3.9,11.9,8.9,15.5L-424.1,428.3z"/>
			<path id="XMLID_53_" fill="#2F526C" d="M-408.8,417.4c0.5,1.2,0.8,2.5,0.8,3.9c0,5.3-4.3,9.6-9.6,9.6c-1.1,0-2.1-0.2-3.1-0.5
				l-6.1,10.4c2.8,1.3,5.9,2.1,9.2,2.1c11.9,0,21.5-9.6,21.5-21.5c0-4-1.1-7.7-3-10.9L-408.8,417.4z"/>
		</g>
	</g>
</g>
</svg>
