<?xml version="1.0" ?><!DOCTYPE svg  PUBLIC '-//W3C//DTD SVG 1.1//EN'  'http://www.w3.org/Graphics/SVG/1.1/DTD/svg11.dtd'><svg enable-background="new 0 0 512 512" height="512px" id="Слой_1" version="1.1" viewBox="0 0 512 512" width="512px" xml:space="preserve" xmlns="http://www.w3.org/2000/svg" xmlns:xlink="http://www.w3.org/1999/xlink"><g id="Plan"><path d="M458.764,498.223c0,7.602-6.168,13.777-13.777,13.777H67.01c-7.609,0-13.773-6.176-13.773-13.777V28.535   c0-7.609,6.164-13.781,13.773-13.781h377.977c7.609,0,13.777,6.172,13.777,13.781V498.223z" fill="#303842"/><path d="M458.764,483.461c0,7.613-6.168,13.77-13.777,13.77H67.01c-7.609,0-13.773-6.156-13.773-13.77V13.773   C53.236,6.16,59.4,0,67.01,0h377.977c7.609,0,13.777,6.16,13.777,13.773V483.461z" fill="#434A54"/><g><polygon fill="#E6E9ED" points="316.83,459.848 90.627,459.848 90.627,37.387 421.373,37.387 421.373,348.652   "/><polygon fill="#CCD1D9" points="316.83,348.652 421.373,348.652 316.83,459.848   "/><polygon fill="#303842" points="187.326,325.277 167.111,345.496 146.896,325.277 130.35,341.824 150.564,362.039 130.35,382.262     146.9,398.801 167.111,378.586 187.326,398.801 203.873,382.262 183.662,362.039 203.873,341.824   "/><polygon fill="#303842" points="391.826,234.613 375.283,218.059 355.068,238.277 334.854,218.059 318.303,234.605     338.518,254.824 318.303,275.039 334.854,291.586 355.064,271.371 375.279,291.586 391.826,275.039 371.615,254.824   "/><polygon fill="#303842" points="208.307,122.324 188.096,142.539 167.877,122.32 151.33,138.871 171.549,159.086 151.334,179.301     167.881,195.848 188.096,175.633 208.307,195.848 224.854,179.301 204.643,159.086 224.854,138.871   "/><polygon fill="#D94452" points="366.381,184.215 383.635,133.691 330.529,128.188 342.123,146.301 207.764,232.27 237.24,277.723     256.955,265.105 240.088,239.367 354.732,166.012   "/><path d="M262.814,258.613c-22.664,0-41.035,18.375-41.035,41.039c0,22.66,18.371,41.035,41.035,41.035    s41.035-18.375,41.035-41.035C303.85,276.988,285.479,258.613,262.814,258.613z M262.814,317.285    c-9.723,0-17.633-7.914-17.633-17.633c0-9.727,7.91-17.633,17.633-17.633c9.719,0,17.633,7.906,17.633,17.633    C280.447,309.371,272.533,317.285,262.814,317.285z" fill="#EC5564"/></g><g><rect fill="#C2C8CC" height="12.785" width="186.293" x="162.854"/><path d="M359.17,11.801H152.83c-6.516,0-11.793,5.285-11.793,11.793v27.121c0,6.508,5.277,11.789,11.793,11.789    h69.891c7.016,10.977,19.285,18.273,33.277,18.273c13.996,0,26.262-7.297,33.277-18.273h69.895    c6.512,0,11.793-5.281,11.793-11.789V23.594C370.963,17.086,365.682,11.801,359.17,11.801z M357.189,48.73h-67.914h-7.539    l-4.066,6.355c-4.77,7.461-12.875,11.918-21.672,11.918s-16.895-4.457-21.668-11.918l-4.066-6.355h-7.543h-67.91V25.582h202.379    V48.73z" fill="#CBD0D8"/></g></g></svg>