<?xml version="1.0" ?><!DOCTYPE svg  PUBLIC '-//W3C//DTD SVG 1.1//EN'  'http://www.w3.org/Graphics/SVG/1.1/DTD/svg11.dtd'><svg enable-background="new 0 0 512 512" height="512px" id="Layer_1" version="1.1" viewBox="0 0 512 512" width="512px" xml:space="preserve" xmlns="http://www.w3.org/2000/svg" xmlns:xlink="http://www.w3.org/1999/xlink"><g><g><circle cx="256.178" cy="256.179" fill="#82D0D8" r="256"/><g><path d="M394.322,191.616c-7.528,0-14.71,1.412-21.383,3.875c-6.25-53.262-51.511-94.596-106.452-94.596      c-40.889,0-76.422,22.894-94.505,56.557c-0.102-0.045-0.207-0.083-0.309-0.128c-8.06,15.074-12.643,32.287-12.643,50.576      c0,4.628,0.326,9.178,0.894,13.652c-2.921-9.535-4.502-19.655-4.502-30.147c0-13.222,2.524-25.846,7.071-37.456      c-7.549-2.295-15.539-3.57-23.84-3.57c-45.549,0-82.474,36.925-82.474,82.474c0,45.549,36.925,82.474,82.474,82.474      c1.771,0,265.039,0,265.039,0c29.704-4.526,52.487-30.887,52.487-61.856C456.178,219.31,428.484,191.616,394.322,191.616z" fill="#FFFFFF"/><g><g><path d="M335.365,328.855v-18.1c0-4.998-3.916-9.05-8.746-9.05H185.737c-4.83,0-8.746,4.052-8.746,9.05v18.1        c6.222,0,11.312,5.091,11.312,11.312c0,6.222-5.091,11.312-11.312,11.312v13.575c6.222,0,11.312,5.091,11.312,11.312        c0,6.222-5.091,11.312-11.312,11.312v18.1c0,4.998,3.916,9.05,8.746,9.05h140.882c4.83,0,8.746-4.052,8.746-9.05v-18.1        c-6.222,0-11.312-5.091-11.312-11.312c0-6.222,5.091-11.312,11.312-11.312V351.48c-6.222,0-11.312-5.091-11.312-11.312        C324.052,333.946,329.143,328.855,335.365,328.855z" fill="#FFFFFF"/></g><g><g><path d="M335.365,310.755c0-4.998-3.916-9.05-8.746-9.05H185.737c-4.83,0-8.746,4.052-8.746,9.05v4.525         h158.373V310.755z" fill="#1B7C96"/></g></g><g><g><path d="M335.365,401.255H176.991v4.525c0,4.998,3.916,9.05,8.746,9.05h140.882         c4.83,0,8.746-4.052,8.746-9.05V401.255z" fill="#FF5F5F"/></g></g><path d="M317.265,301.706H294.64v-34.301c0-20.571-17.614-37.951-38.462-37.951       c-20.848,0-38.462,17.38-38.462,37.951v34.301h-22.625v-34.301c0-33.401,27.404-60.576,61.087-60.576       s61.087,27.174,61.087,60.576V301.706z" fill="#004259"/><path d="M263.018,366.68v14.212c0,3.733-3.054,6.787-6.787,6.787c-3.733,0-6.787-3.054-6.787-6.787v-14.126       c-2.763-2.063-4.577-5.329-4.577-9.042c0-6.248,5.065-11.312,11.312-11.312c6.248,0,11.312,5.065,11.312,11.312       C267.49,361.389,265.719,364.613,263.018,366.68z" fill="#004259"/></g></g></g></g></svg>