<?xml version="1.0" encoding="UTF-8" standalone="no"?>
<svg width="36px" height="27px" viewBox="0 0 36 27" version="1.1" xmlns="http://www.w3.org/2000/svg" xmlns:xlink="http://www.w3.org/1999/xlink">
    <!-- Generator: Sketch 39.1 (31720) - http://www.bohemiancoding.com/sketch -->
    <title>“@2x</title>
    <desc>Created with Sketch.</desc>
    <defs></defs>
    <g id="Round-2" stroke="none" stroke-width="1" fill="none" fill-rule="evenodd" opacity="0.979999959">
        <g id="00-Desktop-Full-Flow" transform="translate(-494.000000, -1437.000000)" fill="#FFFFFF">
            <g id="Section-03" transform="translate(0.000000, 1280.000000)">
                <path d="M529.220085,161.076923 C524.614649,163.341892 522.311966,166.00319 522.311966,169.060897 C524.274939,169.287394 525.898142,170.089559 527.181624,171.467415 C528.465106,172.84527 529.106838,174.440162 529.106838,176.252137 C529.106838,178.17736 528.483981,179.800563 527.238248,181.121795 C525.992515,182.443027 524.425935,183.103632 522.538462,183.103632 C520.424491,183.103632 518.593669,182.244845 517.04594,180.527244 C515.498212,178.809642 514.724359,176.724015 514.724359,174.270299 C514.724359,166.909151 518.83899,161.152442 527.068376,157 L529.220085,161.076923 Z M508.495726,161.076923 C503.852541,163.341892 501.530983,166.00319 501.530983,169.060897 C503.531705,169.287394 505.173783,170.089559 506.457265,171.467415 C507.740747,172.84527 508.382479,174.440162 508.382479,176.252137 C508.382479,178.17736 507.750184,179.800563 506.485577,181.121795 C505.220969,182.443027 503.644952,183.103632 501.757479,183.103632 C499.643508,183.103632 497.822123,182.244845 496.293269,180.527244 C494.764415,178.809642 494,176.724015 494,174.270299 C494,166.909151 498.095757,161.152442 506.287393,157 L508.495726,161.076923 Z" id="“"></path>
            </g>
        </g>
    </g>
</svg>