<?xml version="1.0" encoding="utf-8"?>
<!-- Generator: Adobe Illustrator 19.1.0, SVG Export Plug-In . SVG Version: 6.00 Build 0)  -->
<svg version="1.1" id="Layer_1" xmlns="http://www.w3.org/2000/svg" xmlns:xlink="http://www.w3.org/1999/xlink" x="0px" y="0px"
	 width="24px" height="24px" viewBox="-59 115 24 24" style="enable-background:new -59 115 24 24;" xml:space="preserve">
<g>
	<g>
		<path d="M-37,118.5h-20c-1.1,0-2,0.9-2,2v14c0,1.1,0.9,2,2,2h20c1.1,0,2-0.9,2-2v-14C-35,119.4-35.9,118.5-37,118.5z M-51,121.5
			c1.7,0,3,1.3,3,3c0,1.7-1.3,3-3,3s-3-1.3-3-3C-54,122.8-52.7,121.5-51,121.5z M-45,133.5h-12v-1c0-2,4-3.1,6-3.1s6,1.1,6,3.1
			V133.5z M-39,131.5h-2v-2h2V131.5z M-39,127.5h-2v-5h2V127.5z"/>
	</g>
</g>
</svg>
