<?xml version="1.0" encoding="utf-8"?>
<!-- Generator: Adobe Illustrator 19.1.0, SVG Export Plug-In . SVG Version: 6.00 Build 0)  -->
<svg version="1.1" id="Layer_1" xmlns="http://www.w3.org/2000/svg" xmlns:xlink="http://www.w3.org/1999/xlink" x="0px" y="0px"
	 width="24px" height="24px" viewBox="-59 115 24 24" style="enable-background:new -59 115 24 24;" xml:space="preserve">
<path d="M-46.5,118.5c-4.4,0-8,1.8-8,4c0,2.2,3.6,4,8,4s8-1.8,8-4C-38.5,120.3-42.1,118.5-46.5,118.5 M-54.5,124.5v3
	c0,2.2,3.6,4,8,4s8-1.8,8-4v-3c0,2.2-3.6,4-8,4S-54.5,126.7-54.5,124.5 M-54.5,129.5v3c0,2.2,3.6,4,8,4s8-1.8,8-4v-3
	c0,2.2-3.6,4-8,4S-54.5,131.7-54.5,129.5z"/>
</svg>
