<?xml version="1.0" encoding="utf-8"?>
<!-- Generator: Adobe Illustrator 19.1.0, SVG Export Plug-In . SVG Version: 6.00 Build 0)  -->
<svg version="1.1" id="Layer_1" xmlns="http://www.w3.org/2000/svg" xmlns:xlink="http://www.w3.org/1999/xlink" x="0px" y="0px"
	 width="24px" height="24px" viewBox="-59 115 24 24" style="enable-background:new -59 115 24 24;" xml:space="preserve">
<path d="M-37.5,132.5v-9h-14v9H-37.5 M-37.5,118.5c1.1,0,2,0.9,2,2v12c0,1.1-0.9,2-2,2h-14c-1.1,0-2-0.9-2-2v-12c0-1.1,0.9-2,2-2h1
	v-2h2v2h8v-2h2v2H-37.5 M-41,126.6l-4.4,4.4l-2.7-2.7l1.1-1.1l1.6,1.6l3.4-3.4L-41,126.6 M-55.5,136.5h14v2h-14c-1.1,0-2-0.9-2-2
	v-12h2V136.5z"/>
</svg>
