<?xml version="1.0" encoding="utf-8"?>
<!-- Generator: Adobe Illustrator 19.1.0, SVG Export Plug-In . SVG Version: 6.00 Build 0)  -->
<svg version="1.1" id="Layer_1" xmlns="http://www.w3.org/2000/svg" xmlns:xlink="http://www.w3.org/1999/xlink" x="0px" y="0px"
	 width="24px" height="24px" viewBox="-59 115 24 24" style="enable-background:new -59 115 24 24;" xml:space="preserve">
<path d="M-46.5,117.5c-3.9,0-7,3.1-7,7c0,2.4,1.2,4.5,3,5.7v2.3c0,0.6,0.4,1,1,1h6c0.6,0,1-0.4,1-1v-2.3c1.8-1.3,3-3.4,3-5.7
	C-39.5,120.6-42.6,117.5-46.5,117.5 M-49.5,136.5c0,0.6,0.4,1,1,1h4c0.6,0,1-0.4,1-1v-1h-6V136.5z"/>
</svg>
