<?xml version="1.0" encoding="utf-8"?>
<!-- Generator: Adobe Illustrator 19.1.0, SVG Export Plug-In . SVG Version: 6.00 Build 0)  -->
<svg version="1.1" id="Layer_1" xmlns="http://www.w3.org/2000/svg" xmlns:xlink="http://www.w3.org/1999/xlink" x="0px" y="0px"
	 width="24px" height="24px" viewBox="-59 115 24 24" style="enable-background:new -59 115 24 24;" xml:space="preserve">
<path d="M-43.5,134.5l-6-2.1v-11.9l6,2.1 M-38,118.5c-0.1,0-0.1,0-0.2,0l-5.3,2.1l-6-2.1l-5.6,1.9c-0.2,0.1-0.4,0.2-0.4,0.5V136
	c0,0.3,0.2,0.5,0.5,0.5c0,0,0.1,0,0.2,0l5.3-2.1l6,2.1l5.6-1.9c0.2-0.1,0.4-0.2,0.4-0.5V119C-37.5,118.7-37.7,118.5-38,118.5z"/>
</svg>
