<?xml version="1.0" encoding="utf-8"?>
<!-- Generator: Adobe Illustrator 19.0.1, SVG Export Plug-In . SVG Version: 6.00 Build 0)  -->
<svg version="1.1" id="Layer_1" xmlns="http://www.w3.org/2000/svg" xmlns:xlink="http://www.w3.org/1999/xlink" x="0px" y="0px"
	 viewBox="0 0 200 200" enable-background="new 0 0 200 200" xml:space="preserve">
<path id="XMLID_2266_" fill="#6F7173" d="M142.2,83.8c0.8-0.4,1.5-0.8,2.4-1.2c0,1.7-0.7,3.1-1.4,4.5c-2.2,4.8-5.9,8.4-10,11.7
	c-1.4,1.2-2.9,2.3-4.4,3.3c-6.1,3.9-9.4,9.5-10.5,16.6c-0.2,1.1-0.4,2.2-0.6,3.4c-0.9,4.6-3.5,8-7.7,10c-7,3.4-14,3.3-20.9-0.5
	c-3.6-2-5.9-5.1-6.8-9.2c-0.7-3.3-1.2-6.5-2.4-9.7c-1.1-3-2.8-5.7-5.3-7.7c-2.2-1.8-4.5-3.6-6.8-5.4c-3.1-2.4-6.1-5-8.5-8.2
	c-1.9-2.6-3.2-5.4-4.2-8.4c0.3,0,0.7,0,1-0.1c0.5,0.3,0.9,0.5,1.4,0.8c0.2,0.5,0.4,0.6,0.8,0.2c-1.6-4-3.6-7.8-4.7-11.9
	c-0.8-2.9-1.5-5.7-1.2-8.9c1.6,1.1,2.2,2.9,3.6,4.2C56.2,65,55.5,63,55,61c-2.7-10.4-2.3-20.8-0.3-31.3c0.9-4.7,1.6-9.5,2.5-14.2
	c0.2-1.4,0.7-2.7,1.4-3.9c1.7-3,4.3-3.7,7.3-1.9c1,0.6,1.8,1.4,2.5,2.3c6,7.2,12,14.4,16.5,22.7c2.1,3.8,4,7.8,5.7,11.8
	c0.2,0.4,0.1,1.1,0.9,1.3c0.4-1.9-0.2-3.6-0.9-5.3c-0.9-2.4-2.3-4.5-3.5-6.7c-0.9-1.7-1.9-3.3-2.5-5.1c1-0.6,2.2,0,3.1-0.7
	c-0.2-1.2-1.7-1.7-1.7-3.2c2.9,0.3,4.9,2.3,7.5,3.1c0.7-0.3,0.2-1.2,0.8-1.5c2.1,1.2,3.5,3.3,5.7,4.8c2-1.4,3.5-3.6,5.6-4.8
	c0.7,0.4,0.3,1.1,0.8,1.6c1.5-0.4,2.8-1.5,4.3-2c1.1-0.4,2.1-1.3,3.4-0.9l-0.1,0c-0.1,1.3-1.4,1.9-2,3c0.9,0.8,2,0.2,3.1,0.8
	c0.1,0.9-0.5,1.7-0.9,2.5c-1.2,2.2-2.5,4.4-3.7,6.6c-1.8,3.3-2.4,5.6-2.2,8.5c0.8-0.5,0.8-1.5,1.2-2.2c5.4-13.3,13.6-24.7,23.1-35.1
	c0.6-0.6,1.3-1.2,2.1-1.6c2.6-1.3,4.8-0.7,6.3,1.7c1.2,2,1.8,4.2,2.1,6.4c1.1,7.1,2.4,14.2,3.4,21.3c1,7.7,0,15.2-1.7,22.7
	c-0.4,1.6-0.7,3.3-1.1,4.9c-0.3,0.3-0.4,0.7,0,1.1c0.2-0.1,0.4-0.2,0.5-0.4c0.1-0.2,0.2-0.4,0.3-0.7c0.9-1,1.5-2.3,2.9-3.3
	c0,3-0.5,5.7-1.2,8.3c-1.1,4.2-3,8.1-4.7,12.1c-0.2,0.2-0.3,0.4-0.2,0.6C142,84.2,142.1,84,142.2,83.8z M134.8,53.5
	c-0.1,0.2-0.1,0.5,0.1,0.7c0.4,0,0.8-0.2,0.9-0.6c1.1-1.1,1.6-2.7,3-3.8c0.4,1.7-0.2,3.3,0.1,5c3.1-1.8,4.1-4.5,4.3-7.5
	c0.3-4.2,0.2-8.4-0.5-12.6c-1-5.3-2.5-10.5-4.4-15.9c-2,4.4-3.7,8.6-5,13c-1.7,5.8-2.7,11.6-2.2,17.7c0.1,0.7-0.2,1.6,0.6,2.1
	c2-1.6,1.5-4.5,3.5-6.1c0.8,1,0.9,2.2,0.7,3.3C135.6,50.3,135.2,51.9,134.8,53.5z M68.7,51.7c1.6-11.9-2.3-22.3-7-33.1
	c-0.3,1-0.5,1.5-0.6,2c-1.8,5.9-3.7,11.7-4.2,17.9c-0.3,3.6-0.6,7.2,0.3,10.7c0.5,2.3,1.5,4.4,4.1,5.5c0-1.6,0-3.1,0-4.8
	c1.7,1.1,2,3.2,3.7,4.3c0.3-1.7-0.5-3-0.8-4.5c-0.3-1.5-0.6-3,0.8-4.4C66.8,47.3,66.4,50.1,68.7,51.7z M89.1,101.4
	c2-8.7-6.9-24.3-16.4-26C70.6,85.1,75.8,99.3,89.1,101.4z M111,101.5c11.7-2.8,19.3-14.9,16.4-26.1C118.1,77.1,109.1,92.4,111,101.5
	z"/>
<g id="XMLID_2171_">
	<path id="XMLID_2208_" fill="#6F7173" d="M48.9,149.7c-1.5-0.4-3-0.7-4.6-0.7c-3.1,0-6.2,0-9.3,0c-0.3,0-0.7-0.1-1,0.2v41.4
		c4.2-0.2,8.3,0.3,12.3-0.3c3.4-0.5,6-2,7.4-5.3c0.8-1.8,1.2-3.6,1.2-5.6c0-6.2,0-12.4,0-18.5c0-1.5,0-2.9-0.3-4.4
		C54,153.2,52.4,150.7,48.9,149.7z M49.1,178c0,1.4-0.1,2.9-0.4,4.3c-0.4,1.8-1.5,3-3.3,3.4c-1.8,0.4-3.5,0.2-5.3,0.3v-32.4
		c1.8-0.1,3.5-0.2,5.2,0.1c2.3,0.5,3.5,2,3.7,4.7c0.1,1.5,0.2,3,0.2,4.5C49.1,168,49.1,173,49.1,178z"/>
	<path id="XMLID_2205_" fill="#6F7173" d="M76.1,168.5c-0.1-3.7-2.4-6.9-6.1-7.8c-1.4-0.3-2.8-0.3-4.2-0.2c-5.2,0.4-7.7,5.1-7.2,9.2
		h5.7c0.1-0.8,0.2-1.6,0.4-2.4c0.3-1,0.8-1.9,1.9-2.2c1.7-0.5,3.3,0.4,3.6,2.4c0.2,1.3,0.4,2.7,0.2,4.2c-1.5,0.7-3.1,1.3-4.6,2
		c-1.9,0.8-3.6,2-5,3.5c-2.4,2.6-2.9,7.6-1.2,10.6c2.2,3.8,7.4,4.1,9.6,0.4c0.2-0.3,0.4-0.7,0.6-1c0.2-0.2,0.1-0.6,0.6-0.6
		c0.2,1.3,0.5,2.6,0.7,3.9h6c-0.7-2.9-0.8-5.7-0.8-8.6C76.1,177.4,76.2,173,76.1,168.5z M70.2,183.2c0,1.2-1.6,2.7-2.8,2.8
		c-1.4,0.1-2.4-0.6-2.9-2.1c-0.5-1.8,0-3.4,1.2-4.8c1.2-1.3,2.7-2.2,4.5-3.2C70.3,178.4,70.3,180.8,70.2,183.2z"/>
	<path id="XMLID_2202_" fill="#6F7173" d="M111,169.5c0-0.9,0-1.8-0.3-2.7c-0.8-2.8-2.4-4.9-5.2-5.8c-2.3-0.7-4.7-0.7-7.1,0.1
		c-3.9,1.3-5.5,6.1-4.9,8.7h5.6c0.1-0.8,0.2-1.5,0.4-2.3c0.2-1,0.7-1.9,1.8-2.2c1.8-0.6,3.4,0.4,3.6,2.4c0.2,1.3,0.4,2.7,0.2,4.1
		c-0.5,0.4-1,0.5-1.5,0.7c-2.1,0.9-4.3,1.8-6.2,3.1c-4.6,3.2-4.8,9.1-3.2,12.2c2.1,4,7.4,4.4,9.8,0.5c0.3-0.6,0.6-1.2,1.1-1.8
		c0.3,1.4,0.5,2.7,0.8,4h6c-0.7-2.6-0.8-5.1-0.8-7.6C111,178.4,111,173.9,111,169.5z M105.2,183.3c0,1.1-1.6,2.5-2.8,2.7
		c-1.4,0.2-2.5-0.6-2.9-2.1c-0.5-1.6-0.2-3,0.7-4.3c1.2-1.7,3-2.6,5-3.8C105.2,178.4,105.2,180.9,105.2,183.3z"/>
	<path id="XMLID_2201_" fill="#6F7173" d="M86.8,150.6h-6v10.2c-1,0.2-2-0.1-2.9,0.2v4.4h2.8c0.2,0.5,0.1,1,0.1,1.4
		c0,5.5,0,11,0,16.5c0,1.1,0,2.1,0.3,3.1c0.4,1.8,1.3,3.3,3.2,4c2.3,0.8,4.6,0.4,6.9,0.4v-4.8c-0.8,0-1.6,0-2.3,0
		c-0.9,0-1.5-0.5-1.8-1.4c-0.2-0.4-0.2-0.9-0.2-1.3c0-5.7,0-11.4,0-17.2c0-0.2,0-0.5,0.2-0.6c1.4-0.1,2.8,0.1,4.2-0.1v-4.5h-4.4
		V150.6z"/>
	<path id="XMLID_2198_" fill="#6F7173" d="M145.7,167.3c-0.6-2.1-1.6-3.9-3.8-4.7c-1.1-0.4-2.2-0.4-3.4-0.4c-3.3,0-5.1,2-5.9,4.2
		c-0.6,1.9-0.9,3.8-0.9,5.8c-0.1,2.9,0,5.9,0,8.8c0,1.7,0.2,3.4,0.6,5c0.6,2.7,2.2,4.6,5,5.1c1,0.2,2,0.2,3,0
		c2.2-0.3,3.9-1.3,4.9-3.5c0.4-0.9,0.6-1.8,0.8-2.7c0.4-2.6,0.4-5.3,0.4-7.9c0-1,0-1.9,0-2.9C146.2,171.8,146.3,169.5,145.7,167.3z
		 M142.8,176.3c0,3.1-0.1,5.8-0.4,8.5c-0.1,0.8-0.4,1.5-0.7,2.2c-0.5,1.1-1.5,1.7-2.7,1.7c-1.2,0-2.1-0.5-2.7-1.7
		c-0.8-1.6-0.9-3.3-1-5.1c-0.1-3.6-0.1-7.1,0-10.7c0-1.5,0.2-3,0.7-4.4c0.5-1.4,1.5-2.1,2.9-2.3c1.3-0.1,2.4,0.7,3,2.1
		c0.5,1.1,0.6,2.2,0.7,3.3C142.7,172.2,142.9,174.4,142.8,176.3z"/>
	<path id="XMLID_2197_" fill="#6F7173" d="M116.9,190.5h3.6v-19.2h7.4c-0.1-1,0.1-1.8-0.1-2.7h-7.2v-14.9h10.2v-2.8h-13.8V190.5z"/>
	<path id="XMLID_2176_" fill="#6F7173" d="M160.2,176c2-4.4,3.9-8.8,5.9-13.2c-1.3-0.1-2.5-0.1-3.7,0c-1.5,3.7-2.9,7.4-4.5,11.3
		c-1.6-3.9-3-7.6-4.4-11.3h-3.7c2,4.4,3.9,8.8,5.9,13.2c-2,4.9-4,9.6-6,14.5c1.3,0.1,2.4,0.1,3.5,0c1.5-4,3.1-8,4.7-12.2
		c1.6,4.2,3.2,8.2,4.7,12.2c1.2,0,2.2,0.1,3.5-0.1C164.1,185.5,162.1,180.7,160.2,176z"/>
</g>
</svg>
