<?xml version="1.0" encoding="utf-8"?>
<!-- Generator: Adobe Illustrator 19.0.1, SVG Export Plug-In . SVG Version: 6.00 Build 0)  -->
<svg version="1.1" xmlns="http://www.w3.org/2000/svg" xmlns:xlink="http://www.w3.org/1999/xlink" x="0px" y="0px"
	 viewBox="0 0 294 294" enable-background="new 0 0 294 294" xml:space="preserve">
<g id="v1" display="none">
	<g display="inline">
		<path id="XMLID_194_" fill="#F47920" d="M174,81.8c0.4,0.4,0.8,0.9,1.1,1.5l11.1-7.3c-0.4-0.5-0.6-1-0.8-1.6L174,81.8z"/>
		<path id="XMLID_195_" fill="#F47920" d="M229.2,95.9l-14.1-18.4c-0.4,0.5-0.8,0.9-1.3,1.3l14,18.3
			C228.2,96.6,228.7,96.2,229.2,95.9z"/>
		<path id="XMLID_196_" fill="#F47920" d="M153.2,82.6c0,0.6-0.1,1.2-0.3,1.8l11.6,1.6c0-0.1,0-0.1,0-0.2c0-0.6,0.1-1.1,0.2-1.6
			L153.2,82.6z"/>
		<path id="XMLID_197_" fill="#F47920" d="M236.3,96.9c0.4,0.5,0.7,1,1,1.5l9.7-6.4c-0.4-0.4-0.8-1-1-1.5L236.3,96.9z"/>
		<path id="XMLID_198_" fill="#F47920" d="M110,75.9l11.7,8.4c0.3-0.5,0.7-1,1.1-1.4l-11.8-8.4C110.8,75,110.5,75.4,110,75.9z"/>
		<path id="XMLID_199_" fill="#F47920" d="M132,85c0.2,0.6,0.3,1.2,0.3,1.8l10.2-2c-0.2-0.5-0.4-1.1-0.5-1.8L132,85z"/>
		<path id="XMLID_200_" fill="#F47920" d="M196.3,72c0,0.2,0,0.4,0,0.6c0,0.4-0.1,0.8-0.1,1.2l8.7,0.4c0,0,0,0,0,0
			c0-0.6,0.1-1.2,0.3-1.8L196.3,72z"/>
		<path id="XMLID_201_" fill="#F47920" d="M106.1,68c-2.1,0-3.8,1.7-3.8,3.8c0,2.1,1.7,3.8,3.8,3.8c0.9,0,1.7-0.3,2.4-0.9
			c0.5-0.4,0.9-0.9,1.1-1.4c0.2-0.5,0.3-1,0.3-1.5C109.9,69.7,108.2,68,106.1,68z"/>
		<path id="XMLID_202_" fill="#F47920" d="M126.7,83.1c-0.9,0-1.7,0.3-2.3,0.8c-0.5,0.4-0.9,0.9-1.1,1.4c-0.2,0.5-0.3,1-0.3,1.6
			c0,2.1,1.7,3.8,3.8,3.8c2,0,3.7-1.6,3.8-3.6c0-0.1,0-0.2,0-0.2c0-0.6-0.1-1.1-0.3-1.6C129.6,84.1,128.3,83.1,126.7,83.1z"/>
		<path id="XMLID_203_" fill="#F47920" d="M147.6,78.7c-2.1,0-3.8,1.7-3.8,3.8c0,0.1,0,0.1,0,0.2c0,0.6,0.2,1.2,0.5,1.7
			c0.7,1.1,1.9,1.9,3.2,1.9c1.5,0,2.8-0.9,3.4-2.2c0.2-0.5,0.4-1,0.4-1.6c0-0.1,0-0.1,0-0.2C151.3,80.3,149.6,78.7,147.6,78.7z"/>
		<path id="XMLID_204_" fill="#F47920" d="M172.4,82.8c-0.6-0.5-1.4-0.8-2.3-0.8c-1.6,0-3,1-3.5,2.5c-0.2,0.4-0.3,0.9-0.3,1.3
			c0,0.2,0,0.3,0,0.5c0.2,1.9,1.8,3.3,3.8,3.3c2.1,0,3.8-1.7,3.8-3.8c0-0.6-0.1-1.1-0.3-1.6C173.3,83.7,172.9,83.2,172.4,82.8z"/>
		<path id="XMLID_205_" fill="#F47920" d="M190.7,68.8c-2.1,0-3.8,1.7-3.8,3.8c0,0.2,0,0.4,0.1,0.6c0.1,0.6,0.4,1.2,0.8,1.7
			c0.7,0.9,1.8,1.5,3,1.5c1.7,0,3.1-1.1,3.6-2.6c0.1-0.4,0.2-0.7,0.2-1.2c0-0.2,0-0.4-0.1-0.7C194.1,70.2,192.6,68.8,190.7,68.8z"/>
		<path id="XMLID_206_" fill="#F47920" d="M214.3,74.3c0-2.1-1.7-3.8-3.8-3.8c-1.5,0-2.8,0.9-3.4,2.1c-0.2,0.5-0.4,1.1-0.4,1.7
			c0,0,0,0.1,0,0.1c0.1,2,1.7,3.7,3.8,3.7c0.8,0,1.6-0.3,2.2-0.7c0.5-0.4,0.9-0.9,1.2-1.4C214.1,75.4,214.3,74.9,214.3,74.3z"/>
		<path id="XMLID_207_" fill="#F47920" d="M234.8,97.9c-0.7-0.7-1.6-1.1-2.6-1.1c-0.7,0-1.3,0.2-1.9,0.5c-0.5,0.3-1,0.7-1.3,1.2
			c-0.4,0.6-0.6,1.3-0.6,2c0,2.1,1.7,3.8,3.8,3.8c2.1,0,3.8-1.7,3.8-3.8c0-0.4-0.1-0.8-0.2-1.2C235.6,98.9,235.2,98.3,234.8,97.9z"
			/>
		<path id="XMLID_212_" fill="#F47920" d="M251.1,84.5c-2.1,0-3.8,1.7-3.8,3.8c0,0.4,0.1,0.9,0.2,1.3c0.2,0.6,0.5,1.1,1,1.5
			c0.7,0.6,1.6,1,2.6,1c2.1,0,3.8-1.7,3.8-3.8C254.9,86.2,253.2,84.5,251.1,84.5z"/>
		<path id="XMLID_328_" fill="#42BDA7" d="M236,110.6c0.4,0.4,0.8,0.9,1.1,1.4l10.2-7.8c-0.4-0.4-0.8-0.9-1.1-1.4L236,110.6z"/>
		<path id="XMLID_35_" fill="#42BDA7" d="M131.2,113.2c0.4,0.5,0.6,1,0.8,1.6l11.4-6.2c-0.4-0.4-0.8-1-1-1.5L131.2,113.2z"/>
		<path id="XMLID_34_" fill="#42BDA7" d="M69.5,106.1c0,0.5-0.1,1-0.2,1.5l9.9,1.2c0-0.6,0.1-1.2,0.3-1.8l-10-1.2
			C69.5,105.9,69.5,106,69.5,106.1z"/>
		<path id="XMLID_337_" fill="#42BDA7" d="M48,102.9l10.2,2.6c0.1-0.6,0.2-1.2,0.5-1.7l-10.4-2.6C48.4,101.8,48.2,102.3,48,102.9z"
			/>
		<path id="XMLID_338_" fill="#42BDA7" d="M111.1,112l10.1,3.5c0.1-0.6,0.3-1.2,0.6-1.7l-10.2-3.5
			C111.6,110.9,111.4,111.5,111.1,112z"/>
		<path id="XMLID_343_" fill="#42BDA7" d="M90.2,107.8c0.1,0.3,0.1,0.7,0.1,1c0,0.3,0,0.5-0.1,0.8l10.3,0.3c0-0.2,0-0.3,0-0.5
			c0-0.5,0.1-0.9,0.2-1.3L90.2,107.8z"/>
		<path id="XMLID_344_" fill="#42BDA7" d="M204.9,96.6l-9,1.8c0.2,0.5,0.4,1.1,0.4,1.8l8.8-1.8c-0.2-0.5-0.2-1-0.2-1.6
			C204.9,96.7,204.9,96.6,204.9,96.6z"/>
		<path id="XMLID_345_" fill="#42BDA7" d="M214.6,100.6l12.7,11.3c0.3-0.5,0.7-1,1.1-1.4l-12.8-11.4
			C215.3,99.7,215,100.2,214.6,100.6z"/>
		<path id="XMLID_346_" fill="#42BDA7" d="M153.2,104.8c0,0.6-0.1,1.2-0.3,1.8l11.6,1.6c0-0.1,0-0.1,0-0.2c0-0.6,0.1-1.1,0.2-1.6
			L153.2,104.8z"/>
		<path id="XMLID_347_" fill="#42BDA7" d="M174.9,105.1c0.3,0.5,0.6,1.1,0.7,1.7l10.1-3.7c-0.3-0.5-0.4-1.1-0.5-1.7L174.9,105.1z"/>
		<path id="XMLID_348_" fill="#42BDA7" d="M42.8,97.1c-2.1,0-3.8,1.7-3.8,3.8c0,2.1,1.7,3.8,3.8,3.8c1.5,0,2.8-0.9,3.4-2.2
			c0.2-0.5,0.4-1,0.4-1.6c0-0.1,0-0.1,0-0.2C46.5,98.7,44.8,97.1,42.8,97.1z"/>
		<path id="XMLID_349_" fill="#42BDA7" d="M63.9,102.3c-1.4,0-2.6,0.8-3.3,1.9c-0.3,0.5-0.5,1.1-0.5,1.7c0,0.1,0,0.1,0,0.2
			c0,2.1,1.7,3.8,3.8,3.8c1.6,0,3-1.1,3.6-2.5c0.1-0.4,0.2-0.8,0.2-1.3c0-0.2,0-0.4-0.1-0.5C67.3,103.7,65.8,102.3,63.9,102.3z"/>
		<path id="XMLID_350_" fill="#42BDA7" d="M84.7,105.1c-1.5,0-2.8,0.9-3.4,2.2c-0.2,0.5-0.4,1-0.4,1.6c0,0.1,0,0.1,0,0.2
			c0.1,2,1.7,3.6,3.8,3.6c1.8,0,3.4-1.3,3.7-3.1c0-0.2,0.1-0.5,0.1-0.7c0-0.4-0.1-0.7-0.2-1.1C87.9,106.2,86.4,105.1,84.7,105.1z"/>
		<path id="XMLID_351_" fill="#42BDA7" d="M106.1,105.6c-1.7,0-3,1.1-3.6,2.5c-0.1,0.4-0.2,0.8-0.2,1.3c0,0.2,0,0.4,0.1,0.5
			c0.3,1.8,1.8,3.2,3.7,3.2c1.4,0,2.6-0.7,3.2-1.8c0.3-0.5,0.5-1.1,0.6-1.7c0-0.1,0-0.2,0-0.3C109.9,107.3,108.2,105.6,106.1,105.6z
			"/>
		<path id="XMLID_352_" fill="#42BDA7" d="M129.6,114.1c-0.7-0.8-1.7-1.3-2.9-1.3c-1.3,0-2.5,0.7-3.1,1.7c-0.3,0.5-0.5,1.1-0.6,1.7
			c0,0.1,0,0.3,0,0.4c0,2.1,1.7,3.8,3.8,3.8s3.8-1.7,3.8-3.8c0-0.3,0-0.6-0.1-0.8C130.3,115.1,130,114.6,129.6,114.1z"/>
		<path id="XMLID_353_" fill="#42BDA7" d="M147.6,100.9c-2.1,0-3.8,1.7-3.8,3.8c0,0.5,0.1,1,0.3,1.5c0.2,0.6,0.6,1.1,1.1,1.5
			c0.7,0.5,1.5,0.9,2.4,0.9c1.5,0,2.8-0.9,3.4-2.2c0.2-0.5,0.4-1,0.4-1.6c0-0.1,0-0.1,0-0.2C151.3,102.5,149.6,100.9,147.6,100.9z"
			/>
		<path id="XMLID_354_" fill="#42BDA7" d="M173.1,105.8c-0.7-0.9-1.8-1.5-3-1.5c-1.6,0-3,1-3.5,2.5c-0.2,0.4-0.3,0.9-0.3,1.3
			c0,0.2,0,0.3,0,0.5c0.2,1.9,1.8,3.3,3.8,3.3c2.1,0,3.8-1.7,3.8-3.8c0-0.2,0-0.4-0.1-0.6C173.7,106.8,173.5,106.2,173.1,105.8z"/>
		<path id="XMLID_355_" fill="#42BDA7" d="M194,98.8c-0.6-1.2-1.9-2-3.3-2c-2.1,0-3.8,1.7-3.8,3.8c0,0,0,0,0,0
			c0,0.6,0.2,1.2,0.5,1.8c0.6,1.2,1.9,2,3.3,2c2.1,0,3.8-1.7,3.8-3.8c0,0,0-0.1,0-0.1C194.5,99.9,194.3,99.3,194,98.8z"/>
		<path id="XMLID_356_" fill="#42BDA7" d="M210.5,93c-1.9,0-3.5,1.4-3.7,3.2c0,0.2-0.1,0.4-0.1,0.6c0,0.4,0.1,0.8,0.2,1.2
			c0.5,1.5,1.9,2.6,3.6,2.6c1.1,0,2-0.5,2.7-1.2c0.4-0.4,0.7-1,0.9-1.6c0.1-0.3,0.2-0.7,0.2-1C214.3,94.7,212.6,93,210.5,93z"/>
		<path id="XMLID_357_" fill="#42BDA7" d="M234.6,111.7c-0.7-0.5-1.5-0.9-2.4-0.9c-0.9,0-1.8,0.4-2.4,0.9c-0.5,0.4-0.8,0.9-1.1,1.5
			c-0.2,0.4-0.3,0.9-0.3,1.4c0,2.1,1.7,3.8,3.8,3.8c2.1,0,3.8-1.7,3.8-3.8c0-0.5-0.1-1-0.3-1.5C235.4,112.6,235,112.1,234.6,111.7z"
			/>
		<path id="XMLID_358_" fill="#42BDA7" d="M251.1,96.3c-2.1,0-3.8,1.7-3.8,3.8c0,0.5,0.1,1.1,0.3,1.5c0.3,0.6,0.6,1,1.1,1.4
			c0.6,0.5,1.5,0.8,2.4,0.8c2.1,0,3.8-1.7,3.8-3.8C254.9,98,253.2,96.3,251.1,96.3z"/>
		<path id="XMLID_33_" fill="#539CD5" d="M58.6,187.8l-10.5,2c0.2,0.6,0.3,1.2,0.3,1.8l10.5-2C58.7,189.1,58.6,188.5,58.6,187.8
			C58.6,187.9,58.6,187.9,58.6,187.8z"/>
		<path id="XMLID_32_" fill="#539CD5" d="M87.6,183.4c0.6,0.2,1.1,0.5,1.6,0.8l15-25.7c-0.6-0.2-1.1-0.5-1.6-0.9L87.6,183.4z"/>
		<path id="XMLID_31_" fill="#539CD5" d="M110.1,157.4l10.2,7.8c0.3-0.5,0.7-1,1.1-1.4l-10.1-7.8C110.9,156.5,110.5,157,110.1,157.4
			z"/>
		<path id="XMLID_30_" fill="#539CD5" d="M129,163.8c0.4,0.4,0.8,0.9,1.1,1.4l12.7-11.3c-0.4-0.4-0.8-1-1-1.5L129,163.8z"/>
		<path id="XMLID_29_" fill="#539CD5" d="M69.8,187.1c0,0.3,0.1,0.6,0.1,0.8c0,0.3,0,0.7-0.1,1l10.6,0.7c0-0.3-0.1-0.6-0.1-0.9
			c0-0.3,0-0.6,0.1-1L69.8,187.1z"/>
		<path id="XMLID_28_" fill="#539CD5" d="M192.6,159.7c0.2,0.5,0.2,1,0.2,1.6c0,0.1,0,0.1,0,0.2l11.6-1.6c-0.2-0.6-0.3-1.2-0.3-1.8
			L192.6,159.7z"/>
		<path id="XMLID_27_" fill="#539CD5" d="M235.5,167c0.3,0.5,0.5,1.1,0.6,1.7l10.1-3.5c-0.3-0.5-0.5-1.1-0.6-1.7L235.5,167z"/>
		<path id="XMLID_26_" fill="#539CD5" d="M213.8,161.8l11.4,6.2c0.2-0.6,0.5-1.1,0.8-1.6l-11.3-6.1
			C214.6,160.9,214.2,161.4,213.8,161.8z"/>
		<path id="XMLID_25_" fill="#539CD5" d="M152.5,150c0,0.6-0.1,1.1-0.2,1.6l8.8,1.8c0-0.6,0.2-1.2,0.4-1.8l-9-1.9
			C152.5,149.9,152.5,150,152.5,150z"/>
		<path id="XMLID_24_" fill="#539CD5" d="M171.7,156.3l10.1,3.7c0.1-0.6,0.4-1.2,0.7-1.7l-10.3-3.8
			C172.1,155.2,171.9,155.8,171.7,156.3z"/>
		<path id="XMLID_23_" fill="#539CD5" d="M251.2,158.9c-2.1,0-3.8,1.7-3.8,3.8c0,0.1,0,0.2,0,0.3c0,0.6,0.2,1.2,0.6,1.7
			c0.7,1.1,1.9,1.8,3.2,1.8c2.1,0,3.8-1.7,3.8-3.8C255,160.6,253.3,158.9,251.2,158.9z"/>
		<path id="XMLID_15_" fill="#539CD5" d="M233.7,167.7c-0.7-1-1.8-1.7-3.1-1.7c-1.2,0-2.2,0.5-2.9,1.3c-0.4,0.5-0.7,1-0.8,1.6
			c-0.1,0.3-0.1,0.5-0.1,0.8c0,2.1,1.7,3.8,3.8,3.8c2.1,0,3.8-1.7,3.8-3.8c0-0.1,0-0.3,0-0.4C234.3,168.7,234.1,168.2,233.7,167.7z"
			/>
		<path id="XMLID_14_" fill="#539CD5" d="M209.7,154.2c-2,0-3.7,1.6-3.8,3.6c0,0.1,0,0.1,0,0.2c0,0.6,0.1,1.1,0.4,1.6
			c0.6,1.3,1.9,2.2,3.4,2.2c0.9,0,1.7-0.3,2.4-0.9c0.5-0.4,0.9-0.9,1.1-1.5c0.2-0.4,0.3-0.9,0.3-1.5
			C213.5,155.9,211.8,154.2,209.7,154.2z"/>
		<path id="XMLID_13_" fill="#539CD5" d="M187.2,157.5c-1.2,0-2.3,0.6-3,1.5c-0.4,0.5-0.6,1-0.7,1.7c0,0.2-0.1,0.4-0.1,0.6
			c0,2.1,1.7,3.8,3.8,3.8c1.9,0,3.5-1.5,3.8-3.3c0-0.2,0-0.3,0-0.5c0-0.5-0.1-0.9-0.3-1.3C190.2,158.5,188.9,157.5,187.2,157.5z"/>
		<path id="XMLID_12_" fill="#539CD5" d="M166.6,150.1c-1.4,0-2.7,0.8-3.3,2c-0.3,0.5-0.5,1.1-0.5,1.7c0,0,0,0.1,0,0.1
			c0,2.1,1.7,3.8,3.8,3.8c1.4,0,2.7-0.8,3.3-2c0.3-0.5,0.5-1.1,0.5-1.8c0,0,0,0,0,0C170.4,151.8,168.7,150.1,166.6,150.1z"/>
		<path id="XMLID_11_" fill="#539CD5" d="M146.9,146.2c-2.1,0-3.8,1.7-3.8,3.8c0,0.4,0.1,0.7,0.2,1c0.2,0.6,0.5,1.2,0.9,1.6
			c0.7,0.7,1.7,1.2,2.7,1.2c1.7,0,3.1-1.1,3.6-2.6c0.1-0.4,0.2-0.8,0.2-1.2c0-0.2,0-0.4-0.1-0.6
			C150.3,147.6,148.8,146.2,146.9,146.2z"/>
		<path id="XMLID_10_" fill="#539CD5" d="M127.6,165c-0.7-0.6-1.5-0.9-2.4-0.9c-0.9,0-1.7,0.3-2.4,0.9c-0.5,0.4-0.9,0.9-1.1,1.4
			c-0.2,0.5-0.3,1-0.3,1.5c0,2.1,1.7,3.8,3.8,3.8c2.1,0,3.8-1.7,3.8-3.8c0-0.5-0.1-1-0.3-1.4C128.5,165.9,128.1,165.4,127.6,165z"/>
		<path id="XMLID_9_" fill="#539CD5" d="M106.2,149.5c-2.1,0-3.8,1.7-3.8,3.8c0,1.1,0.4,2,1.2,2.7c0.4,0.4,1,0.7,1.6,0.9
			c0.3,0.1,0.7,0.2,1.1,0.2c0.9,0,1.7-0.3,2.4-0.8c0.5-0.4,0.9-0.9,1.1-1.4c0.2-0.5,0.3-1,0.3-1.5
			C110,151.2,108.3,149.5,106.2,149.5z"/>
		<path id="XMLID_8_" fill="#539CD5" d="M88.3,185.8c-0.5-0.4-1-0.7-1.6-0.8c-0.2,0-0.5-0.1-0.7-0.1c-1.8,0-3.3,1.3-3.7,3
			c-0.1,0.3-0.1,0.6-0.1,0.8c0,0.3,0.1,0.7,0.1,1c0.4,1.6,1.9,2.8,3.7,2.8c2.1,0,3.8-1.7,3.8-3.8C89.7,187.6,89.1,186.5,88.3,185.8z
			"/>
		<path id="XMLID_7_" fill="#539CD5" d="M64.2,184.1c-1.9,0-3.5,1.5-3.8,3.4c0,0.1,0,0.3,0,0.4c0,0.5,0.1,0.9,0.3,1.4
			c0.6,1.4,1.9,2.4,3.5,2.4c1.8,0,3.3-1.3,3.7-2.9c0.1-0.3,0.1-0.6,0.1-0.9c0-0.3-0.1-0.7-0.1-1C67.4,185.3,66,184.1,64.2,184.1z"/>
		<path id="XMLID_2_" fill="#539CD5" d="M42.8,188c-2.1,0-3.8,1.7-3.8,3.8c0,2.1,1.7,3.8,3.8,3.8c2,0,3.7-1.6,3.8-3.6
			c0-0.1,0-0.1,0-0.2c0-0.6-0.1-1.1-0.4-1.6C45.6,188.9,44.3,188,42.8,188z"/>
		<path id="XMLID_152_" fill="#2F526C" d="M164.5,208l-11.6,1.6c0.2,0.6,0.3,1.2,0.3,1.8l11.5-1.6c-0.2-0.5-0.2-1-0.2-1.6
			C164.5,208.1,164.5,208.1,164.5,208z"/>
		<path id="XMLID_153_" fill="#2F526C" d="M174,212.2l11.3,7.5c0.2-0.6,0.5-1.1,0.8-1.6l-11.1-7.3
			C174.8,211.3,174.5,211.8,174,212.2z"/>
		<path id="XMLID_154_" fill="#2F526C" d="M132,209l10,2c0.1-0.6,0.2-1.2,0.5-1.8l-10.2-2C132.3,207.8,132.2,208.4,132,209z"/>
		<path id="XMLID_155_" fill="#2F526C" d="M236.3,197.1l9.6,6.3c0.3-0.6,0.6-1.1,1-1.5l-9.7-6.4
			C237.1,196.2,236.8,196.7,236.3,197.1z"/>
		<path id="XMLID_156_" fill="#2F526C" d="M204.9,219.7l-8.7,0.4c0.1,0.4,0.1,0.8,0.1,1.2c0,0.2,0,0.4,0,0.6l8.9-0.5
			C205,220.9,204.9,220.4,204.9,219.7C204.9,219.7,204.9,219.7,204.9,219.7z"/>
		<path id="XMLID_157_" fill="#2F526C" d="M110,218.1c0.4,0.4,0.8,0.9,1.1,1.5l11.8-8.4c-0.4-0.4-0.8-0.9-1.1-1.4L110,218.1z"/>
		<path id="XMLID_158_" fill="#2F526C" d="M227.8,196.9l-14,18.3c0.5,0.4,0.9,0.8,1.3,1.3l14.1-18.4
			C228.7,197.8,228.2,197.4,227.8,196.9z"/>
		<path id="XMLID_159_" fill="#2F526C" d="M108.5,219.2c-0.7-0.5-1.5-0.9-2.4-0.9c-2.1,0-3.8,1.7-3.8,3.8c0,2.1,1.7,3.8,3.8,3.8
			c2.1,0,3.8-1.7,3.8-3.8c0-0.5-0.1-1-0.3-1.5C109.4,220.1,109,219.6,108.5,219.2z"/>
		<path id="XMLID_160_" fill="#2F526C" d="M126.7,203.3c-2.1,0-3.8,1.7-3.8,3.8c0,0.6,0.1,1.1,0.3,1.6c0.3,0.6,0.6,1,1.1,1.4
			c0.6,0.5,1.4,0.8,2.3,0.8c1.5,0,2.9-0.9,3.5-2.2c0.2-0.5,0.3-1,0.3-1.6c0-0.1,0-0.2,0-0.2C130.4,204.8,128.7,203.3,126.7,203.3z"
			/>
		<path id="XMLID_161_" fill="#2F526C" d="M147.6,207.7c-1.4,0-2.6,0.7-3.2,1.9c-0.3,0.5-0.5,1.1-0.5,1.7c0,0.1,0,0.1,0,0.2
			c0,2.1,1.7,3.8,3.8,3.8c2,0,3.7-1.6,3.8-3.6c0-0.1,0-0.1,0-0.2c0-0.6-0.1-1.1-0.4-1.6C150.4,208.6,149.1,207.7,147.6,207.7z"/>
		<path id="XMLID_162_" fill="#2F526C" d="M170.1,204.4c-1.9,0-3.5,1.5-3.8,3.3c0,0.2,0,0.3,0,0.5c0,0.5,0.1,0.9,0.3,1.3
			c0.5,1.4,1.9,2.5,3.5,2.5c0.9,0,1.7-0.3,2.3-0.8c0.5-0.4,0.9-0.9,1.1-1.4c0.2-0.5,0.3-1,0.3-1.6
			C173.9,206.1,172.2,204.4,170.1,204.4z"/>
		<path id="XMLID_163_" fill="#2F526C" d="M190.7,217.6c-1.2,0-2.3,0.6-3,1.5c-0.4,0.5-0.6,1.1-0.8,1.7c0,0.2-0.1,0.4-0.1,0.6
			c0,2.1,1.7,3.8,3.8,3.8c1.9,0,3.4-1.4,3.7-3.1c0-0.2,0.1-0.4,0.1-0.7c0-0.4-0.1-0.8-0.2-1.1C193.8,218.7,192.4,217.6,190.7,217.6z
			"/>
		<path id="XMLID_164_" fill="#2F526C" d="M212.7,216.6c-0.6-0.4-1.4-0.7-2.2-0.7c-2.1,0-3.7,1.6-3.8,3.7c0,0,0,0.1,0,0.1
			c0,0.6,0.2,1.2,0.4,1.7c0.6,1.3,1.9,2.1,3.4,2.1c2.1,0,3.8-1.7,3.8-3.8c0-0.6-0.2-1.2-0.4-1.7C213.6,217.5,213.2,217,212.7,216.6z
			"/>
		<path id="XMLID_165_" fill="#2F526C" d="M232.2,189.6c-2.1,0-3.8,1.7-3.8,3.8c0,0.8,0.2,1.4,0.6,2c0.3,0.5,0.8,0.9,1.3,1.2
			c0.6,0.3,1.2,0.5,1.9,0.5c1,0,2-0.4,2.6-1.1c0.4-0.4,0.8-1,1-1.5c0.1-0.4,0.2-0.8,0.2-1.2C236,191.3,234.3,189.6,232.2,189.6z"/>
		<path id="XMLID_166_" fill="#2F526C" d="M251.1,201.9c-1,0-1.9,0.4-2.6,1c-0.4,0.4-0.8,0.9-1,1.5c-0.1,0.4-0.2,0.8-0.2,1.3
			c0,2.1,1.7,3.8,3.8,3.8s3.8-1.7,3.8-3.8S253.2,201.9,251.1,201.9z"/>
	</g>
</g>
<g id="o">
</g>
<g id="Layer_4" display="none">
	<rect display="inline" fill="#F1F2F2" width="294" height="294"/>
</g>
<g id="v2">
	<g>
		<g>
			<path id="XMLID_1273_" fill="#808184" d="M114.3,109.4l-0.4-8.2c-0.1-2,1.9-4.1,3.8-4.8l3.1-1.1c0.6,0.7,1.5,1,2.4,0.7l8-2.8
				c1.1-0.4,1.7-1.6,1.3-2.8c-0.4-1.1-1.6-1.7-2.8-1.3l-8,2.8c-0.9,0.3-1.4,1.1-1.4,2l-3.1,1.1c-2.4,0.9-5,3.5-4.8,6.3l0.4,8.2
				c-2.2,0.4-3.9,2.3-4.2,4.6h10.5C118.8,111.6,116.8,109.6,114.3,109.4z"/>
			<polygon id="XMLID_1272_" fill="#539CD5" points="100.8,114.1 100.8,118.6 127.3,133 127.3,231 167.9,231 167.9,133.4 
				167.9,133.4 195,118.6 195,118.6 195,114.1 			"/>
			<polygon id="XMLID_1271_" fill="#4683B3" points="127.3,133 127.3,127 167.9,127 167.9,133.4 167.9,133.4 195,118.6 100.8,118.6 
							"/>
		</g>
		<g>
			<path id="XMLID_224_" fill="#808184" d="M236.5,144.7l0.4-8.2c0.1-2-0.6-4.5-1.8-6.1l-2-2.6c-0.8,0.3-1.8,0-2.4-0.7l-5.2-6.7
				c-0.7-0.9-0.6-2.3,0.4-3c0.9-0.7,2.3-0.6,3,0.4l5.2,6.7c0.6,0.7,0.6,1.7,0.1,2.5l2,2.6c1.6,2,2.3,4.3,2.1,7.1l-0.4,8.2
				c2.2,0.4,3.9,2.3,4.2,4.6h-10.5C232,146.8,234,144.9,236.5,144.7z"/>
			<polygon id="XMLID_223_" fill="#42BDA7" points="250,149.4 250,153.9 223.6,168.3 223.6,231 182.9,231 182.9,168.7 182.9,168.7 
				155.9,153.9 155.8,153.9 155.8,149.4 			"/>
			<polygon id="XMLID_222_" fill="#359F8C" points="223.6,168.3 223.6,162.3 182.9,162.3 182.9,168.7 182.9,168.7 155.9,153.9 
				250,153.9 			"/>
		</g>
		<g>
			<polygon id="XMLID_226_" fill="#F27A21" points="44,171.2 44,175.8 70.4,190.2 70.4,231 111.1,231 111.1,190.6 111.1,190.6 
				138.1,175.8 138.2,175.8 138.2,171.2 			"/>
			<polygon id="XMLID_225_" fill="#C96419" points="70.4,190.2 70.4,184.1 111.1,184.1 111.1,190.6 111.1,190.6 138.1,175.8 
				44,175.8 			"/>
			<path id="XMLID_244_" fill="#808184" d="M74.5,150c-1.3,0-2.1,0.8-2.3,2h-0.9c-1.5,0-5.2,0.2-7.9,2.6c-2.3,2-3.4,4.7-3.4,8.2v5.9
				h-7v3.1h16.6v-3.1h-8v-5.9c0-3,1-5.5,2.9-7.1c2.6-2.3,6.7-2.4,6.6-2.4l1.1,0c0.2,1.1,0.9,1.9,2.3,1.9c1.6,0,3.4-1.1,3.4-2.6
				C77.9,151.1,76.1,150,74.5,150z"/>
		</g>
	</g>
</g>
</svg>
