<?xml version="1.0" encoding="utf-8"?>
<!-- Generator: Adobe Illustrator 19.0.1, SVG Export Plug-In . SVG Version: 6.00 Build 0)  -->
<svg version="1.1" id="Layer_4_copy" xmlns="http://www.w3.org/2000/svg" xmlns:xlink="http://www.w3.org/1999/xlink" x="0px"
	 y="0px" viewBox="0 0 397 396.8" enable-background="new 0 0 397 396.8" xml:space="preserve">
<path id="XMLID_16_" fill="#3E96D2" d="M170.8,265.5c-2.4-0.8-5-1.2-7.6-1.2c-25.8,0-58.8,36.9-84.4,92.4c1,0.7,1.9,1.4,2.9,2.1
	c1,0.7,1.9,1.4,2.9,2.1c29,20.4,63.7,33.1,101.2,35.5c1.2,0.1,2.3,0.1,3.5,0.2c1.2,0.1,2.3,0.1,3.5,0.1
	C205.9,328.9,197.9,274.1,170.8,265.5z"/>
<g id="XMLID_94_">
	<path id="XMLID_95_" fill="#33495C" d="M234.5,320c1.1,5.8,2.3,11.5,3.7,17.3c2.5,3.3,5.2,6.6,7.9,9.8c-3.8-8.6-7.2-16.9-9.9-24.6
		C235.6,321.7,235,320.9,234.5,320z"/>
	<path id="XMLID_96_" fill="#33495C" d="M313.4,36.5c-1.9-1.4-3.9-2.7-5.8-4c-11.3-7.5-23.5-13.8-36.3-18.9c-2.4-1-4.9-1.9-7.3-2.7
		c-18.8-6.5-38.8-10.4-59.6-11c-9.4,38.5-9.2,74,0.3,99.5c-10.7,27.6-16.6,57.6-16.6,89c0,14.2,1.2,28,3.5,41.5
		c0.4,2.3,0.8,4.6,1.3,6.9c0.3,1.7,0.7,3.4,1.1,5.1c0.5,2.4,1.1,4.9,1.7,7.3c6.7,26.4,17.8,51.2,32.3,73.4c-1.2-6.1-2.2-12.3-3-18.5
		c-4.1-7.4-7.8-15-11.2-22.9c-4.3-10.1-7.8-20.3-10.6-30.8c-0.7-2.5-1.3-4.9-1.9-7.4c-0.6-2.7-1.2-5.4-1.8-8.2
		c-0.5-2.3-0.9-4.6-1.2-6.9c-2.2-13-3.3-26.2-3.3-39.6c0-27.5,4.6-54.3,13.7-79.8c6.1,11.8,14.6,20.7,25.5,25.9
		c3,1.4,6.2,2.5,9.5,3.3c2.3,0.6,4.6,1,7,1.2c1.9,0.2,3.8,0.3,5.7,0.3c30.8,0,67.3-24.2,98-63.9C342.6,60.6,328.8,47.5,313.4,36.5z"
		/>
	<path id="XMLID_97_" fill="#33495C" d="M116.3,273.7c1.9-1.4,3.7-2.8,5.5-4c3.2-4.8,5.7-9,7.4-12.8c-1.8,0.9-3.6,2-5.5,3.1
		c0.3-0.6,0.5-1.2,0.8-1.7c1.3-3,2.3-6,3.2-9c0.7-2.4,1.2-4.9,1.6-7.3c1.5-8.9,0.9-17.6-1.9-25.8c-10.4-30.1-48.7-46.5-98-46.5
		c-8.9,0-18.1,0.5-27.5,1.6c-0.2,1.2-0.3,2.4-0.5,3.6c-0.1,1.2-0.3,2.4-0.4,3.6c-0.7,6.6-1,13.2-1,20c0,31,7.1,60.4,19.8,86.6
		c1,2.1,2.1,4.2,3.2,6.3c5.7,10.8,12.4,20.9,19.9,30.4c1.3,1.6,2.6,3.2,3.9,4.7c0.2,0.2,0.4,0.5,0.6,0.7c0.6,0.7,1.1,1.3,1.7,2
		c0.3,0.3,0.6,0.7,0.9,1c0,0,0,0,0,0c0,0,0,0,0,0c0.5,0.5,0.9,1.1,1.4,1.6c0,0,0,0,0,0c1.1,1.2,2.2,2.4,3.3,3.6
		c3.5-4.2,7-8.3,10.5-12.3C87.5,308,105.1,291,116.3,273.7z"/>
	<path id="XMLID_98_" fill="#33495C" d="M137.3,157.4c1.8-3.1,1.5-7.3-0.6-12.2c-2.8-0.5-5.9-1.4-9.3-2.7c4.2,6.7,4.4,10.4,3.8,11.5
		c-0.7,1.3-4.1,2.8-11.2,2.8c-21.6,0-61.1-13.1-105-34.2c-0.9,2.2-1.8,4.3-2.6,6.6C58.2,151,98,163.7,120.1,163.7
		C128.9,163.7,134.9,161.7,137.3,157.4z"/>
	<path id="XMLID_99_" fill="#33495C" d="M118.5,130.9c5.1,2.6,9.6,4.5,13.6,5.8c-12.6-18.4-42.5-43.9-82.2-69.8
		c-1.6,1.8-3.1,3.5-4.6,5.4c22.3,14.5,42,29.1,57.3,42.8C108.7,120.7,114.1,126,118.5,130.9z"/>
	<path id="XMLID_100_" fill="#33495C" d="M150.4,254.2c-2.9-2.1-7-2.4-12.2-0.9c-0.8,2.7-2.1,5.7-3.8,8.9c7.2-3.4,10.8-3.1,11.8-2.4
		c1.2,0.9,2.3,4.4,1.4,11.4c-2.6,21.4-20.4,59.1-46.6,100.1c2,1.2,4.1,2.3,6.2,3.4c27.3-42.7,44.7-80.7,47.4-102.6
		C155.7,263.3,154.4,257.1,150.4,254.2z"/>
</g>
<g id="XMLID_22_">
	<path id="XMLID_23_" fill="#27B99A" d="M199.5,235c7.8-2.2,15.6-4.1,23.5-5.7c0.2-2.4,0.4-4.8,0.7-7.2c-8.6,1.7-17.1,3.7-25.4,6
		C198.6,230.4,199,232.7,199.5,235z"/>
	<path id="XMLID_38_" fill="#27B99A" d="M163.1,239.9c-5.9,2.3-11.6,4.9-17.3,7.5c-2.3,1.1-4.6,2.2-6.9,3.3c0.2-0.9,0.4-1.7,0.5-2.5
		c0.4-3.6-0.1-6.4-1.8-8.5c-10.3-12.9-58.8,8.1-116.2,48.2c1.1,2.1,2.2,4.2,3.3,6.2c21.9-15.3,42.9-28.2,61.3-37.4
		c13.5-6.7,25.2-11.2,33.8-13c8.2-1.7,11.6-0.6,12.3,0.3c0.3,0.4,0.6,1.5,0.3,3.3c-0.3,2.2-1.1,4.9-2.4,8c-1.8,1-3.6,2-5.4,3
		c-1.6,3.8-3.5,7.6-5.7,11.4c1.6-1,3.3-1.9,4.9-2.9c-0.6,0.9-1.2,1.9-1.9,2.9c-11.9,17.7-33.5,42-63.6,69.1c1.6,1.6,3.3,3.3,5,4.9
		c35-31.6,60.8-61.3,71.2-81.5c0.3-0.6,0.6-1.2,0.9-1.7c8-4.2,16.2-8.1,24.6-11.6c1.5-0.6,3.1-1.3,4.6-1.9
		c5.5-2.2,11.1-4.3,16.7-6.3c3.8-1.3,7.7-2.6,11.6-3.8c-0.5-2.3-0.9-4.6-1.3-6.9C181.8,232.9,172.4,236.2,163.1,239.9z"/>
	<path id="XMLID_39_" fill="#27B99A" d="M391.5,151.9c-65.4,1.5-116.2,26.1-122.9,64.3c0,0.1,0,0.1,0,0.2
		c-12.8,0.8-25.4,2.2-37.8,4.4c-0.3,2.4-0.5,4.8-0.7,7.2c12.5-2.2,25.1-3.7,37.8-4.5c-0.5,20.8,11.9,41.9,33.6,60.3
		c4.7,4,9.8,7.8,15.2,11.5c12,8.1,25.8,15.4,41.1,21.6c16.8-22.6,29-49,34.9-77.6c0.5-2.3,0.9-4.6,1.3-6.9c1.9-11,2.9-22.3,2.9-33.9
		C397,182.4,395.1,166.8,391.5,151.9z"/>
	<path id="XMLID_40_" fill="#27B99A" d="M136.8,145.2c1.8,0.3,3.5,0.5,5.1,0.5c3.6,0,6.4-0.9,8.2-2.8
		c11.5-11.7-15.1-57.4-61.9-109.5c-2,1.3-3.9,2.7-5.8,4c17.9,19.9,33.2,39.2,44.5,56.4c8.3,12.6,14.2,23.6,17,32
		c2.7,7.9,2,11.5,1.2,12.2c-0.3,0.4-1.4,0.7-3.2,0.7c-2.6,0-5.9-0.7-9.8-2c-3.9-1.3-8.5-3.2-13.6-5.8c-19-9.7-45.8-28.2-76.3-54.8
		c-1.4,1.8-2.8,3.7-4.2,5.6c35.6,30.9,68.2,52.9,89.5,60.8C130.9,143.8,134,144.7,136.8,145.2z"/>
	<path id="XMLID_41_" fill="#27B99A" d="M361.8,85.6c-1.3-1.9-2.7-3.8-4.1-5.7c-19.6,18.2-38.7,33.8-55.7,45.4
		c-12.4,8.5-23.4,14.5-31.7,17.5c-7.9,2.8-11.5,2.1-12.2,1.4c-0.4-0.3-0.8-1.4-0.8-3.2c0-2.6,0.6-5.9,1.8-9.9
		c1.2-3.9,3.1-8.5,5.6-13.7c9.4-19.2,27.4-46.2,53.6-77.2c-1.9-1.4-3.7-2.8-5.7-4.1c-30.4,36.1-51.9,69-59.4,90.5
		c-1.2,3.4-2.1,6.6-2.5,9.4c-0.3,1.8-0.5,3.6-0.4,5.1c0.1,3.6,1,6.4,3,8.2C265.2,160.5,310.4,133.1,361.8,85.6z"/>
</g>
<g id="XMLID_14_">
	<path id="XMLID_53_" fill="#F47920" d="M316.7,295.2c-5.5-3.7-10.6-7.5-15.2-11.5c-21.9-15.2-46.4-27-72.7-34.4
		c0.2-7.1,0.6-14.2,1.2-21.3c0.2-2.4,0.5-4.8,0.7-7.2c3.1-28,9.8-55.3,19.9-81.6c-2.4-0.2-4.7-0.7-7-1.2
		c-10.1,26.6-16.9,54.8-20,84.2c-0.3,2.4-0.5,4.8-0.7,7.2c-0.5,6-0.9,12-1,18.1c-6.8-1.7-13.7-3.1-20.7-4.3c0.6,2.5,1.2,4.9,1.9,7.4
		c6.3,1.1,12.5,2.5,18.7,4.1c0,1.2,0,2.3,0,3.5c0,15.6,1.1,31,3.1,46.1c0.8,6.2,1.9,12.4,3,18.5c4.5,23.6,11.5,46.3,20.7,67.8
		c2.3-0.6,4.6-1.2,6.8-1.9c-0.2-0.4-0.4-0.9-0.6-1.3c-6.9-16.3-12.4-33-16.6-50c-1.4-5.7-2.6-11.5-3.7-17.3
		c-0.3-1.6-0.6-3.2-0.9-4.9c0.8,2.4,1.6,4.8,2.5,7.3c2.8,7.7,6.1,15.9,9.9,24.6c5.4,12.1,11.7,25,18.9,38.4c1.1-0.4,2.2-0.8,3.3-1.2
		c1.1-0.4,2.2-0.8,3.3-1.3c2.7-1.1,5.3-2.2,7.9-3.3c2.4-1.1,4.7-2.2,7-3.3c13.3-6.6,25.8-14.7,37.3-24c0.9-0.7,1.8-1.5,2.7-2.2
		c0.9-0.8,1.8-1.5,2.7-2.3c-37.4-52-73.8-86.7-91.8-86.7v3.5h0l0-3.5l0,0c-2.1,0-4,0.5-5.6,1.5c-1.2,0.7-2.2,1.7-3,3
		c-0.1-2.5-0.1-5-0.1-7.5c0-0.5,0-1,0-1.6c8.7,2.6,17.3,5.6,25.7,9.1c28.4,12,53.9,29.2,75.8,51.1c5.1,5.1,10,10.4,14.5,15.9
		c1.6-1.7,3.2-3.5,4.7-5.3C339.5,315.6,328.6,304.9,316.7,295.2z M237.4,264.6L237.4,264.6c-1.1,0-2.1,0.2-2.9,0.5
		C235.3,264.8,236.2,264.6,237.4,264.6z"/>
	<path id="XMLID_54_" fill="#F47920" d="M181.1,240.7c-5.6,1.9-11.2,4-16.7,6.3c10.5,0.1,20.9,0.9,31.1,2.4
		c-0.6-2.4-1.2-4.9-1.7-7.3C189.6,241.5,185.4,241,181.1,240.7z"/>
	<path id="XMLID_55_" fill="#F47920" d="M129.3,242c-0.4,2.4-0.9,4.8-1.6,7.3c6-0.9,12-1.5,18.1-1.9c5.7-2.7,11.5-5.2,17.3-7.5
		c-0.5,0-1,0-1.5,0C150.7,239.9,139.9,240.6,129.3,242z"/>
	<path id="XMLID_56_" fill="#F47920" d="M171.8,129.6c0.6,0,1.1-0.1,1.6-0.3c10.1-4.5-2.8-55.8-29.3-121.8c-2.3,0.6-4.5,1.3-6.7,2.1
		c9.2,22.9,17,44.6,22.7,63.3c9.2,30.3,10,43.3,9.6,48.3c-4-3.1-13.1-12.3-29.7-39.3C129.7,65,118.5,44.5,107.4,22
		c-2.1,1.1-4.1,2.2-6.2,3.3C131.6,86.5,160.4,129.6,171.8,129.6z"/>
	<path id="XMLID_57_" fill="#F47920" d="M2.4,229.3c0.4,2.3,0.8,4.6,1.2,6.9c23.9-6.4,46.3-11.5,65.6-14.9
		c31.2-5.5,44.1-4.7,49.1-3.7c-3.5,3.6-13.8,11.6-42.6,24.7c-18,8.2-39.7,16.8-63.3,25.2c0.8,2.2,1.7,4.4,2.6,6.5
		c64.4-22.8,110.6-46.2,112-57.5c0.1-0.6,0-1.1-0.1-1.6C123.5,204.4,71,210.9,2.4,229.3z"/>
	<path id="XMLID_58_" fill="#F47920" d="M388.6,141.1c-0.7-2.2-1.4-4.5-2.2-6.7c-22.8,9.6-44.3,17.7-62.9,23.7
		c-30.2,9.7-43.1,10.7-48.1,10.4c3-4,12.1-13.3,38.8-30.3c16.7-10.6,37-22.1,59.3-33.6c-1.1-2.1-2.3-4.1-3.4-6.1
		c-60.7,31.4-103.3,60.8-103.1,72.2c0,0.6,0.1,1.1,0.3,1.6C272,182.3,323.1,168.6,388.6,141.1z"/>
</g>
</svg>
