<?xml version="1.0" encoding="utf-8"?>
<!-- Generator: Adobe Illustrator 19.0.1, SVG Export Plug-In . SVG Version: 6.00 Build 0)  -->
<svg version="1.1" xmlns="http://www.w3.org/2000/svg" xmlns:xlink="http://www.w3.org/1999/xlink" x="0px" y="0px"
	 viewBox="0 0 1000 300" enable-background="new 0 0 1000 300" xml:space="preserve">
<g id="Layer_5">
	<rect fill="#4985A4" width="1000" height="300"/>
</g>
<g id="SOLID">
	<polygon fill="#2A7592" points="278,161 117,0 0,0 0,57.5 64,137 	"/>
	<polygon fill="#3182A3" points="228.2,300 333.1,300 278,161 	"/>
	<polygon fill="#3182A3" points="300,59 146.4,0 117,0 278,161 	"/>
	<polygon fill="#5495B4" points="278,161 333.1,300 427.7,300 513,250 	"/>
	<polygon fill="#3182A3" points="300,59 513,250 466,137 	"/>
	<polygon fill="#2A7592" points="513,250 785,235 668,79 	"/>
	<polygon fill="#5495B4" points="486,0 300,59 466,137 	"/>
	<polygon fill="#3489AA" points="71.6,300 166.3,300 64,137 	"/>
	<polygon fill="#2A7592" points="275.1,0 146.3,0 300,59 	"/>
	<polygon fill="#5495B4" points="668,79 486,0 466,137 	"/>
	<polygon fill="#3489AA" points="724.3,0 607.9,0 668,79 	"/>
	<polygon fill="#3182A3" points="668,79 785,235 839,65 	"/>
	<polygon fill="#3182A3" points="839,65 1000,237 1000,221.2 924,60 	"/>
	<polygon fill="#2A7592" points="972.9,0 887.2,0 924,60 	"/>
	<polygon fill="#3489AA" points="924,60 887.2,0 830.2,0 839,65 	"/>
	<polygon fill="#3182A3" points="1000,61.6 1000,0 972.9,0 924,60 	"/>
	<polygon fill="#2A7592" points="1000,108.9 1000,61.6 924,60 	"/>
	<polygon fill="#3489AA" points="785,235 1000,251.8 1000,237 839,65 	"/>
	<polygon fill="#2A7592" points="518.1,300 585.7,300 513,250 	"/>
	<polygon fill="#679EBB" points="278,161 513,250 300,59 	"/>
	<polygon fill="#679EBB" points="486,0 447.9,0 275.1,0 300,59 	"/>
	<polygon fill="#679EBB" points="607.9,0 527.1,0 486,0 668,79 	"/>
	<polygon fill="#3489AA" points="466,137 513,250 668,79 	"/>
	<polygon fill="#5495B4" points="64,137 166.3,300 228.2,300 278,161 	"/>
	<polygon fill="#3182A3" points="427.7,300 518.1,300 513,250 	"/>
	<polygon fill="#3182A3" points="918.5,300 949.5,300 1000,263.8 1000,251.8 785,235 	"/>
	<polygon fill="#3489AA" points="822.9,300 918.5,300 785,235 	"/>
	<polygon fill="#3489AA" points="748.1,300 918.5,300 785,235 	"/>
	<polygon fill="#2A7592" points="1000,300 1000,263.8 949.5,300 	"/>
	<polygon fill="#5495B4" points="1000,221.2 1000,108.9 924,60 	"/>
	<polygon fill="#3182A3" points="0,57.5 0,254 24.4,300 71.6,300 64,137 	"/>
	<polygon fill="#2A7592" points="0,300 24.4,300 0,254 	"/>
	<polygon fill="#5495B4" points="839,65 830.2,0 724.3,0 668,79 	"/>
	<polygon fill="#3182A3" points="513,250 585.7,300 748.1,300 785,235 	"/>
</g>
</svg>
