<?xml version="1.0" encoding="utf-8"?>
<!-- Generator: Adobe Illustrator 19.0.1, SVG Export Plug-In . SVG Version: 6.00 Build 0)  -->
<svg version="1.1" xmlns="http://www.w3.org/2000/svg" xmlns:xlink="http://www.w3.org/1999/xlink" x="0px" y="0px"
	 viewBox="0 0 1000 300" enable-background="new 0 0 1000 300" xml:space="preserve">
<g id="gradient">
	<linearGradient id="SVGID_1_" gradientUnits="userSpaceOnUse" x1="-84" y1="80.5" x2="278" y2="80.5">
		<stop  offset="0" style="stop-color:#006991"/>
		<stop  offset="1" style="stop-color:#00AEEF"/>
	</linearGradient>
	<polygon fill="url(#SVGID_1_)" points="278,161 117,0 0,0 0,57.5 64,137 	"/>
	<linearGradient id="SVGID_2_" gradientUnits="userSpaceOnUse" x1="226" y1="230.5" x2="351" y2="230.5">
		<stop  offset="0" style="stop-color:#00AEEF"/>
		<stop  offset="1" style="stop-color:#006991"/>
	</linearGradient>
	<polygon fill="url(#SVGID_2_)" points="228.2,300 333.1,300 278,161 	"/>
	<linearGradient id="SVGID_3_" gradientUnits="userSpaceOnUse" x1="293.4875" y1="113.3792" x2="121.912" y2="-15.8233">
		<stop  offset="0" style="stop-color:#6DCFF6"/>
		<stop  offset="1" style="stop-color:#00AEEF"/>
	</linearGradient>
	<polygon fill="url(#SVGID_3_)" points="300,59 144.1,0 117,0 278,161 	"/>
	<linearGradient id="SVGID_4_" gradientUnits="userSpaceOnUse" x1="278" y1="230.5" x2="513" y2="230.5">
		<stop  offset="0" style="stop-color:#008BBF"/>
		<stop  offset="1" style="stop-color:#005B7F"/>
	</linearGradient>
	<polygon fill="url(#SVGID_4_)" points="278,161 333.1,300 427.7,300 513,250 	"/>
	<linearGradient id="SVGID_5_" gradientUnits="userSpaceOnUse" x1="448.6517" y1="118.4492" x2="395.8593" y2="163.6006">
		<stop  offset="0" style="stop-color:#00AEEF"/>
		<stop  offset="1" style="stop-color:#6DCFF6"/>
	</linearGradient>
	<polygon fill="url(#SVGID_5_)" points="300,59 513,250 466,137 	"/>
	<linearGradient id="SVGID_6_" gradientUnits="userSpaceOnUse" x1="692.9034" y1="301.2991" x2="576.2372" y2="145.0499">
		<stop  offset="0" style="stop-color:#008BBF"/>
		<stop  offset="1" style="stop-color:#005B7F"/>
	</linearGradient>
	<polygon fill="url(#SVGID_6_)" points="513,250 785,235 668,79 	"/>
	<linearGradient id="SVGID_7_" gradientUnits="userSpaceOnUse" x1="300" y1="71" x2="486" y2="71">
		<stop  offset="0" style="stop-color:#00AEEF"/>
		<stop  offset="1" style="stop-color:#006991"/>
	</linearGradient>
	<polygon fill="url(#SVGID_7_)" points="486,5 300,59 466,137 	"/>
	<linearGradient id="SVGID_8_" gradientUnits="userSpaceOnUse" x1="112.2326" y1="137.4363" x2="118.4843" y2="309.7064">
		<stop  offset="0" style="stop-color:#00AEEF"/>
		<stop  offset="1" style="stop-color:#006991"/>
	</linearGradient>
	<polygon fill="url(#SVGID_8_)" points="71.6,300 166.3,300 64,137 	"/>
	<linearGradient id="SVGID_9_" gradientUnits="userSpaceOnUse" x1="144.1309" y1="29.5" x2="300" y2="29.5">
		<stop  offset="0" style="stop-color:#00AEEF"/>
		<stop  offset="1" style="stop-color:#006991"/>
	</linearGradient>
	<polygon fill="url(#SVGID_9_)" points="275.1,0 146.3,0 300,59 	"/>
	<linearGradient id="SVGID_10_" gradientUnits="userSpaceOnUse" x1="307.9497" y1="94.174" x2="136.3743" y2="-35.0286">
		<stop  offset="0" style="stop-color:#6DCFF6"/>
		<stop  offset="1" style="stop-color:#00AEEF"/>
	</linearGradient>
	<polygon fill="url(#SVGID_10_)" points="146.3,0 144.1,0 300,59 	"/>
	<linearGradient id="SVGID_11_" gradientUnits="userSpaceOnUse" x1="144.1309" y1="29.5" x2="300" y2="29.5">
		<stop  offset="0" style="stop-color:#00AEEF"/>
		<stop  offset="1" style="stop-color:#006991"/>
	</linearGradient>
	<polygon fill="url(#SVGID_11_)" points="146.3,0 144.1,0 300,59 	"/>
	<linearGradient id="SVGID_12_" gradientUnits="userSpaceOnUse" x1="559.0842" y1="151.8065" x2="580.618" y2="19.8254">
		<stop  offset="0" style="stop-color:#00AEEF"/>
		<stop  offset="1" style="stop-color:#6DCFF6"/>
	</linearGradient>
	<polygon fill="url(#SVGID_12_)" points="668,79 486,5 466,137 	"/>
	<linearGradient id="SVGID_13_" gradientUnits="userSpaceOnUse" x1="601" y1="39.5" x2="730" y2="39.5">
		<stop  offset="0" style="stop-color:#00AEEF"/>
		<stop  offset="1" style="stop-color:#006991"/>
	</linearGradient>
	<polygon fill="url(#SVGID_13_)" points="724.3,0 607.9,0 668,79 	"/>
	<linearGradient id="SVGID_14_" gradientUnits="userSpaceOnUse" x1="726" y1="267.5" x2="834" y2="267.5">
		<stop  offset="0" style="stop-color:#6DCFF6"/>
		<stop  offset="1" style="stop-color:#00AEEF"/>
	</linearGradient>
	<polygon fill="url(#SVGID_14_)" points="785,235 739.1,300 822.9,300 	"/>
	<linearGradient id="SVGID_15_" gradientUnits="userSpaceOnUse" x1="754.1382" y1="75.0691" x2="786.7863" y2="232.0572">
		<stop  offset="0" style="stop-color:#008BBF"/>
		<stop  offset="1" style="stop-color:#00AEEF"/>
	</linearGradient>
	<polygon fill="url(#SVGID_15_)" points="668,79 785,235 839,65 	"/>
	<linearGradient id="SVGID_16_" gradientUnits="userSpaceOnUse" x1="863.5114" y1="43.7468" x2="1038.5601" y2="229.9096">
		<stop  offset="0" style="stop-color:#00AEEF"/>
		<stop  offset="1" style="stop-color:#006991"/>
	</linearGradient>
	<polygon fill="url(#SVGID_16_)" points="839,65 1000,237 1000,221.2 924,60 	"/>
	<linearGradient id="SVGID_17_" gradientUnits="userSpaceOnUse" x1="878" y1="30" x2="977" y2="30">
		<stop  offset="0" style="stop-color:#008BBF"/>
		<stop  offset="1" style="stop-color:#005B7F"/>
	</linearGradient>
	<polygon fill="url(#SVGID_17_)" points="972.9,0 887.2,0 924,60 	"/>
	<linearGradient id="SVGID_18_" gradientUnits="userSpaceOnUse" x1="829" y1="32.5" x2="924" y2="32.5">
		<stop  offset="0" style="stop-color:#6DCFF6"/>
		<stop  offset="1" style="stop-color:#00AEEF"/>
	</linearGradient>
	<polygon fill="url(#SVGID_18_)" points="924,60 887.2,0 830.2,0 839,65 	"/>
	<linearGradient id="SVGID_19_" gradientUnits="userSpaceOnUse" x1="924" y1="30.8" x2="1025" y2="30.8">
		<stop  offset="0" style="stop-color:#00AEEF"/>
		<stop  offset="1" style="stop-color:#006991"/>
	</linearGradient>
	<polygon fill="url(#SVGID_19_)" points="1000,61.6 1000,0 972.9,0 924,60 	"/>
	<linearGradient id="SVGID_20_" gradientUnits="userSpaceOnUse" x1="924" y1="84.4286" x2="1019" y2="84.4286">
		<stop  offset="0" style="stop-color:#6DCFF6"/>
		<stop  offset="1" style="stop-color:#00AEEF"/>
	</linearGradient>
	<polygon fill="url(#SVGID_20_)" points="1000,108.9 1000,61.6 924,60 	"/>
	<linearGradient id="SVGID_21_" gradientUnits="userSpaceOnUse" x1="808.8581" y1="148.2361" x2="1006.8298" y2="259.3781">
		<stop  offset="0" style="stop-color:#6DCFF6"/>
		<stop  offset="3.487723e-02" style="stop-color:#67CEF6"/>
		<stop  offset="1" style="stop-color:#00AEEF"/>
	</linearGradient>
	<polygon fill="url(#SVGID_21_)" points="785,235 1000,251.8 1000,237 839,65 	"/>
	<linearGradient id="SVGID_22_" gradientUnits="userSpaceOnUse" x1="513" y1="267.5" x2="785" y2="267.5">
		<stop  offset="0" style="stop-color:#00AEEF"/>
		<stop  offset="1" style="stop-color:#006991"/>
	</linearGradient>
	<polygon fill="url(#SVGID_22_)" points="513,250 585.7,300 738.8,300 785,235 	"/>
	<linearGradient id="SVGID_23_" gradientUnits="userSpaceOnUse" x1="726" y1="267.5" x2="834" y2="267.5">
		<stop  offset="0" style="stop-color:#6DCFF6"/>
		<stop  offset="1" style="stop-color:#00AEEF"/>
	</linearGradient>
	<polygon fill="url(#SVGID_23_)" points="738.8,300 739.1,300 785,235 	"/>
	<linearGradient id="SVGID_24_" gradientUnits="userSpaceOnUse" x1="513" y1="267.5" x2="785" y2="267.5">
		<stop  offset="0" style="stop-color:#00AEEF"/>
		<stop  offset="1" style="stop-color:#006991"/>
	</linearGradient>
	<polygon fill="url(#SVGID_24_)" points="738.8,300 739.1,300 785,235 	"/>
	<linearGradient id="SVGID_25_" gradientUnits="userSpaceOnUse" x1="513" y1="275" x2="689" y2="275">
		<stop  offset="0" style="stop-color:#008BBF"/>
		<stop  offset="1" style="stop-color:#005B7F"/>
	</linearGradient>
	<polygon fill="url(#SVGID_25_)" points="518.1,300 585.7,300 513,250 	"/>
	<linearGradient id="SVGID_26_" gradientUnits="userSpaceOnUse" x1="278" y1="154.5" x2="513" y2="154.5">
		<stop  offset="0" style="stop-color:#00AEEF"/>
		<stop  offset="1" style="stop-color:#006991"/>
	</linearGradient>
	<polygon fill="url(#SVGID_26_)" points="278,161 513,250 300,59 	"/>
	<linearGradient id="SVGID_27_" gradientUnits="userSpaceOnUse" x1="265" y1="29.5" x2="486" y2="29.5">
		<stop  offset="0" style="stop-color:#6DCFF6"/>
		<stop  offset="1" style="stop-color:#00AEEF"/>
	</linearGradient>
	<polygon fill="url(#SVGID_27_)" points="486,5 447.9,0 275.1,0 300,59 	"/>
	<linearGradient id="SVGID_28_" gradientUnits="userSpaceOnUse" x1="560.8242" y1="20.6545" x2="628.204" y2="109.5681">
		<stop  offset="0" style="stop-color:#00AEEF"/>
		<stop  offset="0.9651" style="stop-color:#67CEF6"/>
		<stop  offset="1" style="stop-color:#6DCFF6"/>
	</linearGradient>
	<polygon fill="url(#SVGID_28_)" points="668,79 607.9,0 527.1,0 486,5 	"/>
	<linearGradient id="SVGID_29_" gradientUnits="userSpaceOnUse" x1="492.2955" y1="192.0493" x2="675.6797" y2="96.884">
		<stop  offset="0" style="stop-color:#00AEEF"/>
		<stop  offset="1" style="stop-color:#006991"/>
	</linearGradient>
	<polygon fill="url(#SVGID_29_)" points="466,137 513,250 668,79 	"/>
	<linearGradient id="SVGID_30_" gradientUnits="userSpaceOnUse" x1="179.3048" y1="125.397" x2="126.5123" y2="275.4387">
		<stop  offset="0" style="stop-color:#6DCFF6"/>
		<stop  offset="1" style="stop-color:#00AEEF"/>
	</linearGradient>
	<polygon fill="url(#SVGID_30_)" points="64,137 166.3,300 228.2,300 278,161 	"/>
	<linearGradient id="SVGID_31_" gradientUnits="userSpaceOnUse" x1="351" y1="275" x2="525" y2="275">
		<stop  offset="0" style="stop-color:#6DCFF6"/>
		<stop  offset="1" style="stop-color:#00AEEF"/>
	</linearGradient>
	<polygon fill="url(#SVGID_31_)" points="427.7,300 518.1,300 513,250 	"/>
	<linearGradient id="SVGID_32_" gradientUnits="userSpaceOnUse" x1="785" y1="267.5" x2="1015" y2="267.5">
		<stop  offset="0" style="stop-color:#00AEEF"/>
		<stop  offset="1" style="stop-color:#006991"/>
	</linearGradient>
	<polygon fill="url(#SVGID_32_)" points="918.5,300 949.5,300 1000,263.8 1000,251.8 785,235 	"/>
	<linearGradient id="SVGID_33_" gradientUnits="userSpaceOnUse" x1="785" y1="267.5" x2="937" y2="267.5">
		<stop  offset="0" style="stop-color:#008BBF"/>
		<stop  offset="1" style="stop-color:#005B7F"/>
	</linearGradient>
	<polygon fill="url(#SVGID_33_)" points="822.9,300 918.5,300 785,235 	"/>
	<linearGradient id="SVGID_34_" gradientUnits="userSpaceOnUse" x1="937" y1="281.8846" x2="1020" y2="281.8846">
		<stop  offset="0" style="stop-color:#6DCFF6"/>
		<stop  offset="1" style="stop-color:#00AEEF"/>
	</linearGradient>
	<polygon fill="url(#SVGID_34_)" points="1000,300 1000,263.8 949.5,300 	"/>
	<linearGradient id="SVGID_35_" gradientUnits="userSpaceOnUse" x1="924" y1="140.5934" x2="1015" y2="140.5934">
		<stop  offset="0" style="stop-color:#008BBF"/>
		<stop  offset="1" style="stop-color:#005B7F"/>
	</linearGradient>
	<polygon fill="url(#SVGID_35_)" points="1000,221.2 1000,108.9 924,60 	"/>
	<linearGradient id="SVGID_36_" gradientUnits="userSpaceOnUse" x1="30.249" y1="138.4567" x2="37.1954" y2="312.1161">
		<stop  offset="0" style="stop-color:#008BBF"/>
		<stop  offset="1" style="stop-color:#005B7F"/>
	</linearGradient>
	<polygon fill="url(#SVGID_36_)" points="0,59.2 0,254 24.4,300 71.6,300 64,137 	"/>
	<linearGradient id="SVGID_37_" gradientUnits="userSpaceOnUse" x1="-84" y1="97.2424" x2="278" y2="97.2424">
		<stop  offset="0" style="stop-color:#006991"/>
		<stop  offset="1" style="stop-color:#00AEEF"/>
	</linearGradient>
	<polygon fill="url(#SVGID_37_)" points="0,57.5 0,59.2 64,137 	"/>
	<linearGradient id="SVGID_38_" gradientUnits="userSpaceOnUse" x1="33.6096" y1="138.3223" x2="40.556" y2="311.9817">
		<stop  offset="0" style="stop-color:#008BBF"/>
		<stop  offset="1" style="stop-color:#005B7F"/>
	</linearGradient>
	<polygon fill="url(#SVGID_38_)" points="0,57.5 0,59.2 64,137 	"/>
	<linearGradient id="SVGID_39_" gradientUnits="userSpaceOnUse" x1="265" y1="2.5" x2="601" y2="2.5">
		<stop  offset="0" style="stop-color:#00AEEF"/>
		<stop  offset="1" style="stop-color:#006991"/>
	</linearGradient>
	<polygon fill="url(#SVGID_39_)" points="527.1,0 447.9,0 486,5 	"/>
	<linearGradient id="SVGID_40_" gradientUnits="userSpaceOnUse" x1="-35" y1="277" x2="27" y2="277">
		<stop  offset="0" style="stop-color:#00AEEF"/>
		<stop  offset="1" style="stop-color:#006991"/>
	</linearGradient>
	<polygon fill="url(#SVGID_40_)" points="0,300 24.4,300 0,254 	"/>
	<linearGradient id="SVGID_41_" gradientUnits="userSpaceOnUse" x1="668" y1="39.5" x2="839" y2="39.5">
		<stop  offset="0" style="stop-color:#008BBF"/>
		<stop  offset="1" style="stop-color:#005B7F"/>
	</linearGradient>
	<polygon fill="url(#SVGID_41_)" points="839,65 830.2,0 724.3,0 668,79 	"/>
	<rect opacity="0.25" width="1000" height="300"/>
</g>
<g id="SOLID" display="none">
	<polygon display="inline" fill="#0098D1" points="278,161 117,0 0,0 0,57.5 64,137 	"/>
	<polygon display="inline" fill="#0098D1" points="228.2,300 333.1,300 278,161 	"/>
	<polygon display="inline" fill="#00AEEF" points="300,59 144.1,0 117,0 278,161 	"/>
	<polygon display="inline" fill="#008BBF" points="278,161 333.1,300 427.7,300 513,250 	"/>
	<polygon display="inline" fill="#6DCFF6" points="300,59 513,250 466,137 	"/>
	<polygon display="inline" fill="#008BBF" points="513,250 785,235 668,79 	"/>
	<polygon display="inline" fill="#0098D1" points="486,5 300,59 466,137 	"/>
	<polygon display="inline" fill="#0098D1" points="71.6,300 166.3,300 64,137 	"/>
	<polygon display="inline" fill="#0098D1" points="275.1,0 146.3,0 300,59 	"/>
	<polygon display="inline" fill="#00AEEF" points="146.3,0 144.1,0 300,59 	"/>
	<polygon display="inline" fill="#0098D1" points="146.3,0 144.1,0 300,59 	"/>
	<polygon display="inline" fill="#00AEEF" points="668,79 486,5 466,137 	"/>
	<polygon display="inline" fill="#0098D1" points="724.3,0 607.9,0 668,79 	"/>
	<polygon display="inline" fill="#00AEEF" points="785,235 739.1,300 822.9,300 	"/>
	<polygon display="inline" fill="#0098D1" points="668,79 785,235 839,65 	"/>
	<polygon display="inline" fill="#0098D1" points="839,65 1000,237 1000,221.2 924,60 	"/>
	<polygon display="inline" fill="#008BBF" points="972.9,0 887.2,0 924,60 	"/>
	<polygon display="inline" fill="#6DCFF6" points="924,60 887.2,0 830.2,0 839,65 	"/>
	<polygon display="inline" fill="#0098D1" points="1000,61.6 1000,0 972.9,0 924,60 	"/>
	<polygon display="inline" fill="#00AEEF" points="1000,108.9 1000,61.6 924,60 	"/>
	<polygon display="inline" fill="#6DCFF6" points="785,235 1000,251.8 1000,237 839,65 	"/>
	<polygon display="inline" fill="#0098D1" points="513,250 585.7,300 738.8,300 785,235 	"/>
	<polygon display="inline" fill="#00AEEF" points="738.8,300 739.1,300 785,235 	"/>
	<polygon display="inline" fill="#0098D1" points="738.8,300 739.1,300 785,235 	"/>
	<polygon display="inline" fill="#008BBF" points="518.1,300 585.7,300 513,250 	"/>
	<polygon display="inline" fill="#0098D1" points="278,161 513,250 300,59 	"/>
	<polygon display="inline" fill="#00AEEF" points="486,5 447.9,0 275.1,0 300,59 	"/>
	<polygon display="inline" fill="#6DCFF6" points="668,79 607.9,0 527.1,0 486,5 	"/>
	<polygon display="inline" fill="#0098D1" points="466,137 513,250 668,79 	"/>
	<polygon display="inline" fill="#6DCFF6" points="64,137 166.3,300 228.2,300 278,161 	"/>
	<polygon display="inline" fill="#00AEEF" points="427.7,300 518.1,300 513,250 	"/>
	<polygon display="inline" fill="#0098D1" points="918.5,300 949.5,300 1000,263.8 1000,251.8 785,235 	"/>
	<polygon display="inline" fill="#008BBF" points="822.9,300 918.5,300 785,235 	"/>
	<polygon display="inline" fill="#00AEEF" points="1000,300 1000,263.8 949.5,300 	"/>
	<polygon display="inline" fill="#008BBF" points="1000,221.2 1000,108.9 924,60 	"/>
	<polygon display="inline" fill="#008BBF" points="0,59.2 0,254 24.4,300 71.6,300 64,137 	"/>
	<polygon display="inline" fill="#0098D1" points="0,57.5 0,59.2 64,137 	"/>
	<polygon display="inline" fill="#008BBF" points="0,57.5 0,59.2 64,137 	"/>
	<polygon display="inline" fill="#0098D1" points="527.1,0 447.9,0 486,5 	"/>
	<polygon display="inline" fill="#0098D1" points="0,300 24.4,300 0,254 	"/>
	<polygon display="inline" fill="#008BBF" points="839,65 830.2,0 724.3,0 668,79 	"/>
</g>
</svg>
