<?xml version="1.0" encoding="utf-8"?>
<!-- Generator: Adobe Illustrator 19.0.1, SVG Export Plug-In . SVG Version: 6.00 Build 0)  -->
<svg version="1.1" xmlns="http://www.w3.org/2000/svg" xmlns:xlink="http://www.w3.org/1999/xlink" x="0px" y="0px"
	 viewBox="0 0 430 430" enable-background="new 0 0 430 430" xml:space="preserve">
<g id="xtras" display="none">
</g>
<g id="o">
	<circle id="XMLID_81_" fill="#DCDDDE" cx="215" cy="215" r="215"/>
</g>
<g id="diagrams">
	<g id="XMLID_311_">
		
			<rect id="XMLID_455_" x="271.7" y="219.5" transform="matrix(0.995 -0.1001 0.1001 0.995 -25.9086 32.8459)" fill-rule="evenodd" clip-rule="evenodd" fill="#FFFFFF" width="85" height="110"/>
		<g id="XMLID_444_">
			<polyline id="XMLID_454_" fill="none" stroke="#939598" stroke-width="1.75" stroke-miterlimit="10" points="294.6,312.3 
				307.9,308.9 323.5,316 339,309.9 			"/>
			<circle id="XMLID_453_" fill="#939598" cx="307.9" cy="308.9" r="2"/>
			<circle id="XMLID_452_" fill="#939598" cx="323.5" cy="316" r="2"/>
			<circle id="XMLID_451_" fill="#939598" cx="339" cy="309.9" r="2"/>
			<circle id="XMLID_450_" fill="#939598" cx="294.6" cy="312.3" r="2"/>
			<polyline id="XMLID_449_" fill="none" stroke="#939598" stroke-width="1.75" stroke-miterlimit="10" points="300.9,296 
				318.1,303.7 330.2,296.1 344.7,303.2 			"/>
			<circle id="XMLID_448_" fill="#939598" cx="318.1" cy="303.7" r="2"/>
			<circle id="XMLID_447_" fill="#939598" cx="330.2" cy="296.1" r="2"/>
			<circle id="XMLID_446_" fill="#939598" cx="344.7" cy="303.2" r="2"/>
			<circle id="XMLID_445_" fill="#939598" cx="300.9" cy="296" r="2"/>
		</g>
		<g id="XMLID_437_">
			
				<rect id="XMLID_443_" x="275.9" y="248.9" transform="matrix(-0.995 0.1001 -0.1001 -0.995 609.1678 469.784)" fill="#D1D3D4" width="33.8" height="2.6"/>
			
				<rect id="XMLID_442_" x="275.5" y="244.7" transform="matrix(-0.995 0.1001 -0.1001 -0.995 607.9117 461.4995)" fill="#D1D3D4" width="33.8" height="2.6"/>
			
				<rect id="XMLID_441_" x="275.1" y="240.5" transform="matrix(-0.995 0.1001 -0.1001 -0.995 606.6556 453.215)" fill="#D1D3D4" width="33.8" height="2.6"/>
			
				<rect id="XMLID_440_" x="274.7" y="236.3" transform="matrix(-0.995 0.1001 -0.1001 -0.995 605.3995 444.9305)" fill="#D1D3D4" width="33.8" height="2.6"/>
			
				<rect id="XMLID_439_" x="274.2" y="232.2" transform="matrix(-0.995 0.1001 -0.1001 -0.995 604.1434 436.6461)" fill="#D1D3D4" width="33.8" height="2.6"/>
			
				<rect id="XMLID_438_" x="273.8" y="228.6" transform="matrix(-0.995 0.1001 -0.1001 -0.995 590.0613 430.3062)" fill="#D1D3D4" width="20.8" height="2.6"/>
		</g>
		<g id="XMLID_430_">
			
				<rect id="XMLID_436_" x="316.1" y="244.8" transform="matrix(-0.995 0.1001 -0.1001 -0.995 688.8591 457.7011)" fill="#D1D3D4" width="33.8" height="2.6"/>
			
				<rect id="XMLID_435_" x="315.6" y="240.6" transform="matrix(-0.995 0.1001 -0.1001 -0.995 687.603 449.4166)" fill="#D1D3D4" width="33.8" height="2.6"/>
			
				<rect id="XMLID_434_" x="315.2" y="236.5" transform="matrix(-0.995 0.1001 -0.1001 -0.995 686.3469 441.1321)" fill="#D1D3D4" width="33.8" height="2.6"/>
			
				<rect id="XMLID_433_" x="314.8" y="232.3" transform="matrix(-0.995 0.1001 -0.1001 -0.995 685.0908 432.8476)" fill="#D1D3D4" width="33.8" height="2.6"/>
			
				<rect id="XMLID_432_" x="314.4" y="228.1" transform="matrix(-0.995 0.1001 -0.1001 -0.995 683.8347 424.5631)" fill="#D1D3D4" width="33.8" height="2.6"/>
			
				<rect id="XMLID_431_" x="314" y="225" transform="matrix(-0.995 0.1001 -0.1001 -0.995 661.7164 419.4418)" fill="#D1D3D4" width="12.6" height="2.6"/>
		</g>
		<g id="XMLID_312_">
			
				<rect id="XMLID_429_" x="309.5" y="279.4" transform="matrix(-0.995 0.1001 -0.1001 -0.995 689.3552 527.8247)" fill="#D1D3D4" width="43.8" height="3.7"/>
			
				<rect id="XMLID_428_" x="308.3" y="266.9" transform="matrix(-0.995 0.1001 -0.1001 -0.995 685.5934 503.0148)" fill="#939598" width="43.8" height="3.7"/>
			
				<rect id="XMLID_427_" x="307" y="254.4" transform="matrix(-0.995 0.1001 -0.1001 -0.995 681.8326 478.2105)" fill="#D1D3D4" width="43.8" height="3.7"/>
			
				<rect id="XMLID_426_" x="307.6" y="260.6" transform="matrix(-0.995 0.1001 -0.1001 -0.995 683.7128 490.6115)" fill="#939598" width="43.8" height="3.7"/>
			
				<rect id="XMLID_425_" x="308.9" y="273.1" transform="matrix(-0.995 0.1001 -0.1001 -0.995 687.474 515.4181)" fill="#D1D3D4" width="43.8" height="3.7"/>
			
				<rect id="XMLID_424_" x="279.4" y="284" transform="matrix(-0.995 0.1001 -0.1001 -0.995 598.6787 541.5732)" fill="#D1D3D4" width="12.6" height="3.7"/>
			
				<rect id="XMLID_423_" x="278.2" y="271.5" transform="matrix(-0.995 0.1001 -0.1001 -0.995 594.917 516.7633)" fill="#939598" width="12.6" height="3.7"/>
			
				<rect id="XMLID_422_" x="276.9" y="259" transform="matrix(-0.995 0.1001 -0.1001 -0.995 591.1561 491.959)" fill="#D1D3D4" width="12.6" height="3.7"/>
			
				<rect id="XMLID_421_" x="277.6" y="265.2" transform="matrix(-0.995 0.1001 -0.1001 -0.995 593.0364 504.36)" fill="#D1D3D4" width="12.6" height="3.7"/>
			
				<rect id="XMLID_420_" x="278.8" y="277.7" transform="matrix(-0.995 0.1001 -0.1001 -0.995 596.7976 529.1666)" fill="#939598" width="12.6" height="3.7"/>
			
				<rect id="XMLID_317_" x="294.1" y="282.5" transform="matrix(-0.995 0.1001 -0.1001 -0.995 627.7025 537.1726)" fill="#D1D3D4" width="12.6" height="3.7"/>
			
				<rect id="XMLID_316_" x="292.8" y="270" transform="matrix(-0.995 0.1001 -0.1001 -0.995 623.9408 512.3627)" fill="#D1D3D4" width="12.6" height="3.7"/>
			
				<rect id="XMLID_315_" x="291.6" y="257.5" transform="matrix(-0.995 0.1001 -0.1001 -0.995 620.1799 487.5584)" fill="#D1D3D4" width="12.6" height="3.7"/>
			
				<rect id="XMLID_314_" x="292.2" y="263.8" transform="matrix(-0.995 0.1001 -0.1001 -0.995 622.0602 499.9594)" fill="#D1D3D4" width="12.6" height="3.7"/>
			
				<rect id="XMLID_313_" x="293.4" y="276.3" transform="matrix(-0.995 0.1001 -0.1001 -0.995 625.8214 524.766)" fill="#D1D3D4" width="12.6" height="3.7"/>
		</g>
	</g>
	
		<rect id="XMLID_488_" x="234.4" y="234" transform="matrix(0.9902 0.1399 -0.1399 0.9902 43.1568 -35.8993)" fill-rule="evenodd" clip-rule="evenodd" fill="#BCBEC0" width="85" height="110"/>
	<g id="XMLID_310_">
		
			<rect id="XMLID_26_" x="231.3" y="231" transform="matrix(0.997 7.766717e-02 -7.766717e-02 0.997 23.0372 -20.3987)" fill-rule="evenodd" clip-rule="evenodd" fill="#FFFFFF" width="85" height="110"/>
		<g id="XMLID_406_">
			
				<rect id="XMLID_487_" x="270.6" y="238.7" transform="matrix(-0.997 -7.766717e-02 7.766717e-02 -0.997 565.4613 502.985)" fill="#D1D3D4" width="43.8" height="3.7"/>
			
				<rect id="XMLID_486_" x="269.6" y="251.2" transform="matrix(-0.997 -7.766717e-02 7.766717e-02 -0.997 562.5401 527.9205)" fill="#939598" width="43.8" height="3.7"/>
			
				<rect id="XMLID_485_" x="268.7" y="263.7" transform="matrix(-0.997 -7.766717e-02 7.766717e-02 -0.997 559.6196 552.8504)" fill="#D1D3D4" width="43.8" height="3.7"/>
			
				<rect id="XMLID_484_" x="269.2" y="257.4" transform="matrix(-0.997 -7.766717e-02 7.766717e-02 -0.997 561.0797 540.3867)" fill="#939598" width="43.8" height="3.7"/>
			
				<rect id="XMLID_483_" x="270.1" y="244.9" transform="matrix(-0.997 -7.766717e-02 7.766717e-02 -0.997 564.0005 515.4544)" fill="#D1D3D4" width="43.8" height="3.7"/>
			
				<rect id="XMLID_482_" x="240.4" y="235.1" transform="matrix(-0.997 -7.766717e-02 7.766717e-02 -0.997 474.3256 492.3084)" fill="#D1D3D4" width="12.6" height="3.7"/>
			
				<rect id="XMLID_481_" x="239.5" y="247.6" transform="matrix(-0.997 -7.766717e-02 7.766717e-02 -0.997 471.4044 517.244)" fill="#939598" width="12.6" height="3.7"/>
			
				<rect id="XMLID_480_" x="238.5" y="260.1" transform="matrix(-0.997 -7.766717e-02 7.766717e-02 -0.997 468.4839 542.1739)" fill="#D1D3D4" width="12.6" height="3.7"/>
			
				<rect id="XMLID_479_" x="239" y="253.9" transform="matrix(-0.997 -7.766717e-02 7.766717e-02 -0.997 469.944 529.7101)" fill="#D1D3D4" width="12.6" height="3.7"/>
			
				<rect id="XMLID_478_" x="239.9" y="241.4" transform="matrix(-0.997 -7.766717e-02 7.766717e-02 -0.997 472.8648 504.7779)" fill="#939598" width="12.6" height="3.7"/>
			
				<rect id="XMLID_477_" x="255.1" y="236.2" transform="matrix(-0.997 -7.766717e-02 7.766717e-02 -0.997 503.4964 495.7258)" fill="#D1D3D4" width="12.6" height="3.7"/>
			
				<rect id="XMLID_476_" x="254.1" y="248.8" transform="matrix(-0.997 -7.766717e-02 7.766717e-02 -0.997 500.5752 520.6614)" fill="#D1D3D4" width="12.6" height="3.7"/>
			
				<rect id="XMLID_475_" x="253.1" y="261.3" transform="matrix(-0.997 -7.766717e-02 7.766717e-02 -0.997 497.6547 545.5912)" fill="#D1D3D4" width="12.6" height="3.7"/>
			
				<rect id="XMLID_474_" x="253.6" y="255" transform="matrix(-0.997 -7.766717e-02 7.766717e-02 -0.997 499.1148 533.1274)" fill="#D1D3D4" width="12.6" height="3.7"/>
			
				<rect id="XMLID_473_" x="254.6" y="242.5" transform="matrix(-0.997 -7.766717e-02 7.766717e-02 -0.997 502.0356 508.1953)" fill="#D1D3D4" width="12.6" height="3.7"/>
			
				<rect id="XMLID_472_" x="268" y="272.8" transform="matrix(-0.997 -7.766717e-02 7.766717e-02 -0.997 557.5018 570.9276)" fill="#D1D3D4" width="43.8" height="3.7"/>
			
				<rect id="XMLID_471_" x="267" y="285.3" transform="matrix(-0.997 -7.766717e-02 7.766717e-02 -0.997 554.5806 595.8632)" fill="#939598" width="43.8" height="3.7"/>
			
				<rect id="XMLID_470_" x="266" y="297.8" transform="matrix(-0.997 -7.766717e-02 7.766717e-02 -0.997 551.6601 620.793)" fill="#D1D3D4" width="43.8" height="3.7"/>
			
				<rect id="XMLID_469_" x="266.5" y="291.6" transform="matrix(-0.997 -7.766717e-02 7.766717e-02 -0.997 553.1202 608.3293)" fill="#939598" width="43.8" height="3.7"/>
			
				<rect id="XMLID_468_" x="267.5" y="279.1" transform="matrix(-0.997 -7.766717e-02 7.766717e-02 -0.997 556.041 583.397)" fill="#D1D3D4" width="43.8" height="3.7"/>
			
				<rect id="XMLID_467_" x="237.8" y="269.2" transform="matrix(-0.997 -7.766717e-02 7.766717e-02 -0.997 466.3661 560.251)" fill="#D1D3D4" width="12.6" height="3.7"/>
			
				<rect id="XMLID_466_" x="236.8" y="281.7" transform="matrix(-0.997 -7.766717e-02 7.766717e-02 -0.997 463.445 585.1866)" fill="#939598" width="12.6" height="3.7"/>
			
				<rect id="XMLID_465_" x="235.8" y="294.3" transform="matrix(-0.997 -7.766717e-02 7.766717e-02 -0.997 460.5244 610.1165)" fill="#D1D3D4" width="12.6" height="3.7"/>
			
				<rect id="XMLID_464_" x="236.3" y="288" transform="matrix(-0.997 -7.766717e-02 7.766717e-02 -0.997 461.9846 597.6527)" fill="#D1D3D4" width="12.6" height="3.7"/>
			
				<rect id="XMLID_463_" x="237.3" y="275.5" transform="matrix(-0.997 -7.766717e-02 7.766717e-02 -0.997 464.9054 572.7205)" fill="#939598" width="12.6" height="3.7"/>
			
				<rect id="XMLID_462_" x="252.4" y="270.4" transform="matrix(-0.997 -7.766717e-02 7.766717e-02 -0.997 495.537 563.6684)" fill="#D1D3D4" width="12.6" height="3.7"/>
			
				<rect id="XMLID_461_" x="251.5" y="282.9" transform="matrix(-0.997 -7.766717e-02 7.766717e-02 -0.997 492.6158 588.6039)" fill="#D1D3D4" width="12.6" height="3.7"/>
			
				<rect id="XMLID_460_" x="250.5" y="295.4" transform="matrix(-0.997 -7.766717e-02 7.766717e-02 -0.997 489.6952 613.5339)" fill="#D1D3D4" width="12.6" height="3.7"/>
			
				<rect id="XMLID_459_" x="251" y="289.1" transform="matrix(-0.997 -7.766717e-02 7.766717e-02 -0.997 491.1554 601.0701)" fill="#D1D3D4" width="12.6" height="3.7"/>
			
				<rect id="XMLID_458_" x="251.9" y="276.6" transform="matrix(-0.997 -7.766717e-02 7.766717e-02 -0.997 494.0762 576.1379)" fill="#D1D3D4" width="12.6" height="3.7"/>
			
				<rect id="XMLID_457_" x="265.3" y="306.9" transform="matrix(-0.997 -7.766717e-02 7.766717e-02 -0.997 549.5424 638.8702)" fill="#D1D3D4" width="43.8" height="3.7"/>
			
				<rect id="XMLID_456_" x="264.3" y="319.4" transform="matrix(-0.997 -7.766717e-02 7.766717e-02 -0.997 546.6212 663.8058)" fill="#939598" width="43.8" height="3.7"/>
			
				<rect id="XMLID_419_" x="263.3" y="332" transform="matrix(-0.997 -7.766717e-02 7.766717e-02 -0.997 543.7006 688.7357)" fill="#D1D3D4" width="43.8" height="3.7"/>
			
				<rect id="XMLID_418_" x="263.8" y="325.7" transform="matrix(-0.997 -7.766717e-02 7.766717e-02 -0.997 545.1608 676.2719)" fill="#939598" width="43.8" height="3.7"/>
			
				<rect id="XMLID_417_" x="264.8" y="313.2" transform="matrix(-0.997 -7.766717e-02 7.766717e-02 -0.997 548.0815 651.3397)" fill="#D1D3D4" width="43.8" height="3.7"/>
			
				<rect id="XMLID_416_" x="235.1" y="303.3" transform="matrix(-0.997 -7.766717e-02 7.766717e-02 -0.997 458.4067 628.1937)" fill="#D1D3D4" width="12.6" height="3.7"/>
			
				<rect id="XMLID_415_" x="234.1" y="315.9" transform="matrix(-0.997 -7.766717e-02 7.766717e-02 -0.997 455.4855 653.1292)" fill="#939598" width="12.6" height="3.7"/>
			
				<rect id="XMLID_414_" x="233.2" y="328.4" transform="matrix(-0.997 -7.766717e-02 7.766717e-02 -0.997 452.565 678.0591)" fill="#D1D3D4" width="12.6" height="3.7"/>
			
				<rect id="XMLID_413_" x="233.7" y="322.1" transform="matrix(-0.997 -7.766717e-02 7.766717e-02 -0.997 454.0251 665.5953)" fill="#D1D3D4" width="12.6" height="3.7"/>
			
				<rect id="XMLID_412_" x="234.6" y="309.6" transform="matrix(-0.997 -7.766717e-02 7.766717e-02 -0.997 456.9459 640.6631)" fill="#939598" width="12.6" height="3.7"/>
			
				<rect id="XMLID_411_" x="249.8" y="304.5" transform="matrix(-0.997 -7.766717e-02 7.766717e-02 -0.997 487.5775 631.611)" fill="#D1D3D4" width="12.6" height="3.7"/>
			
				<rect id="XMLID_410_" x="248.8" y="317" transform="matrix(-0.997 -7.766717e-02 7.766717e-02 -0.997 484.6563 656.5466)" fill="#D1D3D4" width="12.6" height="3.7"/>
			
				<rect id="XMLID_409_" x="247.8" y="329.5" transform="matrix(-0.997 -7.766717e-02 7.766717e-02 -0.997 481.7358 681.4765)" fill="#D1D3D4" width="12.6" height="3.7"/>
			
				<rect id="XMLID_408_" x="248.3" y="323.3" transform="matrix(-0.997 -7.766717e-02 7.766717e-02 -0.997 483.1959 669.0127)" fill="#D1D3D4" width="12.6" height="3.7"/>
			
				<rect id="XMLID_407_" x="249.3" y="310.8" transform="matrix(-0.997 -7.766717e-02 7.766717e-02 -0.997 486.1167 644.0805)" fill="#D1D3D4" width="12.6" height="3.7"/>
		</g>
	</g>
	
		<rect id="XMLID_405_" x="167.8" y="219.5" transform="matrix(0.9991 -4.198016e-02 4.198016e-02 0.9991 -11.3382 9.0722)" fill-rule="evenodd" clip-rule="evenodd" fill="#BCBEC0" width="85" height="110"/>
	<g id="XMLID_372_">
		
			<rect id="XMLID_37_" x="162.6" y="216.2" transform="matrix(0.9914 -0.1306 0.1306 0.9914 -33.6526 29.1103)" fill-rule="evenodd" clip-rule="evenodd" fill="#FFFFFF" width="85" height="110"/>
		<g id="XMLID_400_">
			<path id="XMLID_404_" fill="#D1D3D4" d="M191.6,245.8c-0.2,1.2-0.7,2.3-1.4,3.3l7.1,7.6c2.7-3,4.4-6.9,4.7-11.1L191.6,245.8z"/>
			<path id="XMLID_403_" fill="#939598" d="M184.1,236c3.6,0.3,6.6,2.9,7.5,6.4l10.4-0.2c0-0.1,0-0.2,0-0.3
				c-1.3-9.6-9.7-16.6-19.2-16.2L184.1,236z"/>
			<path id="XMLID_402_" fill="#939598" d="M176.7,239.5c1-1.4,2.4-2.5,4.1-3.1l-1.4-10.3c-5.4,1.2-9.8,4.7-12.3,9.4L176.7,239.5z"
				/>
			<path id="XMLID_401_" fill="#D1D3D4" d="M187.8,251.4c-1,0.6-2.1,1-3.2,1.2c-4.6,0.6-8.7-2.6-9.3-7.2c-0.1-0.9,0-1.8,0.1-2.7
				l-9.6-4.1c-0.8,2.5-1.1,5.3-0.8,8.1c1.3,10.2,10.7,17.4,20.9,16c3.4-0.4,6.5-1.8,9-3.8L187.8,251.4z"/>
		</g>
		<g id="XMLID_387_">
			
				<rect id="XMLID_399_" x="202.7" y="301" transform="matrix(-0.9914 0.1306 -0.1306 -0.9914 486.8154 573.6754)" fill="#939598" width="43.8" height="3.7"/>
			
				<rect id="XMLID_398_" x="204.3" y="313.4" transform="matrix(-0.9914 0.1306 -0.1306 -0.9914 491.7077 598.2589)" fill="#D1D3D4" width="43.8" height="3.7"/>
			
				<rect id="XMLID_397_" x="203.5" y="307.2" transform="matrix(-0.9914 0.1306 -0.1306 -0.9914 489.2618 585.9683)" fill="#939598" width="43.8" height="3.7"/>
			
				<rect id="XMLID_396_" x="201.9" y="294.7" transform="matrix(-0.9914 0.1306 -0.1306 -0.9914 484.3691 561.3825)" fill="#D1D3D4" width="43.8" height="3.7"/>
			
				<rect id="XMLID_395_" x="172.8" y="307" transform="matrix(-0.9914 0.1306 -0.1306 -0.9914 396.9462 591.5598)" fill="#939598" width="12.6" height="3.7"/>
			
				<rect id="XMLID_394_" x="174.4" y="319.4" transform="matrix(-0.9914 0.1306 -0.1306 -0.9914 401.8385 616.1433)" fill="#D1D3D4" width="12.6" height="3.7"/>
			
				<rect id="XMLID_393_" x="173.6" y="313.2" transform="matrix(-0.9914 0.1306 -0.1306 -0.9914 399.3926 603.8527)" fill="#D1D3D4" width="12.6" height="3.7"/>
			
				<rect id="XMLID_392_" x="172" y="300.7" transform="matrix(-0.9914 0.1306 -0.1306 -0.9914 394.4999 579.267)" fill="#939598" width="12.6" height="3.7"/>
			
				<rect id="XMLID_391_" x="187.3" y="305" transform="matrix(-0.9914 0.1306 -0.1306 -0.9914 425.7117 585.8354)" fill="#D1D3D4" width="12.6" height="3.7"/>
			
				<rect id="XMLID_390_" x="189" y="317.5" transform="matrix(-0.9914 0.1306 -0.1306 -0.9914 430.6039 610.4188)" fill="#D1D3D4" width="12.6" height="3.7"/>
			
				<rect id="XMLID_389_" x="188.2" y="311.3" transform="matrix(-0.9914 0.1306 -0.1306 -0.9914 428.158 598.1282)" fill="#D1D3D4" width="12.6" height="3.7"/>
			
				<rect id="XMLID_388_" x="186.5" y="298.8" transform="matrix(-0.9914 0.1306 -0.1306 -0.9914 423.2653 573.5425)" fill="#D1D3D4" width="12.6" height="3.7"/>
		</g>
		<g id="XMLID_380_">
			
				<rect id="XMLID_386_" x="177.1" y="282.4" transform="matrix(0.9914 -0.1306 0.1306 0.9914 -35.986 26.1009)" fill-rule="evenodd" clip-rule="evenodd" fill="#939598" width="7.8" height="10.1"/>
			
				<rect id="XMLID_385_" x="187.2" y="276.7" transform="matrix(0.9914 -0.1306 0.1306 0.9914 -35.4407 27.3819)" fill-rule="evenodd" clip-rule="evenodd" fill="#939598" width="7.8" height="14.5"/>
			
				<rect id="XMLID_384_" x="197.1" y="268.7" transform="matrix(0.9914 -0.1306 0.1306 0.9914 -34.7462 28.6332)" fill-rule="evenodd" clip-rule="evenodd" fill="#939598" width="7.8" height="21.2"/>
			
				<rect id="XMLID_383_" x="208.1" y="278.3" transform="matrix(0.9914 -0.1306 0.1306 0.9914 -35.188 30.1107)" fill-rule="evenodd" clip-rule="evenodd" fill="#939598" width="7.8" height="10.1"/>
			
				<rect id="XMLID_382_" x="217.3" y="260.1" transform="matrix(0.9914 -0.1306 0.1306 0.9914 -33.8361 31.2312)" fill-rule="evenodd" clip-rule="evenodd" fill="#939598" width="7.8" height="27.1"/>
			
				<rect id="XMLID_381_" x="229.1" y="280.7" transform="matrix(0.9914 -0.1306 0.1306 0.9914 -34.9841 32.8492)" fill-rule="evenodd" clip-rule="evenodd" fill="#939598" width="7.8" height="5"/>
		</g>
		<g id="XMLID_373_">
			
				<rect id="XMLID_379_" x="206.1" y="227.1" transform="matrix(-0.9914 0.1306 -0.1306 -0.9914 470.53 425.9231)" fill="#D1D3D4" width="30.4" height="2.6"/>
			
				<rect id="XMLID_378_" x="206.7" y="231.2" transform="matrix(-0.9914 0.1306 -0.1306 -0.9914 472.164 434.1338)" fill="#D1D3D4" width="30.4" height="2.6"/>
			
				<rect id="XMLID_377_" x="207.2" y="235.4" transform="matrix(-0.9914 0.1306 -0.1306 -0.9914 473.7979 442.3445)" fill="#D1D3D4" width="30.4" height="2.6"/>
			
				<rect id="XMLID_376_" x="207.7" y="239.5" transform="matrix(-0.9914 0.1306 -0.1306 -0.9914 475.4319 450.5553)" fill="#D1D3D4" width="30.4" height="2.6"/>
			
				<rect id="XMLID_375_" x="208.3" y="243.7" transform="matrix(-0.9914 0.1306 -0.1306 -0.9914 477.0659 458.766)" fill="#D1D3D4" width="30.4" height="2.6"/>
			
				<rect id="XMLID_374_" x="208.9" y="248.6" transform="matrix(-0.9914 0.1306 -0.1306 -0.9914 467.2568 469.254)" fill="#D1D3D4" width="18.7" height="2.6"/>
		</g>
	</g>
	<g id="XMLID_557_">
		
			<rect id="XMLID_599_" x="66.4" y="227.2" transform="matrix(-0.9506 0.3104 -0.3104 -0.9506 299.9421 516.7397)" fill-rule="evenodd" clip-rule="evenodd" fill="#FFFFFF" width="85" height="110"/>
		<g id="XMLID_588_">
			<polyline id="XMLID_598_" fill="none" stroke="#939598" stroke-width="1.75" stroke-miterlimit="10" points="119.9,241.1 
				107.7,247.2 90.9,243.6 77,252.9 			"/>
			<circle id="XMLID_597_" fill="#939598" cx="107.7" cy="247.2" r="2"/>
			<circle id="XMLID_596_" fill="#939598" cx="90.9" cy="243.6" r="2"/>
			<circle id="XMLID_595_" fill="#939598" cx="77" cy="252.9" r="2"/>
			<circle id="XMLID_594_" fill="#939598" cx="119.9" cy="241.1" r="2"/>
			<polyline id="XMLID_593_" fill="none" stroke="#939598" stroke-width="1.75" stroke-miterlimit="10" points="117.3,258.4 
				98.8,254.6 88.6,264.5 72.9,260.7 			"/>
			<circle id="XMLID_592_" fill="#939598" cx="98.8" cy="254.6" r="2"/>
			<circle id="XMLID_591_" fill="#939598" cx="88.6" cy="264.5" r="2"/>
			<circle id="XMLID_590_" fill="#939598" cx="72.9" cy="260.7" r="2"/>
			<circle id="XMLID_589_" fill="#939598" cx="117.3" cy="258.4" r="2"/>
		</g>
		<g id="XMLID_581_">
			
				<rect id="XMLID_587_" x="118.1" y="300.1" transform="matrix(0.9506 -0.3104 0.3104 0.9506 -86.8917 56.7799)" fill="#D1D3D4" width="33.8" height="2.6"/>
			
				<rect id="XMLID_586_" x="119.4" y="304.1" transform="matrix(0.9506 -0.3104 0.3104 0.9506 -88.0652 57.3811)" fill="#D1D3D4" width="33.8" height="2.6"/>
			
				<rect id="XMLID_585_" x="120.7" y="308" transform="matrix(0.9506 -0.3104 0.3104 0.9506 -89.2387 57.9823)" fill="#D1D3D4" width="33.8" height="2.6"/>
			
				<rect id="XMLID_584_" x="122" y="312" transform="matrix(0.9506 -0.3104 0.3104 0.9506 -90.4122 58.5835)" fill="#D1D3D4" width="33.8" height="2.6"/>
			
				<rect id="XMLID_583_" x="123.3" y="316" transform="matrix(0.9506 -0.3104 0.3104 0.9506 -91.5857 59.1847)" fill="#D1D3D4" width="33.8" height="2.6"/>
			
				<rect id="XMLID_582_" x="137.2" y="318" transform="matrix(0.9506 -0.3104 0.3104 0.9506 -91.8284 61.6027)" fill="#D1D3D4" width="20.8" height="2.6"/>
		</g>
		<g id="XMLID_574_">
			
				<rect id="XMLID_580_" x="79.7" y="312.6" transform="matrix(0.9506 -0.3104 0.3104 0.9506 -92.6748 45.4915)" fill="#D1D3D4" width="33.8" height="2.6"/>
			
				<rect id="XMLID_579_" x="81" y="316.6" transform="matrix(0.9506 -0.3104 0.3104 0.9506 -93.8483 46.0927)" fill="#D1D3D4" width="33.8" height="2.6"/>
			
				<rect id="XMLID_578_" x="82.3" y="320.6" transform="matrix(0.9506 -0.3104 0.3104 0.9506 -95.0218 46.6939)" fill="#D1D3D4" width="33.8" height="2.6"/>
			
				<rect id="XMLID_577_" x="83.6" y="324.6" transform="matrix(0.9506 -0.3104 0.3104 0.9506 -96.1954 47.2952)" fill="#D1D3D4" width="33.8" height="2.6"/>
			
				<rect id="XMLID_576_" x="84.9" y="328.6" transform="matrix(0.9506 -0.3104 0.3104 0.9506 -97.3689 47.8964)" fill="#D1D3D4" width="33.8" height="2.6"/>
			
				<rect id="XMLID_575_" x="106.8" y="329.3" transform="matrix(0.9506 -0.3104 0.3104 0.9506 -97.0284 51.4527)" fill="#D1D3D4" width="12.6" height="2.6"/>
		</g>
		<g id="XMLID_558_">
			
				<rect id="XMLID_573_" x="68.7" y="277.5" transform="matrix(0.9506 -0.3104 0.3104 0.9506 -82.2355 41.9153)" fill="#D1D3D4" width="43.8" height="3.7"/>
			
				<rect id="XMLID_572_" x="72.6" y="289.4" transform="matrix(0.9506 -0.3104 0.3104 0.9506 -85.7498 43.7157)" fill="#939598" width="43.8" height="3.7"/>
			
				<rect id="XMLID_571_" x="76.5" y="301.4" transform="matrix(0.9506 -0.3104 0.3104 0.9506 -89.2634 45.5158)" fill="#D1D3D4" width="43.8" height="3.7"/>
			
				<rect id="XMLID_570_" x="74.5" y="295.4" transform="matrix(0.9506 -0.3104 0.3104 0.9506 -87.5068 44.6158)" fill="#939598" width="43.8" height="3.7"/>
			
				<rect id="XMLID_569_" x="70.6" y="283.5" transform="matrix(0.9506 -0.3104 0.3104 0.9506 -83.9929 42.8156)" fill="#D1D3D4" width="43.8" height="3.7"/>
			
				<rect id="XMLID_568_" x="127.9" y="263.2" transform="matrix(0.9506 -0.3104 0.3104 0.9506 -75.6552 54.7597)" fill="#D1D3D4" width="12.6" height="3.7"/>
			
				<rect id="XMLID_567_" x="131.8" y="275.2" transform="matrix(0.9506 -0.3104 0.3104 0.9506 -79.1695 56.5601)" fill="#939598" width="12.6" height="3.7"/>
			
				<rect id="XMLID_566_" x="135.7" y="287.1" transform="matrix(0.9506 -0.3104 0.3104 0.9506 -82.6831 58.3602)" fill="#D1D3D4" width="12.6" height="3.7"/>
			
				<rect id="XMLID_565_" x="133.8" y="281.2" transform="matrix(0.9506 -0.3104 0.3104 0.9506 -80.9265 57.4602)" fill="#D1D3D4" width="12.6" height="3.7"/>
			
				<rect id="XMLID_564_" x="129.9" y="269.2" transform="matrix(0.9506 -0.3104 0.3104 0.9506 -77.4126 55.66)" fill="#939598" width="12.6" height="3.7"/>
			
				<rect id="XMLID_563_" x="114" y="267.8" transform="matrix(0.9506 -0.3104 0.3104 0.9506 -77.7614 50.6484)" fill="#D1D3D4" width="12.6" height="3.7"/>
			
				<rect id="XMLID_562_" x="117.9" y="279.7" transform="matrix(0.9506 -0.3104 0.3104 0.9506 -81.2758 52.4489)" fill="#D1D3D4" width="12.6" height="3.7"/>
			
				<rect id="XMLID_561_" x="121.7" y="291.7" transform="matrix(0.9506 -0.3104 0.3104 0.9506 -84.7893 54.2489)" fill="#D1D3D4" width="12.6" height="3.7"/>
			
				<rect id="XMLID_560_" x="119.8" y="285.7" transform="matrix(0.9506 -0.3104 0.3104 0.9506 -83.0327 53.349)" fill="#D1D3D4" width="12.6" height="3.7"/>
			
				<rect id="XMLID_559_" x="115.9" y="273.8" transform="matrix(0.9506 -0.3104 0.3104 0.9506 -79.5188 51.5488)" fill="#D1D3D4" width="12.6" height="3.7"/>
		</g>
	</g>
	
		<rect id="XMLID_556_" x="90.2" y="218" transform="matrix(0.996 8.884931e-02 -8.884931e-02 0.996 24.7807 -10.707)" fill-rule="evenodd" clip-rule="evenodd" fill="#BCBEC0" width="85" height="110"/>
	<g id="XMLID_492_">
		<rect id="XMLID_186_" x="85.6" y="213.3" fill-rule="evenodd" clip-rule="evenodd" fill="#FFFFFF" width="85" height="110"/>
		<g id="XMLID_493_">
			<rect id="XMLID_555_" x="121.3" y="219.6" fill="#D1D3D4" width="43.8" height="3.7"/>
			<rect id="XMLID_554_" x="121.3" y="232.2" fill="#939598" width="43.8" height="3.7"/>
			<rect id="XMLID_553_" x="121.3" y="244.8" fill="#D1D3D4" width="43.8" height="3.7"/>
			<rect id="XMLID_552_" x="121.3" y="238.5" fill="#939598" width="43.8" height="3.7"/>
			<rect id="XMLID_551_" x="121.3" y="225.9" fill="#D1D3D4" width="43.8" height="3.7"/>
			<rect id="XMLID_550_" x="91" y="219.6" fill="#D1D3D4" width="12.6" height="3.7"/>
			<rect id="XMLID_549_" x="91" y="232.2" fill="#939598" width="12.6" height="3.7"/>
			<rect id="XMLID_548_" x="91" y="244.8" fill="#D1D3D4" width="12.6" height="3.7"/>
			<rect id="XMLID_547_" x="91" y="238.5" fill="#D1D3D4" width="12.6" height="3.7"/>
			<rect id="XMLID_546_" x="91" y="225.9" fill="#939598" width="12.6" height="3.7"/>
			<rect id="XMLID_545_" x="105.7" y="219.6" fill="#D1D3D4" width="12.6" height="3.7"/>
			<rect id="XMLID_544_" x="105.7" y="232.2" fill="#D1D3D4" width="12.6" height="3.7"/>
			<rect id="XMLID_543_" x="105.7" y="244.8" fill="#D1D3D4" width="12.6" height="3.7"/>
			<rect id="XMLID_542_" x="105.7" y="238.5" fill="#D1D3D4" width="12.6" height="3.7"/>
			<rect id="XMLID_541_" x="105.7" y="225.9" fill="#D1D3D4" width="12.6" height="3.7"/>
			<rect id="XMLID_540_" x="121.3" y="253.9" fill="#D1D3D4" width="43.8" height="3.7"/>
			<rect id="XMLID_539_" x="121.3" y="266.4" fill="#939598" width="43.8" height="3.7"/>
			<rect id="XMLID_538_" x="121.3" y="279" fill="#D1D3D4" width="43.8" height="3.7"/>
			<rect id="XMLID_537_" x="121.3" y="272.7" fill="#939598" width="43.8" height="3.7"/>
			<rect id="XMLID_536_" x="121.3" y="260.1" fill="#D1D3D4" width="43.8" height="3.7"/>
			<rect id="XMLID_535_" x="91" y="253.9" fill="#D1D3D4" width="12.6" height="3.7"/>
			<rect id="XMLID_534_" x="91" y="266.4" fill="#939598" width="12.6" height="3.7"/>
			<rect id="XMLID_533_" x="91" y="279" fill="#D1D3D4" width="12.6" height="3.7"/>
			<rect id="XMLID_532_" x="91" y="272.7" fill="#D1D3D4" width="12.6" height="3.7"/>
			<rect id="XMLID_531_" x="91" y="260.1" fill="#939598" width="12.6" height="3.7"/>
			<rect id="XMLID_530_" x="105.7" y="253.9" fill="#D1D3D4" width="12.6" height="3.7"/>
			<rect id="XMLID_529_" x="105.7" y="266.4" fill="#D1D3D4" width="12.6" height="3.7"/>
			<rect id="XMLID_528_" x="105.7" y="279" fill="#D1D3D4" width="12.6" height="3.7"/>
			<rect id="XMLID_527_" x="105.7" y="272.7" fill="#D1D3D4" width="12.6" height="3.7"/>
			<rect id="XMLID_490_" x="105.7" y="260.1" fill="#D1D3D4" width="12.6" height="3.7"/>
			<rect id="XMLID_489_" x="121.3" y="288.1" fill="#D1D3D4" width="43.8" height="3.7"/>
			<rect id="XMLID_371_" x="121.3" y="300.6" fill="#939598" width="43.8" height="3.7"/>
			<rect id="XMLID_370_" x="121.3" y="313.2" fill="#D1D3D4" width="43.8" height="3.7"/>
			<rect id="XMLID_368_" x="121.3" y="306.9" fill="#939598" width="43.8" height="3.7"/>
			<rect id="XMLID_367_" x="121.3" y="294.4" fill="#D1D3D4" width="43.8" height="3.7"/>
			<rect id="XMLID_366_" x="91" y="288.1" fill="#D1D3D4" width="12.6" height="3.7"/>
			<rect id="XMLID_365_" x="91" y="300.6" fill="#939598" width="12.6" height="3.7"/>
			<rect id="XMLID_501_" x="91" y="313.2" fill="#D1D3D4" width="12.6" height="3.7"/>
			<rect id="XMLID_500_" x="91" y="306.9" fill="#D1D3D4" width="12.6" height="3.7"/>
			<rect id="XMLID_499_" x="91" y="294.4" fill="#939598" width="12.6" height="3.7"/>
			<rect id="XMLID_498_" x="105.7" y="288.1" fill="#D1D3D4" width="12.6" height="3.7"/>
			<rect id="XMLID_497_" x="105.7" y="300.6" fill="#D1D3D4" width="12.6" height="3.7"/>
			<rect id="XMLID_496_" x="105.7" y="313.2" fill="#D1D3D4" width="12.6" height="3.7"/>
			<rect id="XMLID_495_" x="105.7" y="306.9" fill="#D1D3D4" width="12.6" height="3.7"/>
			<rect id="XMLID_494_" x="105.7" y="294.4" fill="#D1D3D4" width="12.6" height="3.7"/>
		</g>
	</g>
	<g id="XMLID_289_">
		<g id="XMLID_763_">
			<g id="XMLID_751_">
				<rect id="XMLID_761_" x="79.9" y="64.4" fill-rule="evenodd" clip-rule="evenodd" fill="#BCBEC0" width="85" height="86.2"/>
				<rect id="XMLID_760_" x="78.1" y="64.4" fill-rule="evenodd" clip-rule="evenodd" fill="#E2E3E4" width="85" height="86.2"/>
				<rect id="XMLID_759_" x="78.1" y="64.4" fill-rule="evenodd" clip-rule="evenodd" fill="#B1B3B6" width="85" height="11.8"/>
				<rect id="XMLID_756_" x="98.6" y="68.3" fill="#FFFFFF" width="59" height="3.7"/>
				<circle id="XMLID_755_" fill="#FFFFFF" cx="93.5" cy="70" r="1.7"/>
				<circle id="XMLID_754_" fill="#FFFFFF" cx="88.7" cy="70" r="1.7"/>
				<circle id="XMLID_752_" fill="#FFFFFF" cx="84" cy="70" r="1.7"/>
			</g>
			<g id="XMLID_203_">
				<rect id="XMLID_710_" x="73.5" y="70.8" fill-rule="evenodd" clip-rule="evenodd" fill="#BCBEC0" width="85" height="86.2"/>
				<rect id="XMLID_678_" x="71.7" y="70.8" fill-rule="evenodd" clip-rule="evenodd" fill="#EBEBEC" width="85" height="86.2"/>
				<rect id="XMLID_283_" x="71.7" y="70.8" fill-rule="evenodd" clip-rule="evenodd" fill="#BCBEC0" width="85" height="11.8"/>
				<rect id="XMLID_210_" x="92.2" y="74.7" fill="#FFFFFF" width="59" height="3.7"/>
				<circle id="XMLID_209_" fill="#FFFFFF" cx="87.1" cy="76.4" r="1.7"/>
				<circle id="XMLID_208_" fill="#FFFFFF" cx="82.3" cy="76.4" r="1.7"/>
				<circle id="XMLID_207_" fill="#FFFFFF" cx="77.6" cy="76.4" r="1.7"/>
			</g>
			<g id="XMLID_1_">
				<rect id="XMLID_830_" x="67.1" y="77.2" fill-rule="evenodd" clip-rule="evenodd" fill="#BCBEC0" width="85" height="86.2"/>
				<rect id="XMLID_829_" x="65.3" y="77.2" fill-rule="evenodd" clip-rule="evenodd" fill="#F1F2F2" width="85" height="86.2"/>
				<rect id="XMLID_828_" x="65.3" y="77.2" fill-rule="evenodd" clip-rule="evenodd" fill="#C7C8CA" width="85" height="11.8"/>
				<rect id="XMLID_771_" x="85.8" y="81.1" fill="#FFFFFF" width="59" height="3.7"/>
				<circle id="XMLID_206_" fill="#FFFFFF" cx="80.7" cy="82.8" r="1.7"/>
				<circle id="XMLID_205_" fill="#FFFFFF" cx="75.9" cy="82.8" r="1.7"/>
				<circle id="XMLID_204_" fill="#FFFFFF" cx="71.2" cy="82.8" r="1.7"/>
			</g>
			<g id="XMLID_38_">
				<rect id="XMLID_213_" x="60.8" y="83.5" fill-rule="evenodd" clip-rule="evenodd" fill="#BCBEC0" width="85" height="86.2"/>
				<g id="XMLID_157_">
					<rect id="XMLID_252_" x="59" y="83.5" fill-rule="evenodd" clip-rule="evenodd" fill="#FFFFFF" width="85" height="86.2"/>
					<rect id="XMLID_158_" x="59" y="83.5" fill-rule="evenodd" clip-rule="evenodd" fill="#D1D3D4" width="85" height="11.8"/>
					<g id="XMLID_198_">
						<rect id="XMLID_211_" x="64.2" y="134" fill="#D1D3D4" width="74.4" height="3.7"/>
						<rect id="XMLID_200_" x="64.2" y="127.7" fill="#D1D3D4" width="74.4" height="3.7"/>
						<rect id="XMLID_199_" x="64.4" y="121.4" fill="#BCBEC0" width="12.6" height="3.7"/>
					</g>
					<rect id="XMLID_197_" x="79.5" y="87.4" fill="#FFFFFF" width="59" height="3.7"/>
					<g id="XMLID_191_">
						<rect id="XMLID_196_" x="64.2" y="156.7" fill="#D1D3D4" width="74.4" height="3.7"/>
						<rect id="XMLID_194_" x="64.2" y="150.4" fill="#D1D3D4" width="74.4" height="3.7"/>
						<rect id="XMLID_192_" x="64.4" y="144.2" fill="#BCBEC0" width="12.6" height="3.7"/>
					</g>
					<g id="XMLID_175_">
						<path id="XMLID_189_" fill="#0072BC" d="M78.7,114.5c-1.5,0-2.8-0.5-3.1-0.8c-0.2-0.2-0.2-0.4-0.2-0.9c0-0.1,0-1.1,0.1-1.8
							c0-0.1,0-0.4,0.3-0.4c0.2,0,0.2,0.2,0.3,0.3c0.4,1.7,1.7,3,3.1,3c0.8,0,2.3-0.6,2.3-2.2c0-1.5-1.3-2.3-2.8-2.9
							c-1.6-0.7-3.1-1.5-3.1-3.6c0-1.8,1.4-3.4,3.9-3.4c1.1,0,2.3,0.3,2.6,0.5c0.2,0.1,0.2,0.3,0.2,2c0,0.4,0,0.6-0.3,0.6
							c-0.2,0-0.3-0.1-0.5-0.7c-0.2-0.8-0.6-1.9-2.2-1.9c-1.6,0-2.1,1.1-2.1,1.9c0,1.4,1.1,1.9,2.7,2.5c1.1,0.5,3.2,1.4,3.2,3.7
							C82.9,112.7,81.3,114.5,78.7,114.5z"/>
						<path id="XMLID_185_" fill="#ED1C24" d="M86.9,108.5c-0.3,0-0.5,0-0.5,1c0,2.2,1.5,3.9,3.5,3.9c0.9,0,1.7-0.3,2.2-0.8
							c0.3-0.3,0.3-0.3,0.4-0.3c0.1,0,0.2,0.1,0.2,0.2c0,0.3-1.4,2-3.9,2c-2.6,0-4.6-1.7-4.6-4.4c0-2.9,2.2-4.8,4.9-4.8
							c3,0,3.6,2.2,3.6,2.9c0,0.4-0.2,0.4-0.5,0.4H86.9z M89.3,107.9c0.8,0,1.3-0.4,1.3-0.9c0-1.2-1.3-1.2-1.6-1.2
							c-1.8,0-2.4,1.6-2.4,1.9c0,0.2,0.1,0.2,0.5,0.2H89.3z"/>
						<path id="XMLID_182_" fill="#F2B63E" d="M98.4,107.4c0-0.7-0.1-1.6-1-1.6c-1.1,0-1.6,1.2-1.7,1.7c-0.3,0.9-1.5,1-1.5,1
							c-0.2,0-0.4-0.1-0.4-0.4c0-0.7,1.2-2.7,4.2-2.7c1.8,0,2.3,0.6,2.3,1.4v5.5c0,0.6,0.1,1.1,0.6,1.1c0.2,0,0.4-0.1,0.6-0.2
							c0.2-0.2,0.2-0.2,0.3-0.2c0.1,0,0.2,0.1,0.2,0.2c0,0.5-1.2,1.4-2.1,1.4c-0.8,0-1.1-0.6-1.4-1.1c-0.2-0.4-0.2-0.4-0.3-0.4
							c0,0-0.1,0.1-0.1,0.1c-0.8,0.7-1.9,1.4-2.8,1.4c-1.4,0-1.5-1.4-1.5-1.7c0-1.4,1-2.3,4.1-3.5c0.5-0.2,0.5-0.4,0.5-0.7V107.4z
							 M98.4,110.1c0-0.2-0.1-0.2-0.2-0.2c-0.3,0-0.8,0.3-1.1,0.4c-1.2,0.6-1.2,1.3-1.2,1.7c0,0.9,0.5,1.3,0.9,1.3
							c0.9,0,1.7-0.7,1.7-2.1V110.1z"/>
						<path id="XMLID_180_" fill="#0072BC" d="M105.7,106.4c0,0.1,0,0.3,0.1,0.3c0.1,0,0.2-0.1,0.2-0.2c0-0.1,1-1.2,2.1-1.2
							c0.7,0,1.4,0.4,1.4,1.2c0,0.8-0.7,1.1-1.2,1.1c-0.4,0-0.7-0.2-1-0.5c-0.3-0.4-0.5-0.4-0.6-0.4c-0.4,0-1,0.3-1,1.9v3.7
							c0,0.8,0,1.3,1,1.4c0.4,0,0.7,0,0.7,0.3c0,0.3-0.3,0.3-0.4,0.3c-0.3,0-1.9-0.1-2.3-0.1c-0.3,0-1.7,0.1-2,0.1
							c-0.1,0-0.3,0-0.3-0.3c0-0.2,0.1-0.3,0.6-0.3c0.9-0.1,0.9-0.3,0.9-1.4v-3.8c0-1.2-0.3-1.3-1-1.3c-0.1,0-0.3,0-0.3-0.2
							c0-0.1,0.1-0.2,0.3-0.3c0.5-0.2,1.6-0.8,2-1.2c0,0,0.5-0.5,0.6-0.5c0.2,0,0.2,0.2,0.2,0.3V106.4z"/>
						<path id="XMLID_178_" fill="#ED1C24" d="M115.5,113.5c1,0,1.8-0.4,2.2-0.7c0,0,0.1-0.1,0.2-0.1s0.2,0.1,0.2,0.2
							c0,0.4-1.5,1.7-3.6,1.7c-2.2,0-4.9-1.3-4.9-4.4c0-3.2,2.9-4.9,5.3-4.9c0.3,0,3,0.2,3,1.3c0,0.3-0.1,1.4-0.6,1.4
							c-0.3,0-0.6-0.3-1.2-1.2c-0.6-0.8-1-1.1-1.5-1.1c-0.9,0-2.9,1-2.9,4.1C111.8,111.9,113.7,113.5,115.5,113.5z"/>
						<path id="XMLID_176_" fill="#39B54A" d="M120.1,104.4c0-1.4,0-1.6-1-1.7c-0.2,0-0.3-0.1-0.3-0.3c0-0.2,0.1-0.3,0.3-0.3
							c1-0.2,1.6-0.4,2.1-0.7c0.3-0.1,0.5-0.3,0.6-0.3c0.3,0,0.3,0.2,0.3,0.3c0,0.1-0.1,0.2-0.1,1.3v3.7c0,0.2,0,0.3,0.1,0.3
							c0.1,0,0.1-0.1,0.1-0.1c1.2-1.2,2-1.4,2.9-1.4c2.8,0,2.8,2.1,2.8,2.9v4.2c0,1.1,0,1.3,0.8,1.5c0.5,0.1,0.6,0.2,0.6,0.3
							c0,0.2-0.1,0.2-0.6,0.2c-0.3,0-0.5-0.1-1.8-0.1c-0.8,0-1.7,0.1-2,0.1c-0.1,0-0.3,0-0.3-0.3c0-0.2,0.1-0.3,0.6-0.3
							c0.8-0.1,0.8-0.3,0.8-1.4v-3.9c0-0.6,0-2.2-1.8-2.2c-0.2,0-2.3,0-2.3,2v4.1c0,1.1,0,1.3,0.8,1.4c0.5,0.1,0.6,0.2,0.6,0.3
							c0,0.2-0.2,0.2-0.3,0.2c-0.3,0-1.2-0.1-2.1-0.1c-0.8,0-1.7,0.1-2,0.1c-0.1,0-0.3,0-0.3-0.3c0-0.2,0.1-0.3,0.6-0.3
							c0.8-0.1,0.8-0.3,0.8-1.4V104.4z"/>
					</g>
					<circle id="XMLID_173_" fill="#FFFFFF" cx="74.3" cy="89.1" r="1.7"/>
					<circle id="XMLID_161_" fill="#FFFFFF" cx="69.6" cy="89.1" r="1.7"/>
					<circle id="XMLID_159_" fill="#FFFFFF" cx="64.9" cy="89.1" r="1.7"/>
				</g>
			</g>
		</g>
		<g id="XMLID_288_">
			<g id="XMLID_253_">
				<rect id="XMLID_912_" x="172.5" y="64.4" fill-rule="evenodd" clip-rule="evenodd" fill="#E2E3E4" width="85" height="86.2"/>
				<rect id="XMLID_911_" x="172.5" y="64.4" fill-rule="evenodd" clip-rule="evenodd" fill="#B1B3B6" width="85" height="11.8"/>
				<rect id="XMLID_910_" x="193" y="68.3" fill="#FFFFFF" width="59" height="3.7"/>
				<circle id="XMLID_909_" fill="#FFFFFF" cx="187.8" cy="70" r="1.7"/>
				<circle id="XMLID_908_" fill="#FFFFFF" cx="183.1" cy="70" r="1.7"/>
				<circle id="XMLID_907_" fill="#FFFFFF" cx="178.4" cy="70" r="1.7"/>
			</g>
			<g id="XMLID_255_">
				<rect id="XMLID_904_" x="172.5" y="70.8" fill-rule="evenodd" clip-rule="evenodd" fill="#EBEBEC" width="85" height="86.2"/>
				<rect id="XMLID_903_" x="172.5" y="70.8" fill-rule="evenodd" clip-rule="evenodd" fill="#BCBEC0" width="85" height="11.8"/>
				<rect id="XMLID_902_" x="193" y="74.7" fill="#FFFFFF" width="59" height="3.7"/>
				<circle id="XMLID_901_" fill="#FFFFFF" cx="187.8" cy="76.4" r="1.7"/>
				<circle id="XMLID_900_" fill="#FFFFFF" cx="183.1" cy="76.4" r="1.7"/>
				<circle id="XMLID_899_" fill="#FFFFFF" cx="178.4" cy="76.4" r="1.7"/>
			</g>
			<g id="XMLID_256_">
				<rect id="XMLID_896_" x="172.5" y="77.2" fill-rule="evenodd" clip-rule="evenodd" fill="#F1F2F2" width="85" height="86.2"/>
				<rect id="XMLID_895_" x="172.5" y="77.2" fill-rule="evenodd" clip-rule="evenodd" fill="#C7C8CA" width="85" height="11.8"/>
				<rect id="XMLID_882_" x="193" y="81.1" fill="#FFFFFF" width="59" height="3.7"/>
				<circle id="XMLID_881_" fill="#FFFFFF" cx="187.8" cy="82.8" r="1.7"/>
				<circle id="XMLID_880_" fill="#FFFFFF" cx="183.1" cy="82.8" r="1.7"/>
				<circle id="XMLID_879_" fill="#FFFFFF" cx="178.4" cy="82.8" r="1.7"/>
			</g>
			<g id="XMLID_257_">
				<rect id="XMLID_287_" x="172.5" y="83.5" fill-rule="evenodd" clip-rule="evenodd" fill="#FFFFFF" width="85" height="86.2"/>
				<rect id="XMLID_286_" x="172.5" y="83.5" fill-rule="evenodd" clip-rule="evenodd" fill="#D1D3D4" width="85" height="11.8"/>
				<g id="XMLID_281_">
					<rect id="XMLID_285_" x="177.7" y="134" fill="#D1D3D4" width="74.4" height="3.7"/>
					<rect id="XMLID_284_" x="177.7" y="127.7" fill="#D1D3D4" width="74.4" height="3.7"/>
					<rect id="XMLID_282_" x="177.9" y="121.4" fill="#BCBEC0" width="12.6" height="3.7"/>
				</g>
				<rect id="XMLID_280_" x="193" y="87.4" fill="#FFFFFF" width="59" height="3.7"/>
				<g id="XMLID_276_">
					<rect id="XMLID_279_" x="177.7" y="156.7" fill="#D1D3D4" width="74.4" height="3.7"/>
					<rect id="XMLID_278_" x="177.7" y="150.4" fill="#D1D3D4" width="74.4" height="3.7"/>
					<rect id="XMLID_277_" x="177.9" y="144.2" fill="#BCBEC0" width="12.6" height="3.7"/>
				</g>
				<g id="XMLID_261_">
					<path id="XMLID_274_" fill="#0072BC" d="M192.2,114.5c-1.5,0-2.8-0.5-3.1-0.8c-0.2-0.2-0.2-0.4-0.2-0.9c0-0.1,0-1.1,0.1-1.8
						c0-0.1,0-0.4,0.3-0.4c0.2,0,0.2,0.2,0.3,0.3c0.4,1.7,1.7,3,3.1,3c0.8,0,2.3-0.6,2.3-2.2c0-1.5-1.3-2.3-2.8-2.9
						c-1.6-0.7-3.1-1.5-3.1-3.6c0-1.8,1.4-3.4,3.9-3.4c1.1,0,2.3,0.3,2.6,0.5c0.2,0.1,0.2,0.3,0.2,2c0,0.4,0,0.6-0.3,0.6
						c-0.2,0-0.3-0.1-0.5-0.7c-0.2-0.8-0.6-1.9-2.2-1.9c-1.6,0-2.1,1.1-2.1,1.9c0,1.4,1.1,1.9,2.7,2.5c1.1,0.5,3.2,1.4,3.2,3.7
						C196.4,112.7,194.8,114.5,192.2,114.5z"/>
					<path id="XMLID_271_" fill="#ED1C24" d="M200.4,108.5c-0.3,0-0.5,0-0.5,1c0,2.2,1.5,3.9,3.5,3.9c0.9,0,1.7-0.3,2.2-0.8
						c0.3-0.3,0.3-0.3,0.4-0.3c0.1,0,0.2,0.1,0.2,0.2c0,0.3-1.4,2-3.9,2c-2.6,0-4.6-1.7-4.6-4.4c0-2.9,2.2-4.8,4.9-4.8
						c3,0,3.6,2.2,3.6,2.9c0,0.4-0.2,0.4-0.5,0.4H200.4z M202.8,107.9c0.8,0,1.3-0.4,1.3-0.9c0-1.2-1.3-1.2-1.6-1.2
						c-1.8,0-2.4,1.6-2.4,1.9c0,0.2,0.1,0.2,0.5,0.2H202.8z"/>
					<path id="XMLID_268_" fill="#F2B63E" d="M212,107.4c0-0.7-0.1-1.6-1-1.6c-1.1,0-1.6,1.2-1.7,1.7c-0.3,0.9-1.5,1-1.5,1
						c-0.2,0-0.4-0.1-0.4-0.4c0-0.7,1.2-2.7,4.2-2.7c1.8,0,2.3,0.6,2.3,1.4v5.5c0,0.6,0.1,1.1,0.6,1.1c0.2,0,0.4-0.1,0.6-0.2
						c0.2-0.2,0.2-0.2,0.3-0.2c0.1,0,0.2,0.1,0.2,0.2c0,0.5-1.2,1.4-2.1,1.4c-0.8,0-1.1-0.6-1.4-1.1c-0.2-0.4-0.2-0.4-0.3-0.4
						c0,0-0.1,0.1-0.1,0.1c-0.8,0.7-1.9,1.4-2.8,1.4c-1.4,0-1.5-1.4-1.5-1.7c0-1.4,1-2.3,4.1-3.5c0.5-0.2,0.5-0.4,0.5-0.7V107.4z
						 M212,110.1c0-0.2-0.1-0.2-0.2-0.2c-0.3,0-0.8,0.3-1.1,0.4c-1.2,0.6-1.2,1.3-1.2,1.7c0,0.9,0.5,1.3,0.9,1.3
						c0.9,0,1.7-0.7,1.7-2.1V110.1z"/>
					<path id="XMLID_266_" fill="#0072BC" d="M219.2,106.4c0,0.1,0,0.3,0.1,0.3c0.1,0,0.2-0.1,0.2-0.2c0-0.1,1-1.2,2.1-1.2
						c0.7,0,1.4,0.4,1.4,1.2c0,0.8-0.7,1.1-1.2,1.1c-0.4,0-0.7-0.2-1-0.5c-0.3-0.4-0.5-0.4-0.6-0.4c-0.4,0-1,0.3-1,1.9v3.7
						c0,0.8,0,1.3,1,1.4c0.4,0,0.7,0,0.7,0.3c0,0.3-0.3,0.3-0.4,0.3c-0.3,0-1.9-0.1-2.3-0.1c-0.3,0-1.7,0.1-2,0.1
						c-0.1,0-0.3,0-0.3-0.3c0-0.2,0.1-0.3,0.6-0.3c0.9-0.1,0.9-0.3,0.9-1.4v-3.8c0-1.2-0.3-1.3-1-1.3c-0.1,0-0.3,0-0.3-0.2
						c0-0.1,0.1-0.2,0.3-0.3c0.5-0.2,1.6-0.8,2-1.2c0,0,0.5-0.5,0.6-0.5c0.2,0,0.2,0.2,0.2,0.3V106.4z"/>
					<path id="XMLID_264_" fill="#ED1C24" d="M229,113.5c1,0,1.8-0.4,2.2-0.7c0,0,0.1-0.1,0.2-0.1s0.2,0.1,0.2,0.2
						c0,0.4-1.5,1.7-3.6,1.7c-2.2,0-4.9-1.3-4.9-4.4c0-3.2,2.9-4.9,5.3-4.9c0.3,0,3,0.2,3,1.3c0,0.3-0.1,1.4-0.6,1.4
						c-0.3,0-0.6-0.3-1.2-1.2c-0.6-0.8-1-1.1-1.5-1.1c-0.9,0-2.9,1-2.9,4.1C225.3,111.9,227.2,113.5,229,113.5z"/>
					<path id="XMLID_262_" fill="#39B54A" d="M233.6,104.4c0-1.4,0-1.6-1-1.7c-0.2,0-0.3-0.1-0.3-0.3c0-0.2,0.1-0.3,0.3-0.3
						c1-0.2,1.6-0.4,2.1-0.7c0.3-0.1,0.5-0.3,0.6-0.3c0.3,0,0.3,0.2,0.3,0.3c0,0.1-0.1,0.2-0.1,1.3v3.7c0,0.2,0,0.3,0.1,0.3
						c0.1,0,0.1-0.1,0.1-0.1c1.2-1.2,2-1.4,2.9-1.4c2.8,0,2.8,2.1,2.8,2.9v4.2c0,1.1,0,1.3,0.8,1.5c0.5,0.1,0.6,0.2,0.6,0.3
						c0,0.2-0.1,0.2-0.6,0.2c-0.3,0-0.5-0.1-1.8-0.1c-0.8,0-1.7,0.1-2,0.1c-0.1,0-0.3,0-0.3-0.3c0-0.2,0.1-0.3,0.6-0.3
						c0.8-0.1,0.8-0.3,0.8-1.4v-3.9c0-0.6,0-2.2-1.8-2.2c-0.2,0-2.3,0-2.3,2v4.1c0,1.1,0,1.3,0.8,1.4c0.5,0.1,0.6,0.2,0.6,0.3
						c0,0.2-0.2,0.2-0.3,0.2c-0.3,0-1.2-0.1-2.1-0.1c-0.8,0-1.7,0.1-2,0.1c-0.1,0-0.3,0-0.3-0.3c0-0.2,0.1-0.3,0.6-0.3
						c0.8-0.1,0.8-0.3,0.8-1.4V104.4z"/>
				</g>
				<circle id="XMLID_260_" fill="#FFFFFF" cx="187.8" cy="89.1" r="1.7"/>
				<circle id="XMLID_259_" fill="#FFFFFF" cx="183.1" cy="89.1" r="1.7"/>
				<circle id="XMLID_258_" fill="#FFFFFF" cx="178.4" cy="89.1" r="1.7"/>
			</g>
		</g>
		<g id="XMLID_254_">
			<g id="XMLID_887_">
				<rect id="XMLID_894_" x="265" y="64.4" fill-rule="evenodd" clip-rule="evenodd" fill="#BCBEC0" width="85" height="86.2"/>
				<rect id="XMLID_893_" x="266.9" y="64.4" fill-rule="evenodd" clip-rule="evenodd" fill="#E2E3E4" width="85" height="86.2"/>
				<rect id="XMLID_892_" x="266.9" y="64.4" fill-rule="evenodd" clip-rule="evenodd" fill="#B1B3B6" width="85" height="11.8"/>
				<rect id="XMLID_891_" x="287.4" y="68.3" fill="#FFFFFF" width="59" height="3.7"/>
				<circle id="XMLID_890_" fill="#FFFFFF" cx="282.3" cy="70" r="1.7"/>
				<circle id="XMLID_889_" fill="#FFFFFF" cx="277.5" cy="70" r="1.7"/>
				<circle id="XMLID_888_" fill="#FFFFFF" cx="272.8" cy="70" r="1.7"/>
			</g>
			<g id="XMLID_734_">
				<rect id="XMLID_886_" x="271.4" y="70.8" fill-rule="evenodd" clip-rule="evenodd" fill="#BCBEC0" width="85" height="86.2"/>
				<rect id="XMLID_885_" x="273.3" y="70.8" fill-rule="evenodd" clip-rule="evenodd" fill="#EBEBEC" width="85" height="86.2"/>
				<rect id="XMLID_884_" x="273.3" y="70.8" fill-rule="evenodd" clip-rule="evenodd" fill="#BCBEC0" width="85" height="11.8"/>
				<rect id="XMLID_883_" x="293.8" y="74.7" fill="#FFFFFF" width="59" height="3.7"/>
				<circle id="XMLID_764_" fill="#FFFFFF" cx="288.7" cy="76.4" r="1.7"/>
				<circle id="XMLID_736_" fill="#FFFFFF" cx="283.9" cy="76.4" r="1.7"/>
				<circle id="XMLID_735_" fill="#FFFFFF" cx="279.2" cy="76.4" r="1.7"/>
			</g>
			<g id="XMLID_726_">
				<rect id="XMLID_733_" x="277.9" y="77.2" fill-rule="evenodd" clip-rule="evenodd" fill="#BCBEC0" width="85" height="86.2"/>
				<rect id="XMLID_732_" x="279.7" y="77.2" fill-rule="evenodd" clip-rule="evenodd" fill="#F1F2F2" width="85" height="86.2"/>
				<rect id="XMLID_731_" x="279.7" y="77.2" fill-rule="evenodd" clip-rule="evenodd" fill="#C7C8CA" width="85" height="11.8"/>
				<rect id="XMLID_730_" x="300.2" y="81.1" fill="#FFFFFF" width="59" height="3.7"/>
				<circle id="XMLID_729_" fill="#FFFFFF" cx="295.1" cy="82.8" r="1.7"/>
				<circle id="XMLID_728_" fill="#FFFFFF" cx="290.3" cy="82.8" r="1.7"/>
				<circle id="XMLID_727_" fill="#FFFFFF" cx="285.6" cy="82.8" r="1.7"/>
			</g>
			<g id="XMLID_770_">
				<rect id="XMLID_857_" x="284.2" y="83.5" fill-rule="evenodd" clip-rule="evenodd" fill="#BCBEC0" width="85" height="86.2"/>
				<g id="XMLID_772_">
					<rect id="XMLID_856_" x="286" y="83.5" fill-rule="evenodd" clip-rule="evenodd" fill="#FFFFFF" width="85" height="86.2"/>
					<rect id="XMLID_855_" x="286" y="83.5" fill-rule="evenodd" clip-rule="evenodd" fill="#D1D3D4" width="85" height="11.8"/>
					<g id="XMLID_851_">
						<rect id="XMLID_854_" x="291.2" y="134" fill="#D1D3D4" width="74.4" height="3.7"/>
						<rect id="XMLID_853_" x="291.2" y="127.7" fill="#D1D3D4" width="74.4" height="3.7"/>
						<rect id="XMLID_852_" x="291.5" y="121.4" fill="#BCBEC0" width="12.6" height="3.7"/>
					</g>
					<rect id="XMLID_850_" x="306.5" y="87.4" fill="#FFFFFF" width="59" height="3.7"/>
					<g id="XMLID_846_">
						<rect id="XMLID_849_" x="291.2" y="156.7" fill="#D1D3D4" width="74.4" height="3.7"/>
						<rect id="XMLID_848_" x="291.2" y="150.4" fill="#D1D3D4" width="74.4" height="3.7"/>
						<rect id="XMLID_847_" x="291.5" y="144.2" fill="#BCBEC0" width="12.6" height="3.7"/>
					</g>
					<g id="XMLID_831_">
						<path id="XMLID_844_" fill="#0072BC" d="M305.7,114.5c-1.5,0-2.8-0.5-3.1-0.8c-0.2-0.2-0.2-0.4-0.2-0.9c0-0.1,0-1.1,0.1-1.8
							c0-0.1,0-0.4,0.3-0.4c0.2,0,0.2,0.2,0.3,0.3c0.4,1.7,1.7,3,3.1,3c0.8,0,2.3-0.6,2.3-2.2c0-1.5-1.3-2.3-2.8-2.9
							c-1.6-0.7-3.1-1.5-3.1-3.6c0-1.8,1.4-3.4,3.9-3.4c1.1,0,2.3,0.3,2.6,0.5c0.2,0.1,0.2,0.3,0.2,2c0,0.4,0,0.6-0.3,0.6
							c-0.2,0-0.3-0.1-0.5-0.7c-0.2-0.8-0.6-1.9-2.2-1.9c-1.6,0-2.1,1.1-2.1,1.9c0,1.4,1.1,1.9,2.7,2.5c1.1,0.5,3.2,1.4,3.2,3.7
							C310,112.7,308.4,114.5,305.7,114.5z"/>
						<path id="XMLID_841_" fill="#ED1C24" d="M313.9,108.5c-0.3,0-0.5,0-0.5,1c0,2.2,1.5,3.9,3.5,3.9c0.9,0,1.7-0.3,2.2-0.8
							c0.3-0.3,0.3-0.3,0.4-0.3c0.1,0,0.2,0.1,0.2,0.2c0,0.3-1.4,2-3.9,2c-2.6,0-4.6-1.7-4.6-4.4c0-2.9,2.2-4.8,4.9-4.8
							c3,0,3.6,2.2,3.6,2.9c0,0.4-0.2,0.4-0.5,0.4H313.9z M316.4,107.9c0.8,0,1.3-0.4,1.3-0.9c0-1.2-1.3-1.2-1.6-1.2
							c-1.8,0-2.4,1.6-2.4,1.9c0,0.2,0.1,0.2,0.5,0.2H316.4z"/>
						<path id="XMLID_838_" fill="#F2B63E" d="M325.5,107.4c0-0.7-0.1-1.6-1-1.6c-1.1,0-1.6,1.2-1.7,1.7c-0.3,0.9-1.5,1-1.5,1
							c-0.2,0-0.4-0.1-0.4-0.4c0-0.7,1.2-2.7,4.2-2.7c1.8,0,2.3,0.6,2.3,1.4v5.5c0,0.6,0.1,1.1,0.6,1.1c0.2,0,0.4-0.1,0.6-0.2
							c0.2-0.2,0.2-0.2,0.3-0.2c0.1,0,0.2,0.1,0.2,0.2c0,0.5-1.2,1.4-2.1,1.4c-0.8,0-1.1-0.6-1.4-1.1c-0.2-0.4-0.2-0.4-0.3-0.4
							c0,0-0.1,0.1-0.1,0.1c-0.8,0.7-1.9,1.4-2.8,1.4c-1.4,0-1.5-1.4-1.5-1.7c0-1.4,1-2.3,4.1-3.5c0.5-0.2,0.5-0.4,0.5-0.7V107.4z
							 M325.5,110.1c0-0.2-0.1-0.2-0.2-0.2c-0.3,0-0.8,0.3-1.1,0.4c-1.2,0.6-1.2,1.3-1.2,1.7c0,0.9,0.5,1.3,0.9,1.3
							c0.9,0,1.7-0.7,1.7-2.1V110.1z"/>
						<path id="XMLID_836_" fill="#0072BC" d="M332.7,106.4c0,0.1,0,0.3,0.1,0.3c0.1,0,0.2-0.1,0.2-0.2c0-0.1,1-1.2,2.1-1.2
							c0.7,0,1.4,0.4,1.4,1.2c0,0.8-0.7,1.1-1.2,1.1c-0.4,0-0.7-0.2-1-0.5c-0.3-0.4-0.5-0.4-0.6-0.4c-0.4,0-1,0.3-1,1.9v3.7
							c0,0.8,0,1.3,1,1.4c0.4,0,0.7,0,0.7,0.3c0,0.3-0.3,0.3-0.4,0.3c-0.3,0-1.9-0.1-2.3-0.1c-0.3,0-1.7,0.1-2,0.1
							c-0.1,0-0.3,0-0.3-0.3c0-0.2,0.1-0.3,0.6-0.3c0.9-0.1,0.9-0.3,0.9-1.4v-3.8c0-1.2-0.3-1.3-1-1.3c-0.1,0-0.3,0-0.3-0.2
							c0-0.1,0.1-0.2,0.3-0.3c0.5-0.2,1.6-0.8,2-1.2c0,0,0.5-0.5,0.6-0.5c0.2,0,0.2,0.2,0.2,0.3V106.4z"/>
						<path id="XMLID_834_" fill="#ED1C24" d="M342.6,113.5c1,0,1.8-0.4,2.2-0.7c0,0,0.1-0.1,0.2-0.1c0.1,0,0.2,0.1,0.2,0.2
							c0,0.4-1.5,1.7-3.6,1.7c-2.2,0-4.9-1.3-4.9-4.4c0-3.2,2.9-4.9,5.3-4.9c0.3,0,3,0.2,3,1.3c0,0.3-0.1,1.4-0.6,1.4
							c-0.3,0-0.6-0.3-1.2-1.2c-0.6-0.8-1-1.1-1.5-1.1c-0.9,0-2.9,1-2.9,4.1C338.9,111.9,340.7,113.5,342.6,113.5z"/>
						<path id="XMLID_832_" fill="#39B54A" d="M347.2,104.4c0-1.4,0-1.6-1-1.7c-0.2,0-0.3-0.1-0.3-0.3c0-0.2,0.1-0.3,0.3-0.3
							c1-0.2,1.6-0.4,2.1-0.7c0.3-0.1,0.5-0.3,0.6-0.3c0.3,0,0.3,0.2,0.3,0.3c0,0.1-0.1,0.2-0.1,1.3v3.7c0,0.2,0,0.3,0.1,0.3
							c0.1,0,0.1-0.1,0.1-0.1c1.2-1.2,2-1.4,2.9-1.4c2.8,0,2.8,2.1,2.8,2.9v4.2c0,1.1,0,1.3,0.8,1.5c0.5,0.1,0.6,0.2,0.6,0.3
							c0,0.2-0.1,0.2-0.6,0.2c-0.3,0-0.5-0.1-1.8-0.1c-0.8,0-1.7,0.1-2,0.1c-0.1,0-0.3,0-0.3-0.3c0-0.2,0.1-0.3,0.6-0.3
							c0.8-0.1,0.8-0.3,0.8-1.4v-3.9c0-0.6,0-2.2-1.8-2.2c-0.2,0-2.3,0-2.3,2v4.1c0,1.1,0,1.3,0.8,1.4c0.5,0.1,0.6,0.2,0.6,0.3
							c0,0.2-0.2,0.2-0.3,0.2c-0.3,0-1.2-0.1-2.1-0.1c-0.8,0-1.7,0.1-2,0.1c-0.1,0-0.3,0-0.3-0.3c0-0.2,0.1-0.3,0.6-0.3
							c0.8-0.1,0.8-0.3,0.8-1.4V104.4z"/>
					</g>
					<circle id="XMLID_827_" fill="#FFFFFF" cx="301.4" cy="89.1" r="1.7"/>
					<circle id="XMLID_826_" fill="#FFFFFF" cx="296.7" cy="89.1" r="1.7"/>
					<circle id="XMLID_825_" fill="#FFFFFF" cx="291.9" cy="89.1" r="1.7"/>
				</g>
			</g>
		</g>
	</g>
	<g id="XMLID_753_">
		<path id="XMLID_758_" fill="#F47920" d="M205.5,396.6h-2.8l0-0.7c0-0.2,0-0.4,0-0.6c0-6.8,5.5-12.3,12.3-12.3
			c1.8,0,3.7,0.4,5.3,1.2c0.2,0.1,0.4,0,0.5-0.1l2.9-2.9c0.1-0.1,0.1-0.2,0.1-0.4c0-0.1-0.1-0.3-0.2-0.3c-2.6-1.5-5.6-2.3-8.6-2.3
			c-9.5,0-17.2,7.7-17.2,17.2c0,0.2,0,0.4,0,0.6l0,0.8h-3.3c-0.2,0-0.3,0.1-0.4,0.3s0,0.3,0.1,0.5l5.5,6.6c0.1,0.1,0.2,0.2,0.3,0.2
			s0.3-0.1,0.3-0.2l5.5-6.6c0.1-0.1,0.1-0.3,0.1-0.5S205.7,396.6,205.5,396.6z"/>
		<path id="XMLID_757_" fill="#F47920" d="M235.8,392.9l-5.5-6.6c-0.2-0.2-0.5-0.2-0.7,0l-5.5,6.6c-0.1,0.1-0.1,0.3-0.1,0.5
			c0.1,0.2,0.2,0.3,0.4,0.3h2.8l0.1,0.7c0,0.3,0,0.6,0,0.9c0,6.8-5.5,12.3-12.3,12.3c-1.8,0-3.7-0.4-5.3-1.2c-0.2-0.1-0.4,0-0.5,0.1
			l-2.9,2.9c-0.1,0.1-0.1,0.2-0.1,0.4c0,0.1,0.1,0.3,0.2,0.3c2.6,1.5,5.6,2.3,8.6,2.3c9.5,0,17.2-7.7,17.2-17.2c0-0.3,0-0.6,0-0.8
			l0-0.8h3.3c0.2,0,0.3-0.1,0.4-0.3C235.9,393.2,235.9,393,235.8,392.9z"/>
	</g>
	<g id="XMLID_747_">
		
			<text id="XMLID_631_" transform="matrix(1 0 0 1 118.7305 364.6721)" fill="#58595B" font-family="'Lato-Regular'" font-size="14px">Repeat the process, perpetually</text>
	</g>
	<text id="XMLID_746_" transform="matrix(1 0 0 1 132.107 49.6051)" fill="#58595B" font-family="'Lato-Regular'" font-size="14px">Countless Google Searches</text>
	
		<text id="XMLID_745_" transform="matrix(1 0 0 1 42.4748 196.7211)" fill="#58595B" font-family="'Lato-Regular'" font-size="14px">Use stale spreadsheets to track data patterns, manually...</text>
	<g id="XMLID_90_">
		<path id="XMLID_741_" fill="#FFFFFF" d="M223.9,319.4h2.4c-0.7-5.1-4.7-9.1-9.8-9.8v2.4c0,0.4-0.3,0.8-0.8,0.8h-1.7
			c-0.4,0-0.8-0.3-0.8-0.8v-2.4c-5.1,0.7-9.1,4.7-9.8,9.8h2.4c0.4,0,0.8,0.3,0.8,0.8v1.7c0,0.4-0.3,0.8-0.8,0.8h-2.4
			c0.7,5.1,4.7,9.1,9.8,9.8v-2.4c0-0.4,0.3-0.8,0.8-0.8h1.6c0.4,0,0.8,0.3,0.8,0.8v2.4c5.1-0.7,9.1-4.7,9.8-9.8h-2.4
			c-0.4,0-0.8-0.3-0.8-0.8v-1.6C223.1,319.7,223.5,319.4,223.9,319.4z"/>
		<g id="XMLID_95_">
			<path id="XMLID_120_" fill="#F47920" d="M232.5,319.4h-2.8c-0.7-6.9-6.3-12.4-13.1-13.1v-2.8c0-0.4-0.3-0.8-0.8-0.8h-1.7
				c-0.4,0-0.8,0.3-0.8,0.8v2.8c-6.9,0.7-12.4,6.3-13.1,13.1h-2.8c-0.4,0-0.8,0.3-0.8,0.8v1.6c0,0.4,0.3,0.8,0.8,0.8h2.8
				c0.7,6.9,6.3,12.4,13.1,13.1v2.8c0,0.4,0.3,0.8,0.8,0.8h1.6c0.4,0,0.8-0.3,0.8-0.8v-2.8c6.9-0.7,12.4-6.3,13.1-13.1h2.8
				c0.4,0,0.8-0.3,0.8-0.8v-1.7C233.3,319.7,233,319.4,232.5,319.4L232.5,319.4z M206.1,322.5c0.4,0,0.8-0.3,0.8-0.8v-1.7
				c0-0.4-0.3-0.8-0.8-0.8h-2.4c0.7-5.1,4.7-9.1,9.8-9.8v2.4c0,0.4,0.3,0.8,0.8,0.8h1.7c0.4,0,0.8-0.3,0.8-0.8v-2.4
				c5.1,0.7,9.1,4.7,9.8,9.8h-2.4c-0.4,0-0.8,0.3-0.8,0.8v1.6c0,0.4,0.3,0.8,0.8,0.8h2.4c-0.7,5.1-4.7,9.1-9.8,9.8v-2.4
				c0-0.4-0.3-0.8-0.8-0.8h-1.6c-0.4,0-0.8,0.3-0.8,0.8v2.4c-5.1-0.7-9.1-4.7-9.8-9.8H206.1z M206.1,322.5"/>
		</g>
	</g>
	<g id="XMLID_23_">
		<path id="XMLID_25_" fill="#F47920" d="M233.4,179.3l-8.4-8.4c2.9-4.6,2.4-10.8-1.6-14.8c-4.6-4.6-12.2-4.6-16.9,0
			c-4.6,4.6-4.6,12.2,0,16.9c4,4,10.2,4.6,14.8,1.6l8.4,8.4c1,1,2.7,1,3.7,0C234.4,181.9,234.4,180.3,233.4,179.3z M220.6,170.1
			c-3.1,3.1-8.2,3.1-11.3,0c-3.1-3.1-3.1-8.2,0-11.3c3.1-3.1,8.2-3.1,11.3,0C223.7,161.9,223.7,167,220.6,170.1z"/>
		<path id="XMLID_24_" fill="#FFFFFF" d="M209.2,158.8c-3.1,3.1-3.1,8.2,0,11.3c3.1,3.1,8.2,3.1,11.3,0c3.1-3.1,3.1-8.2,0-11.3
			C217.4,155.7,212.4,155.7,209.2,158.8z"/>
	</g>
</g>
</svg>
