<?xml version="1.0" encoding="utf-8"?>
<!-- Generator: Adobe Illustrator 19.0.1, SVG Export Plug-In . SVG Version: 6.00 Build 0)  -->
<svg version="1.1" xmlns="http://www.w3.org/2000/svg" xmlns:xlink="http://www.w3.org/1999/xlink" x="0px" y="0px"
	 viewBox="0 0 430 430" enable-background="new 0 0 430 430" xml:space="preserve">
 <defs>
  <style type="text/css">@import url('http://fonts.googleapis.com/css?family=Lato:300');</style>
</defs>
<g id="xtras" display="none">
</g>
<g id="o">
	<circle id="XMLID_215_" fill="#539CD5" cx="215" cy="215" r="215"/>
</g>
<g id="diagrams">
	<path id="XMLID_17_" fill="#4989BB" d="M359.1,241.8c-1.7-0.5-3.5-0.8-5.2-1.1c1.6-24.3-12.8-47.8-36.9-56.5
		c-10-3.6-20.4-4.3-30.1-2.3c0-0.1-0.1-0.1-0.1-0.2c-8.3-13.4-21-24.3-37.1-30.1c-37.9-13.8-79.8,5.7-93.6,43.7
		c-1.7,4.6-2.8,9.2-3.6,13.8c-5.2-2.2-11-3.4-17-3.4c-22.2,0-40.5,16.4-43.7,37.7c-1.3-0.1-2.7-0.2-4-0.2
		c-23.6,0-42.7,19.1-42.7,42.7c0,23.6,19.1,42.7,42.7,42.7c5.5,0,10.8-1.1,15.7-3c9.8,16.3,27.7,27.2,48.1,27.2
		c17.8,0,33.6-8.3,43.9-21.1c8.8,5.7,19.3,9,30.6,9c10.7,0,20.7-3,29.2-8.2c5.8,6,13,10.9,21.4,13.9c23.6,8.6,49.1,0.4,63.7-18.4
		c22,3.6,43.7-10,49.6-32C396.5,272.5,382.7,248.2,359.1,241.8z"/>
	<circle id="XMLID_15_" fill="#E6E7E8" cx="286.5" cy="277.7" r="56.2"/>
	<circle id="XMLID_14_" fill="#E6E7E8" cx="215.3" cy="204.4" r="73"/>
	<path id="XMLID_92_" fill="none" d="M266,151.9c0.1,8.7-1.3,17.5-4.4,26.1c-13.8,37.9-55.7,57.4-93.6,43.7
		c-10-3.6-18.6-9.2-25.8-16.1c0.5,29.4,18.8,56.8,48.1,67.5c37.9,13.8,79.8-5.7,93.6-43.7C294.1,201.4,286.1,171.3,266,151.9z"/>
	<path id="XMLID_87_" fill="#E6E7E8" d="M313.1,228.1c7.3,13.6,9,30.1,3.3,45.8c-10.6,29.2-42.9,44.2-72.1,33.6
		c-2.5-0.9-5-2-7.3-3.3c6.3,11.8,16.8,21.4,30.3,26.3c29.2,10.6,61.4-4.4,72.1-33.6C349.1,270.2,337.4,241.1,313.1,228.1z"/>
	<circle id="XMLID_44_" fill="#FFFFFF" cx="338" cy="268.5" r="44.1"/>
	<path id="XMLID_76_" fill="#E6E7E8" d="M365.5,234c0.8,5.8,0.5,11.8-1.1,17.8c-6.4,23.5-30.6,37.4-54.1,31
		c-6-1.6-11.4-4.4-15.9-8.1c2.4,16.9,14.6,31.6,32.1,36.3c23.5,6.4,47.8-7.5,54.1-31C385.4,262.6,378.9,244.6,365.5,234z"/>
	<circle id="XMLID_43_" fill="#FFFFFF" cx="78.4" cy="270" r="42.7"/>
	<path id="XMLID_58_" fill="#E6E7E8" d="M101.3,234c4.2,6.6,6.7,14.5,6.7,22.9c0,23.6-19.1,42.7-42.7,42.7c-8.4,0-16.3-2.5-22.9-6.7
		c7.6,11.9,20.9,19.8,36,19.8c23.6,0,42.7-19.1,42.7-42.7C121.1,254.8,113.2,241.5,101.3,234z"/>
	<circle id="XMLID_13_" fill="#FFFFFF" cx="142.2" cy="280.6" r="56.2"/>
	<path id="XMLID_54_" fill="#E6E7E8" d="M172.4,233.2c5.6,8.7,8.8,19.1,8.8,30.2c0,31-25.2,56.2-56.2,56.2
		c-11.1,0-21.4-3.2-30.2-8.8c10,15.7,27.5,26.1,47.4,26.1c31,0,56.2-25.2,56.2-56.2C198.5,260.7,188.1,243.2,172.4,233.2z"/>
	<circle id="XMLID_36_" fill="#FFFFFF" cx="288.3" cy="221.2" r="56.2"/>
	<path id="XMLID_35_" fill="#E6E7E8" d="M320.1,174.8c10,14.5,13,33.4,6.6,51.2c-10.6,29.2-42.9,44.2-72.1,33.6
		c-4.6-1.7-8.8-3.8-12.6-6.5c6.4,9.3,15.6,16.8,27,20.9c29.2,10.6,61.4-4.4,72.1-33.6C350.1,215.8,340.8,189,320.1,174.8z"/>
	<g id="XMLID_12_">
		<rect id="XMLID_1380_" x="153.4" y="112.9" fill="#FFFFFF" width="118.5" height="70.3"/>
		<g id="XMLID_349_">
			<g id="XMLID_328_">

					<rect id="XMLID_1365_" x="175.1" y="126.4" transform="matrix(0.5623 0.8269 -0.8269 0.5623 185.4443 -97.3111)" fill="#BCBEC0" width="19.1" height="0.3"/>

					<rect id="XMLID_1366_" x="194.2" y="118.8" transform="matrix(0.9656 0.26 -0.26 0.9656 39.6289 -46.1586)" fill="#BCBEC0" width="0.3" height="15.9"/>

					<rect id="XMLID_1367_" x="238.7" y="119.2" transform="matrix(8.983141e-02 0.996 -0.996 8.983141e-02 347.4626 -119.0394)" fill="#BCBEC0" width="0.3" height="22.7"/>

					<rect id="XMLID_1368_" x="226.9" y="140" transform="matrix(-0.8333 -0.5528 0.5528 -0.8333 361.3263 389.3061)" fill="#BCBEC0" width="25" height="0.3"/>
				<path id="XMLID_1371_" fill="#BCBEC0" d="M226.4,132.8l7.1,14l0.2-0.1l-7.4-14.5l-12.2,8.7l-23-5.5l0,0l-16.3,7.6l-1.7-0.8
					l-0.1,0.3l1.5,0.7l-1.2,0.6l0.1,0.3l1.4-0.7l16.4,7.7l10.1,16.6l24.2-34.2l-0.2-0.1l0.7-0.5l-3.1,25.4l-20.7,8.4l-0.1,0
					l-2.5,23.5l0.3,0l2.4-23.4l20.4-8.3l-7,16.5l0.3,0.1l7-16.6l12.6,19.1l0.2-0.2l-12.7-19.3L226.4,132.8z M201.4,166.9l-9.9-16.3
					l0,0l-16.3-7.7l16-7.4l23,5.5l0.1,0l11-7.8L201.4,166.9z"/>
			</g>
			<g id="XMLID_323_">
				<g id="XMLID_326_">
					<circle id="XMLID_1373_" fill="#3E96D2" cx="174" cy="142.4" r="8.6"/>
					<circle id="XMLID_1372_" fill="#F47920" cx="201.3" cy="166.7" r="8.6"/>
					<circle id="XMLID_347_" fill="#27B99A" cx="226.5" cy="131.8" r="8.6"/>
					<circle id="XMLID_344_" fill="#F47920" cx="216" cy="175" r="4.5"/>
					<circle id="XMLID_343_" fill="#F47920" cx="235.9" cy="177.5" r="4.5"/>
					<circle id="XMLID_338_" fill="#27B99A" cx="233.6" cy="146.7" r="4.5"/>
					<circle id="XMLID_337_" fill="#27B99A" cx="250.2" cy="129.6" r="4.5"/>
					<circle id="XMLID_335_" fill="#3E96D2" cx="191.3" cy="134.9" r="4.5"/>
					<circle id="XMLID_327_" fill="#3E96D2" cx="179.3" cy="118.6" r="4.5"/>
					<circle id="XMLID_1364_" fill="#F47920" cx="223.1" cy="158.1" r="2.4"/>
					<circle id="XMLID_1363_" fill="#F47920" cx="199.9" cy="190.1" r="2.4"/>
					<circle id="XMLID_1362_" fill="#3E96D2" cx="196.4" cy="119.1" r="2.4"/>
					<circle id="XMLID_1361_" fill="#27B99A" cx="214.2" cy="140.9" r="2.4"/>
					<circle id="XMLID_332_" fill="#27B99A" cx="249.8" cy="147.1" r="2.4"/>
				</g>
				<circle id="XMLID_325_" fill="#3E96D2" cx="191.3" cy="150.7" r="2.4"/>
			</g>
		</g>
		<path id="XMLID_1138_" fill="#30516C" d="M273.1,104.6H155.4c-5,0-10.3,3.2-10.3,8.2v83.7c0,5,5.3,11.8,10.3,11.8h45.2
			c0,0,1.9,15.6-14.8,15.6v3.9h54.6v-3.9c-16.7,0-12.4-15.6-12.4-15.6h45.2c5,0,8-6.8,8-11.8v-83.7
			C281.1,107.7,278.1,104.6,273.1,104.6z M214.3,200.7c-2.3,0-4.1-1.8-4.1-4.1c0-2.3,1.8-4.1,4.1-4.1c2.3,0,4.1,1.8,4.1,4.1
			C218.4,198.8,216.5,200.7,214.3,200.7z M271.8,183.2H153.4v-70.3h118.5V183.2z"/>
	</g>
	<circle id="XMLID_11_" fill="#FFFFFF" cx="130.1" cy="234" r="44.1"/>
	<path id="XMLID_29_" fill="#E6E7E8" d="M153.2,196.3c4.1,6.7,6.5,14.6,6.5,23c0,24.4-19.8,44.1-44.1,44.1c-8.4,0-16.3-2.4-23-6.5
		c7.8,12.6,21.7,21.1,37.6,21.1c24.4,0,44.1-19.8,44.1-44.1C174.2,218,165.8,204.1,153.2,196.3z"/>
	<circle id="XMLID_10_" fill="#FFFFFF" cx="216.7" cy="268.5" r="56.2"/>
	<path id="XMLID_32_" fill="#E6E7E8" d="M246.4,220.8c5.4,8.6,8.5,18.8,8.5,29.7c0,31-25.2,56.2-56.2,56.2
		c-10.9,0-21.1-3.1-29.7-8.5c9.9,15.9,27.6,26.5,47.7,26.5c31,0,56.2-25.2,56.2-56.2C272.9,248.4,262.3,230.7,246.4,220.8z"/>
	<g id="XMLID_30_">
		<rect id="XMLID_4_" x="106.8" y="246.4" fill="#E6E6E6" width="221" height="29.8"/>
		<rect id="XMLID_693_" x="105.6" y="245.2" fill="#FFFFFF" width="221" height="29.8"/>
		<path id="XMLID_308_" fill="#27B99A" d="M129.5,253.9c-2.7-2.7-7.2-2.7-9.9,0c-2.7,2.7-2.7,7.2,0,9.9c2.4,2.4,6,2.7,8.7,1l5,5
			c0.6,0.6,1.6,0.6,2.2,0c0.6-0.6,0.6-1.6,0-2.2l-5-5C132.2,259.9,131.8,256.3,129.5,253.9z M127.7,262c-1.7,1.7-4.6,1.7-6.3,0
			c-1.7-1.7-1.7-4.6,0-6.3s4.6-1.7,6.3,0C129.4,257.5,129.4,260.3,127.7,262z"/>
		<path id="XMLID_193_" fill="#BCBEC0" d="M321.2,269c-0.2-0.3-1.1-1.5-1.5-2v-13.5c0.4-0.5,1.3-1.7,1.5-2c0.3-0.3,0.7-0.4,1.4-0.4
			c0.8,0,1.5,0,1.5,0l-0.5-1.3c0,0-0.8,0-1.5,0c-0.8,0-1.1,0-1.4,0.3c-0.3,0.3-1.5,2-1.7,2.2c-0.1-0.2-1.4-1.9-1.7-2.2
			c-0.3-0.3-0.7-0.3-1.4-0.3c-0.8,0-1.5,0-1.5,0l-0.5,1.3c0,0,0.8,0,1.5,0c0.8,0,1.1,0.1,1.4,0.4c0.2,0.3,1.1,1.5,1.5,2v13.5
			c-0.4,0.5-1.3,1.7-1.5,2c-0.3,0.3-0.7,0.4-1.4,0.4c-0.8,0-1.5,0-1.5,0l0.5,1.3c0,0,0.8,0,1.5,0c0.8,0,1.1,0,1.4-0.3
			c0.3-0.3,1.5-1.9,1.7-2.2h0c0.2,0.2,1.4,1.8,1.7,2.2c0.3,0.3,0.7,0.3,1.4,0.3c0.8,0,1.5,0,1.5,0l0.5-1.3c0,0-0.8,0-1.5,0
			C321.9,269.4,321.5,269.4,321.2,269z"/>
		<g id="XMLID_195_">

				<text id="XMLID_608_" transform="matrix(1 0 0 1 139.5963 265.7473)" fill="#6D6E71" font-family="Lato" font-size="16.441px">One Search. All the data.</text>
		</g>
	</g>
	<g id="XMLID_18_">
		<g id="XMLID_859_">
			<g id="XMLID_27_">
				<rect id="XMLID_1640_" x="135.6" y="164.6" fill="#FFFFFF" width="32.5" height="48.8"/>
				<path id="XMLID_61_" fill="#30516C" d="M166.7,155.9h-29.9c-2.8,0-5.2,2.3-5.2,5.2v60.7c0,2.9,2.3,5.2,5.2,5.2h29.9
					c2.9,0,5.2-2.3,5.2-5.2v-60.7C171.9,158.2,169.6,155.9,166.7,155.9 M163.3,159.1c0.7,0,1.3,0.6,1.3,1.3c0,0.7-0.6,1.3-1.3,1.3
					c-0.7,0-1.3-0.6-1.3-1.3C162,159.7,162.6,159.1,163.3,159.1 M144.9,159.6h13.8v1.5h-13.8V159.6z M151.8,222.8
					c-1.3,0-2.4-1.1-2.4-2.4c0-1.4,1.1-2.4,2.4-2.4c1.4,0,2.4,1.1,2.4,2.4C154.2,221.7,153.1,222.8,151.8,222.8 M168,213.4h-32.5
					v-48.8H168V213.4z"/>
			</g>
			<g id="XMLID_19_">
				<rect id="XMLID_46_" x="140.4" y="171.8" fill="#30516C" width="22.5" height="5"/>
				<rect id="XMLID_48_" x="140.4" y="181.5" fill="#539CD5" width="17.4" height="5"/>
				<rect id="XMLID_49_" x="140.4" y="191.1" fill="#999999" width="7.7" height="5"/>
				<rect id="XMLID_20_" x="140.4" y="200.7" fill="#40BDA7" width="18.3" height="5"/>
			</g>
		</g>
		<rect id="XMLID_113_" x="144.9" y="159.6" fill="#A7A9AC" width="13.8" height="1.5"/>
		<path id="XMLID_114_" fill="#A7A9AC" d="M163.3,161.8c0.7,0,1.3-0.6,1.3-1.3c0-0.7-0.6-1.3-1.3-1.3c-0.7,0-1.3,0.6-1.3,1.3
			C162,161.2,162.6,161.8,163.3,161.8z"/>
		<circle id="XMLID_116_" fill="#A7A9AC" cx="151.8" cy="220.3" r="2.4"/>
	</g>
	<text id="XMLID_127_" transform="matrix(1 0 0 1 167.9427 51.4226)"><tspan x="0" y="0" fill="#FFFFFF" font-family="'Lato'" font-size="18px">Let DataFox</tspan><tspan x="-12.4" y="21.6" fill="#FFFFFF" font-family="'Lato-Bold'" font-size="18px">do it all for you.</tspan></text>
</g>
</svg>
