<?xml version="1.0" encoding="utf-8"?>
<!-- Generator: Adobe Illustrator 19.0.1, SVG Export Plug-In . SVG Version: 6.00 Build 0)  -->
<svg version="1.1" id="Layer_4" xmlns="http://www.w3.org/2000/svg" xmlns:xlink="http://www.w3.org/1999/xlink" x="0px" y="0px"
	 viewBox="-184 186 430 430" enable-background="new -184 186 430 430" xml:space="preserve">
<g id="XMLID_75_">
	<circle id="XMLID_215_" fill="#539CD5" cx="31" cy="401" r="215"/>
	<g id="XMLID_72_">
		<path id="XMLID_35_" fill="#E6E7E8" d="M175.1,427.8c-1.7-0.5-3.5-0.8-5.2-1.1c1.6-24.3-12.8-47.8-36.9-56.5
			c-10-3.6-20.4-4.3-30.1-2.3c0-0.1-0.1-0.1-0.1-0.2c-8.3-13.4-21-24.3-37.1-30.1c-37.9-13.8-79.8,5.7-93.6,43.7
			c-1.7,4.6-2.8,9.2-3.6,13.8c-5.2-2.2-11-3.4-17-3.4c-22.2,0-40.5,16.4-43.7,37.7c-1.3-0.1-2.7-0.2-4-0.2
			c-23.6,0-42.7,19.1-42.7,42.7s19.1,42.7,42.7,42.7c5.5,0,10.8-1.1,15.7-3c9.8,16.3,27.7,27.2,48.1,27.2c17.8,0,33.6-8.3,43.9-21.1
			c8.8,5.7,19.3,9,30.6,9c10.7,0,20.7-3,29.2-8.2c5.8,6,13,10.9,21.4,13.9c23.6,8.6,49.1,0.4,63.7-18.4c22,3.6,43.7-10,49.6-32
			C212.5,458.5,198.7,434.2,175.1,427.8z"/>
		<circle id="XMLID_18_" fill="#E6E7E8" cx="102.5" cy="463.7" r="56.2"/>
		<circle id="XMLID_15_" fill="#E6E7E8" cx="31.3" cy="390.4" r="73"/>
		<path id="XMLID_92_" fill="none" d="M82,337.9c0.1,8.7-1.3,17.5-4.4,26.1c-13.8,37.9-55.7,57.4-93.6,43.7
			c-10-3.6-18.6-9.2-25.8-16.1c0.5,29.4,18.8,56.8,48.1,67.5c37.9,13.8,79.8-5.7,93.6-43.7C110.1,387.4,102.1,357.3,82,337.9z"/>
		<path id="XMLID_87_" fill="#E6E7E8" d="M129.1,414.1c7.3,13.6,9,30.1,3.3,45.8c-10.6,29.2-42.9,44.2-72.1,33.6
			c-2.5-0.9-5-2-7.3-3.3c6.3,11.8,16.8,21.4,30.3,26.3c29.2,10.6,61.4-4.4,72.1-33.6C165.1,456.2,153.4,427.1,129.1,414.1z"/>
		<circle id="XMLID_14_" fill="#FFFFFF" cx="154" cy="454.5" r="44.1"/>
		<path id="XMLID_76_" fill="#E6E7E8" d="M181.5,420c0.8,5.8,0.5,11.8-1.1,17.8c-6.4,23.5-30.6,37.4-54.1,31
			c-6-1.6-11.4-4.4-15.9-8.1c2.4,16.9,14.6,31.6,32.1,36.3c23.5,6.4,47.8-7.5,54.1-31C201.4,448.6,194.9,430.6,181.5,420z"/>
		<circle id="XMLID_13_" fill="#FFFFFF" cx="-105.6" cy="456" r="42.7"/>
		<path id="XMLID_58_" fill="#E6E7E8" d="M-82.7,420c4.2,6.6,6.7,14.5,6.7,22.9c0,23.6-19.1,42.7-42.7,42.7
			c-8.4,0-16.3-2.5-22.9-6.7c7.6,11.9,20.9,19.8,36,19.8c23.6,0,42.7-19.1,42.7-42.7C-62.9,440.8-70.8,427.5-82.7,420z"/>
		<circle id="XMLID_12_" fill="#FFFFFF" cx="-41.8" cy="466.6" r="56.2"/>
		<path id="XMLID_54_" fill="#E6E7E8" d="M-11.6,419.2c5.6,8.7,8.8,19.1,8.8,30.2c0,31-25.2,56.2-56.2,56.2
			c-11.1,0-21.4-3.2-30.2-8.8c10,15.7,27.5,26.1,47.4,26.1c31,0,56.2-25.2,56.2-56.2C14.5,446.7,4.1,429.2-11.6,419.2z"/>
		<circle id="XMLID_11_" fill="#FFFFFF" cx="104.3" cy="407.2" r="56.2"/>
		<path id="XMLID_10_" fill="#E6E7E8" d="M136.1,360.8c10,14.5,13,33.4,6.6,51.2c-10.6,29.2-42.9,44.2-72.1,33.6
			c-4.6-1.7-8.8-3.8-12.6-6.5c6.4,9.3,15.6,16.8,27,20.9c29.2,10.6,61.4-4.4,72.1-33.6C166.1,401.8,156.8,375,136.1,360.8z"/>
		<g id="XMLID_19_">
			<rect id="XMLID_1380_" x="-30.6" y="298.9" fill="#FFFFFF" width="118.5" height="70.3"/>
			<g id="XMLID_349_">
				<g id="XMLID_328_">
					
						<rect id="XMLID_1365_" x="-8.9" y="312.4" transform="matrix(-0.5623 -0.8269 0.8269 -0.5623 -257.46 488.7984)" fill="#BCBEC0" width="19.1" height="0.3"/>
					
						<rect id="XMLID_1366_" x="10.2" y="304.8" transform="matrix(-0.9656 -0.26 0.26 -0.9656 -60.9979 617.4559)" fill="#BCBEC0" width="0.3" height="15.9"/>
					
						<rect id="XMLID_1367_" x="54.7" y="305.2" transform="matrix(-8.982757e-02 -0.996 0.996 -8.982757e-02 -255.4811 399.6897)" fill="#BCBEC0" width="0.3" height="22.7"/>
					
						<rect id="XMLID_1368_" x="42.8" y="326" transform="matrix(0.8333 0.5528 -0.5528 0.8333 189.5332 23.7956)" fill="#BCBEC0" width="25" height="0.3"/>
					<path id="XMLID_1371_" fill="#BCBEC0" d="M42.4,318.8l7.1,14l0.2-0.1l-7.4-14.5l-12.2,8.7l-23-5.5l0,0L-9.2,329l-1.7-0.8
						l-0.1,0.3l1.5,0.7l-1.2,0.6l0.1,0.3l1.4-0.7l16.4,7.7l10.1,16.6l24.2-34.2l-0.2-0.1l0.7-0.5l-3.1,25.4l-20.7,8.4h-0.1
						l-2.5,23.5h0.3l2.4-23.4l20.4-8.3l-7,16.5l0.3,0.1l7-16.6l12.6,19.1l0.2-0.2l-12.7-19.3L42.4,318.8z M17.4,352.9l-9.9-16.3l0,0
						l-16.3-7.7l16-7.4l23,5.5h0.1l11-7.8L17.4,352.9z"/>
				</g>
				<g id="XMLID_323_">
					<g id="XMLID_326_">
						<circle id="XMLID_1373_" fill="#3E96D2" cx="-10" cy="328.4" r="8.6"/>
						<circle id="XMLID_1372_" fill="#F47920" cx="17.3" cy="352.7" r="8.6"/>
						<circle id="XMLID_347_" fill="#27B99A" cx="42.5" cy="317.8" r="8.6"/>
						<circle id="XMLID_344_" fill="#F47920" cx="32" cy="361" r="4.5"/>
						<circle id="XMLID_343_" fill="#F47920" cx="51.9" cy="363.5" r="4.5"/>
						<circle id="XMLID_338_" fill="#27B99A" cx="49.6" cy="332.7" r="4.5"/>
						<circle id="XMLID_337_" fill="#27B99A" cx="66.2" cy="315.6" r="4.5"/>
						<circle id="XMLID_335_" fill="#3E96D2" cx="7.3" cy="320.9" r="4.5"/>
						<circle id="XMLID_327_" fill="#3E96D2" cx="-4.7" cy="304.6" r="4.5"/>
						<circle id="XMLID_1364_" fill="#F47920" cx="39.1" cy="344.1" r="2.4"/>
						<circle id="XMLID_1363_" fill="#F47920" cx="15.9" cy="376.1" r="2.4"/>
						<circle id="XMLID_1362_" fill="#3E96D2" cx="12.4" cy="305.1" r="2.4"/>
						<circle id="XMLID_1361_" fill="#27B99A" cx="30.2" cy="326.9" r="2.4"/>
						<circle id="XMLID_332_" fill="#27B99A" cx="65.8" cy="333.1" r="2.4"/>
					</g>
					<circle id="XMLID_325_" fill="#3E96D2" cx="7.3" cy="336.7" r="2.4"/>
				</g>
			</g>
			<path id="XMLID_1138_" fill="#30516C" d="M89.1,290.6H-28.6c-5,0-10.3,3.2-10.3,8.2v83.7c0,5,5.3,11.8,10.3,11.8h45.2
				c0,0,1.9,15.6-14.8,15.6v3.9h54.6v-3.9c-16.7,0-12.4-15.6-12.4-15.6h45.2c5,0,8-6.8,8-11.8v-83.7
				C97.1,293.7,94.1,290.6,89.1,290.6z M30.3,386.7c-2.3,0-4.1-1.8-4.1-4.1c0-2.3,1.8-4.1,4.1-4.1s4.1,1.8,4.1,4.1
				C34.4,384.8,32.5,386.7,30.3,386.7z M87.8,369.2H-30.6v-70.3H87.9v70.3H87.8z"/>
		</g>
		<g id="XMLID_59_">
			<g id="XMLID_99_">
				<rect id="XMLID_115_" x="67.6" y="350.6" fill="#FFFFFF" width="54.6" height="67.6"/>
				<path id="XMLID_100_" fill="#30516C" d="M120.4,340.7H69.3c-2.6,0-4.7,2.1-4.7,4.7v77.9c0,2.6,2.1,4.7,4.7,4.7h51.1
					c2.6,0,4.7-2.1,4.7-4.7v-77.9C125.1,342.8,123,340.7,120.4,340.7 M101.3,344.5c0.5,0,1,0.4,1,1c0,0.5-0.4,1-1,1
					c-0.5,0-1-0.4-1-1C100.3,345,100.7,344.5,101.3,344.5 M87.5,344.9h10.4v1.1H87.5V344.9z M94.9,425.8c-1.5,0-2.7-1.2-2.7-2.7
					s1.2-2.7,2.7-2.7s2.7,1.2,2.7,2.7S96.4,425.8,94.9,425.8 M122.2,418.2H67.6v-67.6h54.6V418.2z"/>
			</g>
			<rect id="XMLID_138_" x="87.5" y="344.9" fill="#BCBEC0" width="10.4" height="1.1"/>
			<circle id="XMLID_139_" fill="#BCBEC0" cx="101.3" cy="345.5" r="1"/>
			<path id="XMLID_140_" fill="#BCBEC0" d="M94.9,420.4c-1.5,0-2.7,1.2-2.7,2.7s1.2,2.7,2.7,2.7s2.7-1.2,2.7-2.7
				C97.6,421.6,96.4,420.4,94.9,420.4z"/>
			<g id="XMLID_84_">
				<path id="XMLID_98_" fill="#539CD5" d="M101.5,387.4c-0.4,1.1-0.9,2.1-1.7,2.9l5.8,8c2.9-2.5,5-5.9,5.8-9.8L101.5,387.4z"/>
				<path id="XMLID_96_" fill="#F47920" d="M95.6,377.2c3.4,0.7,5.9,3.5,6.2,7l9.8,1.1c0-0.1,0-0.2,0-0.3c0-9.2-7.1-16.8-16.1-17.6
					v9.8H95.6z"/>
				<path id="XMLID_94_" fill="#40BDA7" d="M88.2,379.6c1.1-1.2,2.5-2.1,4.2-2.4v-9.9c-5.3,0.5-9.8,3.2-12.8,7.3L88.2,379.6z"/>
				<path id="XMLID_93_" fill="#30516C" d="M97.2,392.2c-1,0.4-2.1,0.7-3.2,0.7c-4.4,0-7.9-3.5-7.9-7.9c0-0.9,0.2-1.7,0.5-2.5
					l-8.5-5c-1.1,2.3-1.7,4.8-1.7,7.6c0,9.8,7.9,17.7,17.7,17.7c3.3,0,6.3-0.9,8.9-2.4L97.2,392.2z"/>
			</g>
		</g>
		<circle id="XMLID_8_" fill="#FFFFFF" cx="-53.9" cy="420" r="44.1"/>
		<path id="XMLID_29_" fill="#E6E7E8" d="M-30.8,382.3c4.1,6.7,6.5,14.6,6.5,23c0,24.4-19.8,44.1-44.1,44.1c-8.4,0-16.3-2.4-23-6.5
			c7.8,12.6,21.7,21.1,37.6,21.1c24.4,0,44.1-19.8,44.1-44.1C-9.8,404-18.2,390.1-30.8,382.3z"/>
		<circle id="XMLID_17_" fill="#FFFFFF" cx="32.7" cy="454.5" r="56.2"/>
		<path id="XMLID_32_" fill="#E6E7E8" d="M62.4,406.8c5.4,8.6,8.5,18.8,8.5,29.7c0,31-25.2,56.2-56.2,56.2
			c-10.9,0-21.1-3.1-29.7-8.5c9.9,15.9,27.6,26.5,47.7,26.5c31,0,56.2-25.2,56.2-56.2C88.9,434.4,78.3,416.7,62.4,406.8z"/>
		<g id="XMLID_30_">
			<rect id="XMLID_74_" x="-77.2" y="432.4" fill="#E6E6E6" width="221" height="29.8"/>
			<rect id="XMLID_693_" x="-78.4" y="431.2" fill="#FFFFFF" width="221" height="29.8"/>
			<path id="XMLID_308_" fill="#27B99A" d="M-54.5,439.9c-2.7-2.7-7.2-2.7-9.9,0c-2.7,2.7-2.7,7.2,0,9.9c2.4,2.4,6,2.7,8.7,1l5,5
				c0.6,0.6,1.6,0.6,2.2,0c0.6-0.6,0.6-1.6,0-2.2l-5-5C-51.8,445.9-52.2,442.3-54.5,439.9z M-56.3,448c-1.7,1.7-4.6,1.7-6.3,0
				c-1.7-1.7-1.7-4.6,0-6.3c1.7-1.7,4.6-1.7,6.3,0C-54.6,443.5-54.6,446.3-56.3,448z"/>
			<path id="XMLID_193_" fill="#BCBEC0" d="M137.2,455c-0.2-0.3-1.1-1.5-1.5-2v-13.5c0.4-0.5,1.3-1.7,1.5-2c0.3-0.3,0.7-0.4,1.4-0.4
				c0.8,0,1.5,0,1.5,0l-0.5-1.3c0,0-0.8,0-1.5,0c-0.8,0-1.1,0-1.4,0.3s-1.5,2-1.7,2.2c-0.1-0.2-1.4-1.9-1.7-2.2
				c-0.3-0.3-0.7-0.3-1.4-0.3c-0.8,0-1.5,0-1.5,0l-0.5,1.3c0,0,0.8,0,1.5,0c0.8,0,1.1,0.1,1.4,0.4c0.2,0.3,1.1,1.5,1.5,2V453
				c-0.4,0.5-1.3,1.7-1.5,2c-0.3,0.3-0.7,0.4-1.4,0.4c-0.8,0-1.5,0-1.5,0l0.5,1.3c0,0,0.8,0,1.5,0c0.8,0,1.1,0,1.4-0.3
				s1.5-1.9,1.7-2.2l0,0c0.2,0.2,1.4,1.8,1.7,2.2c0.3,0.3,0.7,0.3,1.4,0.3c0.8,0,1.5,0,1.5,0l0.5-1.3c0,0-0.8,0-1.5,0
				S137.5,455.4,137.2,455z"/>
			<g id="XMLID_195_">
				
					<text id="XMLID_181_" transform="matrix(1 0 0 1 -44.4037 451.7473)" fill="#6D6E71" font-family="'Lato-Regular'" font-size="16.441px">One Search. All the data.</text>
			</g>
		</g>
		<g id="XMLID_55_">
			<g id="XMLID_859_">
				<g id="XMLID_27_">
					<rect id="XMLID_1640_" x="-48.4" y="350.6" fill="#FFFFFF" width="32.5" height="48.8"/>
					<path id="XMLID_61_" fill="#30516C" d="M-17.3,341.9h-29.9c-2.8,0-5.2,2.3-5.2,5.2v60.7c0,2.9,2.3,5.2,5.2,5.2h29.9
						c2.9,0,5.2-2.3,5.2-5.2v-60.7C-12.1,344.2-14.4,341.9-17.3,341.9 M-20.7,345.1c0.7,0,1.3,0.6,1.3,1.3c0,0.7-0.6,1.3-1.3,1.3
						s-1.3-0.6-1.3-1.3C-22,345.7-21.4,345.1-20.7,345.1 M-39.1,345.6h13.8v1.5h-13.8V345.6z M-32.2,408.8c-1.3,0-2.4-1.1-2.4-2.4
						c0-1.4,1.1-2.4,2.4-2.4c1.4,0,2.4,1.1,2.4,2.4S-30.9,408.8-32.2,408.8 M-16,399.4h-32.5v-48.8H-16V399.4z"/>
				</g>
				<g id="XMLID_47_">
					<rect id="XMLID_46_" x="-43.6" y="357.8" fill="#30516C" width="22.5" height="5"/>
					<rect id="XMLID_48_" x="-43.6" y="367.5" fill="#539CD5" width="17.4" height="5"/>
					<rect id="XMLID_49_" x="-43.6" y="377.1" fill="#999999" width="7.7" height="5"/>
					<rect id="XMLID_64_" x="-43.6" y="386.7" fill="#40BDA7" width="18.3" height="5"/>
				</g>
			</g>
			<rect id="XMLID_113_" x="-39.1" y="345.6" fill="#A7A9AC" width="13.8" height="1.5"/>
			<path id="XMLID_114_" fill="#A7A9AC" d="M-20.7,347.8c0.7,0,1.3-0.6,1.3-1.3s-0.6-1.3-1.3-1.3s-1.3,0.6-1.3,1.3
				S-21.4,347.8-20.7,347.8z"/>
			<circle id="XMLID_116_" fill="#A7A9AC" cx="-32.2" cy="406.3" r="2.4"/>
		</g>
	</g>
	<text transform="matrix(1 0 0 1 -16.0573 237.4226)" fill="#FFFFFF" font-family="'Lato-Bold'" font-size="18px">Let DataFox</text>
	<text transform="matrix(1 0 0 1 -28.4573 259.0226)" fill="#FFFFFF" font-family="'Lato-Bold'" font-size="18px">do it all for you.</text>
	<g id="XMLID_2_">
		<g id="XMLID_34_">
			<path id="XMLID_53_" fill="#3F77A2" d="M23.4,554.1h-4.9c0-0.3,0-0.6,0-0.9c0-9.8,7.9-17.7,17.7-17.7c3.2,0,6.2,0.8,8.8,2.3
				l7.1-7.1c-4.5-3.2-10-5-15.9-5C21,525.7,8.7,538,8.7,553.2c0,0.3,0,0.6,0,0.9H3.2c-0.9,0-1.4,1-0.8,1.7L12.5,568
				c0.4,0.5,1.2,0.5,1.6,0l10.1-12.2C24.8,555.2,24.3,554.1,23.4,554.1z"/>
			<path id="XMLID_50_" fill="#3F77A2" d="M70,550.2L59.9,538c-0.4-0.5-1.2-0.5-1.6,0l-10.1,12.2c-0.6,0.7-0.1,1.7,0.8,1.7h4.9
				c0,0.4,0.1,0.9,0.1,1.3c0,9.8-7.9,17.7-17.7,17.7c-3.2,0-6.2-0.8-8.8-2.3l-7.1,7.1c4.5,3.2,10,5,15.9,5
				c15.2,0,27.5-12.3,27.5-27.5c0-0.4,0-0.9,0-1.3h5.5C70.1,551.9,70.6,550.8,70,550.2z"/>
		</g>
		<g id="XMLID_20_">
			<path id="XMLID_25_" fill="#FFFFFF" d="M17.6,548.3h-4.9c0-0.3,0-0.6,0-0.9c0-9.8,7.9-17.7,17.7-17.7c3.2,0,6.2,0.8,8.8,2.3
				l7.1-7.1c-4.5-3.2-10-5-15.9-5c-15.2,0-27.5,12.3-27.5,27.5c0,0.3,0,0.6,0,0.9h-5.5c-0.9,0-1.4,1-0.8,1.7l10.1,12.2
				c0.4,0.5,1.2,0.5,1.6,0L18.4,550C19,549.4,18.5,548.3,17.6,548.3z"/>
			<path id="XMLID_23_" fill="#FFFFFF" d="M64.2,544.4l-10.1-12.2c-0.4-0.5-1.2-0.5-1.6,0l-10.1,12.2c-0.6,0.7-0.1,1.7,0.8,1.7h4.9
				c0,0.4,0.1,0.9,0.1,1.3c0,9.8-7.9,17.7-17.7,17.7c-3.2,0-6.2-0.8-8.8-2.3l-7.1,7.1c4.5,3.2,10,5,15.9,5
				c15.2,0,27.5-12.3,27.5-27.5c0-0.4,0-0.9,0-1.3h5.5C64.3,546.1,64.8,545,64.2,544.4z"/>
		</g>
	</g>
</g>
</svg>
