<?xml version="1.0" encoding="utf-8"?>
<!-- Generator: Adobe Illustrator 19.0.1, SVG Export Plug-In . SVG Version: 6.00 Build 0)  -->
<svg version="1.1" id="Layer_4" xmlns="http://www.w3.org/2000/svg" xmlns:xlink="http://www.w3.org/1999/xlink" x="0px" y="0px"
	 viewBox="0 0 430 430" enable-background="new 0 0 430 430" xml:space="preserve">
<g id="XMLID_73_">
	<circle id="XMLID_81_" fill="#DCDDDE" cx="215" cy="215" r="215"/>
	<path id="XMLID_90_" fill="#F47920" d="M212.3,408.1c-0.4,0.2-0.8,0.1-1.1-0.2l-10.8-9.6c-0.4-0.4-0.4-1,0-1.4l10.8-9.7
		c0.2-0.2,0.5-0.3,0.7-0.3c0.1,0,0.3,0,0.4,0.1c0.4,0.2,0.6,0.5,0.6,0.9v5.3c9.1,0,14-1.6,17-11.9c0,17.2-10,20.6-17,20.6v5.3
		C212.9,407.5,212.7,407.9,212.3,408.1z"/>
	<g id="XMLID_952_">
		<text id="XMLID_182_" transform="matrix(1 0 0 1 136.8741 352.876)"><tspan x="0" y="0" fill="#58595B" font-family="'Lato-Regular'" font-size="14px">Perpetuate the process in </tspan><tspan x="-11.5" y="16.8" fill="#58595B" font-family="'Lato-Regular'" font-size="14px">order to reveal timely results.</tspan></text>
	</g>
	<g id="XMLID_67_">
		<g id="XMLID_41_">
			<g id="XMLID_3_">
				<path id="XMLID_1293_" fill="#BCBEC0" d="M207.4,161.9h-90.7c-1.1,0-2-0.9-2-2V89.3c0-1.1,0.9-2,2-2h90.7c1.1,0,2,0.9,2,2v70.6
					C209.4,161,208.5,161.9,207.4,161.9z"/>
				<circle id="XMLID_1292_" fill="#FFFFFF" cx="120.5" cy="92.7" r="2.2"/>
				<circle id="XMLID_1291_" fill="#FFFFFF" cx="127" cy="92.7" r="2.2"/>
				<circle id="XMLID_70_" fill="#FFFFFF" cx="133.2" cy="92.7" r="2.2"/>
				<rect id="XMLID_1290_" x="140.7" y="90.5" fill="#FFFFFF" width="65.5" height="4.4"/>
				<path id="XMLID_1289_" fill="#FFFFFF" d="M205.6,158.1h-87.1c-0.6,0-1-0.4-1-1V97.5h89.1v59.6
					C206.6,157.7,206.1,158.1,205.6,158.1z"/>
			</g>
			<g id="XMLID_4_">
				<path id="XMLID_36_" fill="#939598" d="M200.3,154.8h-90.7c-1.1,0-2-0.9-2-2V82.2c0-1.1,0.9-2,2-2h90.7c1.1,0,2,0.9,2,2v70.6
					C202.3,153.9,201.4,154.8,200.3,154.8z"/>
				<circle id="XMLID_33_" fill="#FFFFFF" cx="113.4" cy="85.6" r="2.2"/>
				<circle id="XMLID_28_" fill="#FFFFFF" cx="119.9" cy="85.6" r="2.2"/>
				<circle id="XMLID_22_" fill="#FFFFFF" cx="126.1" cy="85.6" r="2.2"/>
				<rect id="XMLID_21_" x="133.6" y="83.5" fill="#FFFFFF" width="65.5" height="4.4"/>
				<path id="XMLID_16_" fill="#FFFFFF" d="M198.5,151h-87.1c-0.6,0-1-0.4-1-1V90.5h89.1V150C199.5,150.6,199.1,151,198.5,151z"/>
				<g id="XMLID_1272_">
					<path id="XMLID_1287_" fill="#0054A6" d="M133.2,119.1c-1.5,0-2.7-0.5-3-0.8c-0.2-0.2-0.2-0.4-0.2-0.9c0-0.1,0-1,0.1-1.7
						c0-0.1,0-0.3,0.2-0.3c0.2,0,0.2,0.2,0.3,0.3c0.4,1.7,1.6,2.9,3,2.9c0.8,0,2.3-0.6,2.3-2.1c0-1.5-1.3-2.2-2.7-2.8
						c-1.5-0.7-3-1.4-3-3.4c0-1.7,1.3-3.3,3.7-3.3c1.1,0,2.2,0.3,2.5,0.4c0.2,0.1,0.2,0.3,0.2,2c0,0.4,0,0.6-0.3,0.6
						c-0.2,0-0.3-0.1-0.5-0.7c-0.2-0.7-0.6-1.8-2.1-1.8c-1.6,0-2.1,1.1-2.1,1.8c0,1.3,1.1,1.8,2.6,2.4c1.1,0.5,3,1.4,3,3.5
						C137.2,117.3,135.7,119.1,133.2,119.1z"/>
					<path id="XMLID_1284_" fill="#D71920" d="M141.1,113.3c-0.3,0-0.5,0-0.5,1c0,2.1,1.4,3.7,3.4,3.7c0.9,0,1.6-0.3,2.1-0.8
						c0.3-0.3,0.3-0.3,0.4-0.3c0.1,0,0.2,0.1,0.2,0.2c0,0.3-1.3,2-3.7,2c-2.5,0-4.4-1.6-4.4-4.3c0-2.8,2.1-4.6,4.7-4.6
						c2.9,0,3.5,2.1,3.5,2.7c0,0.3-0.2,0.3-0.5,0.3H141.1z M143.4,112.7c0.8,0,1.3-0.4,1.3-0.9c0-1.1-1.3-1.2-1.6-1.2
						c-1.7,0-2.3,1.6-2.3,1.9c0,0.2,0.1,0.2,0.5,0.2H143.4z"/>
					<path id="XMLID_1281_" fill="#EFAC14" d="M152.2,112.2c0-0.7-0.1-1.6-0.9-1.6c-1.1,0-1.5,1.2-1.7,1.6c-0.3,0.9-1.4,0.9-1.4,0.9
						c-0.2,0-0.4-0.1-0.4-0.4c0-0.6,1.2-2.6,4.1-2.6c1.8,0,2.2,0.6,2.2,1.4v5.3c0,0.6,0.1,1.1,0.6,1.1c0.2,0,0.4-0.1,0.5-0.2
						c0.2-0.2,0.2-0.2,0.3-0.2c0.1,0,0.2,0.1,0.2,0.2c0,0.5-1.2,1.3-2,1.3c-0.7,0-1.1-0.6-1.3-1c-0.2-0.4-0.2-0.4-0.3-0.4
						c0,0-0.1,0.1-0.1,0.1c-0.8,0.6-1.8,1.3-2.7,1.3c-1.4,0-1.5-1.3-1.5-1.6c0-1.4,1-2.2,3.9-3.4c0.5-0.2,0.5-0.3,0.5-0.7V112.2z
						 M152.2,114.8c0-0.2-0.1-0.2-0.2-0.2c-0.3,0-0.7,0.2-1,0.4c-1.2,0.6-1.2,1.3-1.2,1.7c0,0.9,0.4,1.2,0.9,1.2
						c0.9,0,1.6-0.7,1.6-2V114.8z"/>
					<path id="XMLID_1278_" fill="#0054A6" d="M159.1,111.3c0,0.1,0,0.3,0.1,0.3c0.1,0,0.2-0.1,0.2-0.2c0-0.1,1-1.1,2.1-1.1
						c0.7,0,1.4,0.4,1.4,1.1c0,0.8-0.7,1.1-1.2,1.1c-0.4,0-0.7-0.2-1-0.5c-0.3-0.4-0.5-0.4-0.6-0.4c-0.4,0-0.9,0.3-0.9,1.9v3.6
						c0,0.8,0,1.3,1,1.3c0.4,0,0.7,0,0.7,0.3c0,0.3-0.2,0.3-0.4,0.3c-0.3,0-1.9-0.1-2.2-0.1c-0.3,0-1.7,0.1-2,0.1
						c-0.1,0-0.3,0-0.3-0.2c0-0.2,0.1-0.2,0.6-0.3c0.8-0.1,0.8-0.3,0.8-1.4v-3.7c0-1.2-0.2-1.2-1-1.3c-0.1,0-0.2,0-0.2-0.2
						c0-0.1,0.1-0.2,0.3-0.3c0.4-0.2,1.5-0.7,1.9-1.2c0,0,0.5-0.5,0.6-0.5c0.2,0,0.2,0.2,0.2,0.3V111.3z"/>
					<path id="XMLID_1275_" fill="#D71920" d="M168.6,118.1c0.9,0,1.8-0.4,2.1-0.7c0,0,0.1-0.1,0.2-0.1s0.2,0.1,0.2,0.2
						c0,0.4-1.4,1.6-3.4,1.6c-2.2,0-4.7-1.3-4.7-4.2c0-3,2.8-4.7,5.2-4.7c0.3,0,2.9,0.2,2.9,1.2c0,0.3-0.1,1.3-0.6,1.3
						c-0.3,0-0.5-0.3-1.2-1.1c-0.6-0.8-0.9-1-1.5-1c-0.8,0-2.8,0.9-2.8,3.9C165.1,116.6,166.8,118.1,168.6,118.1z"/>
					<path id="XMLID_1273_" fill="#00A14B" d="M173.1,109.3c0-1.3,0-1.5-1-1.7c-0.2,0-0.3-0.1-0.3-0.3c0-0.2,0.1-0.2,0.3-0.3
						c0.9-0.2,1.5-0.4,2-0.7c0.2-0.1,0.4-0.2,0.6-0.2c0.3,0,0.3,0.2,0.3,0.3c0,0.1-0.1,0.2-0.1,1.3v3.6c0,0.2,0,0.3,0.1,0.3
						c0.1,0,0.1-0.1,0.1-0.1c1.2-1.1,2-1.4,2.8-1.4c2.7,0,2.7,2,2.7,2.8v4.1c0,1.1,0,1.3,0.8,1.4c0.5,0.1,0.6,0.2,0.6,0.3
						c0,0.2-0.1,0.2-0.6,0.2c-0.2,0-0.5-0.1-1.7-0.1c-0.8,0-1.7,0.1-2,0.1c-0.1,0-0.3,0-0.3-0.2c0-0.2,0.1-0.2,0.6-0.3
						c0.8-0.1,0.8-0.3,0.8-1.4v-3.8c0-0.6,0-2.1-1.7-2.1c-0.2,0-2.2,0-2.2,1.9v4c0,1.1,0,1.3,0.8,1.4c0.5,0.1,0.6,0.2,0.6,0.3
						c0,0.2-0.2,0.2-0.3,0.2c-0.3,0-1.1-0.1-2-0.1c-0.8,0-1.7,0.1-2,0.1c-0.1,0-0.3,0-0.3-0.2c0-0.2,0.1-0.2,0.6-0.3
						c0.8-0.1,0.8-0.3,0.8-1.4V109.3z"/>
				</g>
			</g>
			<g id="XMLID_80_">
				<path id="XMLID_86_" fill="#FFFFFF" d="M116.7,111.3c3.1,3.1,3.1,8.1,0,11.2c-3.1,3.1-8.1,3.1-11.2,0c-3.1-3.1-3.1-8.1,0-11.2
					C108.6,108.2,113.6,108.2,116.7,111.3z"/>
				<path id="XMLID_82_" fill="#F47920" d="M101.7,122.9l-7.9,7.9c-1,1-1,2.5,0,3.5c1,1,2.5,1,3.5,0l7.9-7.9
					c4.3,2.7,10.1,2.2,13.8-1.5c4.3-4.3,4.3-11.4,0-15.7c-4.3-4.3-11.4-4.3-15.7,0C99.5,112.8,99,118.6,101.7,122.9z M105.5,111.3
					c3.1-3.1,8.1-3.1,11.2,0s3.1,8.1,0,11.2s-8.1,3.1-11.2,0S102.4,114.4,105.5,111.3z"/>
			</g>
		</g>
		<g id="XMLID_44_">
			<g id="XMLID_119_">
				<path id="XMLID_125_" fill="#BCBEC0" d="M334.9,161.9h-90.7c-1.1,0-2-0.9-2-2V89.3c0-1.1,0.9-2,2-2h90.7c1.1,0,2,0.9,2,2v70.6
					C336.9,161,336,161.9,334.9,161.9z"/>
				<circle id="XMLID_124_" fill="#FFFFFF" cx="248" cy="92.7" r="2.2"/>
				<circle id="XMLID_123_" fill="#FFFFFF" cx="254.5" cy="92.7" r="2.2"/>
				<circle id="XMLID_122_" fill="#FFFFFF" cx="260.7" cy="92.7" r="2.2"/>
				<rect id="XMLID_121_" x="268.2" y="90.5" fill="#FFFFFF" width="65.5" height="4.4"/>
				<path id="XMLID_120_" fill="#FFFFFF" d="M333.1,158.1H246c-0.6,0-1-0.4-1-1V97.5h89.1v59.6C334.1,157.7,333.7,158.1,333.1,158.1
					z"/>
			</g>
			<g id="XMLID_26_">
				<path id="XMLID_118_" fill="#939598" d="M327.9,154.8h-90.7c-1.1,0-2-0.9-2-2V82.2c0-1.1,0.9-2,2-2h90.7c1.1,0,2,0.9,2,2v70.6
					C329.9,153.9,329,154.8,327.9,154.8z"/>
				<circle id="XMLID_117_" fill="#FFFFFF" cx="241" cy="85.6" r="2.2"/>
				<circle id="XMLID_109_" fill="#FFFFFF" cx="247.5" cy="85.6" r="2.2"/>
				<circle id="XMLID_106_" fill="#FFFFFF" cx="253.6" cy="85.6" r="2.2"/>
				<rect id="XMLID_105_" x="261.2" y="83.5" fill="#FFFFFF" width="65.5" height="4.4"/>
				<path id="XMLID_104_" fill="#FFFFFF" d="M326.1,151H239c-0.6,0-1-0.4-1-1V90.5h89.1V150C327.1,150.6,326.6,151,326.1,151z"/>
				<g id="XMLID_31_">
					<path id="XMLID_102_" fill="#0054A6" d="M260.7,119.1c-1.5,0-2.7-0.5-3-0.8c-0.2-0.2-0.2-0.4-0.2-0.9c0-0.1,0-1,0.1-1.7
						c0-0.1,0-0.3,0.2-0.3c0.2,0,0.2,0.2,0.3,0.3c0.4,1.7,1.6,2.9,3,2.9c0.8,0,2.3-0.6,2.3-2.1c0-1.5-1.3-2.2-2.7-2.8
						c-1.5-0.7-3-1.4-3-3.4c0-1.7,1.3-3.3,3.7-3.3c1.1,0,2.2,0.3,2.5,0.4c0.2,0.1,0.2,0.3,0.2,2c0,0.4,0,0.6-0.3,0.6
						c-0.2,0-0.3-0.1-0.5-0.7c-0.2-0.7-0.6-1.8-2.1-1.8c-1.6,0-2.1,1.1-2.1,1.8c0,1.3,1.1,1.8,2.6,2.4c1.1,0.5,3,1.4,3,3.5
						C264.8,117.3,263.2,119.1,260.7,119.1z"/>
					<path id="XMLID_89_" fill="#D71920" d="M268.6,113.3c-0.3,0-0.5,0-0.5,1c0,2.1,1.4,3.7,3.4,3.7c0.9,0,1.6-0.3,2.1-0.8
						c0.3-0.3,0.3-0.3,0.4-0.3c0.1,0,0.2,0.1,0.2,0.2c0,0.3-1.3,2-3.7,2c-2.5,0-4.4-1.6-4.4-4.3c0-2.8,2.1-4.6,4.7-4.6
						c2.9,0,3.5,2.1,3.5,2.7c0,0.3-0.2,0.3-0.5,0.3H268.6z M270.9,112.7c0.8,0,1.3-0.4,1.3-0.9c0-1.1-1.3-1.2-1.6-1.2
						c-1.7,0-2.3,1.6-2.3,1.9c0,0.2,0.1,0.2,0.5,0.2H270.9z"/>
					<path id="XMLID_52_" fill="#EFAC14" d="M279.7,112.2c0-0.7-0.1-1.6-0.9-1.6c-1.1,0-1.5,1.2-1.7,1.6c-0.3,0.9-1.4,0.9-1.4,0.9
						c-0.2,0-0.4-0.1-0.4-0.4c0-0.6,1.2-2.6,4.1-2.6c1.8,0,2.2,0.6,2.2,1.4v5.3c0,0.6,0.1,1.1,0.6,1.1c0.2,0,0.4-0.1,0.5-0.2
						c0.2-0.2,0.2-0.2,0.3-0.2c0.1,0,0.2,0.1,0.2,0.2c0,0.5-1.2,1.3-2,1.3c-0.7,0-1.1-0.6-1.3-1c-0.2-0.4-0.2-0.4-0.3-0.4
						c0,0-0.1,0.1-0.1,0.1c-0.8,0.6-1.8,1.3-2.7,1.3c-1.4,0-1.5-1.3-1.5-1.6c0-1.4,1-2.2,3.9-3.4c0.5-0.2,0.5-0.3,0.5-0.7V112.2z
						 M279.7,114.8c0-0.2-0.1-0.2-0.2-0.2c-0.3,0-0.7,0.2-1,0.4c-1.2,0.6-1.2,1.3-1.2,1.7c0,0.9,0.4,1.2,0.9,1.2
						c0.9,0,1.6-0.7,1.6-2V114.8z"/>
					<path id="XMLID_43_" fill="#0054A6" d="M286.7,111.3c0,0.1,0,0.3,0.1,0.3c0.1,0,0.2-0.1,0.2-0.2c0-0.1,1-1.1,2.1-1.1
						c0.7,0,1.4,0.4,1.4,1.1c0,0.8-0.7,1.1-1.2,1.1c-0.4,0-0.7-0.2-1-0.5c-0.3-0.4-0.5-0.4-0.6-0.4c-0.4,0-0.9,0.3-0.9,1.9v3.6
						c0,0.8,0,1.3,1,1.3c0.4,0,0.7,0,0.7,0.3c0,0.3-0.2,0.3-0.4,0.3c-0.3,0-1.9-0.1-2.2-0.1c-0.3,0-1.7,0.1-2,0.1
						c-0.1,0-0.3,0-0.3-0.2c0-0.2,0.1-0.2,0.6-0.3c0.8-0.1,0.8-0.3,0.8-1.4v-3.7c0-1.2-0.2-1.2-1-1.3c-0.1,0-0.2,0-0.2-0.2
						c0-0.1,0.1-0.2,0.3-0.3c0.4-0.2,1.5-0.7,1.9-1.2c0,0,0.5-0.5,0.6-0.5c0.2,0,0.2,0.2,0.2,0.3V111.3z"/>
					<path id="XMLID_40_" fill="#D71920" d="M296.2,118.1c0.9,0,1.8-0.4,2.1-0.7c0,0,0.1-0.1,0.2-0.1c0.1,0,0.2,0.1,0.2,0.2
						c0,0.4-1.4,1.6-3.4,1.6c-2.2,0-4.7-1.3-4.7-4.2c0-3,2.8-4.7,5.2-4.7c0.3,0,2.9,0.2,2.9,1.2c0,0.3-0.1,1.3-0.6,1.3
						c-0.3,0-0.5-0.3-1.2-1.1c-0.6-0.8-0.9-1-1.5-1c-0.8,0-2.8,0.9-2.8,3.9C292.6,116.6,294.4,118.1,296.2,118.1z"/>
					<path id="XMLID_38_" fill="#00A14B" d="M300.6,109.3c0-1.3,0-1.5-1-1.7c-0.2,0-0.3-0.1-0.3-0.3c0-0.2,0.1-0.2,0.3-0.3
						c0.9-0.2,1.5-0.4,2-0.7c0.2-0.1,0.4-0.2,0.6-0.2c0.3,0,0.3,0.2,0.3,0.3c0,0.1-0.1,0.2-0.1,1.3v3.6c0,0.2,0,0.3,0.1,0.3
						c0.1,0,0.1-0.1,0.1-0.1c1.2-1.1,2-1.4,2.8-1.4c2.7,0,2.7,2,2.7,2.8v4.1c0,1.1,0,1.3,0.8,1.4c0.5,0.1,0.6,0.2,0.6,0.3
						c0,0.2-0.1,0.2-0.6,0.2c-0.2,0-0.5-0.1-1.7-0.1c-0.8,0-1.7,0.1-2,0.1c-0.1,0-0.3,0-0.3-0.2c0-0.2,0.1-0.2,0.6-0.3
						c0.8-0.1,0.8-0.3,0.8-1.4v-3.8c0-0.6,0-2.1-1.7-2.1c-0.2,0-2.2,0-2.2,1.9v4c0,1.1,0,1.3,0.8,1.4c0.5,0.1,0.6,0.2,0.6,0.3
						c0,0.2-0.2,0.2-0.3,0.2c-0.3,0-1.1-0.1-2-0.1c-0.8,0-1.7,0.1-2,0.1c-0.1,0-0.3,0-0.3-0.2c0-0.2,0.1-0.2,0.6-0.3
						c0.8-0.1,0.8-0.3,0.8-1.4V109.3z"/>
				</g>
			</g>
			<g id="XMLID_5_">
				<path id="XMLID_24_" fill="#FFFFFF" d="M244.2,111.3c3.1,3.1,3.1,8.1,0,11.2s-8.1,3.1-11.2,0s-3.1-8.1,0-11.2
					C236.1,108.2,241.1,108.2,244.2,111.3z"/>
				<path id="XMLID_6_" fill="#F47920" d="M229.2,122.9l-7.9,7.9c-1,1-1,2.5,0,3.5s2.5,1,3.5,0l7.9-7.9c4.3,2.7,10.1,2.2,13.8-1.5
					c4.3-4.3,4.3-11.4,0-15.7c-4.3-4.3-11.4-4.3-15.7,0C227,112.8,226.5,118.6,229.2,122.9z M233,111.3c3.1-3.1,8.1-3.1,11.2,0
					c3.1,3.1,3.1,8.1,0,11.2c-3.1,3.1-8.1,3.1-11.2,0C230,119.4,230,114.4,233,111.3z"/>
			</g>
		</g>
	</g>
	<g id="XMLID_1_">
		<g id="XMLID_492_">
			<rect id="XMLID_539_" x="73.3" y="219.6" fill-rule="evenodd" clip-rule="evenodd" fill="#FFFFFF" width="85" height="110"/>
			<g id="XMLID_493_">
				<rect id="XMLID_538_" x="109" y="226" fill="#D1D3D4" width="43.8" height="3.7"/>
				<rect id="XMLID_537_" x="109" y="238.5" fill="#939598" width="43.8" height="3.7"/>
				<rect id="XMLID_536_" x="109" y="251.1" fill="#D1D3D4" width="43.8" height="3.7"/>
				<rect id="XMLID_535_" x="109" y="244.8" fill="#939598" width="43.8" height="3.7"/>
				<rect id="XMLID_534_" x="109" y="232.3" fill="#D1D3D4" width="43.8" height="3.7"/>
				<rect id="XMLID_533_" x="78.7" y="226" fill="#D1D3D4" width="12.6" height="3.7"/>
				<rect id="XMLID_532_" x="78.7" y="238.5" fill="#939598" width="12.6" height="3.7"/>
				<rect id="XMLID_531_" x="78.7" y="251.1" fill="#D1D3D4" width="12.6" height="3.7"/>
				<rect id="XMLID_530_" x="78.7" y="244.8" fill="#D1D3D4" width="12.6" height="3.7"/>
				<rect id="XMLID_529_" x="78.7" y="232.3" fill="#939598" width="12.6" height="3.7"/>
				<rect id="XMLID_528_" x="93.4" y="226" fill="#D1D3D4" width="12.6" height="3.7"/>
				<rect id="XMLID_527_" x="93.4" y="238.5" fill="#D1D3D4" width="12.6" height="3.7"/>
				<rect id="XMLID_526_" x="93.4" y="251.1" fill="#D1D3D4" width="12.6" height="3.7"/>
				<rect id="XMLID_525_" x="93.4" y="244.8" fill="#D1D3D4" width="12.6" height="3.7"/>
				<rect id="XMLID_524_" x="93.4" y="232.3" fill="#D1D3D4" width="12.6" height="3.7"/>
				<rect id="XMLID_523_" x="109" y="260.2" fill="#D1D3D4" width="43.8" height="3.7"/>
				<rect id="XMLID_522_" x="109" y="272.8" fill="#939598" width="43.8" height="3.7"/>
				<rect id="XMLID_521_" x="109" y="285.3" fill="#D1D3D4" width="43.8" height="3.7"/>
				<rect id="XMLID_520_" x="109" y="279" fill="#939598" width="43.8" height="3.7"/>
				<rect id="XMLID_519_" x="109" y="266.5" fill="#D1D3D4" width="43.8" height="3.7"/>
				<rect id="XMLID_518_" x="78.7" y="260.2" fill="#D1D3D4" width="12.6" height="3.7"/>
				<rect id="XMLID_517_" x="78.7" y="272.8" fill="#939598" width="12.6" height="3.7"/>
				<rect id="XMLID_516_" x="78.7" y="285.3" fill="#D1D3D4" width="12.6" height="3.7"/>
				<rect id="XMLID_515_" x="78.7" y="279" fill="#D1D3D4" width="12.6" height="3.7"/>
				<rect id="XMLID_514_" x="78.7" y="266.5" fill="#939598" width="12.6" height="3.7"/>
				<rect id="XMLID_513_" x="93.4" y="260.2" fill="#D1D3D4" width="12.6" height="3.7"/>
				<rect id="XMLID_512_" x="93.4" y="272.8" fill="#D1D3D4" width="12.6" height="3.7"/>
				<rect id="XMLID_511_" x="93.4" y="285.3" fill="#D1D3D4" width="12.6" height="3.7"/>
				<rect id="XMLID_510_" x="93.4" y="279" fill="#D1D3D4" width="12.6" height="3.7"/>
				<rect id="XMLID_509_" x="93.4" y="266.5" fill="#D1D3D4" width="12.6" height="3.7"/>
				<rect id="XMLID_508_" x="109" y="294.4" fill="#D1D3D4" width="43.8" height="3.7"/>
				<rect id="XMLID_507_" x="109" y="307" fill="#939598" width="43.8" height="3.7"/>
				<rect id="XMLID_506_" x="109" y="319.6" fill="#D1D3D4" width="43.8" height="3.7"/>
				<rect id="XMLID_505_" x="109" y="313.3" fill="#939598" width="43.8" height="3.7"/>
				<rect id="XMLID_504_" x="109" y="300.7" fill="#D1D3D4" width="43.8" height="3.7"/>
				<rect id="XMLID_503_" x="78.7" y="294.4" fill="#D1D3D4" width="12.6" height="3.7"/>
				<rect id="XMLID_502_" x="78.7" y="307" fill="#939598" width="12.6" height="3.7"/>
				<rect id="XMLID_501_" x="78.7" y="319.6" fill="#D1D3D4" width="12.6" height="3.7"/>
				<rect id="XMLID_500_" x="78.7" y="313.3" fill="#D1D3D4" width="12.6" height="3.7"/>
				<rect id="XMLID_499_" x="78.7" y="300.7" fill="#939598" width="12.6" height="3.7"/>
				<rect id="XMLID_498_" x="93.4" y="294.4" fill="#D1D3D4" width="12.6" height="3.7"/>
				<rect id="XMLID_497_" x="93.4" y="307" fill="#D1D3D4" width="12.6" height="3.7"/>
				<rect id="XMLID_496_" x="93.4" y="319.6" fill="#D1D3D4" width="12.6" height="3.7"/>
				<rect id="XMLID_495_" x="93.4" y="313.3" fill="#D1D3D4" width="12.6" height="3.7"/>
				<rect id="XMLID_494_" x="93.4" y="300.7" fill="#D1D3D4" width="12.6" height="3.7"/>
			</g>
		</g>
		<g id="XMLID_456_">
			<rect id="XMLID_491_" x="172.5" y="219.9" fill-rule="evenodd" clip-rule="evenodd" fill="#FFFFFF" width="85" height="110"/>
			<g id="XMLID_484_">
				<path id="XMLID_488_" fill="#D1D3D4" d="M204.9,248c-0.4,1.2-1,2.2-1.8,3.1l6.1,8.5c3.1-2.6,5.3-6.2,6.1-10.4L204.9,248z"/>
				<path id="XMLID_487_" fill="#939598" d="M198.7,237.3c3.5,0.7,6.2,3.7,6.6,7.4l10.4,1.1c0-0.1,0-0.2,0-0.4
					c0-9.7-7.4-17.7-16.9-18.5V237.3z"/>
				<path id="XMLID_486_" fill="#939598" d="M190.9,239.9c1.2-1.3,2.7-2.2,4.4-2.6v-10.4c-5.5,0.5-10.3,3.4-13.4,7.7L190.9,239.9z"
					/>
				<path id="XMLID_485_" fill="#D1D3D4" d="M200.4,253.1c-1,0.5-2.2,0.7-3.4,0.7c-4.6,0-8.3-3.7-8.3-8.3c0-0.9,0.2-1.8,0.5-2.7
					l-9-5.3c-1.1,2.4-1.8,5.1-1.8,8c0,10.3,8.3,18.6,18.6,18.6c3.4,0,6.6-0.9,9.4-2.6L200.4,253.1z"/>
			</g>
			<g id="XMLID_471_">
				<rect id="XMLID_483_" x="208.3" y="307" fill="#939598" width="43.8" height="3.7"/>
				<rect id="XMLID_482_" x="208.3" y="319.6" fill="#D1D3D4" width="43.8" height="3.7"/>
				<rect id="XMLID_481_" x="208.3" y="313.3" fill="#939598" width="43.8" height="3.7"/>
				<rect id="XMLID_480_" x="208.3" y="300.7" fill="#D1D3D4" width="43.8" height="3.7"/>
				<rect id="XMLID_479_" x="177.9" y="307" fill="#939598" width="12.6" height="3.7"/>
				<rect id="XMLID_478_" x="177.9" y="319.6" fill="#D1D3D4" width="12.6" height="3.7"/>
				<rect id="XMLID_477_" x="177.9" y="313.3" fill="#D1D3D4" width="12.6" height="3.7"/>
				<rect id="XMLID_476_" x="177.9" y="300.7" fill="#939598" width="12.6" height="3.7"/>
				<rect id="XMLID_475_" x="192.6" y="307" fill="#D1D3D4" width="12.6" height="3.7"/>
				<rect id="XMLID_474_" x="192.6" y="319.6" fill="#D1D3D4" width="12.6" height="3.7"/>
				<rect id="XMLID_473_" x="192.6" y="313.3" fill="#D1D3D4" width="12.6" height="3.7"/>
				<rect id="XMLID_472_" x="192.6" y="300.7" fill="#D1D3D4" width="12.6" height="3.7"/>
			</g>
			<g id="XMLID_464_">
				<rect id="XMLID_470_" x="185.1" y="282.8" fill-rule="evenodd" clip-rule="evenodd" fill="#939598" width="7.8" height="10.1"/>
				<rect id="XMLID_469_" x="195.5" y="278.5" fill-rule="evenodd" clip-rule="evenodd" fill="#939598" width="7.8" height="14.5"/>
				<rect id="XMLID_468_" x="205.9" y="271.8" fill-rule="evenodd" clip-rule="evenodd" fill="#939598" width="7.8" height="21.2"/>
				<rect id="XMLID_467_" x="216.3" y="282.8" fill-rule="evenodd" clip-rule="evenodd" fill="#939598" width="7.8" height="10.1"/>
				<rect id="XMLID_466_" x="226.7" y="265.9" fill-rule="evenodd" clip-rule="evenodd" fill="#939598" width="7.8" height="27.1"/>
				<rect id="XMLID_465_" x="237.1" y="288" fill-rule="evenodd" clip-rule="evenodd" fill="#939598" width="7.8" height="5"/>
			</g>
			<g id="XMLID_457_">
				<rect id="XMLID_463_" x="221.4" y="233.3" fill="#D1D3D4" width="30.4" height="2.6"/>
				<rect id="XMLID_462_" x="221.4" y="237.5" fill="#D1D3D4" width="30.4" height="2.6"/>
				<rect id="XMLID_461_" x="221.4" y="241.7" fill="#D1D3D4" width="30.4" height="2.6"/>
				<rect id="XMLID_460_" x="221.4" y="245.9" fill="#D1D3D4" width="30.4" height="2.6"/>
				<rect id="XMLID_459_" x="221.4" y="250.1" fill="#D1D3D4" width="30.4" height="2.6"/>
				<rect id="XMLID_458_" x="221.4" y="254.3" fill="#D1D3D4" width="18.7" height="2.6"/>
			</g>
		</g>
		<g id="XMLID_413_">
			<rect id="XMLID_455_" x="271.7" y="219.9" fill-rule="evenodd" clip-rule="evenodd" fill="#FFFFFF" width="85" height="110"/>
			<g id="XMLID_444_">
				<polyline id="XMLID_454_" fill="none" stroke="#939598" stroke-width="1.75" stroke-miterlimit="10" points="290.9,239.2 
					304.5,241.3 319.3,232.7 335.4,237.2 				"/>
				<circle id="XMLID_453_" fill="#939598" cx="304.5" cy="241.3" r="2"/>
				<circle id="XMLID_452_" fill="#939598" cx="319.3" cy="232.7" r="2"/>
				<circle id="XMLID_451_" fill="#939598" cx="335.4" cy="237.2" r="2"/>
				<circle id="XMLID_450_" fill="#939598" cx="290.9" cy="239.2" r="2"/>
				<polyline id="XMLID_449_" fill="none" stroke="#939598" stroke-width="1.75" stroke-miterlimit="10" points="298.8,254.9 
					315.2,245.5 328,251.8 341.7,243.3 				"/>
				<circle id="XMLID_448_" fill="#939598" cx="315.2" cy="245.5" r="2"/>
				<circle id="XMLID_447_" fill="#939598" cx="328" cy="251.8" r="2"/>
				<circle id="XMLID_446_" fill="#939598" cx="341.7" cy="243.3" r="2"/>
				<circle id="XMLID_445_" fill="#939598" cx="298.8" cy="254.9" r="2"/>
			</g>
			<g id="XMLID_437_">
				<rect id="XMLID_443_" x="278.5" y="299.9" fill="#D1D3D4" width="33.8" height="2.6"/>
				<rect id="XMLID_442_" x="278.5" y="304.1" fill="#D1D3D4" width="33.8" height="2.6"/>
				<rect id="XMLID_441_" x="278.5" y="308.3" fill="#D1D3D4" width="33.8" height="2.6"/>
				<rect id="XMLID_440_" x="278.5" y="312.5" fill="#D1D3D4" width="33.8" height="2.6"/>
				<rect id="XMLID_439_" x="278.5" y="316.7" fill="#D1D3D4" width="33.8" height="2.6"/>
				<rect id="XMLID_438_" x="278.5" y="320.9" fill="#D1D3D4" width="20.8" height="2.6"/>
			</g>
			<g id="XMLID_430_">
				<rect id="XMLID_436_" x="318.8" y="299.9" fill="#D1D3D4" width="33.8" height="2.6"/>
				<rect id="XMLID_435_" x="318.8" y="304.1" fill="#D1D3D4" width="33.8" height="2.6"/>
				<rect id="XMLID_434_" x="318.8" y="308.3" fill="#D1D3D4" width="33.8" height="2.6"/>
				<rect id="XMLID_433_" x="318.8" y="312.5" fill="#D1D3D4" width="33.8" height="2.6"/>
				<rect id="XMLID_432_" x="318.8" y="316.7" fill="#D1D3D4" width="33.8" height="2.6"/>
				<rect id="XMLID_431_" x="318.8" y="320.9" fill="#D1D3D4" width="12.6" height="2.6"/>
			</g>
			<g id="XMLID_414_">
				<rect id="XMLID_429_" x="308.8" y="264.6" fill="#D1D3D4" width="43.8" height="3.7"/>
				<rect id="XMLID_428_" x="308.8" y="277.2" fill="#939598" width="43.8" height="3.7"/>
				<rect id="XMLID_427_" x="308.8" y="289.8" fill="#D1D3D4" width="43.8" height="3.7"/>
				<rect id="XMLID_426_" x="308.8" y="283.5" fill="#939598" width="43.8" height="3.7"/>
				<rect id="XMLID_425_" x="308.8" y="270.9" fill="#D1D3D4" width="43.8" height="3.7"/>
				<rect id="XMLID_424_" x="278.5" y="264.6" fill="#D1D3D4" width="12.6" height="3.7"/>
				<rect id="XMLID_423_" x="278.5" y="277.2" fill="#939598" width="12.6" height="3.7"/>
				<rect id="XMLID_422_" x="278.5" y="289.8" fill="#D1D3D4" width="12.6" height="3.7"/>
				<rect id="XMLID_421_" x="278.5" y="283.5" fill="#D1D3D4" width="12.6" height="3.7"/>
				<rect id="XMLID_420_" x="278.5" y="270.9" fill="#939598" width="12.6" height="3.7"/>
				<rect id="XMLID_419_" x="293.2" y="264.6" fill="#D1D3D4" width="12.6" height="3.7"/>
				<rect id="XMLID_418_" x="293.2" y="277.2" fill="#D1D3D4" width="12.6" height="3.7"/>
				<rect id="XMLID_417_" x="293.2" y="289.8" fill="#D1D3D4" width="12.6" height="3.7"/>
				<rect id="XMLID_416_" x="293.2" y="283.5" fill="#D1D3D4" width="12.6" height="3.7"/>
				<rect id="XMLID_415_" x="293.2" y="270.9" fill="#D1D3D4" width="12.6" height="3.7"/>
			</g>
		</g>
	</g>
	<g id="XMLID_56_">
		<path id="XMLID_78_" fill="#FFFFFF" d="M358.4,242h2.2c-0.6-4.5-4.2-8.1-8.7-8.7v2.2c0,0.4-0.3,0.7-0.7,0.7h-1.5
			c-0.4,0-0.7-0.3-0.7-0.7v-2.2c-4.5,0.6-8.1,4.2-8.7,8.7h2.2c0.4,0,0.7,0.3,0.7,0.7v1.5c0,0.4-0.3,0.7-0.7,0.7h-2.2
			c0.6,4.5,4.2,8.1,8.7,8.7v-2.2c0-0.4,0.3-0.7,0.7-0.7h1.5c0.4,0,0.7,0.3,0.7,0.7v2.2c4.5-0.6,8.1-4.2,8.7-8.7h-2.2
			c-0.4,0-0.7-0.3-0.7-0.7v-1.5C357.7,242.3,358,242,358.4,242z"/>
		<g id="XMLID_57_">
			<path id="XMLID_60_" fill="#F47920" d="M366.1,242h-2.5c-0.7-6.1-5.6-11.1-11.7-11.7v-2.5c0-0.4-0.3-0.7-0.7-0.7h-1.5
				c-0.4,0-0.7,0.3-0.7,0.7v2.5c-6.1,0.7-11.1,5.6-11.7,11.7h-2.5c-0.4,0-0.7,0.3-0.7,0.7v1.5c0,0.4,0.3,0.7,0.7,0.7h2.5
				c0.7,6.1,5.6,11.1,11.7,11.7v2.5c0,0.4,0.3,0.7,0.7,0.7h1.5c0.4,0,0.7-0.3,0.7-0.7v-2.5c6.1-0.7,11.1-5.6,11.7-11.7h2.5
				c0.4,0,0.7-0.3,0.7-0.7v-1.5C366.8,242.3,366.5,242,366.1,242L366.1,242z M342.5,244.9c0.4,0,0.7-0.3,0.7-0.7v-1.5
				c0-0.4-0.3-0.7-0.7-0.7h-2.2c0.6-4.5,4.2-8.1,8.7-8.7v2.2c0,0.4,0.3,0.7,0.7,0.7h1.5c0.4,0,0.7-0.3,0.7-0.7v-2.2
				c4.5,0.6,8.1,4.2,8.7,8.7h-2.2c-0.4,0-0.7,0.3-0.7,0.7v1.5c0,0.4,0.3,0.7,0.7,0.7h2.2c-0.6,4.5-4.2,8.1-8.7,8.7v-2.2
				c0-0.4-0.3-0.7-0.7-0.7h-1.5c-0.4,0-0.7,0.3-0.7,0.7v2.2c-4.5-0.6-8.1-4.2-8.7-8.7H342.5z M342.5,244.9"/>
		</g>
	</g>
	<text id="XMLID_37_" transform="matrix(1 0 0 1 155.4449 46.7047)"><tspan x="0" y="0" fill="#58595B" font-family="'Lato-Regular'" font-size="14px">Diligently scour the</tspan><tspan x="-6" y="16.8" fill="#58595B" font-family="'Lato-Regular'" font-size="14px">web for valuable intel</tspan></text>
	<text id="XMLID_45_" transform="matrix(1 0 0 1 125.5139 184.9251)"><tspan x="0" y="0" fill="#58595B" font-family="'Lato-Regular'" font-size="14px">Manually track data patterns  </tspan><tspan x="-12.3" y="16.8" fill="#58595B" font-family="'Lato-Regular'" font-size="14px">within stale lists &amp; spreadsheets...</tspan></text>
</g>
</svg>
