<?xml version="1.0" encoding="utf-8"?>
<!-- Generator: Adobe Illustrator 19.0.1, SVG Export Plug-In . SVG Version: 6.00 Build 0)  -->
<svg version="1.1" id="Layer_1" xmlns="http://www.w3.org/2000/svg" xmlns:xlink="http://www.w3.org/1999/xlink" x="0px" y="0px"
	 viewBox="0 0 112 112" enable-background="new 0 0 112 112" xml:space="preserve">
<path id="XMLID_1189_" fill="#FFFFFF" d="M56,0C25.1,0,0,25.1,0,56c0,30.9,25.1,56,56,56c30.9,0,56-25.1,56-56C112,25.1,86.9,0,56,0
	z M84.6,75.5l-8.3,8.2c-0.4,0.4-0.9,0.8-1.5,1.1c-0.6,0.3-1.2,0.5-1.8,0.6c0,0-0.2,0-0.4,0c-0.2,0-0.5,0-0.8,0
	c-0.8,0-2.1-0.1-3.8-0.4c-1.8-0.3-3.9-0.9-6.5-2c-2.6-1.1-5.5-2.6-8.7-4.8c-3.2-2.1-6.7-5-10.4-8.7c-2.9-2.9-5.3-5.6-7.2-8.2
	c-1.9-2.6-3.5-5-4.6-7.3c-1.2-2.2-2-4.2-2.6-6c-0.6-1.8-1-3.4-1.2-4.7c-0.2-1.3-0.3-2.3-0.3-3.1c0-0.7,0.1-1.2,0.1-1.2
	c0.1-0.6,0.3-1.2,0.6-1.8c0.3-0.6,0.6-1.1,1.1-1.5l8.3-8.3c0.6-0.6,1.2-0.9,2-0.9c0.5,0,1,0.2,1.4,0.5c0.4,0.3,0.8,0.7,1.1,1.2
	l6.7,12.7c0.4,0.7,0.5,1.4,0.3,2.2c-0.2,0.8-0.5,1.5-1.1,2l-3.1,3.1c-0.1,0.1-0.2,0.2-0.2,0.4c-0.1,0.2-0.1,0.3-0.1,0.5
	c0.2,0.9,0.5,1.9,1.1,3c0.5,1,1.3,2.2,2.3,3.6c1,1.4,2.5,3.1,4.4,5c1.9,1.9,3.5,3.4,5,4.5c1.5,1.1,2.7,1.8,3.6,2.3
	c1,0.5,1.7,0.8,2.2,0.9l0.8,0.2c0.1,0,0.2,0,0.4-0.1c0.2-0.1,0.3-0.1,0.4-0.2l3.6-3.6c0.7-0.7,1.6-1,2.6-1c0.7,0,1.3,0.1,1.7,0.4
	h0.1l12,7.1c0.9,0.5,1.4,1.2,1.6,2.1C85.6,74,85.3,74.8,84.6,75.5z"/>
</svg>
