<?xml version="1.0" encoding="utf-8"?>
<!-- Generator: Adobe Illustrator 19.0.1, SVG Export Plug-In . SVG Version: 6.00 Build 0)  -->
<svg version="1.1" xmlns="http://www.w3.org/2000/svg" xmlns:xlink="http://www.w3.org/1999/xlink" x="0px" y="0px"
	 viewBox="47 -47.4 890 890" enable-background="new 47 -47.4 890 890" xml:space="preserve">
<g id="Capa_1">
	<circle fill="#27B99A" cx="492" cy="397.6" r="445"/>
</g>
<g id="Layer_3">
	<g>
		<path fill="#FFFFFF" d="M529.4,508.9c0,0.3,0,0.5,0,0.8v21.1c0,9.8-7.9,17.7-17.7,17.7h-35.1c-9.8,0-17.7-7.9-17.7-17.7v-21.1
			c0-0.3,0-0.5,0-0.8H263.4c-4.6,0-9.1-0.6-13.4-1.8v93.9c0,17.9,14.5,32.4,32.4,32.4h423.7c17.9,0,32.4-14.5,32.4-32.4v-93.9
			c-4.3,1.2-8.7,1.8-13.4,1.8H529.4z"/>
		<path fill="#FFFFFF" d="M513,371c-1.4-1.2-3-2.3-4.9-3.2c-1.9-0.9-3.9-1.7-6.1-2.5l-2.9,34.6c6-0.8,10.6-2.8,13.7-6.1
			c3.1-3.3,4.6-7.5,4.6-12.8c0-2.2-0.4-4-1.1-5.7C515.5,373.7,514.4,372.2,513,371z"/>
		<path fill="#FFFFFF" d="M480.1,315.3c-1.4,1.4-2.5,2.9-3.1,4.6c-0.7,1.7-1,3.5-1,5.3c0,2.2,0.4,4.1,1.1,5.7
			c0.7,1.6,1.8,3.1,3.1,4.4c1.3,1.3,2.9,2.4,4.7,3.4c1.8,1,3.8,1.9,6,2.7l2.6-31.5c-3.1,0.4-5.8,1.1-8,2
			C483.4,312.8,481.5,314,480.1,315.3z"/>
		<path fill="#FFFFFF" d="M725.1,234.1H610.2v-8.8v-8.8v-14.9c0-19.5-15.8-35.3-35.3-35.3H413.6c-19.5,0-35.3,15.8-35.3,35.3v14.9
			v8.8v8.8H263.4c-17.9,0-32.4,14.5-32.4,32.4v192.4c0,13.1,7.8,24.4,19,29.5c4.1,1.9,8.6,2.9,13.4,2.9h461.7c4.8,0,9.3-1,13.4-2.9
			c11.2-5.1,19-16.4,19-29.5V266.5C757.4,248.6,742.9,234.1,725.1,234.1z M534.7,392.6c-1.8,4.6-4.3,8.7-7.7,12.3
			c-3.4,3.5-7.5,6.4-12.5,8.6c-4.9,2.2-10.6,3.5-16.9,4l-1,12.5c-0.1,1.3-0.7,2.5-1.7,3.6s-2.4,1.7-4,1.7h-7.7l1.5-18.2
			c-6.6-0.9-12.9-2.7-18.7-5.5c-5.8-2.7-10.8-6.1-14.9-10.1l6.5-9.6c0.6-0.9,1.3-1.5,2.3-2.1c0.9-0.5,1.9-0.8,2.9-0.8
			c1.2,0,2.6,0.4,4,1.3c1.4,0.9,3,1.9,4.9,3.1c1.8,1.2,3.9,2.4,6.2,3.6c2.3,1.2,5.1,2.1,8.3,2.6l3.2-38.2c-4-1.1-8-2.5-12-4
			c-3.9-1.5-7.5-3.6-10.6-6.1c-3.2-2.5-5.7-5.7-7.6-9.6c-1.9-3.9-2.9-8.7-2.9-14.5c0-4.3,0.9-8.6,2.6-12.7c1.7-4.1,4.2-7.8,7.5-11.1
			c3.3-3.2,7.4-5.9,12.2-8c4.8-2.1,10.4-3.2,16.6-3.2l0.9-10.8c0.1-1.4,0.7-2.6,1.7-3.7c1-1.1,2.4-1.6,4-1.6h7.7l-1.4,16.7
			c6,1,11.2,2.7,15.6,5.1c4.4,2.4,8.2,5.2,11.4,8.3l-5.1,7.7c-0.8,1.1-1.6,2-2.4,2.6c-0.8,0.6-1.8,0.9-2.9,0.9c-0.9,0-1.9-0.3-3-0.8
			c-1.2-0.5-2.5-1.2-4-2c-1.5-0.8-3.2-1.5-5-2.3c-1.8-0.8-3.8-1.4-6-2l-3,35.3c4.1,1.2,8.1,2.6,12.1,4.1c4,1.5,7.6,3.5,10.8,5.8
			c3.2,2.4,5.8,5.4,7.8,8.9c2,3.5,3,8,3,13.3C537.4,383,536.5,387.9,534.7,392.6z M413.6,234.1v-8.8v-8.8v-14.9h161.3l0,14.9l0,8.8
			l0,8.8H413.6z"/>
	</g>
</g>
</svg>
